G04 #@! TF.GenerationSoftware,KiCad,Pcbnew,(5.1.2-1)-1*
G04 #@! TF.CreationDate,2023-04-29T13:33:38+02:00*
G04 #@! TF.ProjectId,PicoClockRadio,5069636f-436c-46f6-936b-526164696f2e,rev?*
G04 #@! TF.SameCoordinates,Original*
G04 #@! TF.FileFunction,Legend,Top*
G04 #@! TF.FilePolarity,Positive*
%FSLAX46Y46*%
G04 Gerber Fmt 4.6, Leading zero omitted, Abs format (unit mm)*
G04 Created by KiCad (PCBNEW (5.1.2-1)-1) date 2023-04-29 13:33:38*
%MOMM*%
%LPD*%
G04 APERTURE LIST*
%ADD10C,0.150000*%
%ADD11C,0.120000*%
%ADD12C,0.100000*%
G04 APERTURE END LIST*
D10*
X118578500Y-82517573D02*
X119530881Y-82517573D01*
X118388024Y-83089001D02*
X119054691Y-81089001D01*
X119721358Y-83089001D01*
X120388024Y-81089001D02*
X120388024Y-82708049D01*
X120483262Y-82898525D01*
X120578500Y-82993763D01*
X120768977Y-83089001D01*
X121149929Y-83089001D01*
X121340405Y-82993763D01*
X121435643Y-82898525D01*
X121530881Y-82708049D01*
X121530881Y-81089001D01*
X122483262Y-83089001D02*
X122483262Y-81089001D01*
X122959453Y-81089001D01*
X123245167Y-81184240D01*
X123435643Y-81374716D01*
X123530881Y-81565192D01*
X123626120Y-81946144D01*
X123626120Y-82231859D01*
X123530881Y-82612811D01*
X123435643Y-82803287D01*
X123245167Y-82993763D01*
X122959453Y-83089001D01*
X122483262Y-83089001D01*
X124483262Y-83089001D02*
X124483262Y-81089001D01*
X125816596Y-81089001D02*
X126197548Y-81089001D01*
X126388024Y-81184240D01*
X126578500Y-81374716D01*
X126673739Y-81755668D01*
X126673739Y-82422335D01*
X126578500Y-82803287D01*
X126388024Y-82993763D01*
X126197548Y-83089001D01*
X125816596Y-83089001D01*
X125626120Y-82993763D01*
X125435643Y-82803287D01*
X125340405Y-82422335D01*
X125340405Y-81755668D01*
X125435643Y-81374716D01*
X125626120Y-81184240D01*
X125816596Y-81089001D01*
X106436445Y-82598853D02*
X107388826Y-82598853D01*
X106245969Y-83170281D02*
X106912636Y-81170281D01*
X107579302Y-83170281D01*
X108245969Y-83170281D02*
X108245969Y-81170281D01*
X109388826Y-83170281D01*
X109388826Y-81170281D01*
X110055493Y-81170281D02*
X111198350Y-81170281D01*
X110626921Y-83170281D02*
X110626921Y-81170281D01*
X125008640Y-83810971D02*
X127865782Y-86668114D01*
X125008640Y-89525257D01*
X122151497Y-86668114D01*
X125008640Y-83810971D01*
X125008640Y-89525257D01*
X125008640Y-89387779D02*
X125008640Y-94149683D01*
X120246735Y-92244921D02*
X125008640Y-94149683D01*
X129770544Y-92244921D01*
X122151497Y-97959207D02*
X125008640Y-94149683D01*
X127865782Y-97959207D01*
X102022830Y-124205502D02*
X101975211Y-124253121D01*
X101832354Y-124300740D01*
X101737116Y-124300740D01*
X101594259Y-124253121D01*
X101499020Y-124157883D01*
X101451401Y-124062645D01*
X101403782Y-123872169D01*
X101403782Y-123729312D01*
X101451401Y-123538836D01*
X101499020Y-123443598D01*
X101594259Y-123348360D01*
X101737116Y-123300740D01*
X101832354Y-123300740D01*
X101975211Y-123348360D01*
X102022830Y-123395979D01*
X102594259Y-124300740D02*
X102499020Y-124253121D01*
X102451401Y-124205502D01*
X102403782Y-124110264D01*
X102403782Y-123824550D01*
X102451401Y-123729312D01*
X102499020Y-123681693D01*
X102594259Y-123634074D01*
X102737116Y-123634074D01*
X102832354Y-123681693D01*
X102879973Y-123729312D01*
X102927592Y-123824550D01*
X102927592Y-124110264D01*
X102879973Y-124205502D01*
X102832354Y-124253121D01*
X102737116Y-124300740D01*
X102594259Y-124300740D01*
X103356163Y-123634074D02*
X103356163Y-124634074D01*
X103356163Y-123681693D02*
X103451401Y-123634074D01*
X103641878Y-123634074D01*
X103737116Y-123681693D01*
X103784735Y-123729312D01*
X103832354Y-123824550D01*
X103832354Y-124110264D01*
X103784735Y-124205502D01*
X103737116Y-124253121D01*
X103641878Y-124300740D01*
X103451401Y-124300740D01*
X103356163Y-124253121D01*
X104165687Y-123634074D02*
X104403782Y-124300740D01*
X104641878Y-123634074D02*
X104403782Y-124300740D01*
X104308544Y-124538836D01*
X104260925Y-124586455D01*
X104165687Y-124634074D01*
X105022830Y-124300740D02*
X105022830Y-123634074D01*
X105022830Y-123824550D02*
X105070449Y-123729312D01*
X105118068Y-123681693D01*
X105213306Y-123634074D01*
X105308544Y-123634074D01*
X105641878Y-124300740D02*
X105641878Y-123634074D01*
X105641878Y-123300740D02*
X105594259Y-123348360D01*
X105641878Y-123395979D01*
X105689497Y-123348360D01*
X105641878Y-123300740D01*
X105641878Y-123395979D01*
X106546639Y-123634074D02*
X106546639Y-124443598D01*
X106499020Y-124538836D01*
X106451401Y-124586455D01*
X106356163Y-124634074D01*
X106213306Y-124634074D01*
X106118068Y-124586455D01*
X106546639Y-124253121D02*
X106451401Y-124300740D01*
X106260925Y-124300740D01*
X106165687Y-124253121D01*
X106118068Y-124205502D01*
X106070449Y-124110264D01*
X106070449Y-123824550D01*
X106118068Y-123729312D01*
X106165687Y-123681693D01*
X106260925Y-123634074D01*
X106451401Y-123634074D01*
X106546639Y-123681693D01*
X107022830Y-124300740D02*
X107022830Y-123300740D01*
X107451401Y-124300740D02*
X107451401Y-123776931D01*
X107403782Y-123681693D01*
X107308544Y-123634074D01*
X107165687Y-123634074D01*
X107070449Y-123681693D01*
X107022830Y-123729312D01*
X107784735Y-123634074D02*
X108165687Y-123634074D01*
X107927592Y-123300740D02*
X107927592Y-124157883D01*
X107975211Y-124253121D01*
X108070449Y-124300740D01*
X108165687Y-124300740D01*
X109546639Y-124681693D02*
X109499020Y-124634074D01*
X109403782Y-124491217D01*
X109356163Y-124395979D01*
X109308544Y-124253121D01*
X109260925Y-124015026D01*
X109260925Y-123824550D01*
X109308544Y-123586455D01*
X109356163Y-123443598D01*
X109403782Y-123348360D01*
X109499020Y-123205502D01*
X109546639Y-123157883D01*
X110356163Y-124253121D02*
X110260925Y-124300740D01*
X110070449Y-124300740D01*
X109975211Y-124253121D01*
X109927592Y-124205502D01*
X109879973Y-124110264D01*
X109879973Y-123824550D01*
X109927592Y-123729312D01*
X109975211Y-123681693D01*
X110070449Y-123634074D01*
X110260925Y-123634074D01*
X110356163Y-123681693D01*
X110689497Y-124681693D02*
X110737116Y-124634074D01*
X110832354Y-124491217D01*
X110879973Y-124395979D01*
X110927592Y-124253121D01*
X110975211Y-124015026D01*
X110975211Y-123824550D01*
X110927592Y-123586455D01*
X110879973Y-123443598D01*
X110832354Y-123348360D01*
X110737116Y-123205502D01*
X110689497Y-123157883D01*
X112784735Y-124300740D02*
X112451401Y-123824550D01*
X112213306Y-124300740D02*
X112213306Y-123300740D01*
X112594259Y-123300740D01*
X112689497Y-123348360D01*
X112737116Y-123395979D01*
X112784735Y-123491217D01*
X112784735Y-123634074D01*
X112737116Y-123729312D01*
X112689497Y-123776931D01*
X112594259Y-123824550D01*
X112213306Y-123824550D01*
X113356163Y-124300740D02*
X113260925Y-124253121D01*
X113213306Y-124205502D01*
X113165687Y-124110264D01*
X113165687Y-123824550D01*
X113213306Y-123729312D01*
X113260925Y-123681693D01*
X113356163Y-123634074D01*
X113499020Y-123634074D01*
X113594259Y-123681693D01*
X113641878Y-123729312D01*
X113689497Y-123824550D01*
X113689497Y-124110264D01*
X113641878Y-124205502D01*
X113594259Y-124253121D01*
X113499020Y-124300740D01*
X113356163Y-124300740D01*
X114260925Y-124300740D02*
X114165687Y-124253121D01*
X114118068Y-124157883D01*
X114118068Y-123300740D01*
X115070449Y-124300740D02*
X115070449Y-123776931D01*
X115022830Y-123681693D01*
X114927592Y-123634074D01*
X114737116Y-123634074D01*
X114641878Y-123681693D01*
X115070449Y-124253121D02*
X114975211Y-124300740D01*
X114737116Y-124300740D01*
X114641878Y-124253121D01*
X114594259Y-124157883D01*
X114594259Y-124062645D01*
X114641878Y-123967407D01*
X114737116Y-123919788D01*
X114975211Y-123919788D01*
X115070449Y-123872169D01*
X115546639Y-123634074D02*
X115546639Y-124300740D01*
X115546639Y-123729312D02*
X115594259Y-123681693D01*
X115689497Y-123634074D01*
X115832354Y-123634074D01*
X115927592Y-123681693D01*
X115975211Y-123776931D01*
X115975211Y-124300740D01*
X116879973Y-124300740D02*
X116879973Y-123300740D01*
X116879973Y-124253121D02*
X116784735Y-124300740D01*
X116594259Y-124300740D01*
X116499020Y-124253121D01*
X116451401Y-124205502D01*
X116403782Y-124110264D01*
X116403782Y-123824550D01*
X116451401Y-123729312D01*
X116499020Y-123681693D01*
X116594259Y-123634074D01*
X116784735Y-123634074D01*
X116879973Y-123681693D01*
X118594259Y-124300740D02*
X118118068Y-124300740D01*
X118118068Y-123300740D01*
X119308544Y-124253121D02*
X119213306Y-124300740D01*
X119022830Y-124300740D01*
X118927592Y-124253121D01*
X118879973Y-124157883D01*
X118879973Y-123776931D01*
X118927592Y-123681693D01*
X119022830Y-123634074D01*
X119213306Y-123634074D01*
X119308544Y-123681693D01*
X119356163Y-123776931D01*
X119356163Y-123872169D01*
X118879973Y-123967407D01*
X120213306Y-123634074D02*
X120213306Y-124300740D01*
X119784735Y-123634074D02*
X119784735Y-124157883D01*
X119832354Y-124253121D01*
X119927592Y-124300740D01*
X120070449Y-124300740D01*
X120165687Y-124253121D01*
X120213306Y-124205502D01*
X120689497Y-124300740D02*
X120689497Y-123634074D01*
X120689497Y-123824550D02*
X120737116Y-123729312D01*
X120784735Y-123681693D01*
X120879973Y-123634074D01*
X120975211Y-123634074D01*
X121260925Y-124253121D02*
X121356163Y-124300740D01*
X121546639Y-124300740D01*
X121641878Y-124253121D01*
X121689497Y-124157883D01*
X121689497Y-124110264D01*
X121641878Y-124015026D01*
X121546639Y-123967407D01*
X121403782Y-123967407D01*
X121308544Y-123919788D01*
X121260925Y-123824550D01*
X121260925Y-123776931D01*
X121308544Y-123681693D01*
X121403782Y-123634074D01*
X121546639Y-123634074D01*
X121641878Y-123681693D01*
X108165687Y-125950740D02*
X108165687Y-125284074D01*
X108165687Y-125379312D02*
X108213306Y-125331693D01*
X108308544Y-125284074D01*
X108451401Y-125284074D01*
X108546640Y-125331693D01*
X108594259Y-125426931D01*
X108594259Y-125950740D01*
X108594259Y-125426931D02*
X108641878Y-125331693D01*
X108737116Y-125284074D01*
X108879973Y-125284074D01*
X108975211Y-125331693D01*
X109022830Y-125426931D01*
X109022830Y-125950740D01*
X109879973Y-125903121D02*
X109784735Y-125950740D01*
X109594259Y-125950740D01*
X109499020Y-125903121D01*
X109451401Y-125807883D01*
X109451401Y-125426931D01*
X109499020Y-125331693D01*
X109594259Y-125284074D01*
X109784735Y-125284074D01*
X109879973Y-125331693D01*
X109927592Y-125426931D01*
X109927592Y-125522169D01*
X109451401Y-125617407D01*
X110356163Y-125950740D02*
X110356163Y-125284074D01*
X110356163Y-124950740D02*
X110308544Y-124998360D01*
X110356163Y-125045979D01*
X110403782Y-124998360D01*
X110356163Y-124950740D01*
X110356163Y-125045979D01*
X111546640Y-125045979D02*
X111594259Y-124998360D01*
X111689497Y-124950740D01*
X111927592Y-124950740D01*
X112022830Y-124998360D01*
X112070449Y-125045979D01*
X112118068Y-125141217D01*
X112118068Y-125236455D01*
X112070449Y-125379312D01*
X111499020Y-125950740D01*
X112118068Y-125950740D01*
X112737116Y-124950740D02*
X112832354Y-124950740D01*
X112927592Y-124998360D01*
X112975211Y-125045979D01*
X113022830Y-125141217D01*
X113070449Y-125331693D01*
X113070449Y-125569788D01*
X113022830Y-125760264D01*
X112975211Y-125855502D01*
X112927592Y-125903121D01*
X112832354Y-125950740D01*
X112737116Y-125950740D01*
X112641878Y-125903121D01*
X112594259Y-125855502D01*
X112546640Y-125760264D01*
X112499020Y-125569788D01*
X112499020Y-125331693D01*
X112546640Y-125141217D01*
X112594259Y-125045979D01*
X112641878Y-124998360D01*
X112737116Y-124950740D01*
X113451401Y-125045979D02*
X113499020Y-124998360D01*
X113594259Y-124950740D01*
X113832354Y-124950740D01*
X113927592Y-124998360D01*
X113975211Y-125045979D01*
X114022830Y-125141217D01*
X114022830Y-125236455D01*
X113975211Y-125379312D01*
X113403782Y-125950740D01*
X114022830Y-125950740D01*
X114356163Y-124950740D02*
X114975211Y-124950740D01*
X114641878Y-125331693D01*
X114784735Y-125331693D01*
X114879973Y-125379312D01*
X114927592Y-125426931D01*
X114975211Y-125522169D01*
X114975211Y-125760264D01*
X114927592Y-125855502D01*
X114879973Y-125903121D01*
X114784735Y-125950740D01*
X114499020Y-125950740D01*
X114403782Y-125903121D01*
X114356163Y-125855502D01*
X145347493Y-73985641D02*
X145347493Y-71985641D01*
X146109398Y-71985641D01*
X146299874Y-72080880D01*
X146395112Y-72176118D01*
X146490350Y-72366594D01*
X146490350Y-72652308D01*
X146395112Y-72842784D01*
X146299874Y-72938022D01*
X146109398Y-73033260D01*
X145347493Y-73033260D01*
X147347493Y-73985641D02*
X147347493Y-72652308D01*
X147347493Y-71985641D02*
X147252255Y-72080880D01*
X147347493Y-72176118D01*
X147442731Y-72080880D01*
X147347493Y-71985641D01*
X147347493Y-72176118D01*
X149823683Y-73985641D02*
X149823683Y-71985641D01*
X150585588Y-71985641D01*
X150776064Y-72080880D01*
X150871302Y-72176118D01*
X150966540Y-72366594D01*
X150966540Y-72652308D01*
X150871302Y-72842784D01*
X150776064Y-72938022D01*
X150585588Y-73033260D01*
X149823683Y-73033260D01*
X151823683Y-73985641D02*
X151823683Y-72652308D01*
X151823683Y-71985641D02*
X151728445Y-72080880D01*
X151823683Y-72176118D01*
X151918921Y-72080880D01*
X151823683Y-71985641D01*
X151823683Y-72176118D01*
X153633207Y-73890403D02*
X153442731Y-73985641D01*
X153061779Y-73985641D01*
X152871302Y-73890403D01*
X152776064Y-73795165D01*
X152680826Y-73604689D01*
X152680826Y-73033260D01*
X152776064Y-72842784D01*
X152871302Y-72747546D01*
X153061779Y-72652308D01*
X153442731Y-72652308D01*
X153633207Y-72747546D01*
X154776064Y-73985641D02*
X154585588Y-73890403D01*
X154490350Y-73795165D01*
X154395112Y-73604689D01*
X154395112Y-73033260D01*
X154490350Y-72842784D01*
X154585588Y-72747546D01*
X154776064Y-72652308D01*
X155061779Y-72652308D01*
X155252255Y-72747546D01*
X155347493Y-72842784D01*
X155442731Y-73033260D01*
X155442731Y-73604689D01*
X155347493Y-73795165D01*
X155252255Y-73890403D01*
X155061779Y-73985641D01*
X154776064Y-73985641D01*
X158966540Y-73795165D02*
X158871302Y-73890403D01*
X158585588Y-73985641D01*
X158395112Y-73985641D01*
X158109398Y-73890403D01*
X157918921Y-73699927D01*
X157823683Y-73509451D01*
X157728445Y-73128499D01*
X157728445Y-72842784D01*
X157823683Y-72461832D01*
X157918921Y-72271356D01*
X158109398Y-72080880D01*
X158395112Y-71985641D01*
X158585588Y-71985641D01*
X158871302Y-72080880D01*
X158966540Y-72176118D01*
X160109398Y-73985641D02*
X159918921Y-73890403D01*
X159823683Y-73699927D01*
X159823683Y-71985641D01*
X161157017Y-73985641D02*
X160966540Y-73890403D01*
X160871302Y-73795165D01*
X160776064Y-73604689D01*
X160776064Y-73033260D01*
X160871302Y-72842784D01*
X160966540Y-72747546D01*
X161157017Y-72652308D01*
X161442731Y-72652308D01*
X161633207Y-72747546D01*
X161728445Y-72842784D01*
X161823683Y-73033260D01*
X161823683Y-73604689D01*
X161728445Y-73795165D01*
X161633207Y-73890403D01*
X161442731Y-73985641D01*
X161157017Y-73985641D01*
X163537969Y-73890403D02*
X163347493Y-73985641D01*
X162966540Y-73985641D01*
X162776064Y-73890403D01*
X162680826Y-73795165D01*
X162585588Y-73604689D01*
X162585588Y-73033260D01*
X162680826Y-72842784D01*
X162776064Y-72747546D01*
X162966540Y-72652308D01*
X163347493Y-72652308D01*
X163537969Y-72747546D01*
X164395112Y-73985641D02*
X164395112Y-71985641D01*
X164585588Y-73223737D02*
X165157017Y-73985641D01*
X165157017Y-72652308D02*
X164395112Y-73414213D01*
X166014160Y-73985641D02*
X166014160Y-72652308D01*
X166014160Y-73033260D02*
X166109398Y-72842784D01*
X166204636Y-72747546D01*
X166395112Y-72652308D01*
X166585588Y-72652308D01*
X168109398Y-73985641D02*
X168109398Y-72938022D01*
X168014160Y-72747546D01*
X167823683Y-72652308D01*
X167442731Y-72652308D01*
X167252255Y-72747546D01*
X168109398Y-73890403D02*
X167918921Y-73985641D01*
X167442731Y-73985641D01*
X167252255Y-73890403D01*
X167157017Y-73699927D01*
X167157017Y-73509451D01*
X167252255Y-73318975D01*
X167442731Y-73223737D01*
X167918921Y-73223737D01*
X168109398Y-73128499D01*
X169918921Y-73985641D02*
X169918921Y-71985641D01*
X169918921Y-73890403D02*
X169728445Y-73985641D01*
X169347493Y-73985641D01*
X169157017Y-73890403D01*
X169061779Y-73795165D01*
X168966540Y-73604689D01*
X168966540Y-73033260D01*
X169061779Y-72842784D01*
X169157017Y-72747546D01*
X169347493Y-72652308D01*
X169728445Y-72652308D01*
X169918921Y-72747546D01*
X170871302Y-73985641D02*
X170871302Y-72652308D01*
X170871302Y-71985641D02*
X170776064Y-72080880D01*
X170871302Y-72176118D01*
X170966540Y-72080880D01*
X170871302Y-71985641D01*
X170871302Y-72176118D01*
X172109398Y-73985641D02*
X171918921Y-73890403D01*
X171823683Y-73795165D01*
X171728445Y-73604689D01*
X171728445Y-73033260D01*
X171823683Y-72842784D01*
X171918921Y-72747546D01*
X172109398Y-72652308D01*
X172395112Y-72652308D01*
X172585588Y-72747546D01*
X172680826Y-72842784D01*
X172776064Y-73033260D01*
X172776064Y-73604689D01*
X172680826Y-73795165D01*
X172585588Y-73890403D01*
X172395112Y-73985641D01*
X172109398Y-73985641D01*
D11*
X109193200Y-105054400D02*
X109963200Y-105054400D01*
X117273200Y-105054400D02*
X116503200Y-105054400D01*
X109963200Y-106424400D02*
X116503200Y-106424400D01*
X109963200Y-103684400D02*
X109963200Y-106424400D01*
X116503200Y-103684400D02*
X109963200Y-103684400D01*
X116503200Y-106424400D02*
X116503200Y-103684400D01*
X109142400Y-110088680D02*
X109912400Y-110088680D01*
X117222400Y-110088680D02*
X116452400Y-110088680D01*
X109912400Y-111458680D02*
X116452400Y-111458680D01*
X109912400Y-108718680D02*
X109912400Y-111458680D01*
X116452400Y-108718680D02*
X109912400Y-108718680D01*
X116452400Y-111458680D02*
X116452400Y-108718680D01*
X109142400Y-115031520D02*
X109912400Y-115031520D01*
X117222400Y-115031520D02*
X116452400Y-115031520D01*
X109912400Y-116401520D02*
X116452400Y-116401520D01*
X109912400Y-113661520D02*
X109912400Y-116401520D01*
X116452400Y-113661520D02*
X109912400Y-113661520D01*
X116452400Y-116401520D02*
X116452400Y-113661520D01*
X109193200Y-119578120D02*
X109963200Y-119578120D01*
X117273200Y-119578120D02*
X116503200Y-119578120D01*
X109963200Y-120948120D02*
X116503200Y-120948120D01*
X109963200Y-118208120D02*
X109963200Y-120948120D01*
X116503200Y-118208120D02*
X109963200Y-118208120D01*
X116503200Y-120948120D02*
X116503200Y-118208120D01*
X167192400Y-99310800D02*
X167192400Y-96370800D01*
X166952400Y-99310800D02*
X166952400Y-96370800D01*
X167072400Y-99310800D02*
X167072400Y-96370800D01*
X162532400Y-96370800D02*
X162532400Y-96700800D01*
X167972400Y-96370800D02*
X162532400Y-96370800D01*
X167972400Y-96700800D02*
X167972400Y-96370800D01*
X162532400Y-99310800D02*
X162532400Y-98980800D01*
X167972400Y-99310800D02*
X162532400Y-99310800D01*
X167972400Y-98980800D02*
X167972400Y-99310800D01*
X105171680Y-103974400D02*
X105171680Y-103818400D01*
X105171680Y-106290400D02*
X105171680Y-106134400D01*
X102570550Y-103974563D02*
G75*
G02X104652641Y-103974400I1041130J-1079837D01*
G01*
X102570550Y-106134237D02*
G75*
G03X104652641Y-106134400I1041130J1079837D01*
G01*
X101939345Y-103975792D02*
G75*
G02X105171680Y-103818884I1672335J-1078608D01*
G01*
X101939345Y-106133008D02*
G75*
G03X105171680Y-106289916I1672335J1078608D01*
G01*
X105171680Y-109008680D02*
X105171680Y-108852680D01*
X105171680Y-111324680D02*
X105171680Y-111168680D01*
X102570550Y-109008843D02*
G75*
G02X104652641Y-109008680I1041130J-1079837D01*
G01*
X102570550Y-111168517D02*
G75*
G03X104652641Y-111168680I1041130J1079837D01*
G01*
X101939345Y-109010072D02*
G75*
G02X105171680Y-108853164I1672335J-1078608D01*
G01*
X101939345Y-111167288D02*
G75*
G03X105171680Y-111324196I1672335J1078608D01*
G01*
X105115800Y-113895640D02*
X105115800Y-113739640D01*
X105115800Y-116211640D02*
X105115800Y-116055640D01*
X102514670Y-113895803D02*
G75*
G02X104596761Y-113895640I1041130J-1079837D01*
G01*
X102514670Y-116055477D02*
G75*
G03X104596761Y-116055640I1041130J1079837D01*
G01*
X101883465Y-113897032D02*
G75*
G02X105115800Y-113740124I1672335J-1078608D01*
G01*
X101883465Y-116054248D02*
G75*
G03X105115800Y-116211156I1672335J1078608D01*
G01*
X105115800Y-118498120D02*
X105115800Y-118342120D01*
X105115800Y-120814120D02*
X105115800Y-120658120D01*
X102514670Y-118498283D02*
G75*
G02X104596761Y-118498120I1041130J-1079837D01*
G01*
X102514670Y-120657957D02*
G75*
G03X104596761Y-120658120I1041130J1079837D01*
G01*
X101883465Y-118499512D02*
G75*
G02X105115800Y-118342604I1672335J-1078608D01*
G01*
X101883465Y-120656728D02*
G75*
G03X105115800Y-120813636I1672335J1078608D01*
G01*
X113328840Y-64831320D02*
X113328840Y-71831320D01*
X104328840Y-64831320D02*
X113328840Y-64831320D01*
X104328840Y-71831320D02*
X104328840Y-64831320D01*
X114328840Y-71831320D02*
X109828840Y-71831320D01*
X114328840Y-78831320D02*
X114328840Y-71831320D01*
X103328840Y-78831320D02*
X114328840Y-78831320D01*
X103328840Y-71831320D02*
X103328840Y-78831320D01*
X109828840Y-71831320D02*
X103328840Y-71831320D01*
X119763280Y-67919840D02*
X119763280Y-69919840D01*
X125763280Y-67919840D02*
X119763280Y-67919840D01*
X125763280Y-69919840D02*
X125763280Y-67919840D01*
X116763280Y-71919840D02*
X128763280Y-71919840D01*
X128763280Y-69919840D02*
X116763280Y-69919840D01*
X128763280Y-79919840D02*
X128763280Y-69919840D01*
X116763280Y-79919840D02*
X128763280Y-79919840D01*
X116763280Y-69919840D02*
X116763280Y-79919840D01*
X173058760Y-101483520D02*
X173058760Y-122483520D01*
X122058760Y-108283520D02*
X122058760Y-101483520D01*
X170391760Y-101483520D02*
X170391760Y-104490520D01*
X170391760Y-104490520D02*
X173058760Y-104490520D01*
X173058760Y-101483520D02*
X172758760Y-101483520D01*
X170658760Y-101483520D02*
X170258760Y-101483520D01*
X168058760Y-101483520D02*
X167658760Y-101483520D01*
X165558760Y-101483520D02*
X165158760Y-101483520D01*
X162958760Y-101483520D02*
X162558760Y-101483520D01*
X160458760Y-101483520D02*
X160058760Y-101483520D01*
X157958760Y-101483520D02*
X157558760Y-101483520D01*
X155358760Y-101483520D02*
X154958760Y-101483520D01*
X152858760Y-101483520D02*
X152458760Y-101483520D01*
X150258760Y-101483520D02*
X149858760Y-101483520D01*
X147758760Y-101483520D02*
X147358760Y-101483520D01*
X145258760Y-101483520D02*
X144858760Y-101483520D01*
X142658760Y-101483520D02*
X142258760Y-101483520D01*
X140158760Y-101483520D02*
X139758760Y-101483520D01*
X137558760Y-101483520D02*
X137158760Y-101483520D01*
X135058760Y-101483520D02*
X134658760Y-101483520D01*
X132458760Y-101483520D02*
X132058760Y-101483520D01*
X129958760Y-101483520D02*
X129558760Y-101483520D01*
X127458760Y-101483520D02*
X127058760Y-101483520D01*
X124858760Y-101483520D02*
X124458760Y-101483520D01*
X157958760Y-122483520D02*
X157558760Y-122483520D01*
X152858760Y-122483520D02*
X152458760Y-122483520D01*
X145258760Y-122483520D02*
X144858760Y-122483520D01*
X137558760Y-122483520D02*
X137158760Y-122483520D01*
X168058760Y-122483520D02*
X167658760Y-122483520D01*
X170658760Y-122483520D02*
X170258760Y-122483520D01*
X162958760Y-122483520D02*
X162558760Y-122483520D01*
X129958760Y-122483520D02*
X129558760Y-122483520D01*
X124858760Y-122483520D02*
X124458760Y-122483520D01*
X127458760Y-122483520D02*
X127058760Y-122483520D01*
X142658760Y-122483520D02*
X142258760Y-122483520D01*
X147758760Y-122483520D02*
X147358760Y-122483520D01*
X160458760Y-122483520D02*
X160058760Y-122483520D01*
X155358760Y-122483520D02*
X154958760Y-122483520D01*
X135058760Y-122483520D02*
X134658760Y-122483520D01*
X150258760Y-122483520D02*
X149858760Y-122483520D01*
X173058760Y-122483520D02*
X172758760Y-122483520D01*
X165558760Y-122483520D02*
X165158760Y-122483520D01*
X140158760Y-122483520D02*
X139758760Y-122483520D01*
X132458760Y-122483520D02*
X132058760Y-122483520D01*
X122058760Y-122483520D02*
X122058760Y-115683520D01*
X122058760Y-110483520D02*
X122058760Y-110883520D01*
X122058760Y-113083520D02*
X122058760Y-113483520D01*
X137046760Y-90700160D02*
X137046760Y-79600160D01*
X159546760Y-90700160D02*
X137046760Y-90700160D01*
X159546760Y-79600160D02*
X159546760Y-90700160D01*
X137046760Y-79600160D02*
X159546760Y-79600160D01*
X132246760Y-74600160D02*
X172846760Y-74600160D01*
X132246760Y-74500160D02*
X132246760Y-74600160D01*
X132246760Y-74600160D02*
X132246760Y-96100160D01*
X172846760Y-74600160D02*
X172846760Y-96100160D01*
X132246760Y-96100160D02*
X172846760Y-96100160D01*
X105527560Y-86769840D02*
X105527560Y-99049840D01*
X116527560Y-86769840D02*
X105527560Y-86769840D01*
X116519960Y-86857840D02*
X116519960Y-99049840D01*
D12*
G36*
X114127560Y-97869840D02*
G01*
X107827560Y-97869840D01*
X107827560Y-91956640D01*
X114127560Y-91956640D01*
X114127560Y-97819040D01*
X114127560Y-97869840D01*
G37*
X114127560Y-97869840D02*
X107827560Y-97869840D01*
X107827560Y-91956640D01*
X114127560Y-91956640D01*
X114127560Y-97819040D01*
X114127560Y-97869840D01*
D11*
X116519960Y-99049840D02*
X105527560Y-99049840D01*
D12*
G36*
X114827560Y-90203240D02*
G01*
X107127560Y-90203240D01*
X107127560Y-89136440D01*
X114827560Y-89136440D01*
X114827560Y-90203240D01*
G37*
X114827560Y-90203240D02*
X107127560Y-90203240D01*
X107127560Y-89136440D01*
X114827560Y-89136440D01*
X114827560Y-90203240D01*
D11*
X113650000Y-146400000D02*
X110930000Y-146400000D01*
X104070000Y-146400000D02*
X101350000Y-146400000D01*
X105930000Y-134100000D02*
X109070000Y-134100000D01*
X101350000Y-134100000D02*
X104070000Y-134100000D01*
X112039050Y-140350000D02*
G75*
G03X112039050Y-140350000I-4579050J0D01*
G01*
X110930000Y-134100000D02*
X113650000Y-134100000D01*
X101350000Y-146400000D02*
X101350000Y-134100000D01*
X109070000Y-146400000D02*
X105930000Y-146400000D01*
X113650000Y-134100000D02*
X113650000Y-146400000D01*
X128650000Y-146400000D02*
X125930000Y-146400000D01*
X119070000Y-146400000D02*
X116350000Y-146400000D01*
X120930000Y-134100000D02*
X124070000Y-134100000D01*
X116350000Y-134100000D02*
X119070000Y-134100000D01*
X127039050Y-140350000D02*
G75*
G03X127039050Y-140350000I-4579050J0D01*
G01*
X125930000Y-134100000D02*
X128650000Y-134100000D01*
X116350000Y-146400000D02*
X116350000Y-134100000D01*
X124070000Y-146400000D02*
X120930000Y-146400000D01*
X128650000Y-134100000D02*
X128650000Y-146400000D01*
X143650000Y-146400000D02*
X140930000Y-146400000D01*
X134070000Y-146400000D02*
X131350000Y-146400000D01*
X135930000Y-134100000D02*
X139070000Y-134100000D01*
X131350000Y-134100000D02*
X134070000Y-134100000D01*
X142039050Y-140350000D02*
G75*
G03X142039050Y-140350000I-4579050J0D01*
G01*
X140930000Y-134100000D02*
X143650000Y-134100000D01*
X131350000Y-146400000D02*
X131350000Y-134100000D01*
X139070000Y-146400000D02*
X135930000Y-146400000D01*
X143650000Y-134100000D02*
X143650000Y-146400000D01*
X158650000Y-146400000D02*
X155930000Y-146400000D01*
X149070000Y-146400000D02*
X146350000Y-146400000D01*
X150930000Y-134100000D02*
X154070000Y-134100000D01*
X146350000Y-134100000D02*
X149070000Y-134100000D01*
X157039050Y-140350000D02*
G75*
G03X157039050Y-140350000I-4579050J0D01*
G01*
X155930000Y-134100000D02*
X158650000Y-134100000D01*
X146350000Y-146400000D02*
X146350000Y-134100000D01*
X154070000Y-146400000D02*
X150930000Y-146400000D01*
X158650000Y-134100000D02*
X158650000Y-146400000D01*
X173650000Y-146400000D02*
X170930000Y-146400000D01*
X164070000Y-146400000D02*
X161350000Y-146400000D01*
X165930000Y-134100000D02*
X169070000Y-134100000D01*
X161350000Y-134100000D02*
X164070000Y-134100000D01*
X172039050Y-140350000D02*
G75*
G03X172039050Y-140350000I-4579050J0D01*
G01*
X170930000Y-134100000D02*
X173650000Y-134100000D01*
X161350000Y-146400000D02*
X161350000Y-134100000D01*
X169070000Y-146400000D02*
X165930000Y-146400000D01*
X173650000Y-134100000D02*
X173650000Y-146400000D01*
X111456600Y-129453640D02*
X110686600Y-129453640D01*
X103376600Y-129453640D02*
X104146600Y-129453640D01*
X110686600Y-128083640D02*
X104146600Y-128083640D01*
X110686600Y-130823640D02*
X110686600Y-128083640D01*
X104146600Y-130823640D02*
X110686600Y-130823640D01*
X104146600Y-128083640D02*
X104146600Y-130823640D01*
X126351160Y-129428240D02*
X125581160Y-129428240D01*
X118271160Y-129428240D02*
X119041160Y-129428240D01*
X125581160Y-128058240D02*
X119041160Y-128058240D01*
X125581160Y-130798240D02*
X125581160Y-128058240D01*
X119041160Y-130798240D02*
X125581160Y-130798240D01*
X119041160Y-128058240D02*
X119041160Y-130798240D01*
X141728320Y-129428240D02*
X140958320Y-129428240D01*
X133648320Y-129428240D02*
X134418320Y-129428240D01*
X140958320Y-128058240D02*
X134418320Y-128058240D01*
X140958320Y-130798240D02*
X140958320Y-128058240D01*
X134418320Y-130798240D02*
X140958320Y-130798240D01*
X134418320Y-128058240D02*
X134418320Y-130798240D01*
X156627960Y-129428240D02*
X155857960Y-129428240D01*
X148547960Y-129428240D02*
X149317960Y-129428240D01*
X155857960Y-128058240D02*
X149317960Y-128058240D01*
X155857960Y-130798240D02*
X155857960Y-128058240D01*
X149317960Y-130798240D02*
X155857960Y-130798240D01*
X149317960Y-128058240D02*
X149317960Y-130798240D01*
X171420920Y-129428240D02*
X170650920Y-129428240D01*
X163340920Y-129428240D02*
X164110920Y-129428240D01*
X170650920Y-128058240D02*
X164110920Y-128058240D01*
X170650920Y-130798240D02*
X170650920Y-128058240D01*
X164110920Y-130798240D02*
X170650920Y-130798240D01*
X164110920Y-128058240D02*
X164110920Y-130798240D01*
D10*
X113066533Y-107876780D02*
X112733200Y-107400590D01*
X112495104Y-107876780D02*
X112495104Y-106876780D01*
X112876057Y-106876780D01*
X112971295Y-106924400D01*
X113018914Y-106972019D01*
X113066533Y-107067257D01*
X113066533Y-107210114D01*
X113018914Y-107305352D01*
X112971295Y-107352971D01*
X112876057Y-107400590D01*
X112495104Y-107400590D01*
X113542723Y-107876780D02*
X113733200Y-107876780D01*
X113828438Y-107829161D01*
X113876057Y-107781542D01*
X113971295Y-107638685D01*
X114018914Y-107448209D01*
X114018914Y-107067257D01*
X113971295Y-106972019D01*
X113923676Y-106924400D01*
X113828438Y-106876780D01*
X113637961Y-106876780D01*
X113542723Y-106924400D01*
X113495104Y-106972019D01*
X113447485Y-107067257D01*
X113447485Y-107305352D01*
X113495104Y-107400590D01*
X113542723Y-107448209D01*
X113637961Y-107495828D01*
X113828438Y-107495828D01*
X113923676Y-107448209D01*
X113971295Y-107400590D01*
X114018914Y-107305352D01*
X113015733Y-112911060D02*
X112682400Y-112434870D01*
X112444304Y-112911060D02*
X112444304Y-111911060D01*
X112825257Y-111911060D01*
X112920495Y-111958680D01*
X112968114Y-112006299D01*
X113015733Y-112101537D01*
X113015733Y-112244394D01*
X112968114Y-112339632D01*
X112920495Y-112387251D01*
X112825257Y-112434870D01*
X112444304Y-112434870D01*
X113587161Y-112339632D02*
X113491923Y-112292013D01*
X113444304Y-112244394D01*
X113396685Y-112149156D01*
X113396685Y-112101537D01*
X113444304Y-112006299D01*
X113491923Y-111958680D01*
X113587161Y-111911060D01*
X113777638Y-111911060D01*
X113872876Y-111958680D01*
X113920495Y-112006299D01*
X113968114Y-112101537D01*
X113968114Y-112149156D01*
X113920495Y-112244394D01*
X113872876Y-112292013D01*
X113777638Y-112339632D01*
X113587161Y-112339632D01*
X113491923Y-112387251D01*
X113444304Y-112434870D01*
X113396685Y-112530108D01*
X113396685Y-112720584D01*
X113444304Y-112815822D01*
X113491923Y-112863441D01*
X113587161Y-112911060D01*
X113777638Y-112911060D01*
X113872876Y-112863441D01*
X113920495Y-112815822D01*
X113968114Y-112720584D01*
X113968114Y-112530108D01*
X113920495Y-112434870D01*
X113872876Y-112387251D01*
X113777638Y-112339632D01*
X113015733Y-117853900D02*
X112682400Y-117377710D01*
X112444304Y-117853900D02*
X112444304Y-116853900D01*
X112825257Y-116853900D01*
X112920495Y-116901520D01*
X112968114Y-116949139D01*
X113015733Y-117044377D01*
X113015733Y-117187234D01*
X112968114Y-117282472D01*
X112920495Y-117330091D01*
X112825257Y-117377710D01*
X112444304Y-117377710D01*
X113349066Y-116853900D02*
X114015733Y-116853900D01*
X113587161Y-117853900D01*
X113066533Y-122400500D02*
X112733200Y-121924310D01*
X112495104Y-122400500D02*
X112495104Y-121400500D01*
X112876057Y-121400500D01*
X112971295Y-121448120D01*
X113018914Y-121495739D01*
X113066533Y-121590977D01*
X113066533Y-121733834D01*
X113018914Y-121829072D01*
X112971295Y-121876691D01*
X112876057Y-121924310D01*
X112495104Y-121924310D01*
X113923676Y-121400500D02*
X113733200Y-121400500D01*
X113637961Y-121448120D01*
X113590342Y-121495739D01*
X113495104Y-121638596D01*
X113447485Y-121829072D01*
X113447485Y-122210024D01*
X113495104Y-122305262D01*
X113542723Y-122352881D01*
X113637961Y-122400500D01*
X113828438Y-122400500D01*
X113923676Y-122352881D01*
X113971295Y-122305262D01*
X114018914Y-122210024D01*
X114018914Y-121971929D01*
X113971295Y-121876691D01*
X113923676Y-121829072D01*
X113828438Y-121781453D01*
X113637961Y-121781453D01*
X113542723Y-121829072D01*
X113495104Y-121876691D01*
X113447485Y-121971929D01*
X158189704Y-98328740D02*
X158189704Y-97328740D01*
X158427800Y-97328740D01*
X158570657Y-97376360D01*
X158665895Y-97471598D01*
X158713514Y-97566836D01*
X158761133Y-97757312D01*
X158761133Y-97900169D01*
X158713514Y-98090645D01*
X158665895Y-98185883D01*
X158570657Y-98281121D01*
X158427800Y-98328740D01*
X158189704Y-98328740D01*
X159665895Y-97328740D02*
X159189704Y-97328740D01*
X159142085Y-97804931D01*
X159189704Y-97757312D01*
X159284942Y-97709693D01*
X159523038Y-97709693D01*
X159618276Y-97757312D01*
X159665895Y-97804931D01*
X159713514Y-97900169D01*
X159713514Y-98138264D01*
X159665895Y-98233502D01*
X159618276Y-98281121D01*
X159523038Y-98328740D01*
X159284942Y-98328740D01*
X159189704Y-98281121D01*
X159142085Y-98233502D01*
X168800495Y-100193180D02*
X168800495Y-99193180D01*
X169371923Y-100193180D02*
X168943352Y-99621752D01*
X169371923Y-99193180D02*
X168800495Y-99764609D01*
X105505024Y-107736900D02*
X105505024Y-106736900D01*
X105743120Y-106736900D01*
X105885977Y-106784520D01*
X105981215Y-106879758D01*
X106028834Y-106974996D01*
X106076453Y-107165472D01*
X106076453Y-107308329D01*
X106028834Y-107498805D01*
X105981215Y-107594043D01*
X105885977Y-107689281D01*
X105743120Y-107736900D01*
X105505024Y-107736900D01*
X106933596Y-107070234D02*
X106933596Y-107736900D01*
X106695500Y-106689281D02*
X106457405Y-107403567D01*
X107076453Y-107403567D01*
X105505024Y-112776260D02*
X105505024Y-111776260D01*
X105743120Y-111776260D01*
X105885977Y-111823880D01*
X105981215Y-111919118D01*
X106028834Y-112014356D01*
X106076453Y-112204832D01*
X106076453Y-112347689D01*
X106028834Y-112538165D01*
X105981215Y-112633403D01*
X105885977Y-112728641D01*
X105743120Y-112776260D01*
X105505024Y-112776260D01*
X106409786Y-111776260D02*
X107028834Y-111776260D01*
X106695500Y-112157213D01*
X106838358Y-112157213D01*
X106933596Y-112204832D01*
X106981215Y-112252451D01*
X107028834Y-112347689D01*
X107028834Y-112585784D01*
X106981215Y-112681022D01*
X106933596Y-112728641D01*
X106838358Y-112776260D01*
X106552643Y-112776260D01*
X106457405Y-112728641D01*
X106409786Y-112681022D01*
X105505024Y-117703860D02*
X105505024Y-116703860D01*
X105743120Y-116703860D01*
X105885977Y-116751480D01*
X105981215Y-116846718D01*
X106028834Y-116941956D01*
X106076453Y-117132432D01*
X106076453Y-117275289D01*
X106028834Y-117465765D01*
X105981215Y-117561003D01*
X105885977Y-117656241D01*
X105743120Y-117703860D01*
X105505024Y-117703860D01*
X106457405Y-116799099D02*
X106505024Y-116751480D01*
X106600262Y-116703860D01*
X106838358Y-116703860D01*
X106933596Y-116751480D01*
X106981215Y-116799099D01*
X107028834Y-116894337D01*
X107028834Y-116989575D01*
X106981215Y-117132432D01*
X106409786Y-117703860D01*
X107028834Y-117703860D01*
X105449144Y-122255540D02*
X105449144Y-121255540D01*
X105687240Y-121255540D01*
X105830097Y-121303160D01*
X105925335Y-121398398D01*
X105972954Y-121493636D01*
X106020573Y-121684112D01*
X106020573Y-121826969D01*
X105972954Y-122017445D01*
X105925335Y-122112683D01*
X105830097Y-122207921D01*
X105687240Y-122255540D01*
X105449144Y-122255540D01*
X106972954Y-122255540D02*
X106401525Y-122255540D01*
X106687240Y-122255540D02*
X106687240Y-121255540D01*
X106592001Y-121398398D01*
X106496763Y-121493636D01*
X106401525Y-121541255D01*
X102953226Y-82048100D02*
X102953226Y-82762386D01*
X102905607Y-82905243D01*
X102810369Y-83000481D01*
X102667512Y-83048100D01*
X102572274Y-83048100D01*
X103381798Y-82143339D02*
X103429417Y-82095720D01*
X103524655Y-82048100D01*
X103762750Y-82048100D01*
X103857988Y-82095720D01*
X103905607Y-82143339D01*
X103953226Y-82238577D01*
X103953226Y-82333815D01*
X103905607Y-82476672D01*
X103334179Y-83048100D01*
X103953226Y-83048100D01*
X116323786Y-81997300D02*
X116323786Y-82711586D01*
X116276167Y-82854443D01*
X116180929Y-82949681D01*
X116038072Y-82997300D01*
X115942834Y-82997300D01*
X117323786Y-82997300D02*
X116752358Y-82997300D01*
X117038072Y-82997300D02*
X117038072Y-81997300D01*
X116942834Y-82140158D01*
X116847596Y-82235396D01*
X116752358Y-82283015D01*
X119735695Y-101153980D02*
X119735695Y-101963504D01*
X119783314Y-102058742D01*
X119830933Y-102106361D01*
X119926171Y-102153980D01*
X120116647Y-102153980D01*
X120211885Y-102106361D01*
X120259504Y-102058742D01*
X120307123Y-101963504D01*
X120307123Y-101153980D01*
X120688076Y-101153980D02*
X121307123Y-101153980D01*
X120973790Y-101534933D01*
X121116647Y-101534933D01*
X121211885Y-101582552D01*
X121259504Y-101630171D01*
X121307123Y-101725409D01*
X121307123Y-101963504D01*
X121259504Y-102058742D01*
X121211885Y-102106361D01*
X121116647Y-102153980D01*
X120830933Y-102153980D01*
X120735695Y-102106361D01*
X120688076Y-102058742D01*
X133484855Y-72252540D02*
X133484855Y-73062064D01*
X133532474Y-73157302D01*
X133580093Y-73204921D01*
X133675331Y-73252540D01*
X133865807Y-73252540D01*
X133961045Y-73204921D01*
X134008664Y-73157302D01*
X134056283Y-73062064D01*
X134056283Y-72252540D01*
X134484855Y-72347779D02*
X134532474Y-72300160D01*
X134627712Y-72252540D01*
X134865807Y-72252540D01*
X134961045Y-72300160D01*
X135008664Y-72347779D01*
X135056283Y-72443017D01*
X135056283Y-72538255D01*
X135008664Y-72681112D01*
X134437236Y-73252540D01*
X135056283Y-73252540D01*
X165703902Y-88400160D02*
X165608664Y-88352540D01*
X165465807Y-88352540D01*
X165322950Y-88400160D01*
X165227712Y-88495398D01*
X165180093Y-88590636D01*
X165132474Y-88781112D01*
X165132474Y-88923969D01*
X165180093Y-89114445D01*
X165227712Y-89209683D01*
X165322950Y-89304921D01*
X165465807Y-89352540D01*
X165561045Y-89352540D01*
X165703902Y-89304921D01*
X165751521Y-89257302D01*
X165751521Y-88923969D01*
X165561045Y-88923969D01*
X166180093Y-88685874D02*
X166180093Y-89352540D01*
X166180093Y-88781112D02*
X166227712Y-88733493D01*
X166322950Y-88685874D01*
X166465807Y-88685874D01*
X166561045Y-88733493D01*
X166608664Y-88828731D01*
X166608664Y-89352540D01*
X167513426Y-89352540D02*
X167513426Y-88352540D01*
X167513426Y-89304921D02*
X167418188Y-89352540D01*
X167227712Y-89352540D01*
X167132474Y-89304921D01*
X167084855Y-89257302D01*
X167037236Y-89162064D01*
X167037236Y-88876350D01*
X167084855Y-88781112D01*
X167132474Y-88733493D01*
X167227712Y-88685874D01*
X167418188Y-88685874D01*
X167513426Y-88733493D01*
X165156283Y-85752540D02*
X165489617Y-86752540D01*
X165822950Y-85752540D01*
X166584855Y-86704921D02*
X166489617Y-86752540D01*
X166299140Y-86752540D01*
X166203902Y-86704921D01*
X166156283Y-86657302D01*
X166108664Y-86562064D01*
X166108664Y-86276350D01*
X166156283Y-86181112D01*
X166203902Y-86133493D01*
X166299140Y-86085874D01*
X166489617Y-86085874D01*
X166584855Y-86133493D01*
X167441998Y-86704921D02*
X167346760Y-86752540D01*
X167156283Y-86752540D01*
X167061045Y-86704921D01*
X167013426Y-86657302D01*
X166965807Y-86562064D01*
X166965807Y-86276350D01*
X167013426Y-86181112D01*
X167061045Y-86133493D01*
X167156283Y-86085874D01*
X167346760Y-86085874D01*
X167441998Y-86133493D01*
X165122950Y-84252540D02*
X165122950Y-83252540D01*
X165361045Y-83252540D01*
X165503902Y-83300160D01*
X165599140Y-83395398D01*
X165646760Y-83490636D01*
X165694379Y-83681112D01*
X165694379Y-83823969D01*
X165646760Y-84014445D01*
X165599140Y-84109683D01*
X165503902Y-84204921D01*
X165361045Y-84252540D01*
X165122950Y-84252540D01*
X166122950Y-84252540D02*
X166122950Y-83252540D01*
X166789617Y-83252540D02*
X166980093Y-83252540D01*
X167075331Y-83300160D01*
X167170569Y-83395398D01*
X167218188Y-83585874D01*
X167218188Y-83919207D01*
X167170569Y-84109683D01*
X167075331Y-84204921D01*
X166980093Y-84252540D01*
X166789617Y-84252540D01*
X166694379Y-84204921D01*
X166599140Y-84109683D01*
X166551521Y-83919207D01*
X166551521Y-83585874D01*
X166599140Y-83395398D01*
X166694379Y-83300160D01*
X166789617Y-83252540D01*
X165651521Y-81657302D02*
X165603902Y-81704921D01*
X165461045Y-81752540D01*
X165365807Y-81752540D01*
X165222950Y-81704921D01*
X165127712Y-81609683D01*
X165080093Y-81514445D01*
X165032474Y-81323969D01*
X165032474Y-81181112D01*
X165080093Y-80990636D01*
X165127712Y-80895398D01*
X165222950Y-80800160D01*
X165365807Y-80752540D01*
X165461045Y-80752540D01*
X165603902Y-80800160D01*
X165651521Y-80847779D01*
X166556283Y-81752540D02*
X166080093Y-81752540D01*
X166080093Y-80752540D01*
X166889617Y-81752540D02*
X166889617Y-80752540D01*
X167461045Y-81752540D02*
X167032474Y-81181112D01*
X167461045Y-80752540D02*
X166889617Y-81323969D01*
X139037236Y-84728731D02*
X138561045Y-84300160D01*
X138322950Y-83871588D01*
X138084855Y-83014445D01*
X138084855Y-82585874D01*
X138322950Y-81728731D01*
X138561045Y-81300160D01*
X139037236Y-80871588D01*
X139989617Y-80871588D01*
X140465807Y-81300160D01*
X140703902Y-81728731D01*
X140941998Y-82585874D01*
X140941998Y-83014445D01*
X140703902Y-83871588D01*
X140465807Y-84300160D01*
X139989617Y-84728731D01*
X139037236Y-84728731D01*
X138561045Y-85157302D01*
X138322950Y-85585874D01*
X138084855Y-86443017D01*
X138084855Y-88157302D01*
X138322950Y-89014445D01*
X138561045Y-89443017D01*
X139037236Y-89871588D01*
X139989617Y-89871588D01*
X140465807Y-89443017D01*
X140703902Y-89014445D01*
X140941998Y-88157302D01*
X140941998Y-86443017D01*
X140703902Y-85585874D01*
X140465807Y-85157302D01*
X139989617Y-84728731D01*
X143799140Y-84728731D02*
X143322950Y-84300160D01*
X143084855Y-83871588D01*
X142846760Y-83014445D01*
X142846760Y-82585874D01*
X143084855Y-81728731D01*
X143322950Y-81300160D01*
X143799140Y-80871588D01*
X144751521Y-80871588D01*
X145227712Y-81300160D01*
X145465807Y-81728731D01*
X145703902Y-82585874D01*
X145703902Y-83014445D01*
X145465807Y-83871588D01*
X145227712Y-84300160D01*
X144751521Y-84728731D01*
X143799140Y-84728731D01*
X143322950Y-85157302D01*
X143084855Y-85585874D01*
X142846760Y-86443017D01*
X142846760Y-88157302D01*
X143084855Y-89014445D01*
X143322950Y-89443017D01*
X143799140Y-89871588D01*
X144751521Y-89871588D01*
X145227712Y-89443017D01*
X145465807Y-89014445D01*
X145703902Y-88157302D01*
X145703902Y-86443017D01*
X145465807Y-85585874D01*
X145227712Y-85157302D01*
X144751521Y-84728731D01*
X147846760Y-89014445D02*
X148084855Y-89443017D01*
X147846760Y-89871588D01*
X147608664Y-89443017D01*
X147846760Y-89014445D01*
X147846760Y-89871588D01*
X147846760Y-84300160D02*
X148084855Y-84728731D01*
X147846760Y-85157302D01*
X147608664Y-84728731D01*
X147846760Y-84300160D01*
X147846760Y-85157302D01*
X150941998Y-84728731D02*
X150465807Y-84300160D01*
X150227712Y-83871588D01*
X149989617Y-83014445D01*
X149989617Y-82585874D01*
X150227712Y-81728731D01*
X150465807Y-81300160D01*
X150941998Y-80871588D01*
X151894379Y-80871588D01*
X152370569Y-81300160D01*
X152608664Y-81728731D01*
X152846760Y-82585874D01*
X152846760Y-83014445D01*
X152608664Y-83871588D01*
X152370569Y-84300160D01*
X151894379Y-84728731D01*
X150941998Y-84728731D01*
X150465807Y-85157302D01*
X150227712Y-85585874D01*
X149989617Y-86443017D01*
X149989617Y-88157302D01*
X150227712Y-89014445D01*
X150465807Y-89443017D01*
X150941998Y-89871588D01*
X151894379Y-89871588D01*
X152370569Y-89443017D01*
X152608664Y-89014445D01*
X152846760Y-88157302D01*
X152846760Y-86443017D01*
X152608664Y-85585874D01*
X152370569Y-85157302D01*
X151894379Y-84728731D01*
X155703902Y-84728731D02*
X155227712Y-84300160D01*
X154989617Y-83871588D01*
X154751521Y-83014445D01*
X154751521Y-82585874D01*
X154989617Y-81728731D01*
X155227712Y-81300160D01*
X155703902Y-80871588D01*
X156656283Y-80871588D01*
X157132474Y-81300160D01*
X157370569Y-81728731D01*
X157608664Y-82585874D01*
X157608664Y-83014445D01*
X157370569Y-83871588D01*
X157132474Y-84300160D01*
X156656283Y-84728731D01*
X155703902Y-84728731D01*
X155227712Y-85157302D01*
X154989617Y-85585874D01*
X154751521Y-86443017D01*
X154751521Y-88157302D01*
X154989617Y-89014445D01*
X155227712Y-89443017D01*
X155703902Y-89871588D01*
X156656283Y-89871588D01*
X157132474Y-89443017D01*
X157370569Y-89014445D01*
X157608664Y-88157302D01*
X157608664Y-86443017D01*
X157370569Y-85585874D01*
X157132474Y-85157302D01*
X156656283Y-84728731D01*
X110065655Y-99222220D02*
X110065655Y-100031744D01*
X110113274Y-100126982D01*
X110160893Y-100174601D01*
X110256131Y-100222220D01*
X110446607Y-100222220D01*
X110541845Y-100174601D01*
X110589464Y-100126982D01*
X110637083Y-100031744D01*
X110637083Y-99222220D01*
X111637083Y-100222220D02*
X111065655Y-100222220D01*
X111351369Y-100222220D02*
X111351369Y-99222220D01*
X111256131Y-99365078D01*
X111160893Y-99460316D01*
X111065655Y-99507935D01*
X115064761Y-141413333D02*
X115112380Y-141270476D01*
X115112380Y-141032380D01*
X115064761Y-140937142D01*
X115017142Y-140889523D01*
X114921904Y-140841904D01*
X114826666Y-140841904D01*
X114731428Y-140889523D01*
X114683809Y-140937142D01*
X114636190Y-141032380D01*
X114588571Y-141222857D01*
X114540952Y-141318095D01*
X114493333Y-141365714D01*
X114398095Y-141413333D01*
X114302857Y-141413333D01*
X114207619Y-141365714D01*
X114160000Y-141318095D01*
X114112380Y-141222857D01*
X114112380Y-140984761D01*
X114160000Y-140841904D01*
X114112380Y-140508571D02*
X115112380Y-140270476D01*
X114398095Y-140080000D01*
X115112380Y-139889523D01*
X114112380Y-139651428D01*
X114112380Y-138794285D02*
X114112380Y-139270476D01*
X114588571Y-139318095D01*
X114540952Y-139270476D01*
X114493333Y-139175238D01*
X114493333Y-138937142D01*
X114540952Y-138841904D01*
X114588571Y-138794285D01*
X114683809Y-138746666D01*
X114921904Y-138746666D01*
X115017142Y-138794285D01*
X115064761Y-138841904D01*
X115112380Y-138937142D01*
X115112380Y-139175238D01*
X115064761Y-139270476D01*
X115017142Y-139318095D01*
X130064761Y-141413333D02*
X130112380Y-141270476D01*
X130112380Y-141032380D01*
X130064761Y-140937142D01*
X130017142Y-140889523D01*
X129921904Y-140841904D01*
X129826666Y-140841904D01*
X129731428Y-140889523D01*
X129683809Y-140937142D01*
X129636190Y-141032380D01*
X129588571Y-141222857D01*
X129540952Y-141318095D01*
X129493333Y-141365714D01*
X129398095Y-141413333D01*
X129302857Y-141413333D01*
X129207619Y-141365714D01*
X129160000Y-141318095D01*
X129112380Y-141222857D01*
X129112380Y-140984761D01*
X129160000Y-140841904D01*
X129112380Y-140508571D02*
X130112380Y-140270476D01*
X129398095Y-140080000D01*
X130112380Y-139889523D01*
X129112380Y-139651428D01*
X129445714Y-138841904D02*
X130112380Y-138841904D01*
X129064761Y-139080000D02*
X129779047Y-139318095D01*
X129779047Y-138699047D01*
X145064761Y-141413333D02*
X145112380Y-141270476D01*
X145112380Y-141032380D01*
X145064761Y-140937142D01*
X145017142Y-140889523D01*
X144921904Y-140841904D01*
X144826666Y-140841904D01*
X144731428Y-140889523D01*
X144683809Y-140937142D01*
X144636190Y-141032380D01*
X144588571Y-141222857D01*
X144540952Y-141318095D01*
X144493333Y-141365714D01*
X144398095Y-141413333D01*
X144302857Y-141413333D01*
X144207619Y-141365714D01*
X144160000Y-141318095D01*
X144112380Y-141222857D01*
X144112380Y-140984761D01*
X144160000Y-140841904D01*
X144112380Y-140508571D02*
X145112380Y-140270476D01*
X144398095Y-140080000D01*
X145112380Y-139889523D01*
X144112380Y-139651428D01*
X144112380Y-139365714D02*
X144112380Y-138746666D01*
X144493333Y-139080000D01*
X144493333Y-138937142D01*
X144540952Y-138841904D01*
X144588571Y-138794285D01*
X144683809Y-138746666D01*
X144921904Y-138746666D01*
X145017142Y-138794285D01*
X145064761Y-138841904D01*
X145112380Y-138937142D01*
X145112380Y-139222857D01*
X145064761Y-139318095D01*
X145017142Y-139365714D01*
X160064761Y-141413333D02*
X160112380Y-141270476D01*
X160112380Y-141032380D01*
X160064761Y-140937142D01*
X160017142Y-140889523D01*
X159921904Y-140841904D01*
X159826666Y-140841904D01*
X159731428Y-140889523D01*
X159683809Y-140937142D01*
X159636190Y-141032380D01*
X159588571Y-141222857D01*
X159540952Y-141318095D01*
X159493333Y-141365714D01*
X159398095Y-141413333D01*
X159302857Y-141413333D01*
X159207619Y-141365714D01*
X159160000Y-141318095D01*
X159112380Y-141222857D01*
X159112380Y-140984761D01*
X159160000Y-140841904D01*
X159112380Y-140508571D02*
X160112380Y-140270476D01*
X159398095Y-140080000D01*
X160112380Y-139889523D01*
X159112380Y-139651428D01*
X159207619Y-139318095D02*
X159160000Y-139270476D01*
X159112380Y-139175238D01*
X159112380Y-138937142D01*
X159160000Y-138841904D01*
X159207619Y-138794285D01*
X159302857Y-138746666D01*
X159398095Y-138746666D01*
X159540952Y-138794285D01*
X160112380Y-139365714D01*
X160112380Y-138746666D01*
X175064761Y-141413333D02*
X175112380Y-141270476D01*
X175112380Y-141032380D01*
X175064761Y-140937142D01*
X175017142Y-140889523D01*
X174921904Y-140841904D01*
X174826666Y-140841904D01*
X174731428Y-140889523D01*
X174683809Y-140937142D01*
X174636190Y-141032380D01*
X174588571Y-141222857D01*
X174540952Y-141318095D01*
X174493333Y-141365714D01*
X174398095Y-141413333D01*
X174302857Y-141413333D01*
X174207619Y-141365714D01*
X174160000Y-141318095D01*
X174112380Y-141222857D01*
X174112380Y-140984761D01*
X174160000Y-140841904D01*
X174112380Y-140508571D02*
X175112380Y-140270476D01*
X174398095Y-140080000D01*
X175112380Y-139889523D01*
X174112380Y-139651428D01*
X175112380Y-138746666D02*
X175112380Y-139318095D01*
X175112380Y-139032380D02*
X174112380Y-139032380D01*
X174255238Y-139127619D01*
X174350476Y-139222857D01*
X174398095Y-139318095D01*
X107249933Y-127536020D02*
X106916600Y-127059830D01*
X106678504Y-127536020D02*
X106678504Y-126536020D01*
X107059457Y-126536020D01*
X107154695Y-126583640D01*
X107202314Y-126631259D01*
X107249933Y-126726497D01*
X107249933Y-126869354D01*
X107202314Y-126964592D01*
X107154695Y-127012211D01*
X107059457Y-127059830D01*
X106678504Y-127059830D01*
X108154695Y-126536020D02*
X107678504Y-126536020D01*
X107630885Y-127012211D01*
X107678504Y-126964592D01*
X107773742Y-126916973D01*
X108011838Y-126916973D01*
X108107076Y-126964592D01*
X108154695Y-127012211D01*
X108202314Y-127107449D01*
X108202314Y-127345544D01*
X108154695Y-127440782D01*
X108107076Y-127488401D01*
X108011838Y-127536020D01*
X107773742Y-127536020D01*
X107678504Y-127488401D01*
X107630885Y-127440782D01*
X122144493Y-127510620D02*
X121811160Y-127034430D01*
X121573064Y-127510620D02*
X121573064Y-126510620D01*
X121954017Y-126510620D01*
X122049255Y-126558240D01*
X122096874Y-126605859D01*
X122144493Y-126701097D01*
X122144493Y-126843954D01*
X122096874Y-126939192D01*
X122049255Y-126986811D01*
X121954017Y-127034430D01*
X121573064Y-127034430D01*
X123001636Y-126843954D02*
X123001636Y-127510620D01*
X122763540Y-126463001D02*
X122525445Y-127177287D01*
X123144493Y-127177287D01*
X137521653Y-127510620D02*
X137188320Y-127034430D01*
X136950224Y-127510620D02*
X136950224Y-126510620D01*
X137331177Y-126510620D01*
X137426415Y-126558240D01*
X137474034Y-126605859D01*
X137521653Y-126701097D01*
X137521653Y-126843954D01*
X137474034Y-126939192D01*
X137426415Y-126986811D01*
X137331177Y-127034430D01*
X136950224Y-127034430D01*
X137854986Y-126510620D02*
X138474034Y-126510620D01*
X138140700Y-126891573D01*
X138283558Y-126891573D01*
X138378796Y-126939192D01*
X138426415Y-126986811D01*
X138474034Y-127082049D01*
X138474034Y-127320144D01*
X138426415Y-127415382D01*
X138378796Y-127463001D01*
X138283558Y-127510620D01*
X137997843Y-127510620D01*
X137902605Y-127463001D01*
X137854986Y-127415382D01*
X152421293Y-127510620D02*
X152087960Y-127034430D01*
X151849864Y-127510620D02*
X151849864Y-126510620D01*
X152230817Y-126510620D01*
X152326055Y-126558240D01*
X152373674Y-126605859D01*
X152421293Y-126701097D01*
X152421293Y-126843954D01*
X152373674Y-126939192D01*
X152326055Y-126986811D01*
X152230817Y-127034430D01*
X151849864Y-127034430D01*
X152802245Y-126605859D02*
X152849864Y-126558240D01*
X152945102Y-126510620D01*
X153183198Y-126510620D01*
X153278436Y-126558240D01*
X153326055Y-126605859D01*
X153373674Y-126701097D01*
X153373674Y-126796335D01*
X153326055Y-126939192D01*
X152754626Y-127510620D01*
X153373674Y-127510620D01*
X167214253Y-127510620D02*
X166880920Y-127034430D01*
X166642824Y-127510620D02*
X166642824Y-126510620D01*
X167023777Y-126510620D01*
X167119015Y-126558240D01*
X167166634Y-126605859D01*
X167214253Y-126701097D01*
X167214253Y-126843954D01*
X167166634Y-126939192D01*
X167119015Y-126986811D01*
X167023777Y-127034430D01*
X166642824Y-127034430D01*
X168166634Y-127510620D02*
X167595205Y-127510620D01*
X167880920Y-127510620D02*
X167880920Y-126510620D01*
X167785681Y-126653478D01*
X167690443Y-126748716D01*
X167595205Y-126796335D01*
M02*
