M48
; DRILL file {KiCad (5.1.2-1)-1} date Saturday, 29 April 2023 at 13:33:41
; FORMAT={-:-/ absolute / metric / decimal}
; #@! TF.CreationDate,2023-04-29T13:33:41+02:00
; #@! TF.GenerationSoftware,Kicad,Pcbnew,(5.1.2-1)-1
; #@! TF.FileFunction,Plated,1,2,PTH
FMAT,2
METRIC
T1C0.500
T2C0.700
T3C0.800
T4C0.900
T5C1.000
T6C1.020
T7C1.200
%
G90
G05
T3
X162.301Y-129.428
X172.461Y-129.428
X117.231Y-129.428
X127.391Y-129.428
X105.578Y-88.47
X105.578Y-90.67
X105.578Y-92.87
X105.578Y-95.07
X105.578Y-97.27
X116.578Y-88.47
X116.578Y-90.67
X116.578Y-92.87
X116.578Y-95.07
X116.578Y-97.27
X108.102Y-115.032
X118.262Y-115.032
X147.508Y-129.428
X157.668Y-129.428
X108.153Y-105.054
X118.313Y-105.054
X108.153Y-119.578
X118.313Y-119.578
X102.337Y-129.454
X112.497Y-129.454
X132.608Y-129.428
X142.768Y-129.428
X108.102Y-110.089
X118.262Y-110.089
T4
X102.286Y-119.578
X104.826Y-119.578
X102.286Y-114.976
X104.826Y-114.976
X102.342Y-110.089
X104.882Y-110.089
X102.342Y-105.054
X104.882Y-105.054
X161.442Y-97.841
X169.062Y-97.841
T5
X170.147Y-81.3
X170.147Y-83.84
X170.147Y-86.42
X170.147Y-88.96
T6
X123.429Y-103.094
X123.429Y-120.874
X123.659Y-109.444
X123.659Y-111.984
X123.659Y-114.524
X125.969Y-103.094
X125.969Y-120.874
X128.509Y-103.094
X128.509Y-120.874
X131.049Y-103.094
X131.049Y-120.874
X133.589Y-103.094
X133.589Y-120.874
X136.129Y-103.094
X136.129Y-120.874
X138.669Y-103.094
X138.669Y-120.874
X141.209Y-103.094
X141.209Y-120.874
X143.749Y-103.094
X143.749Y-120.874
X146.289Y-103.094
X146.289Y-120.874
X148.829Y-103.094
X148.829Y-120.874
X151.369Y-103.094
X151.369Y-120.874
X153.909Y-103.094
X153.909Y-120.874
X156.449Y-103.094
X156.449Y-120.874
X158.989Y-103.094
X158.989Y-120.874
X161.529Y-103.094
X161.529Y-120.874
X164.069Y-103.094
X164.069Y-120.874
X166.609Y-103.094
X166.609Y-120.874
X169.149Y-103.094
X169.149Y-120.874
X171.689Y-103.094
X171.689Y-120.874
T7
X150.0Y-134.0
X150.0Y-146.5
X155.0Y-134.0
X155.0Y-146.5
X120.0Y-134.0
X120.0Y-146.5
X125.0Y-134.0
X125.0Y-146.5
X165.0Y-134.0
X165.0Y-146.5
X170.0Y-134.0
X170.0Y-146.5
X105.0Y-134.0
X105.0Y-146.5
X110.0Y-134.0
X110.0Y-146.5
X135.0Y-134.0
X135.0Y-146.5
X140.0Y-134.0
X140.0Y-146.5
T1
G00X103.329Y-77.281
M15
G01X103.329Y-80.381
M16
G05
G00X114.329Y-77.281
M15
G01X114.329Y-80.381
M16
G05
T2
G00X117.683Y-77.76
M15
G01X117.683Y-77.16
M16
G05
G00X120.223Y-77.76
M15
G01X120.223Y-77.16
M16
G05
G00X122.763Y-72.68
M15
G01X122.763Y-72.08
M16
G05
G00X125.303Y-77.76
M15
G01X125.303Y-77.16
M16
G05
G00X127.843Y-77.76
M15
G01X127.843Y-77.16
M16
G05
T3
G00X108.579Y-78.831
M15
G01X109.079Y-78.831
M16
G05
T5
G00X107.529Y-72.831
M15
G01X110.129Y-72.831
M16
G05
T0
M30
