G04 #@! TF.GenerationSoftware,KiCad,Pcbnew,(5.1.2-1)-1*
G04 #@! TF.CreationDate,2023-04-29T13:33:38+02:00*
G04 #@! TF.ProjectId,PicoClockRadio,5069636f-436c-46f6-936b-526164696f2e,rev?*
G04 #@! TF.SameCoordinates,Original*
G04 #@! TF.FileFunction,Copper,L1,Top*
G04 #@! TF.FilePolarity,Positive*
%FSLAX46Y46*%
G04 Gerber Fmt 4.6, Leading zero omitted, Abs format (unit mm)*
G04 Created by KiCad (PCBNEW (5.1.2-1)-1) date 2023-04-29 13:33:38*
%MOMM*%
%LPD*%
G04 APERTURE LIST*
%ADD10C,0.300000*%
%ADD11O,1.600000X1.600000*%
%ADD12C,1.600000*%
%ADD13O,1.800000X1.800000*%
%ADD14R,1.800000X1.800000*%
%ADD15C,1.800000*%
%ADD16O,2.200000X1.800000*%
%ADD17O,2.000000X4.500000*%
%ADD18O,4.500000X2.500000*%
%ADD19O,1.500000X2.600000*%
%ADD20O,1.700000X1.700000*%
%ADD21R,3.500000X1.700000*%
%ADD22R,1.700000X1.700000*%
%ADD23R,1.700000X3.500000*%
%ADD24O,3.600000X1.800000*%
%ADD25O,2.800000X1.400000*%
%ADD26O,1.727200X3.048000*%
%ADD27C,0.500000*%
%ADD28C,0.254000*%
G04 APERTURE END LIST*
D10*
X152620057Y-118025954D02*
X152548628Y-118097382D01*
X152334342Y-118168811D01*
X152191485Y-118168811D01*
X151977200Y-118097382D01*
X151834342Y-117954525D01*
X151762914Y-117811668D01*
X151691485Y-117525954D01*
X151691485Y-117311668D01*
X151762914Y-117025954D01*
X151834342Y-116883097D01*
X151977200Y-116740240D01*
X152191485Y-116668811D01*
X152334342Y-116668811D01*
X152548628Y-116740240D01*
X152620057Y-116811668D01*
X153477200Y-118168811D02*
X153334342Y-118097382D01*
X153262914Y-118025954D01*
X153191485Y-117883097D01*
X153191485Y-117454525D01*
X153262914Y-117311668D01*
X153334342Y-117240240D01*
X153477200Y-117168811D01*
X153691485Y-117168811D01*
X153834342Y-117240240D01*
X153905771Y-117311668D01*
X153977200Y-117454525D01*
X153977200Y-117883097D01*
X153905771Y-118025954D01*
X153834342Y-118097382D01*
X153691485Y-118168811D01*
X153477200Y-118168811D01*
X154620057Y-118168811D02*
X154620057Y-117168811D01*
X154620057Y-117311668D02*
X154691485Y-117240240D01*
X154834342Y-117168811D01*
X155048628Y-117168811D01*
X155191485Y-117240240D01*
X155262914Y-117383097D01*
X155262914Y-118168811D01*
X155262914Y-117383097D02*
X155334342Y-117240240D01*
X155477200Y-117168811D01*
X155691485Y-117168811D01*
X155834342Y-117240240D01*
X155905771Y-117383097D01*
X155905771Y-118168811D01*
X156620057Y-117168811D02*
X156620057Y-118668811D01*
X156620057Y-117240240D02*
X156762914Y-117168811D01*
X157048628Y-117168811D01*
X157191485Y-117240240D01*
X157262914Y-117311668D01*
X157334342Y-117454525D01*
X157334342Y-117883097D01*
X157262914Y-118025954D01*
X157191485Y-118097382D01*
X157048628Y-118168811D01*
X156762914Y-118168811D01*
X156620057Y-118097382D01*
X158191485Y-118168811D02*
X158048628Y-118097382D01*
X157977200Y-118025954D01*
X157905771Y-117883097D01*
X157905771Y-117454525D01*
X157977200Y-117311668D01*
X158048628Y-117240240D01*
X158191485Y-117168811D01*
X158405771Y-117168811D01*
X158548628Y-117240240D01*
X158620057Y-117311668D01*
X158691485Y-117454525D01*
X158691485Y-117883097D01*
X158620057Y-118025954D01*
X158548628Y-118097382D01*
X158405771Y-118168811D01*
X158191485Y-118168811D01*
X159334342Y-117168811D02*
X159334342Y-118168811D01*
X159334342Y-117311668D02*
X159405771Y-117240240D01*
X159548628Y-117168811D01*
X159762914Y-117168811D01*
X159905771Y-117240240D01*
X159977200Y-117383097D01*
X159977200Y-118168811D01*
X161262914Y-118097382D02*
X161120057Y-118168811D01*
X160834342Y-118168811D01*
X160691485Y-118097382D01*
X160620057Y-117954525D01*
X160620057Y-117383097D01*
X160691485Y-117240240D01*
X160834342Y-117168811D01*
X161120057Y-117168811D01*
X161262914Y-117240240D01*
X161334342Y-117383097D01*
X161334342Y-117525954D01*
X160620057Y-117668811D01*
X161977200Y-117168811D02*
X161977200Y-118168811D01*
X161977200Y-117311668D02*
X162048628Y-117240240D01*
X162191485Y-117168811D01*
X162405771Y-117168811D01*
X162548628Y-117240240D01*
X162620057Y-117383097D01*
X162620057Y-118168811D01*
X163120057Y-117168811D02*
X163691485Y-117168811D01*
X163334342Y-116668811D02*
X163334342Y-117954525D01*
X163405771Y-118097382D01*
X163548628Y-118168811D01*
X163691485Y-118168811D01*
X165262914Y-118097382D02*
X165405771Y-118168811D01*
X165691485Y-118168811D01*
X165834342Y-118097382D01*
X165905771Y-117954525D01*
X165905771Y-117883097D01*
X165834342Y-117740240D01*
X165691485Y-117668811D01*
X165477200Y-117668811D01*
X165334342Y-117597382D01*
X165262914Y-117454525D01*
X165262914Y-117383097D01*
X165334342Y-117240240D01*
X165477200Y-117168811D01*
X165691485Y-117168811D01*
X165834342Y-117240240D01*
X166548628Y-118168811D02*
X166548628Y-117168811D01*
X166548628Y-116668811D02*
X166477200Y-116740240D01*
X166548628Y-116811668D01*
X166620057Y-116740240D01*
X166548628Y-116668811D01*
X166548628Y-116811668D01*
X167905771Y-118168811D02*
X167905771Y-116668811D01*
X167905771Y-118097382D02*
X167762914Y-118168811D01*
X167477200Y-118168811D01*
X167334342Y-118097382D01*
X167262914Y-118025954D01*
X167191485Y-117883097D01*
X167191485Y-117454525D01*
X167262914Y-117311668D01*
X167334342Y-117240240D01*
X167477200Y-117168811D01*
X167762914Y-117168811D01*
X167905771Y-117240240D01*
X169191485Y-118097382D02*
X169048628Y-118168811D01*
X168762914Y-118168811D01*
X168620057Y-118097382D01*
X168548628Y-117954525D01*
X168548628Y-117383097D01*
X168620057Y-117240240D01*
X168762914Y-117168811D01*
X169048628Y-117168811D01*
X169191485Y-117240240D01*
X169262914Y-117383097D01*
X169262914Y-117525954D01*
X168548628Y-117668811D01*
D11*
X108153200Y-105054400D03*
D12*
X118313200Y-105054400D03*
D11*
X108102400Y-110088680D03*
D12*
X118262400Y-110088680D03*
D11*
X108102400Y-115031520D03*
D12*
X118262400Y-115031520D03*
D11*
X108153200Y-119578120D03*
D12*
X118313200Y-119578120D03*
D13*
X161442400Y-97840800D03*
D14*
X169062400Y-97840800D03*
D15*
X102341680Y-105054400D03*
D14*
X104881680Y-105054400D03*
D15*
X102341680Y-110088680D03*
D14*
X104881680Y-110088680D03*
D15*
X102285800Y-114975640D03*
D14*
X104825800Y-114975640D03*
D15*
X102285800Y-119578120D03*
D14*
X104825800Y-119578120D03*
D16*
X108828840Y-78831320D03*
D17*
X114328840Y-78831320D03*
X103328840Y-78831320D03*
D18*
X108828840Y-72831320D03*
D19*
X127843280Y-77459840D03*
X125303280Y-77459840D03*
X120223280Y-77459840D03*
X117683280Y-77459840D03*
X122763280Y-72379840D03*
D20*
X123658760Y-114523520D03*
D21*
X122758760Y-114523520D03*
D22*
X123658760Y-111983520D03*
D21*
X122758760Y-111983520D03*
D20*
X123658760Y-109443520D03*
D21*
X122758760Y-109443520D03*
D23*
X123428760Y-121773520D03*
X125968760Y-121773520D03*
X128508760Y-121773520D03*
X131048760Y-121773520D03*
X133588760Y-121773520D03*
X136128760Y-121773520D03*
X138668760Y-121773520D03*
X141208760Y-121773520D03*
X143748760Y-121773520D03*
X146288760Y-121773520D03*
X148828760Y-121773520D03*
X151368760Y-121773520D03*
X153908760Y-121773520D03*
X156448760Y-121773520D03*
X158988760Y-121773520D03*
X161528760Y-121773520D03*
X164068760Y-121773520D03*
X166608760Y-121773520D03*
X169148760Y-121773520D03*
X171688760Y-121773520D03*
X123428760Y-102193520D03*
X125968760Y-102193520D03*
X128508760Y-102193520D03*
X131048760Y-102193520D03*
X133588760Y-102193520D03*
X136128760Y-102193520D03*
X138668760Y-102193520D03*
X141208760Y-102193520D03*
X143748760Y-102193520D03*
X146288760Y-102193520D03*
X148828760Y-102193520D03*
X151368760Y-102193520D03*
X153908760Y-102193520D03*
X156448760Y-102193520D03*
X158988760Y-102193520D03*
X161528760Y-102193520D03*
X164068760Y-102193520D03*
X166608760Y-102193520D03*
X169148760Y-102193520D03*
X171688760Y-102193520D03*
D20*
X171688760Y-120873520D03*
X169148760Y-120873520D03*
D22*
X166608760Y-120873520D03*
D20*
X164068760Y-120873520D03*
X161528760Y-120873520D03*
X158988760Y-120873520D03*
X156448760Y-120873520D03*
D22*
X153908760Y-120873520D03*
D20*
X151368760Y-120873520D03*
X148828760Y-120873520D03*
X146288760Y-120873520D03*
X143748760Y-120873520D03*
D22*
X141208760Y-120873520D03*
D20*
X138668760Y-120873520D03*
X136128760Y-120873520D03*
X133588760Y-120873520D03*
X131048760Y-120873520D03*
D22*
X128508760Y-120873520D03*
D20*
X125968760Y-120873520D03*
X123428760Y-120873520D03*
X123428760Y-103093520D03*
X125968760Y-103093520D03*
D22*
X128508760Y-103093520D03*
D20*
X131048760Y-103093520D03*
X133588760Y-103093520D03*
X136128760Y-103093520D03*
X138668760Y-103093520D03*
D22*
X141208760Y-103093520D03*
D20*
X143748760Y-103093520D03*
X146288760Y-103093520D03*
X148828760Y-103093520D03*
X151368760Y-103093520D03*
D22*
X153908760Y-103093520D03*
D20*
X156448760Y-103093520D03*
X158988760Y-103093520D03*
X161528760Y-103093520D03*
X164068760Y-103093520D03*
D22*
X166608760Y-103093520D03*
D20*
X169148760Y-103093520D03*
X171688760Y-103093520D03*
D24*
X170146760Y-88960160D03*
X170146760Y-81300160D03*
X170146760Y-83840160D03*
X170146760Y-86420160D03*
D25*
X105577560Y-90669840D03*
X105577560Y-88469840D03*
X105577560Y-92869840D03*
X105577560Y-95069840D03*
X105577560Y-97269840D03*
X116577560Y-90669840D03*
X116577560Y-88469840D03*
X116577560Y-92869840D03*
X116577560Y-95069840D03*
X116577560Y-97269840D03*
D26*
X105000000Y-134000000D03*
X110000000Y-134000000D03*
X105000000Y-146500000D03*
X110000000Y-146500000D03*
X120000000Y-134000000D03*
X125000000Y-134000000D03*
X120000000Y-146500000D03*
X125000000Y-146500000D03*
X135000000Y-134000000D03*
X140000000Y-134000000D03*
X135000000Y-146500000D03*
X140000000Y-146500000D03*
X150000000Y-134000000D03*
X155000000Y-134000000D03*
X150000000Y-146500000D03*
X155000000Y-146500000D03*
X165000000Y-134000000D03*
X170000000Y-134000000D03*
X165000000Y-146500000D03*
X170000000Y-146500000D03*
D11*
X112496600Y-129453640D03*
D12*
X102336600Y-129453640D03*
D11*
X127391160Y-129428240D03*
D12*
X117231160Y-129428240D03*
D11*
X142768320Y-129428240D03*
D12*
X132608320Y-129428240D03*
D11*
X157667960Y-129428240D03*
D12*
X147507960Y-129428240D03*
D11*
X172460920Y-129428240D03*
D12*
X162300920Y-129428240D03*
D27*
X108068840Y-97269840D02*
X105577560Y-97269840D01*
X108828840Y-96509840D02*
X108068840Y-97269840D01*
X108828840Y-78831320D02*
X108828840Y-96509840D01*
X169280840Y-126248160D02*
X172460920Y-129428240D01*
X139733398Y-126248160D02*
X169280840Y-126248160D01*
X136128760Y-122643522D02*
X139733398Y-126248160D01*
X136128760Y-120873520D02*
X136128760Y-122643522D01*
X172460920Y-130559610D02*
X172460920Y-129428240D01*
X172460920Y-130878680D02*
X172460920Y-130559610D01*
X170000000Y-133339600D02*
X172460920Y-130878680D01*
X170000000Y-134000000D02*
X170000000Y-133339600D01*
X133588760Y-122643522D02*
X138397358Y-127452120D01*
X133588760Y-120873520D02*
X133588760Y-122643522D01*
X138397358Y-127452120D02*
X149529800Y-127452120D01*
X151505920Y-129428240D02*
X157667960Y-129428240D01*
X149529800Y-127452120D02*
X151505920Y-129428240D01*
X157667960Y-130559610D02*
X157667960Y-129428240D01*
X155000000Y-133339600D02*
X157667960Y-130671640D01*
X157667960Y-130671640D02*
X157667960Y-130559610D01*
X155000000Y-134000000D02*
X155000000Y-133339600D01*
X131048760Y-122643522D02*
X131023360Y-122668922D01*
X131048760Y-120873520D02*
X131048760Y-122643522D01*
X131023360Y-122668922D02*
X131023360Y-125049280D01*
X135402320Y-129428240D02*
X142768320Y-129428240D01*
X131023360Y-125049280D02*
X135402320Y-129428240D01*
X142768320Y-130571280D02*
X142768320Y-130559610D01*
X142768320Y-130559610D02*
X142768320Y-129428240D01*
X140000000Y-133339600D02*
X142768320Y-130571280D01*
X140000000Y-134000000D02*
X140000000Y-133339600D01*
X125968760Y-128005840D02*
X127391160Y-129428240D01*
X125968760Y-120873520D02*
X125968760Y-128005840D01*
X125000000Y-131819400D02*
X127391160Y-129428240D01*
X125000000Y-134000000D02*
X125000000Y-131819400D01*
X110000000Y-133339600D02*
X110032800Y-133306800D01*
X110000000Y-134000000D02*
X110000000Y-133339600D01*
X110000000Y-131950240D02*
X112496600Y-129453640D01*
X110000000Y-134000000D02*
X110000000Y-131950240D01*
X114980720Y-126969520D02*
X120771920Y-126969520D01*
X112496600Y-129453640D02*
X114980720Y-126969520D01*
X123428760Y-124312680D02*
X123428760Y-120873520D01*
X120771920Y-126969520D02*
X123428760Y-124312680D01*
X118477560Y-95069840D02*
X118490080Y-95082360D01*
X116577560Y-95069840D02*
X118477560Y-95069840D01*
X118490080Y-95082360D02*
X154904440Y-95082360D01*
X156448760Y-96626680D02*
X156448760Y-103093520D01*
X154904440Y-95082360D02*
X156448760Y-96626680D01*
X171688760Y-103093520D02*
X171688760Y-92913200D01*
X171688760Y-92913200D02*
X173294040Y-91307920D01*
X173294040Y-91307920D02*
X173294040Y-81813400D01*
X172780800Y-81300160D02*
X170146760Y-81300160D01*
X173294040Y-81813400D02*
X172780800Y-81300160D01*
X169148760Y-103093520D02*
X169148760Y-92654120D01*
X169148760Y-92654120D02*
X166481760Y-89987120D01*
X166481760Y-89987120D02*
X166481760Y-84566760D01*
X167208360Y-83840160D02*
X170146760Y-83840160D01*
X166481760Y-84566760D02*
X167208360Y-83840160D01*
D28*
G36*
X107103992Y-71081381D02*
G01*
X106776523Y-71256417D01*
X106489495Y-71491975D01*
X106253937Y-71779003D01*
X106078901Y-72106472D01*
X105971115Y-72461796D01*
X105934720Y-72831320D01*
X105971115Y-73200844D01*
X106078901Y-73556168D01*
X106253937Y-73883637D01*
X106489495Y-74170665D01*
X106776523Y-74406223D01*
X107103992Y-74581259D01*
X107459316Y-74689045D01*
X107736243Y-74716320D01*
X109921437Y-74716320D01*
X110198364Y-74689045D01*
X110553688Y-74581259D01*
X110881157Y-74406223D01*
X111168185Y-74170665D01*
X111403743Y-73883637D01*
X111578779Y-73556168D01*
X111686565Y-73200844D01*
X111722960Y-72831320D01*
X111686565Y-72461796D01*
X111578779Y-72106472D01*
X111403743Y-71779003D01*
X111168185Y-71491975D01*
X110881157Y-71256417D01*
X110553688Y-71081381D01*
X110496786Y-71064120D01*
X121602132Y-71064120D01*
X121477516Y-71297260D01*
X121398320Y-71558334D01*
X121378280Y-71761804D01*
X121378280Y-72997877D01*
X121398320Y-73201347D01*
X121477516Y-73462421D01*
X121606123Y-73703028D01*
X121779200Y-73913921D01*
X121990093Y-74086997D01*
X122230700Y-74215604D01*
X122491774Y-74294800D01*
X122763280Y-74321541D01*
X123034787Y-74294800D01*
X123295861Y-74215604D01*
X123536468Y-74086997D01*
X123747361Y-73913921D01*
X123920437Y-73703028D01*
X124049044Y-73462421D01*
X124128240Y-73201347D01*
X124148280Y-72997877D01*
X124148280Y-71761803D01*
X124128240Y-71558333D01*
X124049044Y-71297259D01*
X123924429Y-71064120D01*
X174838668Y-71064120D01*
X174828685Y-148463400D01*
X170741320Y-148463400D01*
X170836605Y-148412469D01*
X171064797Y-148225197D01*
X171252069Y-147997006D01*
X171391225Y-147736664D01*
X171476916Y-147454177D01*
X171498600Y-147234019D01*
X171498600Y-145765981D01*
X171476916Y-145545823D01*
X171391225Y-145263336D01*
X171252069Y-145002994D01*
X171064797Y-144774803D01*
X170836606Y-144587531D01*
X170576264Y-144448375D01*
X170293777Y-144362684D01*
X170000000Y-144333749D01*
X169706224Y-144362684D01*
X169423737Y-144448375D01*
X169163395Y-144587531D01*
X168935204Y-144774803D01*
X168747932Y-145002994D01*
X168608775Y-145263336D01*
X168523084Y-145545823D01*
X168501400Y-145765981D01*
X168501400Y-147234018D01*
X168523084Y-147454176D01*
X168608775Y-147736663D01*
X168747931Y-147997005D01*
X168935203Y-148225197D01*
X169163394Y-148412469D01*
X169258679Y-148463400D01*
X165741320Y-148463400D01*
X165836605Y-148412469D01*
X166064797Y-148225197D01*
X166252069Y-147997006D01*
X166391225Y-147736664D01*
X166476916Y-147454177D01*
X166498600Y-147234019D01*
X166498600Y-145765981D01*
X166476916Y-145545823D01*
X166391225Y-145263336D01*
X166252069Y-145002994D01*
X166064797Y-144774803D01*
X165836606Y-144587531D01*
X165576264Y-144448375D01*
X165293777Y-144362684D01*
X165000000Y-144333749D01*
X164706224Y-144362684D01*
X164423737Y-144448375D01*
X164163395Y-144587531D01*
X163935204Y-144774803D01*
X163747932Y-145002994D01*
X163608775Y-145263336D01*
X163523084Y-145545823D01*
X163501400Y-145765981D01*
X163501400Y-147234018D01*
X163523084Y-147454176D01*
X163608775Y-147736663D01*
X163747931Y-147997005D01*
X163935203Y-148225197D01*
X164163394Y-148412469D01*
X164258679Y-148463400D01*
X155741320Y-148463400D01*
X155836605Y-148412469D01*
X156064797Y-148225197D01*
X156252069Y-147997006D01*
X156391225Y-147736664D01*
X156476916Y-147454177D01*
X156498600Y-147234019D01*
X156498600Y-145765981D01*
X156476916Y-145545823D01*
X156391225Y-145263336D01*
X156252069Y-145002994D01*
X156064797Y-144774803D01*
X155836606Y-144587531D01*
X155576264Y-144448375D01*
X155293777Y-144362684D01*
X155000000Y-144333749D01*
X154706224Y-144362684D01*
X154423737Y-144448375D01*
X154163395Y-144587531D01*
X153935204Y-144774803D01*
X153747932Y-145002994D01*
X153608775Y-145263336D01*
X153523084Y-145545823D01*
X153501400Y-145765981D01*
X153501400Y-147234018D01*
X153523084Y-147454176D01*
X153608775Y-147736663D01*
X153747931Y-147997005D01*
X153935203Y-148225197D01*
X154163394Y-148412469D01*
X154258679Y-148463400D01*
X150741320Y-148463400D01*
X150836605Y-148412469D01*
X151064797Y-148225197D01*
X151252069Y-147997006D01*
X151391225Y-147736664D01*
X151476916Y-147454177D01*
X151498600Y-147234019D01*
X151498600Y-145765981D01*
X151476916Y-145545823D01*
X151391225Y-145263336D01*
X151252069Y-145002994D01*
X151064797Y-144774803D01*
X150836606Y-144587531D01*
X150576264Y-144448375D01*
X150293777Y-144362684D01*
X150000000Y-144333749D01*
X149706224Y-144362684D01*
X149423737Y-144448375D01*
X149163395Y-144587531D01*
X148935204Y-144774803D01*
X148747932Y-145002994D01*
X148608775Y-145263336D01*
X148523084Y-145545823D01*
X148501400Y-145765981D01*
X148501400Y-147234018D01*
X148523084Y-147454176D01*
X148608775Y-147736663D01*
X148747931Y-147997005D01*
X148935203Y-148225197D01*
X149163394Y-148412469D01*
X149258679Y-148463400D01*
X140741320Y-148463400D01*
X140836605Y-148412469D01*
X141064797Y-148225197D01*
X141252069Y-147997006D01*
X141391225Y-147736664D01*
X141476916Y-147454177D01*
X141498600Y-147234019D01*
X141498600Y-145765981D01*
X141476916Y-145545823D01*
X141391225Y-145263336D01*
X141252069Y-145002994D01*
X141064797Y-144774803D01*
X140836606Y-144587531D01*
X140576264Y-144448375D01*
X140293777Y-144362684D01*
X140000000Y-144333749D01*
X139706224Y-144362684D01*
X139423737Y-144448375D01*
X139163395Y-144587531D01*
X138935204Y-144774803D01*
X138747932Y-145002994D01*
X138608775Y-145263336D01*
X138523084Y-145545823D01*
X138501400Y-145765981D01*
X138501400Y-147234018D01*
X138523084Y-147454176D01*
X138608775Y-147736663D01*
X138747931Y-147997005D01*
X138935203Y-148225197D01*
X139163394Y-148412469D01*
X139258679Y-148463400D01*
X135741320Y-148463400D01*
X135836605Y-148412469D01*
X136064797Y-148225197D01*
X136252069Y-147997006D01*
X136391225Y-147736664D01*
X136476916Y-147454177D01*
X136498600Y-147234019D01*
X136498600Y-145765981D01*
X136476916Y-145545823D01*
X136391225Y-145263336D01*
X136252069Y-145002994D01*
X136064797Y-144774803D01*
X135836606Y-144587531D01*
X135576264Y-144448375D01*
X135293777Y-144362684D01*
X135000000Y-144333749D01*
X134706224Y-144362684D01*
X134423737Y-144448375D01*
X134163395Y-144587531D01*
X133935204Y-144774803D01*
X133747932Y-145002994D01*
X133608775Y-145263336D01*
X133523084Y-145545823D01*
X133501400Y-145765981D01*
X133501400Y-147234018D01*
X133523084Y-147454176D01*
X133608775Y-147736663D01*
X133747931Y-147997005D01*
X133935203Y-148225197D01*
X134163394Y-148412469D01*
X134258679Y-148463400D01*
X125741320Y-148463400D01*
X125836605Y-148412469D01*
X126064797Y-148225197D01*
X126252069Y-147997006D01*
X126391225Y-147736664D01*
X126476916Y-147454177D01*
X126498600Y-147234019D01*
X126498600Y-145765981D01*
X126476916Y-145545823D01*
X126391225Y-145263336D01*
X126252069Y-145002994D01*
X126064797Y-144774803D01*
X125836606Y-144587531D01*
X125576264Y-144448375D01*
X125293777Y-144362684D01*
X125000000Y-144333749D01*
X124706224Y-144362684D01*
X124423737Y-144448375D01*
X124163395Y-144587531D01*
X123935204Y-144774803D01*
X123747932Y-145002994D01*
X123608775Y-145263336D01*
X123523084Y-145545823D01*
X123501400Y-145765981D01*
X123501400Y-147234018D01*
X123523084Y-147454176D01*
X123608775Y-147736663D01*
X123747931Y-147997005D01*
X123935203Y-148225197D01*
X124163394Y-148412469D01*
X124258679Y-148463400D01*
X120741320Y-148463400D01*
X120836605Y-148412469D01*
X121064797Y-148225197D01*
X121252069Y-147997006D01*
X121391225Y-147736664D01*
X121476916Y-147454177D01*
X121498600Y-147234019D01*
X121498600Y-145765981D01*
X121476916Y-145545823D01*
X121391225Y-145263336D01*
X121252069Y-145002994D01*
X121064797Y-144774803D01*
X120836606Y-144587531D01*
X120576264Y-144448375D01*
X120293777Y-144362684D01*
X120000000Y-144333749D01*
X119706224Y-144362684D01*
X119423737Y-144448375D01*
X119163395Y-144587531D01*
X118935204Y-144774803D01*
X118747932Y-145002994D01*
X118608775Y-145263336D01*
X118523084Y-145545823D01*
X118501400Y-145765981D01*
X118501400Y-147234018D01*
X118523084Y-147454176D01*
X118608775Y-147736663D01*
X118747931Y-147997005D01*
X118935203Y-148225197D01*
X119163394Y-148412469D01*
X119258679Y-148463400D01*
X110741320Y-148463400D01*
X110836605Y-148412469D01*
X111064797Y-148225197D01*
X111252069Y-147997006D01*
X111391225Y-147736664D01*
X111476916Y-147454177D01*
X111498600Y-147234019D01*
X111498600Y-145765981D01*
X111476916Y-145545823D01*
X111391225Y-145263336D01*
X111252069Y-145002994D01*
X111064797Y-144774803D01*
X110836606Y-144587531D01*
X110576264Y-144448375D01*
X110293777Y-144362684D01*
X110000000Y-144333749D01*
X109706224Y-144362684D01*
X109423737Y-144448375D01*
X109163395Y-144587531D01*
X108935204Y-144774803D01*
X108747932Y-145002994D01*
X108608775Y-145263336D01*
X108523084Y-145545823D01*
X108501400Y-145765981D01*
X108501400Y-147234018D01*
X108523084Y-147454176D01*
X108608775Y-147736663D01*
X108747931Y-147997005D01*
X108935203Y-148225197D01*
X109163394Y-148412469D01*
X109258679Y-148463400D01*
X105741320Y-148463400D01*
X105836605Y-148412469D01*
X106064797Y-148225197D01*
X106252069Y-147997006D01*
X106391225Y-147736664D01*
X106476916Y-147454177D01*
X106498600Y-147234019D01*
X106498600Y-145765981D01*
X106476916Y-145545823D01*
X106391225Y-145263336D01*
X106252069Y-145002994D01*
X106064797Y-144774803D01*
X105836606Y-144587531D01*
X105576264Y-144448375D01*
X105293777Y-144362684D01*
X105000000Y-144333749D01*
X104706224Y-144362684D01*
X104423737Y-144448375D01*
X104163395Y-144587531D01*
X103935204Y-144774803D01*
X103747932Y-145002994D01*
X103608775Y-145263336D01*
X103523084Y-145545823D01*
X103501400Y-145765981D01*
X103501400Y-147234018D01*
X103523084Y-147454176D01*
X103608775Y-147736663D01*
X103747931Y-147997005D01*
X103935203Y-148225197D01*
X104163394Y-148412469D01*
X104258679Y-148463400D01*
X100019804Y-148463400D01*
X100021763Y-133265981D01*
X103501400Y-133265981D01*
X103501400Y-134734018D01*
X103523084Y-134954176D01*
X103608775Y-135236663D01*
X103747931Y-135497005D01*
X103935203Y-135725197D01*
X104163394Y-135912469D01*
X104423736Y-136051625D01*
X104706223Y-136137316D01*
X105000000Y-136166251D01*
X105293776Y-136137316D01*
X105576263Y-136051625D01*
X105836605Y-135912469D01*
X106064797Y-135725197D01*
X106252069Y-135497006D01*
X106391225Y-135236664D01*
X106476916Y-134954177D01*
X106498600Y-134734019D01*
X106498600Y-133265981D01*
X108501400Y-133265981D01*
X108501400Y-134734018D01*
X108523084Y-134954176D01*
X108608775Y-135236663D01*
X108747931Y-135497005D01*
X108935203Y-135725197D01*
X109163394Y-135912469D01*
X109423736Y-136051625D01*
X109706223Y-136137316D01*
X110000000Y-136166251D01*
X110293776Y-136137316D01*
X110576263Y-136051625D01*
X110836605Y-135912469D01*
X111064797Y-135725197D01*
X111252069Y-135497006D01*
X111391225Y-135236664D01*
X111476916Y-134954177D01*
X111498600Y-134734019D01*
X111498600Y-133265981D01*
X118501400Y-133265981D01*
X118501400Y-134734018D01*
X118523084Y-134954176D01*
X118608775Y-135236663D01*
X118747931Y-135497005D01*
X118935203Y-135725197D01*
X119163394Y-135912469D01*
X119423736Y-136051625D01*
X119706223Y-136137316D01*
X120000000Y-136166251D01*
X120293776Y-136137316D01*
X120576263Y-136051625D01*
X120836605Y-135912469D01*
X121064797Y-135725197D01*
X121252069Y-135497006D01*
X121391225Y-135236664D01*
X121476916Y-134954177D01*
X121498600Y-134734019D01*
X121498600Y-133265981D01*
X121476916Y-133045823D01*
X121391225Y-132763336D01*
X121252069Y-132502994D01*
X121064797Y-132274803D01*
X120836606Y-132087531D01*
X120576264Y-131948375D01*
X120293777Y-131862684D01*
X120000000Y-131833749D01*
X119706224Y-131862684D01*
X119423737Y-131948375D01*
X119163395Y-132087531D01*
X118935204Y-132274803D01*
X118747932Y-132502994D01*
X118608775Y-132763336D01*
X118523084Y-133045823D01*
X118501400Y-133265981D01*
X111498600Y-133265981D01*
X111476916Y-133045823D01*
X111391225Y-132763336D01*
X111252069Y-132502994D01*
X111064797Y-132274803D01*
X110989121Y-132212697D01*
X112323304Y-130878515D01*
X112426108Y-130888640D01*
X112567092Y-130888640D01*
X112777909Y-130867876D01*
X113048408Y-130785822D01*
X113297701Y-130652572D01*
X113516208Y-130473248D01*
X113559134Y-130420942D01*
X116418063Y-130420942D01*
X116489646Y-130664911D01*
X116745156Y-130785811D01*
X117019344Y-130854540D01*
X117301672Y-130868457D01*
X117581290Y-130827027D01*
X117847452Y-130731843D01*
X117972674Y-130664911D01*
X118044257Y-130420942D01*
X117231160Y-129607845D01*
X116418063Y-130420942D01*
X113559134Y-130420942D01*
X113695532Y-130254741D01*
X113828782Y-130005448D01*
X113910836Y-129734949D01*
X113934099Y-129498752D01*
X115790943Y-129498752D01*
X115832373Y-129778370D01*
X115927557Y-130044532D01*
X115994489Y-130169754D01*
X116238458Y-130241337D01*
X117051555Y-129428240D01*
X117410765Y-129428240D01*
X118223862Y-130241337D01*
X118467831Y-130169754D01*
X118588731Y-129914244D01*
X118657460Y-129640056D01*
X118671377Y-129357728D01*
X118629947Y-129078110D01*
X118534763Y-128811948D01*
X118467831Y-128686726D01*
X118223862Y-128615143D01*
X117410765Y-129428240D01*
X117051555Y-129428240D01*
X116238458Y-128615143D01*
X115994489Y-128686726D01*
X115873589Y-128942236D01*
X115804860Y-129216424D01*
X115790943Y-129498752D01*
X113934099Y-129498752D01*
X113938543Y-129453640D01*
X113921475Y-129280344D01*
X114766281Y-128435538D01*
X116418063Y-128435538D01*
X117231160Y-129248635D01*
X118044257Y-128435538D01*
X117972674Y-128191569D01*
X117717164Y-128070669D01*
X117442976Y-128001940D01*
X117160648Y-127988023D01*
X116881030Y-128029453D01*
X116614868Y-128124637D01*
X116489646Y-128191569D01*
X116418063Y-128435538D01*
X114766281Y-128435538D01*
X115347299Y-127854520D01*
X120728451Y-127854520D01*
X120771920Y-127858801D01*
X120815389Y-127854520D01*
X120815397Y-127854520D01*
X120945410Y-127841715D01*
X121112233Y-127791109D01*
X121265979Y-127708931D01*
X121400737Y-127598337D01*
X121428454Y-127564564D01*
X124023810Y-124969209D01*
X124057577Y-124941497D01*
X124168171Y-124806739D01*
X124250349Y-124652993D01*
X124300955Y-124486170D01*
X124313760Y-124356157D01*
X124313760Y-124356147D01*
X124318041Y-124312681D01*
X124313760Y-124269215D01*
X124313760Y-124158145D01*
X124403242Y-124149332D01*
X124522940Y-124113022D01*
X124633254Y-124054057D01*
X124698760Y-124000298D01*
X124764266Y-124054057D01*
X124874580Y-124113022D01*
X124994278Y-124149332D01*
X125083760Y-124158145D01*
X125083761Y-127962361D01*
X125079479Y-128005840D01*
X125096565Y-128179330D01*
X125147172Y-128346153D01*
X125229350Y-128499899D01*
X125312228Y-128600886D01*
X125312231Y-128600889D01*
X125339944Y-128634657D01*
X125373711Y-128662369D01*
X125966285Y-129254944D01*
X125949217Y-129428240D01*
X125966285Y-129601536D01*
X124404951Y-131162871D01*
X124371184Y-131190583D01*
X124343471Y-131224351D01*
X124343468Y-131224354D01*
X124260590Y-131325341D01*
X124178412Y-131479087D01*
X124127805Y-131645910D01*
X124110719Y-131819400D01*
X124115001Y-131862879D01*
X124115001Y-132127247D01*
X123935204Y-132274803D01*
X123747932Y-132502994D01*
X123608775Y-132763336D01*
X123523084Y-133045823D01*
X123501400Y-133265981D01*
X123501400Y-134734018D01*
X123523084Y-134954176D01*
X123608775Y-135236663D01*
X123747931Y-135497005D01*
X123935203Y-135725197D01*
X124163394Y-135912469D01*
X124423736Y-136051625D01*
X124706223Y-136137316D01*
X125000000Y-136166251D01*
X125293776Y-136137316D01*
X125576263Y-136051625D01*
X125836605Y-135912469D01*
X126064797Y-135725197D01*
X126252069Y-135497006D01*
X126391225Y-135236664D01*
X126476916Y-134954177D01*
X126498600Y-134734019D01*
X126498600Y-133265981D01*
X133501400Y-133265981D01*
X133501400Y-134734018D01*
X133523084Y-134954176D01*
X133608775Y-135236663D01*
X133747931Y-135497005D01*
X133935203Y-135725197D01*
X134163394Y-135912469D01*
X134423736Y-136051625D01*
X134706223Y-136137316D01*
X135000000Y-136166251D01*
X135293776Y-136137316D01*
X135576263Y-136051625D01*
X135836605Y-135912469D01*
X136064797Y-135725197D01*
X136252069Y-135497006D01*
X136391225Y-135236664D01*
X136476916Y-134954177D01*
X136498600Y-134734019D01*
X136498600Y-133265981D01*
X136476916Y-133045823D01*
X136391225Y-132763336D01*
X136252069Y-132502994D01*
X136064797Y-132274803D01*
X135836606Y-132087531D01*
X135576264Y-131948375D01*
X135293777Y-131862684D01*
X135000000Y-131833749D01*
X134706224Y-131862684D01*
X134423737Y-131948375D01*
X134163395Y-132087531D01*
X133935204Y-132274803D01*
X133747932Y-132502994D01*
X133608775Y-132763336D01*
X133523084Y-133045823D01*
X133501400Y-133265981D01*
X126498600Y-133265981D01*
X126476916Y-133045823D01*
X126391225Y-132763336D01*
X126252069Y-132502994D01*
X126064797Y-132274803D01*
X125917258Y-132153720D01*
X127217864Y-130853115D01*
X127320668Y-130863240D01*
X127461652Y-130863240D01*
X127672469Y-130842476D01*
X127942968Y-130760422D01*
X128192261Y-130627172D01*
X128410768Y-130447848D01*
X128432849Y-130420942D01*
X131795223Y-130420942D01*
X131866806Y-130664911D01*
X132122316Y-130785811D01*
X132396504Y-130854540D01*
X132678832Y-130868457D01*
X132958450Y-130827027D01*
X133224612Y-130731843D01*
X133349834Y-130664911D01*
X133421417Y-130420942D01*
X132608320Y-129607845D01*
X131795223Y-130420942D01*
X128432849Y-130420942D01*
X128590092Y-130229341D01*
X128723342Y-129980048D01*
X128805396Y-129709549D01*
X128826158Y-129498752D01*
X131168103Y-129498752D01*
X131209533Y-129778370D01*
X131304717Y-130044532D01*
X131371649Y-130169754D01*
X131615618Y-130241337D01*
X132428715Y-129428240D01*
X131615618Y-128615143D01*
X131371649Y-128686726D01*
X131250749Y-128942236D01*
X131182020Y-129216424D01*
X131168103Y-129498752D01*
X128826158Y-129498752D01*
X128833103Y-129428240D01*
X128805396Y-129146931D01*
X128723342Y-128876432D01*
X128590092Y-128627139D01*
X128410768Y-128408632D01*
X128192261Y-128229308D01*
X127942968Y-128096058D01*
X127672469Y-128014004D01*
X127461652Y-127993240D01*
X127320668Y-127993240D01*
X127217864Y-128003365D01*
X126853760Y-127639262D01*
X126853760Y-124158145D01*
X126943242Y-124149332D01*
X127062940Y-124113022D01*
X127173254Y-124054057D01*
X127238760Y-124000298D01*
X127304266Y-124054057D01*
X127414580Y-124113022D01*
X127534278Y-124149332D01*
X127658760Y-124161592D01*
X129358760Y-124161592D01*
X129483242Y-124149332D01*
X129602940Y-124113022D01*
X129713254Y-124054057D01*
X129778760Y-124000298D01*
X129844266Y-124054057D01*
X129954580Y-124113022D01*
X130074278Y-124149332D01*
X130138361Y-124155643D01*
X130138361Y-125005801D01*
X130134079Y-125049280D01*
X130151165Y-125222770D01*
X130201772Y-125389593D01*
X130283950Y-125543339D01*
X130366828Y-125644326D01*
X130366831Y-125644329D01*
X130394544Y-125678097D01*
X130428311Y-125705810D01*
X132719480Y-127996978D01*
X132537808Y-127988023D01*
X132258190Y-128029453D01*
X131992028Y-128124637D01*
X131866806Y-128191569D01*
X131795223Y-128435538D01*
X132608320Y-129248635D01*
X132622463Y-129234493D01*
X132802068Y-129414098D01*
X132787925Y-129428240D01*
X133601022Y-130241337D01*
X133844991Y-130169754D01*
X133965891Y-129914244D01*
X134034620Y-129640056D01*
X134048537Y-129357728D01*
X134043025Y-129320523D01*
X134745788Y-130023287D01*
X134773503Y-130057057D01*
X134807271Y-130084770D01*
X134807273Y-130084772D01*
X134908261Y-130167651D01*
X135062006Y-130249829D01*
X135228827Y-130300434D01*
X135228830Y-130300435D01*
X135358843Y-130313240D01*
X135358851Y-130313240D01*
X135402320Y-130317521D01*
X135445789Y-130313240D01*
X141638242Y-130313240D01*
X141699788Y-130388234D01*
X140231474Y-131856548D01*
X140000000Y-131833749D01*
X139706224Y-131862684D01*
X139423737Y-131948375D01*
X139163395Y-132087531D01*
X138935204Y-132274803D01*
X138747932Y-132502994D01*
X138608775Y-132763336D01*
X138523084Y-133045823D01*
X138501400Y-133265981D01*
X138501400Y-134734018D01*
X138523084Y-134954176D01*
X138608775Y-135236663D01*
X138747931Y-135497005D01*
X138935203Y-135725197D01*
X139163394Y-135912469D01*
X139423736Y-136051625D01*
X139706223Y-136137316D01*
X140000000Y-136166251D01*
X140293776Y-136137316D01*
X140576263Y-136051625D01*
X140836605Y-135912469D01*
X141064797Y-135725197D01*
X141252069Y-135497006D01*
X141391225Y-135236664D01*
X141476916Y-134954177D01*
X141498600Y-134734019D01*
X141498600Y-133265981D01*
X148501400Y-133265981D01*
X148501400Y-134734018D01*
X148523084Y-134954176D01*
X148608775Y-135236663D01*
X148747931Y-135497005D01*
X148935203Y-135725197D01*
X149163394Y-135912469D01*
X149423736Y-136051625D01*
X149706223Y-136137316D01*
X150000000Y-136166251D01*
X150293776Y-136137316D01*
X150576263Y-136051625D01*
X150836605Y-135912469D01*
X151064797Y-135725197D01*
X151252069Y-135497006D01*
X151391225Y-135236664D01*
X151476916Y-134954177D01*
X151498600Y-134734019D01*
X151498600Y-133265981D01*
X151476916Y-133045823D01*
X151391225Y-132763336D01*
X151252069Y-132502994D01*
X151064797Y-132274803D01*
X150836606Y-132087531D01*
X150576264Y-131948375D01*
X150293777Y-131862684D01*
X150000000Y-131833749D01*
X149706224Y-131862684D01*
X149423737Y-131948375D01*
X149163395Y-132087531D01*
X148935204Y-132274803D01*
X148747932Y-132502994D01*
X148608775Y-132763336D01*
X148523084Y-133045823D01*
X148501400Y-133265981D01*
X141498600Y-133265981D01*
X141483052Y-133108126D01*
X143363370Y-131227809D01*
X143397137Y-131200097D01*
X143425367Y-131165700D01*
X143507731Y-131065339D01*
X143589909Y-130911594D01*
X143640515Y-130744770D01*
X143641788Y-130731843D01*
X143653320Y-130614757D01*
X143653320Y-130614749D01*
X143657601Y-130571280D01*
X143656100Y-130556037D01*
X143787928Y-130447848D01*
X143810009Y-130420942D01*
X146694863Y-130420942D01*
X146766446Y-130664911D01*
X147021956Y-130785811D01*
X147296144Y-130854540D01*
X147578472Y-130868457D01*
X147858090Y-130827027D01*
X148124252Y-130731843D01*
X148249474Y-130664911D01*
X148321057Y-130420942D01*
X147507960Y-129607845D01*
X146694863Y-130420942D01*
X143810009Y-130420942D01*
X143967252Y-130229341D01*
X144100502Y-129980048D01*
X144182556Y-129709549D01*
X144203318Y-129498752D01*
X146067743Y-129498752D01*
X146109173Y-129778370D01*
X146204357Y-130044532D01*
X146271289Y-130169754D01*
X146515258Y-130241337D01*
X147328355Y-129428240D01*
X147687565Y-129428240D01*
X148500662Y-130241337D01*
X148744631Y-130169754D01*
X148865531Y-129914244D01*
X148934260Y-129640056D01*
X148948177Y-129357728D01*
X148906747Y-129078110D01*
X148811563Y-128811948D01*
X148744631Y-128686726D01*
X148500662Y-128615143D01*
X147687565Y-129428240D01*
X147328355Y-129428240D01*
X146515258Y-128615143D01*
X146271289Y-128686726D01*
X146150389Y-128942236D01*
X146081660Y-129216424D01*
X146067743Y-129498752D01*
X144203318Y-129498752D01*
X144210263Y-129428240D01*
X144182556Y-129146931D01*
X144100502Y-128876432D01*
X143967252Y-128627139D01*
X143787928Y-128408632D01*
X143700790Y-128337120D01*
X146723740Y-128337120D01*
X146694863Y-128435538D01*
X147507960Y-129248635D01*
X148321057Y-128435538D01*
X148292180Y-128337120D01*
X149163222Y-128337120D01*
X150849388Y-130023287D01*
X150877103Y-130057057D01*
X150910871Y-130084770D01*
X150910873Y-130084772D01*
X150941823Y-130110172D01*
X151011861Y-130167651D01*
X151165607Y-130249829D01*
X151332430Y-130300435D01*
X151462443Y-130313240D01*
X151462451Y-130313240D01*
X151505920Y-130317521D01*
X151549389Y-130313240D01*
X156537882Y-130313240D01*
X156644665Y-130443356D01*
X155231474Y-131856548D01*
X155000000Y-131833749D01*
X154706224Y-131862684D01*
X154423737Y-131948375D01*
X154163395Y-132087531D01*
X153935204Y-132274803D01*
X153747932Y-132502994D01*
X153608775Y-132763336D01*
X153523084Y-133045823D01*
X153501400Y-133265981D01*
X153501400Y-134734018D01*
X153523084Y-134954176D01*
X153608775Y-135236663D01*
X153747931Y-135497005D01*
X153935203Y-135725197D01*
X154163394Y-135912469D01*
X154423736Y-136051625D01*
X154706223Y-136137316D01*
X155000000Y-136166251D01*
X155293776Y-136137316D01*
X155576263Y-136051625D01*
X155836605Y-135912469D01*
X156064797Y-135725197D01*
X156252069Y-135497006D01*
X156391225Y-135236664D01*
X156476916Y-134954177D01*
X156498600Y-134734019D01*
X156498600Y-133265981D01*
X163501400Y-133265981D01*
X163501400Y-134734018D01*
X163523084Y-134954176D01*
X163608775Y-135236663D01*
X163747931Y-135497005D01*
X163935203Y-135725197D01*
X164163394Y-135912469D01*
X164423736Y-136051625D01*
X164706223Y-136137316D01*
X165000000Y-136166251D01*
X165293776Y-136137316D01*
X165576263Y-136051625D01*
X165836605Y-135912469D01*
X166064797Y-135725197D01*
X166252069Y-135497006D01*
X166391225Y-135236664D01*
X166476916Y-134954177D01*
X166498600Y-134734019D01*
X166498600Y-133265981D01*
X166476916Y-133045823D01*
X166391225Y-132763336D01*
X166252069Y-132502994D01*
X166064797Y-132274803D01*
X165836606Y-132087531D01*
X165576264Y-131948375D01*
X165293777Y-131862684D01*
X165000000Y-131833749D01*
X164706224Y-131862684D01*
X164423737Y-131948375D01*
X164163395Y-132087531D01*
X163935204Y-132274803D01*
X163747932Y-132502994D01*
X163608775Y-132763336D01*
X163523084Y-133045823D01*
X163501400Y-133265981D01*
X156498600Y-133265981D01*
X156483052Y-133108126D01*
X158263010Y-131328169D01*
X158296777Y-131300457D01*
X158363634Y-131218993D01*
X158388718Y-131188427D01*
X158407371Y-131165699D01*
X158489549Y-131011953D01*
X158540155Y-130845130D01*
X158552960Y-130715117D01*
X158552960Y-130715107D01*
X158557241Y-130671641D01*
X158552960Y-130628175D01*
X158552960Y-130558318D01*
X158687568Y-130447848D01*
X158709649Y-130420942D01*
X161487823Y-130420942D01*
X161559406Y-130664911D01*
X161814916Y-130785811D01*
X162089104Y-130854540D01*
X162371432Y-130868457D01*
X162651050Y-130827027D01*
X162917212Y-130731843D01*
X163042434Y-130664911D01*
X163114017Y-130420942D01*
X162300920Y-129607845D01*
X161487823Y-130420942D01*
X158709649Y-130420942D01*
X158866892Y-130229341D01*
X159000142Y-129980048D01*
X159082196Y-129709549D01*
X159102958Y-129498752D01*
X160860703Y-129498752D01*
X160902133Y-129778370D01*
X160997317Y-130044532D01*
X161064249Y-130169754D01*
X161308218Y-130241337D01*
X162121315Y-129428240D01*
X162480525Y-129428240D01*
X163293622Y-130241337D01*
X163537591Y-130169754D01*
X163658491Y-129914244D01*
X163727220Y-129640056D01*
X163741137Y-129357728D01*
X163699707Y-129078110D01*
X163604523Y-128811948D01*
X163537591Y-128686726D01*
X163293622Y-128615143D01*
X162480525Y-129428240D01*
X162121315Y-129428240D01*
X161308218Y-128615143D01*
X161064249Y-128686726D01*
X160943349Y-128942236D01*
X160874620Y-129216424D01*
X160860703Y-129498752D01*
X159102958Y-129498752D01*
X159109903Y-129428240D01*
X159082196Y-129146931D01*
X159000142Y-128876432D01*
X158866892Y-128627139D01*
X158709650Y-128435538D01*
X161487823Y-128435538D01*
X162300920Y-129248635D01*
X163114017Y-128435538D01*
X163042434Y-128191569D01*
X162786924Y-128070669D01*
X162512736Y-128001940D01*
X162230408Y-127988023D01*
X161950790Y-128029453D01*
X161684628Y-128124637D01*
X161559406Y-128191569D01*
X161487823Y-128435538D01*
X158709650Y-128435538D01*
X158687568Y-128408632D01*
X158469061Y-128229308D01*
X158219768Y-128096058D01*
X157949269Y-128014004D01*
X157738452Y-127993240D01*
X157597468Y-127993240D01*
X157386651Y-128014004D01*
X157116152Y-128096058D01*
X156866859Y-128229308D01*
X156648352Y-128408632D01*
X156537882Y-128543240D01*
X151872499Y-128543240D01*
X150462418Y-127133160D01*
X168914262Y-127133160D01*
X171036045Y-129254944D01*
X171018977Y-129428240D01*
X171046684Y-129709549D01*
X171128738Y-129980048D01*
X171261988Y-130229341D01*
X171441312Y-130447848D01*
X171550536Y-130537485D01*
X170231474Y-131856548D01*
X170000000Y-131833749D01*
X169706224Y-131862684D01*
X169423737Y-131948375D01*
X169163395Y-132087531D01*
X168935204Y-132274803D01*
X168747932Y-132502994D01*
X168608775Y-132763336D01*
X168523084Y-133045823D01*
X168501400Y-133265981D01*
X168501400Y-134734018D01*
X168523084Y-134954176D01*
X168608775Y-135236663D01*
X168747931Y-135497005D01*
X168935203Y-135725197D01*
X169163394Y-135912469D01*
X169423736Y-136051625D01*
X169706223Y-136137316D01*
X170000000Y-136166251D01*
X170293776Y-136137316D01*
X170576263Y-136051625D01*
X170836605Y-135912469D01*
X171064797Y-135725197D01*
X171252069Y-135497006D01*
X171391225Y-135236664D01*
X171476916Y-134954177D01*
X171498600Y-134734019D01*
X171498600Y-133265981D01*
X171483052Y-133108126D01*
X173055970Y-131535209D01*
X173089737Y-131507497D01*
X173131852Y-131456181D01*
X173200330Y-131372740D01*
X173200331Y-131372739D01*
X173282509Y-131218993D01*
X173333115Y-131052170D01*
X173345920Y-130922157D01*
X173345920Y-130922147D01*
X173350201Y-130878681D01*
X173345920Y-130835215D01*
X173345920Y-130558318D01*
X173480528Y-130447848D01*
X173659852Y-130229341D01*
X173793102Y-129980048D01*
X173875156Y-129709549D01*
X173902863Y-129428240D01*
X173875156Y-129146931D01*
X173793102Y-128876432D01*
X173659852Y-128627139D01*
X173480528Y-128408632D01*
X173262021Y-128229308D01*
X173012728Y-128096058D01*
X172742229Y-128014004D01*
X172531412Y-127993240D01*
X172390428Y-127993240D01*
X172287624Y-128003365D01*
X169937374Y-125653116D01*
X169909657Y-125619343D01*
X169774899Y-125508749D01*
X169621153Y-125426571D01*
X169454330Y-125375965D01*
X169324317Y-125363160D01*
X169324309Y-125363160D01*
X169280840Y-125358879D01*
X169237371Y-125363160D01*
X140099977Y-125363160D01*
X138898409Y-124161592D01*
X139518760Y-124161592D01*
X139643242Y-124149332D01*
X139762940Y-124113022D01*
X139873254Y-124054057D01*
X139938760Y-124000298D01*
X140004266Y-124054057D01*
X140114580Y-124113022D01*
X140234278Y-124149332D01*
X140358760Y-124161592D01*
X142058760Y-124161592D01*
X142183242Y-124149332D01*
X142302940Y-124113022D01*
X142413254Y-124054057D01*
X142478760Y-124000298D01*
X142544266Y-124054057D01*
X142654580Y-124113022D01*
X142774278Y-124149332D01*
X142898760Y-124161592D01*
X144598760Y-124161592D01*
X144723242Y-124149332D01*
X144842940Y-124113022D01*
X144953254Y-124054057D01*
X145018760Y-124000298D01*
X145084266Y-124054057D01*
X145194580Y-124113022D01*
X145314278Y-124149332D01*
X145438760Y-124161592D01*
X147138760Y-124161592D01*
X147263242Y-124149332D01*
X147382940Y-124113022D01*
X147493254Y-124054057D01*
X147558760Y-124000298D01*
X147624266Y-124054057D01*
X147734580Y-124113022D01*
X147854278Y-124149332D01*
X147978760Y-124161592D01*
X149678760Y-124161592D01*
X149803242Y-124149332D01*
X149922940Y-124113022D01*
X150033254Y-124054057D01*
X150098760Y-124000298D01*
X150164266Y-124054057D01*
X150274580Y-124113022D01*
X150394278Y-124149332D01*
X150518760Y-124161592D01*
X152218760Y-124161592D01*
X152343242Y-124149332D01*
X152462940Y-124113022D01*
X152573254Y-124054057D01*
X152638760Y-124000298D01*
X152704266Y-124054057D01*
X152814580Y-124113022D01*
X152934278Y-124149332D01*
X153058760Y-124161592D01*
X154758760Y-124161592D01*
X154883242Y-124149332D01*
X155002940Y-124113022D01*
X155113254Y-124054057D01*
X155178760Y-124000298D01*
X155244266Y-124054057D01*
X155354580Y-124113022D01*
X155474278Y-124149332D01*
X155598760Y-124161592D01*
X157298760Y-124161592D01*
X157423242Y-124149332D01*
X157542940Y-124113022D01*
X157653254Y-124054057D01*
X157718760Y-124000298D01*
X157784266Y-124054057D01*
X157894580Y-124113022D01*
X158014278Y-124149332D01*
X158138760Y-124161592D01*
X159838760Y-124161592D01*
X159963242Y-124149332D01*
X160082940Y-124113022D01*
X160193254Y-124054057D01*
X160258760Y-124000298D01*
X160324266Y-124054057D01*
X160434580Y-124113022D01*
X160554278Y-124149332D01*
X160678760Y-124161592D01*
X161243010Y-124158520D01*
X161401760Y-123999770D01*
X161401760Y-121626520D01*
X161655760Y-121626520D01*
X161655760Y-123999770D01*
X161814510Y-124158520D01*
X162378760Y-124161592D01*
X162503242Y-124149332D01*
X162622940Y-124113022D01*
X162733254Y-124054057D01*
X162798760Y-124000298D01*
X162864266Y-124054057D01*
X162974580Y-124113022D01*
X163094278Y-124149332D01*
X163218760Y-124161592D01*
X164918760Y-124161592D01*
X165043242Y-124149332D01*
X165162940Y-124113022D01*
X165273254Y-124054057D01*
X165338760Y-124000298D01*
X165404266Y-124054057D01*
X165514580Y-124113022D01*
X165634278Y-124149332D01*
X165758760Y-124161592D01*
X167458760Y-124161592D01*
X167583242Y-124149332D01*
X167702940Y-124113022D01*
X167813254Y-124054057D01*
X167878760Y-124000298D01*
X167944266Y-124054057D01*
X168054580Y-124113022D01*
X168174278Y-124149332D01*
X168298760Y-124161592D01*
X169998760Y-124161592D01*
X170123242Y-124149332D01*
X170242940Y-124113022D01*
X170353254Y-124054057D01*
X170418760Y-124000298D01*
X170484266Y-124054057D01*
X170594580Y-124113022D01*
X170714278Y-124149332D01*
X170838760Y-124161592D01*
X172538760Y-124161592D01*
X172663242Y-124149332D01*
X172782940Y-124113022D01*
X172893254Y-124054057D01*
X172989945Y-123974705D01*
X173069297Y-123878014D01*
X173128262Y-123767700D01*
X173164572Y-123648002D01*
X173176832Y-123523520D01*
X173176832Y-120915280D01*
X173180945Y-120873520D01*
X173176832Y-120831760D01*
X173176832Y-120023520D01*
X173164572Y-119899038D01*
X173128262Y-119779340D01*
X173069297Y-119669026D01*
X172989945Y-119572335D01*
X172893254Y-119492983D01*
X172782940Y-119434018D01*
X172663242Y-119397708D01*
X172538760Y-119385448D01*
X170838760Y-119385448D01*
X170714278Y-119397708D01*
X170594580Y-119434018D01*
X170484266Y-119492983D01*
X170418760Y-119546742D01*
X170353254Y-119492983D01*
X170333629Y-119482493D01*
X170333629Y-115700240D01*
X169041707Y-115700240D01*
X169061341Y-115694284D01*
X169301948Y-115565677D01*
X169512841Y-115392601D01*
X169685917Y-115181708D01*
X169814524Y-114941101D01*
X169885076Y-114708520D01*
X170016333Y-114708520D01*
X170045970Y-115009433D01*
X170133743Y-115298781D01*
X170276279Y-115565447D01*
X170468099Y-115799181D01*
X170701833Y-115991001D01*
X170968499Y-116133537D01*
X171257847Y-116221310D01*
X171483352Y-116243520D01*
X171634168Y-116243520D01*
X171859673Y-116221310D01*
X172149021Y-116133537D01*
X172415687Y-115991001D01*
X172649421Y-115799181D01*
X172841241Y-115565447D01*
X172983777Y-115298781D01*
X173071550Y-115009433D01*
X173101187Y-114708520D01*
X173071550Y-114407607D01*
X172983777Y-114118259D01*
X172841241Y-113851593D01*
X172649421Y-113617859D01*
X172415687Y-113426039D01*
X172149021Y-113283503D01*
X171859673Y-113195730D01*
X171634168Y-113173520D01*
X171483352Y-113173520D01*
X171257847Y-113195730D01*
X170968499Y-113283503D01*
X170701833Y-113426039D01*
X170468099Y-113617859D01*
X170276279Y-113851593D01*
X170133743Y-114118259D01*
X170045970Y-114407607D01*
X170016333Y-114708520D01*
X169885076Y-114708520D01*
X169893720Y-114680027D01*
X169920461Y-114408520D01*
X169893720Y-114137013D01*
X169814524Y-113875939D01*
X169685917Y-113635332D01*
X169512841Y-113424439D01*
X169301948Y-113251363D01*
X169061341Y-113122756D01*
X168800267Y-113043560D01*
X168596797Y-113023520D01*
X168460723Y-113023520D01*
X168257253Y-113043560D01*
X167996179Y-113122756D01*
X167755572Y-113251363D01*
X167544679Y-113424439D01*
X167371603Y-113635332D01*
X167242996Y-113875939D01*
X167163800Y-114137013D01*
X167137059Y-114408520D01*
X167163800Y-114680027D01*
X167242996Y-114941101D01*
X167371603Y-115181708D01*
X167544679Y-115392601D01*
X167755572Y-115565677D01*
X167996179Y-115694284D01*
X168015813Y-115700240D01*
X150620772Y-115700240D01*
X150620772Y-119385448D01*
X150518760Y-119385448D01*
X150394278Y-119397708D01*
X150274580Y-119434018D01*
X150164266Y-119492983D01*
X150098760Y-119546742D01*
X150033254Y-119492983D01*
X149922940Y-119434018D01*
X149803242Y-119397708D01*
X149678760Y-119385448D01*
X147978760Y-119385448D01*
X147854278Y-119397708D01*
X147734580Y-119434018D01*
X147624266Y-119492983D01*
X147558760Y-119546742D01*
X147493254Y-119492983D01*
X147382940Y-119434018D01*
X147263242Y-119397708D01*
X147138760Y-119385448D01*
X145438760Y-119385448D01*
X145314278Y-119397708D01*
X145194580Y-119434018D01*
X145084266Y-119492983D01*
X145018760Y-119546742D01*
X144953254Y-119492983D01*
X144842940Y-119434018D01*
X144723242Y-119397708D01*
X144598760Y-119385448D01*
X142898760Y-119385448D01*
X142774278Y-119397708D01*
X142654580Y-119434018D01*
X142544266Y-119492983D01*
X142478760Y-119546742D01*
X142413254Y-119492983D01*
X142302940Y-119434018D01*
X142183242Y-119397708D01*
X142058760Y-119385448D01*
X140358760Y-119385448D01*
X140234278Y-119397708D01*
X140114580Y-119434018D01*
X140004266Y-119492983D01*
X139938760Y-119546742D01*
X139873254Y-119492983D01*
X139762940Y-119434018D01*
X139643242Y-119397708D01*
X139518760Y-119385448D01*
X137818760Y-119385448D01*
X137694278Y-119397708D01*
X137574580Y-119434018D01*
X137464266Y-119492983D01*
X137398760Y-119546742D01*
X137333254Y-119492983D01*
X137222940Y-119434018D01*
X137103242Y-119397708D01*
X136978760Y-119385448D01*
X135278760Y-119385448D01*
X135154278Y-119397708D01*
X135034580Y-119434018D01*
X134924266Y-119492983D01*
X134858760Y-119546742D01*
X134793254Y-119492983D01*
X134682940Y-119434018D01*
X134563242Y-119397708D01*
X134438760Y-119385448D01*
X132738760Y-119385448D01*
X132614278Y-119397708D01*
X132494580Y-119434018D01*
X132384266Y-119492983D01*
X132318760Y-119546742D01*
X132253254Y-119492983D01*
X132142940Y-119434018D01*
X132023242Y-119397708D01*
X131898760Y-119385448D01*
X130198760Y-119385448D01*
X130074278Y-119397708D01*
X129954580Y-119434018D01*
X129844266Y-119492983D01*
X129778760Y-119546742D01*
X129713254Y-119492983D01*
X129602940Y-119434018D01*
X129483242Y-119397708D01*
X129358760Y-119385448D01*
X127658760Y-119385448D01*
X127534278Y-119397708D01*
X127414580Y-119434018D01*
X127304266Y-119492983D01*
X127238760Y-119546742D01*
X127173254Y-119492983D01*
X127062940Y-119434018D01*
X126943242Y-119397708D01*
X126818760Y-119385448D01*
X125118760Y-119385448D01*
X124994278Y-119397708D01*
X124874580Y-119434018D01*
X124764266Y-119492983D01*
X124698760Y-119546742D01*
X124633254Y-119492983D01*
X124522940Y-119434018D01*
X124403242Y-119397708D01*
X124278760Y-119385448D01*
X122578760Y-119385448D01*
X122454278Y-119397708D01*
X122334580Y-119434018D01*
X122224266Y-119492983D01*
X122127575Y-119572335D01*
X122048223Y-119669026D01*
X121989258Y-119779340D01*
X121952948Y-119899038D01*
X121940688Y-120023520D01*
X121940688Y-120831760D01*
X121936575Y-120873520D01*
X121940688Y-120915280D01*
X121940688Y-123523520D01*
X121952948Y-123648002D01*
X121989258Y-123767700D01*
X122048223Y-123878014D01*
X122127575Y-123974705D01*
X122224266Y-124054057D01*
X122334580Y-124113022D01*
X122367004Y-124122858D01*
X120405342Y-126084520D01*
X115024185Y-126084520D01*
X114980719Y-126080239D01*
X114937253Y-126084520D01*
X114937243Y-126084520D01*
X114807230Y-126097325D01*
X114640407Y-126147931D01*
X114486661Y-126230109D01*
X114486659Y-126230110D01*
X114486660Y-126230110D01*
X114385673Y-126312988D01*
X114385671Y-126312990D01*
X114351903Y-126340703D01*
X114324190Y-126374471D01*
X112669896Y-128028765D01*
X112567092Y-128018640D01*
X112426108Y-128018640D01*
X112215291Y-128039404D01*
X111944792Y-128121458D01*
X111695499Y-128254708D01*
X111476992Y-128434032D01*
X111297668Y-128652539D01*
X111164418Y-128901832D01*
X111082364Y-129172331D01*
X111054657Y-129453640D01*
X111071725Y-129626936D01*
X109404951Y-131293711D01*
X109371184Y-131321423D01*
X109343471Y-131355191D01*
X109343468Y-131355194D01*
X109260590Y-131456181D01*
X109178412Y-131609927D01*
X109127805Y-131776750D01*
X109110719Y-131950240D01*
X109115001Y-131993719D01*
X109115001Y-132127247D01*
X108935204Y-132274803D01*
X108747932Y-132502994D01*
X108608775Y-132763336D01*
X108523084Y-133045823D01*
X108501400Y-133265981D01*
X106498600Y-133265981D01*
X106476916Y-133045823D01*
X106391225Y-132763336D01*
X106252069Y-132502994D01*
X106064797Y-132274803D01*
X105836606Y-132087531D01*
X105576264Y-131948375D01*
X105293777Y-131862684D01*
X105000000Y-131833749D01*
X104706224Y-131862684D01*
X104423737Y-131948375D01*
X104163395Y-132087531D01*
X103935204Y-132274803D01*
X103747932Y-132502994D01*
X103608775Y-132763336D01*
X103523084Y-133045823D01*
X103501400Y-133265981D01*
X100021763Y-133265981D01*
X100022127Y-130446342D01*
X101523503Y-130446342D01*
X101595086Y-130690311D01*
X101850596Y-130811211D01*
X102124784Y-130879940D01*
X102407112Y-130893857D01*
X102686730Y-130852427D01*
X102952892Y-130757243D01*
X103078114Y-130690311D01*
X103149697Y-130446342D01*
X102336600Y-129633245D01*
X101523503Y-130446342D01*
X100022127Y-130446342D01*
X100022246Y-129524152D01*
X100896383Y-129524152D01*
X100937813Y-129803770D01*
X101032997Y-130069932D01*
X101099929Y-130195154D01*
X101343898Y-130266737D01*
X102156995Y-129453640D01*
X102516205Y-129453640D01*
X103329302Y-130266737D01*
X103573271Y-130195154D01*
X103694171Y-129939644D01*
X103762900Y-129665456D01*
X103776817Y-129383128D01*
X103735387Y-129103510D01*
X103640203Y-128837348D01*
X103573271Y-128712126D01*
X103329302Y-128640543D01*
X102516205Y-129453640D01*
X102156995Y-129453640D01*
X101343898Y-128640543D01*
X101099929Y-128712126D01*
X100979029Y-128967636D01*
X100910300Y-129241824D01*
X100896383Y-129524152D01*
X100022246Y-129524152D01*
X100022383Y-128460938D01*
X101523503Y-128460938D01*
X102336600Y-129274035D01*
X103149697Y-128460938D01*
X103078114Y-128216969D01*
X102822604Y-128096069D01*
X102548416Y-128027340D01*
X102266088Y-128013423D01*
X101986470Y-128054853D01*
X101720308Y-128150037D01*
X101595086Y-128216969D01*
X101523503Y-128460938D01*
X100022383Y-128460938D01*
X100023521Y-119644673D01*
X100744809Y-119644673D01*
X100787403Y-119944027D01*
X100887578Y-120229319D01*
X100967539Y-120378912D01*
X101221720Y-120462595D01*
X102106195Y-119578120D01*
X101221720Y-118693645D01*
X100967539Y-118777328D01*
X100836642Y-119049895D01*
X100761435Y-119342762D01*
X100744809Y-119644673D01*
X100023521Y-119644673D01*
X100023666Y-118514040D01*
X101401325Y-118514040D01*
X102285800Y-119398515D01*
X102299943Y-119384373D01*
X102479548Y-119563978D01*
X102465405Y-119578120D01*
X102479548Y-119592263D01*
X102299943Y-119771868D01*
X102285800Y-119757725D01*
X101401325Y-120642200D01*
X101485008Y-120896381D01*
X101757575Y-121027278D01*
X102050442Y-121102485D01*
X102352353Y-121119111D01*
X102651707Y-121076517D01*
X102936999Y-120976342D01*
X103086592Y-120896381D01*
X103170274Y-120642202D01*
X103286222Y-120758150D01*
X103332987Y-120711385D01*
X103336298Y-120722300D01*
X103395263Y-120832614D01*
X103474615Y-120929305D01*
X103571306Y-121008657D01*
X103681620Y-121067622D01*
X103801318Y-121103932D01*
X103925800Y-121116192D01*
X105725800Y-121116192D01*
X105850282Y-121103932D01*
X105969980Y-121067622D01*
X106080294Y-121008657D01*
X106176985Y-120929305D01*
X106256337Y-120832614D01*
X106315302Y-120722300D01*
X106351612Y-120602602D01*
X106363872Y-120478120D01*
X106363872Y-119578120D01*
X106711257Y-119578120D01*
X106738964Y-119859429D01*
X106821018Y-120129928D01*
X106954268Y-120379221D01*
X107133592Y-120597728D01*
X107352099Y-120777052D01*
X107601392Y-120910302D01*
X107871891Y-120992356D01*
X108082708Y-121013120D01*
X108223692Y-121013120D01*
X108434509Y-120992356D01*
X108705008Y-120910302D01*
X108954301Y-120777052D01*
X109172808Y-120597728D01*
X109352132Y-120379221D01*
X109485382Y-120129928D01*
X109567436Y-119859429D01*
X109595143Y-119578120D01*
X109581223Y-119436785D01*
X116878200Y-119436785D01*
X116878200Y-119719455D01*
X116933347Y-119996694D01*
X117041520Y-120257847D01*
X117198563Y-120492879D01*
X117398441Y-120692757D01*
X117633473Y-120849800D01*
X117894626Y-120957973D01*
X118171865Y-121013120D01*
X118454535Y-121013120D01*
X118731774Y-120957973D01*
X118992927Y-120849800D01*
X119227959Y-120692757D01*
X119427837Y-120492879D01*
X119584880Y-120257847D01*
X119693053Y-119996694D01*
X119748200Y-119719455D01*
X119748200Y-119436785D01*
X119693053Y-119159546D01*
X119584880Y-118898393D01*
X119427837Y-118663361D01*
X119227959Y-118463483D01*
X118992927Y-118306440D01*
X118731774Y-118198267D01*
X118454535Y-118143120D01*
X118171865Y-118143120D01*
X117894626Y-118198267D01*
X117633473Y-118306440D01*
X117398441Y-118463483D01*
X117198563Y-118663361D01*
X117041520Y-118898393D01*
X116933347Y-119159546D01*
X116878200Y-119436785D01*
X109581223Y-119436785D01*
X109567436Y-119296811D01*
X109485382Y-119026312D01*
X109352132Y-118777019D01*
X109172808Y-118558512D01*
X108954301Y-118379188D01*
X108705008Y-118245938D01*
X108434509Y-118163884D01*
X108223692Y-118143120D01*
X108082708Y-118143120D01*
X107871891Y-118163884D01*
X107601392Y-118245938D01*
X107352099Y-118379188D01*
X107133592Y-118558512D01*
X106954268Y-118777019D01*
X106821018Y-119026312D01*
X106738964Y-119296811D01*
X106711257Y-119578120D01*
X106363872Y-119578120D01*
X106363872Y-118678120D01*
X106351612Y-118553638D01*
X106315302Y-118433940D01*
X106256337Y-118323626D01*
X106176985Y-118226935D01*
X106080294Y-118147583D01*
X105969980Y-118088618D01*
X105850282Y-118052308D01*
X105725800Y-118040048D01*
X103925800Y-118040048D01*
X103801318Y-118052308D01*
X103681620Y-118088618D01*
X103571306Y-118147583D01*
X103474615Y-118226935D01*
X103395263Y-118323626D01*
X103336298Y-118433940D01*
X103332987Y-118444855D01*
X103286222Y-118398090D01*
X103170274Y-118514038D01*
X103086592Y-118259859D01*
X102814025Y-118128962D01*
X102521158Y-118053755D01*
X102219247Y-118037129D01*
X101919893Y-118079723D01*
X101634601Y-118179898D01*
X101485008Y-118259859D01*
X101401325Y-118514040D01*
X100023666Y-118514040D01*
X100024114Y-115042193D01*
X100744809Y-115042193D01*
X100787403Y-115341547D01*
X100887578Y-115626839D01*
X100967539Y-115776432D01*
X101221720Y-115860115D01*
X102106195Y-114975640D01*
X101221720Y-114091165D01*
X100967539Y-114174848D01*
X100836642Y-114447415D01*
X100761435Y-114740282D01*
X100744809Y-115042193D01*
X100024114Y-115042193D01*
X100024259Y-113911560D01*
X101401325Y-113911560D01*
X102285800Y-114796035D01*
X102299943Y-114781893D01*
X102479548Y-114961498D01*
X102465405Y-114975640D01*
X102479548Y-114989783D01*
X102299943Y-115169388D01*
X102285800Y-115155245D01*
X101401325Y-116039720D01*
X101485008Y-116293901D01*
X101757575Y-116424798D01*
X102050442Y-116500005D01*
X102352353Y-116516631D01*
X102651707Y-116474037D01*
X102936999Y-116373862D01*
X103086592Y-116293901D01*
X103170274Y-116039722D01*
X103286222Y-116155670D01*
X103332987Y-116108905D01*
X103336298Y-116119820D01*
X103395263Y-116230134D01*
X103474615Y-116326825D01*
X103571306Y-116406177D01*
X103681620Y-116465142D01*
X103801318Y-116501452D01*
X103925800Y-116513712D01*
X105725800Y-116513712D01*
X105850282Y-116501452D01*
X105969980Y-116465142D01*
X106080294Y-116406177D01*
X106176985Y-116326825D01*
X106256337Y-116230134D01*
X106315302Y-116119820D01*
X106351612Y-116000122D01*
X106363872Y-115875640D01*
X106363872Y-115031520D01*
X106660457Y-115031520D01*
X106688164Y-115312829D01*
X106770218Y-115583328D01*
X106903468Y-115832621D01*
X107082792Y-116051128D01*
X107301299Y-116230452D01*
X107550592Y-116363702D01*
X107821091Y-116445756D01*
X108031908Y-116466520D01*
X108172892Y-116466520D01*
X108383709Y-116445756D01*
X108654208Y-116363702D01*
X108903501Y-116230452D01*
X109122008Y-116051128D01*
X109301332Y-115832621D01*
X109434582Y-115583328D01*
X109516636Y-115312829D01*
X109544343Y-115031520D01*
X109530423Y-114890185D01*
X116827400Y-114890185D01*
X116827400Y-115172855D01*
X116882547Y-115450094D01*
X116990720Y-115711247D01*
X117147763Y-115946279D01*
X117347641Y-116146157D01*
X117582673Y-116303200D01*
X117843826Y-116411373D01*
X118121065Y-116466520D01*
X118403735Y-116466520D01*
X118680974Y-116411373D01*
X118942127Y-116303200D01*
X119177159Y-116146157D01*
X119377037Y-115946279D01*
X119534080Y-115711247D01*
X119642253Y-115450094D01*
X119697400Y-115172855D01*
X119697400Y-114890185D01*
X119642253Y-114612946D01*
X119534080Y-114351793D01*
X119377037Y-114116761D01*
X119177159Y-113916883D01*
X118942127Y-113759840D01*
X118680974Y-113651667D01*
X118403735Y-113596520D01*
X118121065Y-113596520D01*
X117843826Y-113651667D01*
X117582673Y-113759840D01*
X117347641Y-113916883D01*
X117147763Y-114116761D01*
X116990720Y-114351793D01*
X116882547Y-114612946D01*
X116827400Y-114890185D01*
X109530423Y-114890185D01*
X109516636Y-114750211D01*
X109434582Y-114479712D01*
X109301332Y-114230419D01*
X109122008Y-114011912D01*
X108903501Y-113832588D01*
X108654208Y-113699338D01*
X108383709Y-113617284D01*
X108172892Y-113596520D01*
X108031908Y-113596520D01*
X107821091Y-113617284D01*
X107550592Y-113699338D01*
X107301299Y-113832588D01*
X107082792Y-114011912D01*
X106903468Y-114230419D01*
X106770218Y-114479712D01*
X106688164Y-114750211D01*
X106660457Y-115031520D01*
X106363872Y-115031520D01*
X106363872Y-114075640D01*
X106351612Y-113951158D01*
X106315302Y-113831460D01*
X106256337Y-113721146D01*
X106176985Y-113624455D01*
X106080294Y-113545103D01*
X105969980Y-113486138D01*
X105850282Y-113449828D01*
X105725800Y-113437568D01*
X103925800Y-113437568D01*
X103801318Y-113449828D01*
X103681620Y-113486138D01*
X103571306Y-113545103D01*
X103474615Y-113624455D01*
X103395263Y-113721146D01*
X103336298Y-113831460D01*
X103332987Y-113842375D01*
X103286222Y-113795610D01*
X103170274Y-113911558D01*
X103086592Y-113657379D01*
X102814025Y-113526482D01*
X102521158Y-113451275D01*
X102219247Y-113434649D01*
X101919893Y-113477243D01*
X101634601Y-113577418D01*
X101485008Y-113657379D01*
X101401325Y-113911560D01*
X100024259Y-113911560D01*
X100024744Y-110155233D01*
X100800689Y-110155233D01*
X100843283Y-110454587D01*
X100943458Y-110739879D01*
X101023419Y-110889472D01*
X101277600Y-110973155D01*
X102162075Y-110088680D01*
X101277600Y-109204205D01*
X101023419Y-109287888D01*
X100892522Y-109560455D01*
X100817315Y-109853322D01*
X100800689Y-110155233D01*
X100024744Y-110155233D01*
X100024889Y-109024600D01*
X101457205Y-109024600D01*
X102341680Y-109909075D01*
X102355823Y-109894933D01*
X102535428Y-110074538D01*
X102521285Y-110088680D01*
X102535428Y-110102823D01*
X102355823Y-110282428D01*
X102341680Y-110268285D01*
X101457205Y-111152760D01*
X101540888Y-111406941D01*
X101813455Y-111537838D01*
X102106322Y-111613045D01*
X102408233Y-111629671D01*
X102707587Y-111587077D01*
X102992879Y-111486902D01*
X103142472Y-111406941D01*
X103226154Y-111152762D01*
X103342102Y-111268710D01*
X103388867Y-111221945D01*
X103392178Y-111232860D01*
X103451143Y-111343174D01*
X103530495Y-111439865D01*
X103627186Y-111519217D01*
X103737500Y-111578182D01*
X103857198Y-111614492D01*
X103981680Y-111626752D01*
X105781680Y-111626752D01*
X105906162Y-111614492D01*
X106025860Y-111578182D01*
X106136174Y-111519217D01*
X106232865Y-111439865D01*
X106312217Y-111343174D01*
X106371182Y-111232860D01*
X106407492Y-111113162D01*
X106419752Y-110988680D01*
X106419752Y-110088680D01*
X106660457Y-110088680D01*
X106688164Y-110369989D01*
X106770218Y-110640488D01*
X106903468Y-110889781D01*
X107082792Y-111108288D01*
X107301299Y-111287612D01*
X107550592Y-111420862D01*
X107821091Y-111502916D01*
X108031908Y-111523680D01*
X108172892Y-111523680D01*
X108383709Y-111502916D01*
X108654208Y-111420862D01*
X108903501Y-111287612D01*
X109122008Y-111108288D01*
X109301332Y-110889781D01*
X109434582Y-110640488D01*
X109516636Y-110369989D01*
X109544343Y-110088680D01*
X109530423Y-109947345D01*
X116827400Y-109947345D01*
X116827400Y-110230015D01*
X116882547Y-110507254D01*
X116990720Y-110768407D01*
X117147763Y-111003439D01*
X117347641Y-111203317D01*
X117582673Y-111360360D01*
X117843826Y-111468533D01*
X118121065Y-111523680D01*
X118403735Y-111523680D01*
X118680974Y-111468533D01*
X118942127Y-111360360D01*
X119177159Y-111203317D01*
X119377037Y-111003439D01*
X119534080Y-110768407D01*
X119642253Y-110507254D01*
X119697400Y-110230015D01*
X119697400Y-109947345D01*
X119642253Y-109670106D01*
X119534080Y-109408953D01*
X119377037Y-109173921D01*
X119177159Y-108974043D01*
X118942127Y-108817000D01*
X118680974Y-108708827D01*
X118403735Y-108653680D01*
X118121065Y-108653680D01*
X117843826Y-108708827D01*
X117582673Y-108817000D01*
X117347641Y-108974043D01*
X117147763Y-109173921D01*
X116990720Y-109408953D01*
X116882547Y-109670106D01*
X116827400Y-109947345D01*
X109530423Y-109947345D01*
X109516636Y-109807371D01*
X109434582Y-109536872D01*
X109301332Y-109287579D01*
X109122008Y-109069072D01*
X108903501Y-108889748D01*
X108654208Y-108756498D01*
X108383709Y-108674444D01*
X108172892Y-108653680D01*
X108031908Y-108653680D01*
X107821091Y-108674444D01*
X107550592Y-108756498D01*
X107301299Y-108889748D01*
X107082792Y-109069072D01*
X106903468Y-109287579D01*
X106770218Y-109536872D01*
X106688164Y-109807371D01*
X106660457Y-110088680D01*
X106419752Y-110088680D01*
X106419752Y-109188680D01*
X106407492Y-109064198D01*
X106371182Y-108944500D01*
X106312217Y-108834186D01*
X106232865Y-108737495D01*
X106136174Y-108658143D01*
X106025860Y-108599178D01*
X106007209Y-108593520D01*
X120370688Y-108593520D01*
X120370688Y-110293520D01*
X120382948Y-110418002D01*
X120419258Y-110537700D01*
X120478223Y-110648014D01*
X120531982Y-110713520D01*
X120478223Y-110779026D01*
X120419258Y-110889340D01*
X120382948Y-111009038D01*
X120370688Y-111133520D01*
X120370688Y-112833520D01*
X120382948Y-112958002D01*
X120419258Y-113077700D01*
X120478223Y-113188014D01*
X120531982Y-113253520D01*
X120478223Y-113319026D01*
X120419258Y-113429340D01*
X120382948Y-113549038D01*
X120370688Y-113673520D01*
X120370688Y-115373520D01*
X120382948Y-115498002D01*
X120419258Y-115617700D01*
X120478223Y-115728014D01*
X120557575Y-115824705D01*
X120654266Y-115904057D01*
X120764580Y-115963022D01*
X120884278Y-115999332D01*
X121008760Y-116011592D01*
X124508760Y-116011592D01*
X124633242Y-115999332D01*
X124752940Y-115963022D01*
X124863254Y-115904057D01*
X124959945Y-115824705D01*
X125039297Y-115728014D01*
X125098262Y-115617700D01*
X125134572Y-115498002D01*
X125146832Y-115373520D01*
X125146832Y-114565280D01*
X125150945Y-114523520D01*
X125146832Y-114481760D01*
X125146832Y-113673520D01*
X125134572Y-113549038D01*
X125098262Y-113429340D01*
X125039297Y-113319026D01*
X124985538Y-113253520D01*
X125039297Y-113188014D01*
X125098262Y-113077700D01*
X125134572Y-112958002D01*
X125146832Y-112833520D01*
X125146832Y-111133520D01*
X125134572Y-111009038D01*
X125098262Y-110889340D01*
X125039297Y-110779026D01*
X124985538Y-110713520D01*
X125039297Y-110648014D01*
X125098262Y-110537700D01*
X125134572Y-110418002D01*
X125146832Y-110293520D01*
X125146832Y-109558520D01*
X167137059Y-109558520D01*
X167163800Y-109830027D01*
X167242996Y-110091101D01*
X167371603Y-110331708D01*
X167544679Y-110542601D01*
X167755572Y-110715677D01*
X167996179Y-110844284D01*
X168257253Y-110923480D01*
X168460723Y-110943520D01*
X168596797Y-110943520D01*
X168800267Y-110923480D01*
X169061341Y-110844284D01*
X169301948Y-110715677D01*
X169512841Y-110542601D01*
X169685917Y-110331708D01*
X169814524Y-110091101D01*
X169893720Y-109830027D01*
X169920461Y-109558520D01*
X169893720Y-109287013D01*
X169885077Y-109258520D01*
X170016333Y-109258520D01*
X170045970Y-109559433D01*
X170133743Y-109848781D01*
X170276279Y-110115447D01*
X170468099Y-110349181D01*
X170701833Y-110541001D01*
X170968499Y-110683537D01*
X171257847Y-110771310D01*
X171483352Y-110793520D01*
X171634168Y-110793520D01*
X171859673Y-110771310D01*
X172149021Y-110683537D01*
X172415687Y-110541001D01*
X172649421Y-110349181D01*
X172841241Y-110115447D01*
X172983777Y-109848781D01*
X173071550Y-109559433D01*
X173101187Y-109258520D01*
X173071550Y-108957607D01*
X172983777Y-108668259D01*
X172841241Y-108401593D01*
X172649421Y-108167859D01*
X172415687Y-107976039D01*
X172149021Y-107833503D01*
X171859673Y-107745730D01*
X171634168Y-107723520D01*
X171483352Y-107723520D01*
X171257847Y-107745730D01*
X170968499Y-107833503D01*
X170701833Y-107976039D01*
X170468099Y-108167859D01*
X170276279Y-108401593D01*
X170133743Y-108668259D01*
X170045970Y-108957607D01*
X170016333Y-109258520D01*
X169885077Y-109258520D01*
X169814524Y-109025939D01*
X169685917Y-108785332D01*
X169512841Y-108574439D01*
X169301948Y-108401363D01*
X169061341Y-108272756D01*
X168800267Y-108193560D01*
X168596797Y-108173520D01*
X168460723Y-108173520D01*
X168257253Y-108193560D01*
X167996179Y-108272756D01*
X167755572Y-108401363D01*
X167544679Y-108574439D01*
X167371603Y-108785332D01*
X167242996Y-109025939D01*
X167163800Y-109287013D01*
X167137059Y-109558520D01*
X125146832Y-109558520D01*
X125146832Y-109485280D01*
X125150945Y-109443520D01*
X125146832Y-109401760D01*
X125146832Y-108593520D01*
X125134572Y-108469038D01*
X125098262Y-108349340D01*
X125039297Y-108239026D01*
X124959945Y-108142335D01*
X124863254Y-108062983D01*
X124752940Y-108004018D01*
X124633242Y-107967708D01*
X124508760Y-107955448D01*
X121008760Y-107955448D01*
X120884278Y-107967708D01*
X120764580Y-108004018D01*
X120654266Y-108062983D01*
X120557575Y-108142335D01*
X120478223Y-108239026D01*
X120419258Y-108349340D01*
X120382948Y-108469038D01*
X120370688Y-108593520D01*
X106007209Y-108593520D01*
X105906162Y-108562868D01*
X105781680Y-108550608D01*
X103981680Y-108550608D01*
X103857198Y-108562868D01*
X103737500Y-108599178D01*
X103627186Y-108658143D01*
X103530495Y-108737495D01*
X103451143Y-108834186D01*
X103392178Y-108944500D01*
X103388867Y-108955415D01*
X103342102Y-108908650D01*
X103226154Y-109024598D01*
X103142472Y-108770419D01*
X102869905Y-108639522D01*
X102577038Y-108564315D01*
X102275127Y-108547689D01*
X101975773Y-108590283D01*
X101690481Y-108690458D01*
X101540888Y-108770419D01*
X101457205Y-109024600D01*
X100024889Y-109024600D01*
X100025393Y-105120953D01*
X100800689Y-105120953D01*
X100843283Y-105420307D01*
X100943458Y-105705599D01*
X101023419Y-105855192D01*
X101277600Y-105938875D01*
X102162075Y-105054400D01*
X101277600Y-104169925D01*
X101023419Y-104253608D01*
X100892522Y-104526175D01*
X100817315Y-104819042D01*
X100800689Y-105120953D01*
X100025393Y-105120953D01*
X100025538Y-103990320D01*
X101457205Y-103990320D01*
X102341680Y-104874795D01*
X102355823Y-104860653D01*
X102535428Y-105040258D01*
X102521285Y-105054400D01*
X102535428Y-105068543D01*
X102355823Y-105248148D01*
X102341680Y-105234005D01*
X101457205Y-106118480D01*
X101540888Y-106372661D01*
X101813455Y-106503558D01*
X102106322Y-106578765D01*
X102408233Y-106595391D01*
X102707587Y-106552797D01*
X102992879Y-106452622D01*
X103142472Y-106372661D01*
X103226154Y-106118482D01*
X103342102Y-106234430D01*
X103388867Y-106187665D01*
X103392178Y-106198580D01*
X103451143Y-106308894D01*
X103530495Y-106405585D01*
X103627186Y-106484937D01*
X103737500Y-106543902D01*
X103857198Y-106580212D01*
X103981680Y-106592472D01*
X105781680Y-106592472D01*
X105906162Y-106580212D01*
X106025860Y-106543902D01*
X106136174Y-106484937D01*
X106232865Y-106405585D01*
X106312217Y-106308894D01*
X106371182Y-106198580D01*
X106407492Y-106078882D01*
X106419752Y-105954400D01*
X106419752Y-105054400D01*
X106711257Y-105054400D01*
X106738964Y-105335709D01*
X106821018Y-105606208D01*
X106954268Y-105855501D01*
X107133592Y-106074008D01*
X107352099Y-106253332D01*
X107601392Y-106386582D01*
X107871891Y-106468636D01*
X108082708Y-106489400D01*
X108223692Y-106489400D01*
X108434509Y-106468636D01*
X108705008Y-106386582D01*
X108954301Y-106253332D01*
X109172808Y-106074008D01*
X109352132Y-105855501D01*
X109485382Y-105606208D01*
X109567436Y-105335709D01*
X109595143Y-105054400D01*
X109581223Y-104913065D01*
X116878200Y-104913065D01*
X116878200Y-105195735D01*
X116933347Y-105472974D01*
X117041520Y-105734127D01*
X117198563Y-105969159D01*
X117398441Y-106169037D01*
X117633473Y-106326080D01*
X117894626Y-106434253D01*
X118171865Y-106489400D01*
X118454535Y-106489400D01*
X118731774Y-106434253D01*
X118992927Y-106326080D01*
X119227959Y-106169037D01*
X119427837Y-105969159D01*
X119584880Y-105734127D01*
X119693053Y-105472974D01*
X119748200Y-105195735D01*
X119748200Y-104913065D01*
X119693053Y-104635826D01*
X119584880Y-104374673D01*
X119427837Y-104139641D01*
X119227959Y-103939763D01*
X118992927Y-103782720D01*
X118731774Y-103674547D01*
X118454535Y-103619400D01*
X118171865Y-103619400D01*
X117894626Y-103674547D01*
X117633473Y-103782720D01*
X117398441Y-103939763D01*
X117198563Y-104139641D01*
X117041520Y-104374673D01*
X116933347Y-104635826D01*
X116878200Y-104913065D01*
X109581223Y-104913065D01*
X109567436Y-104773091D01*
X109485382Y-104502592D01*
X109352132Y-104253299D01*
X109172808Y-104034792D01*
X108954301Y-103855468D01*
X108705008Y-103722218D01*
X108434509Y-103640164D01*
X108223692Y-103619400D01*
X108082708Y-103619400D01*
X107871891Y-103640164D01*
X107601392Y-103722218D01*
X107352099Y-103855468D01*
X107133592Y-104034792D01*
X106954268Y-104253299D01*
X106821018Y-104502592D01*
X106738964Y-104773091D01*
X106711257Y-105054400D01*
X106419752Y-105054400D01*
X106419752Y-104154400D01*
X106407492Y-104029918D01*
X106371182Y-103910220D01*
X106312217Y-103799906D01*
X106232865Y-103703215D01*
X106136174Y-103623863D01*
X106025860Y-103564898D01*
X105906162Y-103528588D01*
X105781680Y-103516328D01*
X103981680Y-103516328D01*
X103857198Y-103528588D01*
X103737500Y-103564898D01*
X103627186Y-103623863D01*
X103530495Y-103703215D01*
X103451143Y-103799906D01*
X103392178Y-103910220D01*
X103388867Y-103921135D01*
X103342102Y-103874370D01*
X103226154Y-103990318D01*
X103142472Y-103736139D01*
X102869905Y-103605242D01*
X102577038Y-103530035D01*
X102275127Y-103513409D01*
X101975773Y-103556003D01*
X101690481Y-103656178D01*
X101540888Y-103736139D01*
X101457205Y-103990320D01*
X100025538Y-103990320D01*
X100027540Y-88469840D01*
X103536101Y-88469840D01*
X103561877Y-88731546D01*
X103638213Y-88983194D01*
X103762178Y-89215115D01*
X103929005Y-89418395D01*
X104113542Y-89569840D01*
X103929005Y-89721285D01*
X103762178Y-89924565D01*
X103638213Y-90156486D01*
X103561877Y-90408134D01*
X103536101Y-90669840D01*
X103561877Y-90931546D01*
X103638213Y-91183194D01*
X103762178Y-91415115D01*
X103929005Y-91618395D01*
X104113542Y-91769840D01*
X103929005Y-91921285D01*
X103762178Y-92124565D01*
X103638213Y-92356486D01*
X103561877Y-92608134D01*
X103536101Y-92869840D01*
X103561877Y-93131546D01*
X103638213Y-93383194D01*
X103762178Y-93615115D01*
X103929005Y-93818395D01*
X104113542Y-93969840D01*
X103929005Y-94121285D01*
X103762178Y-94324565D01*
X103638213Y-94556486D01*
X103561877Y-94808134D01*
X103536101Y-95069840D01*
X103561877Y-95331546D01*
X103638213Y-95583194D01*
X103762178Y-95815115D01*
X103929005Y-96018395D01*
X104113542Y-96169840D01*
X103929005Y-96321285D01*
X103762178Y-96524565D01*
X103638213Y-96756486D01*
X103561877Y-97008134D01*
X103536101Y-97269840D01*
X103561877Y-97531546D01*
X103638213Y-97783194D01*
X103762178Y-98015115D01*
X103929005Y-98218395D01*
X104132285Y-98385222D01*
X104364206Y-98509187D01*
X104615854Y-98585523D01*
X104811981Y-98604840D01*
X106343139Y-98604840D01*
X106539266Y-98585523D01*
X106790914Y-98509187D01*
X107022835Y-98385222D01*
X107226115Y-98218395D01*
X107278273Y-98154840D01*
X108025371Y-98154840D01*
X108068840Y-98159121D01*
X108112309Y-98154840D01*
X108112317Y-98154840D01*
X108242330Y-98142035D01*
X108409153Y-98091429D01*
X108562899Y-98009251D01*
X108697657Y-97898657D01*
X108725374Y-97864884D01*
X109423889Y-97166370D01*
X109457657Y-97138657D01*
X109568251Y-97003899D01*
X109650429Y-96850153D01*
X109701035Y-96683330D01*
X109713840Y-96553317D01*
X109713840Y-96553307D01*
X109718121Y-96509841D01*
X109713840Y-96466375D01*
X109713840Y-90669840D01*
X114536101Y-90669840D01*
X114561877Y-90931546D01*
X114638213Y-91183194D01*
X114762178Y-91415115D01*
X114929005Y-91618395D01*
X115113542Y-91769840D01*
X114929005Y-91921285D01*
X114762178Y-92124565D01*
X114638213Y-92356486D01*
X114561877Y-92608134D01*
X114536101Y-92869840D01*
X114561877Y-93131546D01*
X114638213Y-93383194D01*
X114762178Y-93615115D01*
X114929005Y-93818395D01*
X115113542Y-93969840D01*
X114929005Y-94121285D01*
X114762178Y-94324565D01*
X114638213Y-94556486D01*
X114561877Y-94808134D01*
X114536101Y-95069840D01*
X114561877Y-95331546D01*
X114638213Y-95583194D01*
X114762178Y-95815115D01*
X114929005Y-96018395D01*
X115113542Y-96169840D01*
X114929005Y-96321285D01*
X114762178Y-96524565D01*
X114638213Y-96756486D01*
X114561877Y-97008134D01*
X114536101Y-97269840D01*
X114561877Y-97531546D01*
X114638213Y-97783194D01*
X114762178Y-98015115D01*
X114929005Y-98218395D01*
X115132285Y-98385222D01*
X115364206Y-98509187D01*
X115615854Y-98585523D01*
X115811981Y-98604840D01*
X117343139Y-98604840D01*
X117539266Y-98585523D01*
X117790914Y-98509187D01*
X118022835Y-98385222D01*
X118226115Y-98218395D01*
X118392942Y-98015115D01*
X118516907Y-97783194D01*
X118593243Y-97531546D01*
X118619019Y-97269840D01*
X118593243Y-97008134D01*
X118516907Y-96756486D01*
X118392942Y-96524565D01*
X118226115Y-96321285D01*
X118041578Y-96169840D01*
X118226115Y-96018395D01*
X118278273Y-95954840D01*
X118319484Y-95954840D01*
X118446603Y-95967360D01*
X118446611Y-95967360D01*
X118490080Y-95971641D01*
X118533549Y-95967360D01*
X154537862Y-95967360D01*
X155563760Y-96993259D01*
X155563760Y-99808895D01*
X155474278Y-99817708D01*
X155354580Y-99854018D01*
X155244266Y-99912983D01*
X155178760Y-99966742D01*
X155113254Y-99912983D01*
X155002940Y-99854018D01*
X154883242Y-99817708D01*
X154758760Y-99805448D01*
X153058760Y-99805448D01*
X152934278Y-99817708D01*
X152814580Y-99854018D01*
X152704266Y-99912983D01*
X152638760Y-99966742D01*
X152573254Y-99912983D01*
X152462940Y-99854018D01*
X152343242Y-99817708D01*
X152218760Y-99805448D01*
X150518760Y-99805448D01*
X150394278Y-99817708D01*
X150274580Y-99854018D01*
X150164266Y-99912983D01*
X150098760Y-99966742D01*
X150033254Y-99912983D01*
X149922940Y-99854018D01*
X149803242Y-99817708D01*
X149678760Y-99805448D01*
X147978760Y-99805448D01*
X147854278Y-99817708D01*
X147734580Y-99854018D01*
X147624266Y-99912983D01*
X147558760Y-99966742D01*
X147493254Y-99912983D01*
X147382940Y-99854018D01*
X147263242Y-99817708D01*
X147138760Y-99805448D01*
X145438760Y-99805448D01*
X145314278Y-99817708D01*
X145194580Y-99854018D01*
X145084266Y-99912983D01*
X145018760Y-99966742D01*
X144953254Y-99912983D01*
X144842940Y-99854018D01*
X144723242Y-99817708D01*
X144598760Y-99805448D01*
X142898760Y-99805448D01*
X142774278Y-99817708D01*
X142654580Y-99854018D01*
X142544266Y-99912983D01*
X142478760Y-99966742D01*
X142413254Y-99912983D01*
X142302940Y-99854018D01*
X142183242Y-99817708D01*
X142058760Y-99805448D01*
X140358760Y-99805448D01*
X140234278Y-99817708D01*
X140114580Y-99854018D01*
X140004266Y-99912983D01*
X139938760Y-99966742D01*
X139873254Y-99912983D01*
X139762940Y-99854018D01*
X139643242Y-99817708D01*
X139518760Y-99805448D01*
X137818760Y-99805448D01*
X137694278Y-99817708D01*
X137574580Y-99854018D01*
X137464266Y-99912983D01*
X137398760Y-99966742D01*
X137333254Y-99912983D01*
X137222940Y-99854018D01*
X137103242Y-99817708D01*
X136978760Y-99805448D01*
X135278760Y-99805448D01*
X135154278Y-99817708D01*
X135034580Y-99854018D01*
X134924266Y-99912983D01*
X134858760Y-99966742D01*
X134793254Y-99912983D01*
X134682940Y-99854018D01*
X134563242Y-99817708D01*
X134438760Y-99805448D01*
X132738760Y-99805448D01*
X132614278Y-99817708D01*
X132494580Y-99854018D01*
X132384266Y-99912983D01*
X132318760Y-99966742D01*
X132253254Y-99912983D01*
X132142940Y-99854018D01*
X132023242Y-99817708D01*
X131898760Y-99805448D01*
X130198760Y-99805448D01*
X130074278Y-99817708D01*
X129954580Y-99854018D01*
X129844266Y-99912983D01*
X129778760Y-99966742D01*
X129713254Y-99912983D01*
X129602940Y-99854018D01*
X129483242Y-99817708D01*
X129358760Y-99805448D01*
X127658760Y-99805448D01*
X127534278Y-99817708D01*
X127414580Y-99854018D01*
X127304266Y-99912983D01*
X127238760Y-99966742D01*
X127173254Y-99912983D01*
X127062940Y-99854018D01*
X126943242Y-99817708D01*
X126818760Y-99805448D01*
X125118760Y-99805448D01*
X124994278Y-99817708D01*
X124874580Y-99854018D01*
X124764266Y-99912983D01*
X124698760Y-99966742D01*
X124633254Y-99912983D01*
X124522940Y-99854018D01*
X124403242Y-99817708D01*
X124278760Y-99805448D01*
X122578760Y-99805448D01*
X122454278Y-99817708D01*
X122334580Y-99854018D01*
X122224266Y-99912983D01*
X122127575Y-99992335D01*
X122048223Y-100089026D01*
X121989258Y-100199340D01*
X121952948Y-100319038D01*
X121940688Y-100443520D01*
X121940688Y-103051760D01*
X121936575Y-103093520D01*
X121940688Y-103135280D01*
X121940688Y-103943520D01*
X121952948Y-104068002D01*
X121989258Y-104187700D01*
X122048223Y-104298014D01*
X122127575Y-104394705D01*
X122224266Y-104474057D01*
X122334580Y-104533022D01*
X122454278Y-104569332D01*
X122578760Y-104581592D01*
X124278760Y-104581592D01*
X124403242Y-104569332D01*
X124522940Y-104533022D01*
X124633254Y-104474057D01*
X124698760Y-104420298D01*
X124764266Y-104474057D01*
X124874580Y-104533022D01*
X124994278Y-104569332D01*
X125118760Y-104581592D01*
X126818760Y-104581592D01*
X126943242Y-104569332D01*
X127062940Y-104533022D01*
X127173254Y-104474057D01*
X127238760Y-104420298D01*
X127304266Y-104474057D01*
X127414580Y-104533022D01*
X127534278Y-104569332D01*
X127658760Y-104581592D01*
X129358760Y-104581592D01*
X129483242Y-104569332D01*
X129602940Y-104533022D01*
X129713254Y-104474057D01*
X129778760Y-104420298D01*
X129844266Y-104474057D01*
X129954580Y-104533022D01*
X130074278Y-104569332D01*
X130198760Y-104581592D01*
X131898760Y-104581592D01*
X132023242Y-104569332D01*
X132142940Y-104533022D01*
X132253254Y-104474057D01*
X132318760Y-104420298D01*
X132384266Y-104474057D01*
X132494580Y-104533022D01*
X132614278Y-104569332D01*
X132738760Y-104581592D01*
X134438760Y-104581592D01*
X134563242Y-104569332D01*
X134682940Y-104533022D01*
X134793254Y-104474057D01*
X134858760Y-104420298D01*
X134924266Y-104474057D01*
X135034580Y-104533022D01*
X135154278Y-104569332D01*
X135278760Y-104581592D01*
X136978760Y-104581592D01*
X137103242Y-104569332D01*
X137222940Y-104533022D01*
X137333254Y-104474057D01*
X137398760Y-104420298D01*
X137464266Y-104474057D01*
X137574580Y-104533022D01*
X137694278Y-104569332D01*
X137818760Y-104581592D01*
X139518760Y-104581592D01*
X139643242Y-104569332D01*
X139762940Y-104533022D01*
X139873254Y-104474057D01*
X139938760Y-104420298D01*
X140004266Y-104474057D01*
X140114580Y-104533022D01*
X140234278Y-104569332D01*
X140358760Y-104581592D01*
X142058760Y-104581592D01*
X142183242Y-104569332D01*
X142302940Y-104533022D01*
X142413254Y-104474057D01*
X142478760Y-104420298D01*
X142544266Y-104474057D01*
X142654580Y-104533022D01*
X142774278Y-104569332D01*
X142898760Y-104581592D01*
X144598760Y-104581592D01*
X144723242Y-104569332D01*
X144842940Y-104533022D01*
X144953254Y-104474057D01*
X145018760Y-104420298D01*
X145084266Y-104474057D01*
X145194580Y-104533022D01*
X145314278Y-104569332D01*
X145438760Y-104581592D01*
X147138760Y-104581592D01*
X147263242Y-104569332D01*
X147382940Y-104533022D01*
X147493254Y-104474057D01*
X147558760Y-104420298D01*
X147624266Y-104474057D01*
X147734580Y-104533022D01*
X147854278Y-104569332D01*
X147978760Y-104581592D01*
X149678760Y-104581592D01*
X149803242Y-104569332D01*
X149922940Y-104533022D01*
X150033254Y-104474057D01*
X150098760Y-104420298D01*
X150164266Y-104474057D01*
X150274580Y-104533022D01*
X150394278Y-104569332D01*
X150518760Y-104581592D01*
X152218760Y-104581592D01*
X152343242Y-104569332D01*
X152462940Y-104533022D01*
X152573254Y-104474057D01*
X152638760Y-104420298D01*
X152704266Y-104474057D01*
X152814580Y-104533022D01*
X152934278Y-104569332D01*
X153058760Y-104581592D01*
X154758760Y-104581592D01*
X154883242Y-104569332D01*
X155002940Y-104533022D01*
X155113254Y-104474057D01*
X155178760Y-104420298D01*
X155244266Y-104474057D01*
X155354580Y-104533022D01*
X155474278Y-104569332D01*
X155598760Y-104581592D01*
X157298760Y-104581592D01*
X157423242Y-104569332D01*
X157542940Y-104533022D01*
X157653254Y-104474057D01*
X157718760Y-104420298D01*
X157784266Y-104474057D01*
X157894580Y-104533022D01*
X158014278Y-104569332D01*
X158138760Y-104581592D01*
X159838760Y-104581592D01*
X159963242Y-104569332D01*
X160082940Y-104533022D01*
X160193254Y-104474057D01*
X160258760Y-104420298D01*
X160324266Y-104474057D01*
X160434580Y-104533022D01*
X160554278Y-104569332D01*
X160678760Y-104581592D01*
X162378760Y-104581592D01*
X162503242Y-104569332D01*
X162622940Y-104533022D01*
X162733254Y-104474057D01*
X162798760Y-104420298D01*
X162864266Y-104474057D01*
X162974580Y-104533022D01*
X163094278Y-104569332D01*
X163218760Y-104581592D01*
X164918760Y-104581592D01*
X165043242Y-104569332D01*
X165162940Y-104533022D01*
X165273254Y-104474057D01*
X165338760Y-104420298D01*
X165404266Y-104474057D01*
X165514580Y-104533022D01*
X165634278Y-104569332D01*
X165758760Y-104581592D01*
X167458760Y-104581592D01*
X167583242Y-104569332D01*
X167702940Y-104533022D01*
X167813254Y-104474057D01*
X167878760Y-104420298D01*
X167944266Y-104474057D01*
X168054580Y-104533022D01*
X168174278Y-104569332D01*
X168298760Y-104581592D01*
X169998760Y-104581592D01*
X170123242Y-104569332D01*
X170242940Y-104533022D01*
X170353254Y-104474057D01*
X170418760Y-104420298D01*
X170484266Y-104474057D01*
X170594580Y-104533022D01*
X170714278Y-104569332D01*
X170838760Y-104581592D01*
X172538760Y-104581592D01*
X172663242Y-104569332D01*
X172782940Y-104533022D01*
X172893254Y-104474057D01*
X172989945Y-104394705D01*
X173069297Y-104298014D01*
X173128262Y-104187700D01*
X173164572Y-104068002D01*
X173176832Y-103943520D01*
X173176832Y-103135280D01*
X173180945Y-103093520D01*
X173176832Y-103051760D01*
X173176832Y-100443520D01*
X173164572Y-100319038D01*
X173128262Y-100199340D01*
X173069297Y-100089026D01*
X172989945Y-99992335D01*
X172893254Y-99912983D01*
X172782940Y-99854018D01*
X172663242Y-99817708D01*
X172573760Y-99808895D01*
X172573760Y-93279778D01*
X173889090Y-91964449D01*
X173922857Y-91936737D01*
X174008378Y-91832531D01*
X174033451Y-91801979D01*
X174115628Y-91648234D01*
X174115629Y-91648233D01*
X174166235Y-91481410D01*
X174179040Y-91351397D01*
X174179040Y-91351389D01*
X174183321Y-91307920D01*
X174179040Y-91264451D01*
X174179040Y-81856869D01*
X174183321Y-81813400D01*
X174179040Y-81769931D01*
X174179040Y-81769923D01*
X174167692Y-81654706D01*
X174166235Y-81639909D01*
X174150883Y-81589303D01*
X174115629Y-81473087D01*
X174033451Y-81319341D01*
X173922857Y-81184583D01*
X173889084Y-81156866D01*
X173437334Y-80705116D01*
X173409617Y-80671343D01*
X173274859Y-80560749D01*
X173121113Y-80478571D01*
X172954290Y-80427965D01*
X172824277Y-80415160D01*
X172824269Y-80415160D01*
X172780800Y-80410879D01*
X172737331Y-80415160D01*
X172306202Y-80415160D01*
X172137421Y-80209499D01*
X171903687Y-80017679D01*
X171637021Y-79875143D01*
X171347673Y-79787370D01*
X171122168Y-79765160D01*
X169171352Y-79765160D01*
X168945847Y-79787370D01*
X168656499Y-79875143D01*
X168389833Y-80017679D01*
X168156099Y-80209499D01*
X167964279Y-80443233D01*
X167821743Y-80709899D01*
X167733970Y-80999247D01*
X167704333Y-81300160D01*
X167733970Y-81601073D01*
X167821743Y-81890421D01*
X167964279Y-82157087D01*
X168156099Y-82390821D01*
X168374625Y-82570160D01*
X168156099Y-82749499D01*
X167987318Y-82955160D01*
X167251829Y-82955160D01*
X167208360Y-82950879D01*
X167164891Y-82955160D01*
X167164883Y-82955160D01*
X167034870Y-82967965D01*
X166868046Y-83018571D01*
X166714301Y-83100749D01*
X166613313Y-83183628D01*
X166613311Y-83183630D01*
X166579543Y-83211343D01*
X166551830Y-83245111D01*
X165886711Y-83910231D01*
X165852944Y-83937943D01*
X165825231Y-83971711D01*
X165825228Y-83971714D01*
X165742350Y-84072701D01*
X165660172Y-84226447D01*
X165609565Y-84393270D01*
X165592479Y-84566760D01*
X165596761Y-84610239D01*
X165596760Y-89943651D01*
X165592479Y-89987120D01*
X165596760Y-90030589D01*
X165596760Y-90030596D01*
X165609565Y-90160609D01*
X165660171Y-90327432D01*
X165742349Y-90481178D01*
X165852943Y-90615937D01*
X165886716Y-90643654D01*
X168263761Y-93020700D01*
X168263761Y-96302728D01*
X168162400Y-96302728D01*
X168037918Y-96314988D01*
X167918220Y-96351298D01*
X167807906Y-96410263D01*
X167711215Y-96489615D01*
X167631863Y-96586306D01*
X167572898Y-96696620D01*
X167536588Y-96816318D01*
X167524328Y-96940800D01*
X167524328Y-98740800D01*
X167536588Y-98865282D01*
X167572898Y-98984980D01*
X167631863Y-99095294D01*
X167711215Y-99191985D01*
X167807906Y-99271337D01*
X167918220Y-99330302D01*
X168037918Y-99366612D01*
X168162400Y-99378872D01*
X168263760Y-99378872D01*
X168263760Y-99808895D01*
X168174278Y-99817708D01*
X168054580Y-99854018D01*
X167944266Y-99912983D01*
X167878760Y-99966742D01*
X167813254Y-99912983D01*
X167702940Y-99854018D01*
X167583242Y-99817708D01*
X167458760Y-99805448D01*
X165758760Y-99805448D01*
X165634278Y-99817708D01*
X165514580Y-99854018D01*
X165404266Y-99912983D01*
X165338760Y-99966742D01*
X165273254Y-99912983D01*
X165162940Y-99854018D01*
X165043242Y-99817708D01*
X164918760Y-99805448D01*
X163218760Y-99805448D01*
X163094278Y-99817708D01*
X162974580Y-99854018D01*
X162864266Y-99912983D01*
X162798760Y-99966742D01*
X162733254Y-99912983D01*
X162622940Y-99854018D01*
X162503242Y-99817708D01*
X162378760Y-99805448D01*
X160678760Y-99805448D01*
X160554278Y-99817708D01*
X160434580Y-99854018D01*
X160324266Y-99912983D01*
X160258760Y-99966742D01*
X160193254Y-99912983D01*
X160082940Y-99854018D01*
X159963242Y-99817708D01*
X159838760Y-99805448D01*
X158138760Y-99805448D01*
X158014278Y-99817708D01*
X157894580Y-99854018D01*
X157784266Y-99912983D01*
X157718760Y-99966742D01*
X157653254Y-99912983D01*
X157542940Y-99854018D01*
X157423242Y-99817708D01*
X157333760Y-99808895D01*
X157333760Y-97840800D01*
X159899973Y-97840800D01*
X159929610Y-98141713D01*
X160017383Y-98431061D01*
X160159919Y-98697727D01*
X160351739Y-98931461D01*
X160585473Y-99123281D01*
X160852139Y-99265817D01*
X161141487Y-99353590D01*
X161366992Y-99375800D01*
X161517808Y-99375800D01*
X161743313Y-99353590D01*
X162032661Y-99265817D01*
X162299327Y-99123281D01*
X162533061Y-98931461D01*
X162724881Y-98697727D01*
X162867417Y-98431061D01*
X162955190Y-98141713D01*
X162984827Y-97840800D01*
X162955190Y-97539887D01*
X162867417Y-97250539D01*
X162724881Y-96983873D01*
X162533061Y-96750139D01*
X162299327Y-96558319D01*
X162032661Y-96415783D01*
X161743313Y-96328010D01*
X161517808Y-96305800D01*
X161366992Y-96305800D01*
X161141487Y-96328010D01*
X160852139Y-96415783D01*
X160585473Y-96558319D01*
X160351739Y-96750139D01*
X160159919Y-96983873D01*
X160017383Y-97250539D01*
X159929610Y-97539887D01*
X159899973Y-97840800D01*
X157333760Y-97840800D01*
X157333760Y-96670145D01*
X157338041Y-96626679D01*
X157333760Y-96583213D01*
X157333760Y-96583203D01*
X157320955Y-96453190D01*
X157270349Y-96286367D01*
X157188171Y-96132621D01*
X157077577Y-95997863D01*
X157043810Y-95970151D01*
X155560972Y-94487314D01*
X155533257Y-94453543D01*
X155398499Y-94342949D01*
X155244753Y-94260771D01*
X155077930Y-94210165D01*
X154947917Y-94197360D01*
X154947909Y-94197360D01*
X154904440Y-94193079D01*
X154860971Y-94197360D01*
X118648156Y-94197360D01*
X118521037Y-94184840D01*
X118521029Y-94184840D01*
X118477560Y-94180559D01*
X118434091Y-94184840D01*
X118278273Y-94184840D01*
X118226115Y-94121285D01*
X118041578Y-93969840D01*
X118226115Y-93818395D01*
X118392942Y-93615115D01*
X118516907Y-93383194D01*
X118593243Y-93131546D01*
X118619019Y-92869840D01*
X118593243Y-92608134D01*
X118516907Y-92356486D01*
X118392942Y-92124565D01*
X118226115Y-91921285D01*
X118041578Y-91769840D01*
X118226115Y-91618395D01*
X118392942Y-91415115D01*
X118516907Y-91183194D01*
X118593243Y-90931546D01*
X118619019Y-90669840D01*
X118593243Y-90408134D01*
X118516907Y-90156486D01*
X118392942Y-89924565D01*
X118226115Y-89721285D01*
X118038001Y-89566904D01*
X118124843Y-89509295D01*
X118311350Y-89324025D01*
X118458129Y-89105930D01*
X118559540Y-88863390D01*
X118570276Y-88803169D01*
X118446934Y-88596840D01*
X116704560Y-88596840D01*
X116704560Y-88616840D01*
X116450560Y-88616840D01*
X116450560Y-88596840D01*
X114708186Y-88596840D01*
X114584844Y-88803169D01*
X114595580Y-88863390D01*
X114696991Y-89105930D01*
X114843770Y-89324025D01*
X115030277Y-89509295D01*
X115117119Y-89566904D01*
X114929005Y-89721285D01*
X114762178Y-89924565D01*
X114638213Y-90156486D01*
X114561877Y-90408134D01*
X114536101Y-90669840D01*
X109713840Y-90669840D01*
X109713840Y-88136511D01*
X114584844Y-88136511D01*
X114708186Y-88342840D01*
X116450560Y-88342840D01*
X116450560Y-87134840D01*
X116704560Y-87134840D01*
X116704560Y-88342840D01*
X118446934Y-88342840D01*
X118570276Y-88136511D01*
X118559540Y-88076290D01*
X118458129Y-87833750D01*
X118311350Y-87615655D01*
X118124843Y-87430385D01*
X117905775Y-87285061D01*
X117662565Y-87185268D01*
X117404560Y-87134840D01*
X116704560Y-87134840D01*
X116450560Y-87134840D01*
X115750560Y-87134840D01*
X115492555Y-87185268D01*
X115249345Y-87285061D01*
X115030277Y-87430385D01*
X114843770Y-87615655D01*
X114696991Y-87833750D01*
X114595580Y-88076290D01*
X114584844Y-88136511D01*
X109713840Y-88136511D01*
X109713840Y-80205698D01*
X109885767Y-80113801D01*
X110119501Y-79921981D01*
X110311321Y-79688247D01*
X110453857Y-79421581D01*
X110541630Y-79132233D01*
X110571267Y-78831320D01*
X110541630Y-78530407D01*
X110453857Y-78241059D01*
X110311321Y-77974393D01*
X110119501Y-77740659D01*
X109885767Y-77548839D01*
X109796265Y-77500999D01*
X112693840Y-77500999D01*
X112693841Y-80161642D01*
X112717498Y-80401836D01*
X112810989Y-80710035D01*
X112962810Y-80994072D01*
X113167127Y-81243034D01*
X113416089Y-81447351D01*
X113700126Y-81599172D01*
X114008325Y-81692663D01*
X114328840Y-81724231D01*
X114649356Y-81692663D01*
X114957555Y-81599172D01*
X115241592Y-81447351D01*
X115490554Y-81243034D01*
X115694871Y-80994072D01*
X115846692Y-80710035D01*
X115940183Y-80401836D01*
X115963840Y-80161642D01*
X115963840Y-77500998D01*
X115940183Y-77260804D01*
X115846692Y-76952605D01*
X115787468Y-76841804D01*
X116298280Y-76841804D01*
X116298280Y-78077877D01*
X116318320Y-78281347D01*
X116397516Y-78542421D01*
X116526123Y-78783028D01*
X116699200Y-78993921D01*
X116910093Y-79166997D01*
X117150700Y-79295604D01*
X117411774Y-79374800D01*
X117683280Y-79401541D01*
X117954787Y-79374800D01*
X118215861Y-79295604D01*
X118456468Y-79166997D01*
X118667361Y-78993921D01*
X118840437Y-78783028D01*
X118953280Y-78571913D01*
X119066123Y-78783028D01*
X119239200Y-78993921D01*
X119450093Y-79166997D01*
X119690700Y-79295604D01*
X119951774Y-79374800D01*
X120223280Y-79401541D01*
X120494787Y-79374800D01*
X120755861Y-79295604D01*
X120996468Y-79166997D01*
X121207361Y-78993921D01*
X121380437Y-78783028D01*
X121509044Y-78542421D01*
X121588240Y-78281347D01*
X121608280Y-78077877D01*
X121608280Y-76841804D01*
X123918280Y-76841804D01*
X123918280Y-78077877D01*
X123938320Y-78281347D01*
X124017516Y-78542421D01*
X124146123Y-78783028D01*
X124319200Y-78993921D01*
X124530093Y-79166997D01*
X124770700Y-79295604D01*
X125031774Y-79374800D01*
X125303280Y-79401541D01*
X125574787Y-79374800D01*
X125835861Y-79295604D01*
X126076468Y-79166997D01*
X126287361Y-78993921D01*
X126460437Y-78783028D01*
X126573280Y-78571913D01*
X126686123Y-78783028D01*
X126859200Y-78993921D01*
X127070093Y-79166997D01*
X127310700Y-79295604D01*
X127571774Y-79374800D01*
X127843280Y-79401541D01*
X128114787Y-79374800D01*
X128375861Y-79295604D01*
X128616468Y-79166997D01*
X128827361Y-78993921D01*
X129000437Y-78783028D01*
X129129044Y-78542421D01*
X129208240Y-78281347D01*
X129228280Y-78077877D01*
X129228280Y-76841803D01*
X129208240Y-76638333D01*
X129129044Y-76377259D01*
X129000437Y-76136652D01*
X128827360Y-75925759D01*
X128616467Y-75752683D01*
X128375860Y-75624076D01*
X128114786Y-75544880D01*
X127843280Y-75518139D01*
X127571773Y-75544880D01*
X127310699Y-75624076D01*
X127070092Y-75752683D01*
X126859199Y-75925760D01*
X126686123Y-76136653D01*
X126573280Y-76347767D01*
X126460437Y-76136652D01*
X126287360Y-75925759D01*
X126076467Y-75752683D01*
X125835860Y-75624076D01*
X125574786Y-75544880D01*
X125303280Y-75518139D01*
X125031773Y-75544880D01*
X124770699Y-75624076D01*
X124530092Y-75752683D01*
X124319199Y-75925760D01*
X124146123Y-76136653D01*
X124017516Y-76377260D01*
X123938320Y-76638334D01*
X123918280Y-76841804D01*
X121608280Y-76841804D01*
X121608280Y-76841803D01*
X121588240Y-76638333D01*
X121509044Y-76377259D01*
X121380437Y-76136652D01*
X121207360Y-75925759D01*
X120996467Y-75752683D01*
X120755860Y-75624076D01*
X120494786Y-75544880D01*
X120223280Y-75518139D01*
X119951773Y-75544880D01*
X119690699Y-75624076D01*
X119450092Y-75752683D01*
X119239199Y-75925760D01*
X119066123Y-76136653D01*
X118953280Y-76347767D01*
X118840437Y-76136652D01*
X118667360Y-75925759D01*
X118456467Y-75752683D01*
X118215860Y-75624076D01*
X117954786Y-75544880D01*
X117683280Y-75518139D01*
X117411773Y-75544880D01*
X117150699Y-75624076D01*
X116910092Y-75752683D01*
X116699199Y-75925760D01*
X116526123Y-76136653D01*
X116397516Y-76377260D01*
X116318320Y-76638334D01*
X116298280Y-76841804D01*
X115787468Y-76841804D01*
X115694871Y-76668568D01*
X115490554Y-76419606D01*
X115241591Y-76215289D01*
X114957554Y-76063468D01*
X114649355Y-75969977D01*
X114328840Y-75938409D01*
X114008324Y-75969977D01*
X113700125Y-76063468D01*
X113416088Y-76215289D01*
X113167126Y-76419606D01*
X112962809Y-76668569D01*
X112810988Y-76952606D01*
X112717497Y-77260805D01*
X112693840Y-77500999D01*
X109796265Y-77500999D01*
X109619101Y-77406303D01*
X109329753Y-77318530D01*
X109104248Y-77296320D01*
X108553432Y-77296320D01*
X108327927Y-77318530D01*
X108038579Y-77406303D01*
X107771913Y-77548839D01*
X107538179Y-77740659D01*
X107346359Y-77974393D01*
X107203823Y-78241059D01*
X107116050Y-78530407D01*
X107086413Y-78831320D01*
X107116050Y-79132233D01*
X107203823Y-79421581D01*
X107346359Y-79688247D01*
X107538179Y-79921981D01*
X107771913Y-80113801D01*
X107943840Y-80205698D01*
X107943841Y-96143260D01*
X107702262Y-96384840D01*
X107278273Y-96384840D01*
X107226115Y-96321285D01*
X107041578Y-96169840D01*
X107226115Y-96018395D01*
X107392942Y-95815115D01*
X107516907Y-95583194D01*
X107593243Y-95331546D01*
X107619019Y-95069840D01*
X107593243Y-94808134D01*
X107516907Y-94556486D01*
X107392942Y-94324565D01*
X107226115Y-94121285D01*
X107041578Y-93969840D01*
X107226115Y-93818395D01*
X107392942Y-93615115D01*
X107516907Y-93383194D01*
X107593243Y-93131546D01*
X107619019Y-92869840D01*
X107593243Y-92608134D01*
X107516907Y-92356486D01*
X107392942Y-92124565D01*
X107226115Y-91921285D01*
X107041578Y-91769840D01*
X107226115Y-91618395D01*
X107392942Y-91415115D01*
X107516907Y-91183194D01*
X107593243Y-90931546D01*
X107619019Y-90669840D01*
X107593243Y-90408134D01*
X107516907Y-90156486D01*
X107392942Y-89924565D01*
X107226115Y-89721285D01*
X107041578Y-89569840D01*
X107226115Y-89418395D01*
X107392942Y-89215115D01*
X107516907Y-88983194D01*
X107593243Y-88731546D01*
X107619019Y-88469840D01*
X107593243Y-88208134D01*
X107516907Y-87956486D01*
X107392942Y-87724565D01*
X107226115Y-87521285D01*
X107022835Y-87354458D01*
X106790914Y-87230493D01*
X106539266Y-87154157D01*
X106343139Y-87134840D01*
X104811981Y-87134840D01*
X104615854Y-87154157D01*
X104364206Y-87230493D01*
X104132285Y-87354458D01*
X103929005Y-87521285D01*
X103762178Y-87724565D01*
X103638213Y-87956486D01*
X103561877Y-88208134D01*
X103536101Y-88469840D01*
X100027540Y-88469840D01*
X100028956Y-77500999D01*
X101693840Y-77500999D01*
X101693841Y-80161642D01*
X101717498Y-80401836D01*
X101810989Y-80710035D01*
X101962810Y-80994072D01*
X102167127Y-81243034D01*
X102416089Y-81447351D01*
X102700126Y-81599172D01*
X103008325Y-81692663D01*
X103328840Y-81724231D01*
X103649356Y-81692663D01*
X103957555Y-81599172D01*
X104241592Y-81447351D01*
X104490554Y-81243034D01*
X104694871Y-80994072D01*
X104846692Y-80710035D01*
X104940183Y-80401836D01*
X104963840Y-80161642D01*
X104963840Y-77500998D01*
X104940183Y-77260804D01*
X104846692Y-76952605D01*
X104694871Y-76668568D01*
X104490554Y-76419606D01*
X104241591Y-76215289D01*
X103957554Y-76063468D01*
X103649355Y-75969977D01*
X103328840Y-75938409D01*
X103008324Y-75969977D01*
X102700125Y-76063468D01*
X102416088Y-76215289D01*
X102167126Y-76419606D01*
X101962809Y-76668569D01*
X101810988Y-76952606D01*
X101717497Y-77260805D01*
X101693840Y-77500999D01*
X100028956Y-77500999D01*
X100029787Y-71064120D01*
X107160894Y-71064120D01*
X107103992Y-71081381D01*
X107103992Y-71081381D01*
G37*
X107103992Y-71081381D02*
X106776523Y-71256417D01*
X106489495Y-71491975D01*
X106253937Y-71779003D01*
X106078901Y-72106472D01*
X105971115Y-72461796D01*
X105934720Y-72831320D01*
X105971115Y-73200844D01*
X106078901Y-73556168D01*
X106253937Y-73883637D01*
X106489495Y-74170665D01*
X106776523Y-74406223D01*
X107103992Y-74581259D01*
X107459316Y-74689045D01*
X107736243Y-74716320D01*
X109921437Y-74716320D01*
X110198364Y-74689045D01*
X110553688Y-74581259D01*
X110881157Y-74406223D01*
X111168185Y-74170665D01*
X111403743Y-73883637D01*
X111578779Y-73556168D01*
X111686565Y-73200844D01*
X111722960Y-72831320D01*
X111686565Y-72461796D01*
X111578779Y-72106472D01*
X111403743Y-71779003D01*
X111168185Y-71491975D01*
X110881157Y-71256417D01*
X110553688Y-71081381D01*
X110496786Y-71064120D01*
X121602132Y-71064120D01*
X121477516Y-71297260D01*
X121398320Y-71558334D01*
X121378280Y-71761804D01*
X121378280Y-72997877D01*
X121398320Y-73201347D01*
X121477516Y-73462421D01*
X121606123Y-73703028D01*
X121779200Y-73913921D01*
X121990093Y-74086997D01*
X122230700Y-74215604D01*
X122491774Y-74294800D01*
X122763280Y-74321541D01*
X123034787Y-74294800D01*
X123295861Y-74215604D01*
X123536468Y-74086997D01*
X123747361Y-73913921D01*
X123920437Y-73703028D01*
X124049044Y-73462421D01*
X124128240Y-73201347D01*
X124148280Y-72997877D01*
X124148280Y-71761803D01*
X124128240Y-71558333D01*
X124049044Y-71297259D01*
X123924429Y-71064120D01*
X174838668Y-71064120D01*
X174828685Y-148463400D01*
X170741320Y-148463400D01*
X170836605Y-148412469D01*
X171064797Y-148225197D01*
X171252069Y-147997006D01*
X171391225Y-147736664D01*
X171476916Y-147454177D01*
X171498600Y-147234019D01*
X171498600Y-145765981D01*
X171476916Y-145545823D01*
X171391225Y-145263336D01*
X171252069Y-145002994D01*
X171064797Y-144774803D01*
X170836606Y-144587531D01*
X170576264Y-144448375D01*
X170293777Y-144362684D01*
X170000000Y-144333749D01*
X169706224Y-144362684D01*
X169423737Y-144448375D01*
X169163395Y-144587531D01*
X168935204Y-144774803D01*
X168747932Y-145002994D01*
X168608775Y-145263336D01*
X168523084Y-145545823D01*
X168501400Y-145765981D01*
X168501400Y-147234018D01*
X168523084Y-147454176D01*
X168608775Y-147736663D01*
X168747931Y-147997005D01*
X168935203Y-148225197D01*
X169163394Y-148412469D01*
X169258679Y-148463400D01*
X165741320Y-148463400D01*
X165836605Y-148412469D01*
X166064797Y-148225197D01*
X166252069Y-147997006D01*
X166391225Y-147736664D01*
X166476916Y-147454177D01*
X166498600Y-147234019D01*
X166498600Y-145765981D01*
X166476916Y-145545823D01*
X166391225Y-145263336D01*
X166252069Y-145002994D01*
X166064797Y-144774803D01*
X165836606Y-144587531D01*
X165576264Y-144448375D01*
X165293777Y-144362684D01*
X165000000Y-144333749D01*
X164706224Y-144362684D01*
X164423737Y-144448375D01*
X164163395Y-144587531D01*
X163935204Y-144774803D01*
X163747932Y-145002994D01*
X163608775Y-145263336D01*
X163523084Y-145545823D01*
X163501400Y-145765981D01*
X163501400Y-147234018D01*
X163523084Y-147454176D01*
X163608775Y-147736663D01*
X163747931Y-147997005D01*
X163935203Y-148225197D01*
X164163394Y-148412469D01*
X164258679Y-148463400D01*
X155741320Y-148463400D01*
X155836605Y-148412469D01*
X156064797Y-148225197D01*
X156252069Y-147997006D01*
X156391225Y-147736664D01*
X156476916Y-147454177D01*
X156498600Y-147234019D01*
X156498600Y-145765981D01*
X156476916Y-145545823D01*
X156391225Y-145263336D01*
X156252069Y-145002994D01*
X156064797Y-144774803D01*
X155836606Y-144587531D01*
X155576264Y-144448375D01*
X155293777Y-144362684D01*
X155000000Y-144333749D01*
X154706224Y-144362684D01*
X154423737Y-144448375D01*
X154163395Y-144587531D01*
X153935204Y-144774803D01*
X153747932Y-145002994D01*
X153608775Y-145263336D01*
X153523084Y-145545823D01*
X153501400Y-145765981D01*
X153501400Y-147234018D01*
X153523084Y-147454176D01*
X153608775Y-147736663D01*
X153747931Y-147997005D01*
X153935203Y-148225197D01*
X154163394Y-148412469D01*
X154258679Y-148463400D01*
X150741320Y-148463400D01*
X150836605Y-148412469D01*
X151064797Y-148225197D01*
X151252069Y-147997006D01*
X151391225Y-147736664D01*
X151476916Y-147454177D01*
X151498600Y-147234019D01*
X151498600Y-145765981D01*
X151476916Y-145545823D01*
X151391225Y-145263336D01*
X151252069Y-145002994D01*
X151064797Y-144774803D01*
X150836606Y-144587531D01*
X150576264Y-144448375D01*
X150293777Y-144362684D01*
X150000000Y-144333749D01*
X149706224Y-144362684D01*
X149423737Y-144448375D01*
X149163395Y-144587531D01*
X148935204Y-144774803D01*
X148747932Y-145002994D01*
X148608775Y-145263336D01*
X148523084Y-145545823D01*
X148501400Y-145765981D01*
X148501400Y-147234018D01*
X148523084Y-147454176D01*
X148608775Y-147736663D01*
X148747931Y-147997005D01*
X148935203Y-148225197D01*
X149163394Y-148412469D01*
X149258679Y-148463400D01*
X140741320Y-148463400D01*
X140836605Y-148412469D01*
X141064797Y-148225197D01*
X141252069Y-147997006D01*
X141391225Y-147736664D01*
X141476916Y-147454177D01*
X141498600Y-147234019D01*
X141498600Y-145765981D01*
X141476916Y-145545823D01*
X141391225Y-145263336D01*
X141252069Y-145002994D01*
X141064797Y-144774803D01*
X140836606Y-144587531D01*
X140576264Y-144448375D01*
X140293777Y-144362684D01*
X140000000Y-144333749D01*
X139706224Y-144362684D01*
X139423737Y-144448375D01*
X139163395Y-144587531D01*
X138935204Y-144774803D01*
X138747932Y-145002994D01*
X138608775Y-145263336D01*
X138523084Y-145545823D01*
X138501400Y-145765981D01*
X138501400Y-147234018D01*
X138523084Y-147454176D01*
X138608775Y-147736663D01*
X138747931Y-147997005D01*
X138935203Y-148225197D01*
X139163394Y-148412469D01*
X139258679Y-148463400D01*
X135741320Y-148463400D01*
X135836605Y-148412469D01*
X136064797Y-148225197D01*
X136252069Y-147997006D01*
X136391225Y-147736664D01*
X136476916Y-147454177D01*
X136498600Y-147234019D01*
X136498600Y-145765981D01*
X136476916Y-145545823D01*
X136391225Y-145263336D01*
X136252069Y-145002994D01*
X136064797Y-144774803D01*
X135836606Y-144587531D01*
X135576264Y-144448375D01*
X135293777Y-144362684D01*
X135000000Y-144333749D01*
X134706224Y-144362684D01*
X134423737Y-144448375D01*
X134163395Y-144587531D01*
X133935204Y-144774803D01*
X133747932Y-145002994D01*
X133608775Y-145263336D01*
X133523084Y-145545823D01*
X133501400Y-145765981D01*
X133501400Y-147234018D01*
X133523084Y-147454176D01*
X133608775Y-147736663D01*
X133747931Y-147997005D01*
X133935203Y-148225197D01*
X134163394Y-148412469D01*
X134258679Y-148463400D01*
X125741320Y-148463400D01*
X125836605Y-148412469D01*
X126064797Y-148225197D01*
X126252069Y-147997006D01*
X126391225Y-147736664D01*
X126476916Y-147454177D01*
X126498600Y-147234019D01*
X126498600Y-145765981D01*
X126476916Y-145545823D01*
X126391225Y-145263336D01*
X126252069Y-145002994D01*
X126064797Y-144774803D01*
X125836606Y-144587531D01*
X125576264Y-144448375D01*
X125293777Y-144362684D01*
X125000000Y-144333749D01*
X124706224Y-144362684D01*
X124423737Y-144448375D01*
X124163395Y-144587531D01*
X123935204Y-144774803D01*
X123747932Y-145002994D01*
X123608775Y-145263336D01*
X123523084Y-145545823D01*
X123501400Y-145765981D01*
X123501400Y-147234018D01*
X123523084Y-147454176D01*
X123608775Y-147736663D01*
X123747931Y-147997005D01*
X123935203Y-148225197D01*
X124163394Y-148412469D01*
X124258679Y-148463400D01*
X120741320Y-148463400D01*
X120836605Y-148412469D01*
X121064797Y-148225197D01*
X121252069Y-147997006D01*
X121391225Y-147736664D01*
X121476916Y-147454177D01*
X121498600Y-147234019D01*
X121498600Y-145765981D01*
X121476916Y-145545823D01*
X121391225Y-145263336D01*
X121252069Y-145002994D01*
X121064797Y-144774803D01*
X120836606Y-144587531D01*
X120576264Y-144448375D01*
X120293777Y-144362684D01*
X120000000Y-144333749D01*
X119706224Y-144362684D01*
X119423737Y-144448375D01*
X119163395Y-144587531D01*
X118935204Y-144774803D01*
X118747932Y-145002994D01*
X118608775Y-145263336D01*
X118523084Y-145545823D01*
X118501400Y-145765981D01*
X118501400Y-147234018D01*
X118523084Y-147454176D01*
X118608775Y-147736663D01*
X118747931Y-147997005D01*
X118935203Y-148225197D01*
X119163394Y-148412469D01*
X119258679Y-148463400D01*
X110741320Y-148463400D01*
X110836605Y-148412469D01*
X111064797Y-148225197D01*
X111252069Y-147997006D01*
X111391225Y-147736664D01*
X111476916Y-147454177D01*
X111498600Y-147234019D01*
X111498600Y-145765981D01*
X111476916Y-145545823D01*
X111391225Y-145263336D01*
X111252069Y-145002994D01*
X111064797Y-144774803D01*
X110836606Y-144587531D01*
X110576264Y-144448375D01*
X110293777Y-144362684D01*
X110000000Y-144333749D01*
X109706224Y-144362684D01*
X109423737Y-144448375D01*
X109163395Y-144587531D01*
X108935204Y-144774803D01*
X108747932Y-145002994D01*
X108608775Y-145263336D01*
X108523084Y-145545823D01*
X108501400Y-145765981D01*
X108501400Y-147234018D01*
X108523084Y-147454176D01*
X108608775Y-147736663D01*
X108747931Y-147997005D01*
X108935203Y-148225197D01*
X109163394Y-148412469D01*
X109258679Y-148463400D01*
X105741320Y-148463400D01*
X105836605Y-148412469D01*
X106064797Y-148225197D01*
X106252069Y-147997006D01*
X106391225Y-147736664D01*
X106476916Y-147454177D01*
X106498600Y-147234019D01*
X106498600Y-145765981D01*
X106476916Y-145545823D01*
X106391225Y-145263336D01*
X106252069Y-145002994D01*
X106064797Y-144774803D01*
X105836606Y-144587531D01*
X105576264Y-144448375D01*
X105293777Y-144362684D01*
X105000000Y-144333749D01*
X104706224Y-144362684D01*
X104423737Y-144448375D01*
X104163395Y-144587531D01*
X103935204Y-144774803D01*
X103747932Y-145002994D01*
X103608775Y-145263336D01*
X103523084Y-145545823D01*
X103501400Y-145765981D01*
X103501400Y-147234018D01*
X103523084Y-147454176D01*
X103608775Y-147736663D01*
X103747931Y-147997005D01*
X103935203Y-148225197D01*
X104163394Y-148412469D01*
X104258679Y-148463400D01*
X100019804Y-148463400D01*
X100021763Y-133265981D01*
X103501400Y-133265981D01*
X103501400Y-134734018D01*
X103523084Y-134954176D01*
X103608775Y-135236663D01*
X103747931Y-135497005D01*
X103935203Y-135725197D01*
X104163394Y-135912469D01*
X104423736Y-136051625D01*
X104706223Y-136137316D01*
X105000000Y-136166251D01*
X105293776Y-136137316D01*
X105576263Y-136051625D01*
X105836605Y-135912469D01*
X106064797Y-135725197D01*
X106252069Y-135497006D01*
X106391225Y-135236664D01*
X106476916Y-134954177D01*
X106498600Y-134734019D01*
X106498600Y-133265981D01*
X108501400Y-133265981D01*
X108501400Y-134734018D01*
X108523084Y-134954176D01*
X108608775Y-135236663D01*
X108747931Y-135497005D01*
X108935203Y-135725197D01*
X109163394Y-135912469D01*
X109423736Y-136051625D01*
X109706223Y-136137316D01*
X110000000Y-136166251D01*
X110293776Y-136137316D01*
X110576263Y-136051625D01*
X110836605Y-135912469D01*
X111064797Y-135725197D01*
X111252069Y-135497006D01*
X111391225Y-135236664D01*
X111476916Y-134954177D01*
X111498600Y-134734019D01*
X111498600Y-133265981D01*
X118501400Y-133265981D01*
X118501400Y-134734018D01*
X118523084Y-134954176D01*
X118608775Y-135236663D01*
X118747931Y-135497005D01*
X118935203Y-135725197D01*
X119163394Y-135912469D01*
X119423736Y-136051625D01*
X119706223Y-136137316D01*
X120000000Y-136166251D01*
X120293776Y-136137316D01*
X120576263Y-136051625D01*
X120836605Y-135912469D01*
X121064797Y-135725197D01*
X121252069Y-135497006D01*
X121391225Y-135236664D01*
X121476916Y-134954177D01*
X121498600Y-134734019D01*
X121498600Y-133265981D01*
X121476916Y-133045823D01*
X121391225Y-132763336D01*
X121252069Y-132502994D01*
X121064797Y-132274803D01*
X120836606Y-132087531D01*
X120576264Y-131948375D01*
X120293777Y-131862684D01*
X120000000Y-131833749D01*
X119706224Y-131862684D01*
X119423737Y-131948375D01*
X119163395Y-132087531D01*
X118935204Y-132274803D01*
X118747932Y-132502994D01*
X118608775Y-132763336D01*
X118523084Y-133045823D01*
X118501400Y-133265981D01*
X111498600Y-133265981D01*
X111476916Y-133045823D01*
X111391225Y-132763336D01*
X111252069Y-132502994D01*
X111064797Y-132274803D01*
X110989121Y-132212697D01*
X112323304Y-130878515D01*
X112426108Y-130888640D01*
X112567092Y-130888640D01*
X112777909Y-130867876D01*
X113048408Y-130785822D01*
X113297701Y-130652572D01*
X113516208Y-130473248D01*
X113559134Y-130420942D01*
X116418063Y-130420942D01*
X116489646Y-130664911D01*
X116745156Y-130785811D01*
X117019344Y-130854540D01*
X117301672Y-130868457D01*
X117581290Y-130827027D01*
X117847452Y-130731843D01*
X117972674Y-130664911D01*
X118044257Y-130420942D01*
X117231160Y-129607845D01*
X116418063Y-130420942D01*
X113559134Y-130420942D01*
X113695532Y-130254741D01*
X113828782Y-130005448D01*
X113910836Y-129734949D01*
X113934099Y-129498752D01*
X115790943Y-129498752D01*
X115832373Y-129778370D01*
X115927557Y-130044532D01*
X115994489Y-130169754D01*
X116238458Y-130241337D01*
X117051555Y-129428240D01*
X117410765Y-129428240D01*
X118223862Y-130241337D01*
X118467831Y-130169754D01*
X118588731Y-129914244D01*
X118657460Y-129640056D01*
X118671377Y-129357728D01*
X118629947Y-129078110D01*
X118534763Y-128811948D01*
X118467831Y-128686726D01*
X118223862Y-128615143D01*
X117410765Y-129428240D01*
X117051555Y-129428240D01*
X116238458Y-128615143D01*
X115994489Y-128686726D01*
X115873589Y-128942236D01*
X115804860Y-129216424D01*
X115790943Y-129498752D01*
X113934099Y-129498752D01*
X113938543Y-129453640D01*
X113921475Y-129280344D01*
X114766281Y-128435538D01*
X116418063Y-128435538D01*
X117231160Y-129248635D01*
X118044257Y-128435538D01*
X117972674Y-128191569D01*
X117717164Y-128070669D01*
X117442976Y-128001940D01*
X117160648Y-127988023D01*
X116881030Y-128029453D01*
X116614868Y-128124637D01*
X116489646Y-128191569D01*
X116418063Y-128435538D01*
X114766281Y-128435538D01*
X115347299Y-127854520D01*
X120728451Y-127854520D01*
X120771920Y-127858801D01*
X120815389Y-127854520D01*
X120815397Y-127854520D01*
X120945410Y-127841715D01*
X121112233Y-127791109D01*
X121265979Y-127708931D01*
X121400737Y-127598337D01*
X121428454Y-127564564D01*
X124023810Y-124969209D01*
X124057577Y-124941497D01*
X124168171Y-124806739D01*
X124250349Y-124652993D01*
X124300955Y-124486170D01*
X124313760Y-124356157D01*
X124313760Y-124356147D01*
X124318041Y-124312681D01*
X124313760Y-124269215D01*
X124313760Y-124158145D01*
X124403242Y-124149332D01*
X124522940Y-124113022D01*
X124633254Y-124054057D01*
X124698760Y-124000298D01*
X124764266Y-124054057D01*
X124874580Y-124113022D01*
X124994278Y-124149332D01*
X125083760Y-124158145D01*
X125083761Y-127962361D01*
X125079479Y-128005840D01*
X125096565Y-128179330D01*
X125147172Y-128346153D01*
X125229350Y-128499899D01*
X125312228Y-128600886D01*
X125312231Y-128600889D01*
X125339944Y-128634657D01*
X125373711Y-128662369D01*
X125966285Y-129254944D01*
X125949217Y-129428240D01*
X125966285Y-129601536D01*
X124404951Y-131162871D01*
X124371184Y-131190583D01*
X124343471Y-131224351D01*
X124343468Y-131224354D01*
X124260590Y-131325341D01*
X124178412Y-131479087D01*
X124127805Y-131645910D01*
X124110719Y-131819400D01*
X124115001Y-131862879D01*
X124115001Y-132127247D01*
X123935204Y-132274803D01*
X123747932Y-132502994D01*
X123608775Y-132763336D01*
X123523084Y-133045823D01*
X123501400Y-133265981D01*
X123501400Y-134734018D01*
X123523084Y-134954176D01*
X123608775Y-135236663D01*
X123747931Y-135497005D01*
X123935203Y-135725197D01*
X124163394Y-135912469D01*
X124423736Y-136051625D01*
X124706223Y-136137316D01*
X125000000Y-136166251D01*
X125293776Y-136137316D01*
X125576263Y-136051625D01*
X125836605Y-135912469D01*
X126064797Y-135725197D01*
X126252069Y-135497006D01*
X126391225Y-135236664D01*
X126476916Y-134954177D01*
X126498600Y-134734019D01*
X126498600Y-133265981D01*
X133501400Y-133265981D01*
X133501400Y-134734018D01*
X133523084Y-134954176D01*
X133608775Y-135236663D01*
X133747931Y-135497005D01*
X133935203Y-135725197D01*
X134163394Y-135912469D01*
X134423736Y-136051625D01*
X134706223Y-136137316D01*
X135000000Y-136166251D01*
X135293776Y-136137316D01*
X135576263Y-136051625D01*
X135836605Y-135912469D01*
X136064797Y-135725197D01*
X136252069Y-135497006D01*
X136391225Y-135236664D01*
X136476916Y-134954177D01*
X136498600Y-134734019D01*
X136498600Y-133265981D01*
X136476916Y-133045823D01*
X136391225Y-132763336D01*
X136252069Y-132502994D01*
X136064797Y-132274803D01*
X135836606Y-132087531D01*
X135576264Y-131948375D01*
X135293777Y-131862684D01*
X135000000Y-131833749D01*
X134706224Y-131862684D01*
X134423737Y-131948375D01*
X134163395Y-132087531D01*
X133935204Y-132274803D01*
X133747932Y-132502994D01*
X133608775Y-132763336D01*
X133523084Y-133045823D01*
X133501400Y-133265981D01*
X126498600Y-133265981D01*
X126476916Y-133045823D01*
X126391225Y-132763336D01*
X126252069Y-132502994D01*
X126064797Y-132274803D01*
X125917258Y-132153720D01*
X127217864Y-130853115D01*
X127320668Y-130863240D01*
X127461652Y-130863240D01*
X127672469Y-130842476D01*
X127942968Y-130760422D01*
X128192261Y-130627172D01*
X128410768Y-130447848D01*
X128432849Y-130420942D01*
X131795223Y-130420942D01*
X131866806Y-130664911D01*
X132122316Y-130785811D01*
X132396504Y-130854540D01*
X132678832Y-130868457D01*
X132958450Y-130827027D01*
X133224612Y-130731843D01*
X133349834Y-130664911D01*
X133421417Y-130420942D01*
X132608320Y-129607845D01*
X131795223Y-130420942D01*
X128432849Y-130420942D01*
X128590092Y-130229341D01*
X128723342Y-129980048D01*
X128805396Y-129709549D01*
X128826158Y-129498752D01*
X131168103Y-129498752D01*
X131209533Y-129778370D01*
X131304717Y-130044532D01*
X131371649Y-130169754D01*
X131615618Y-130241337D01*
X132428715Y-129428240D01*
X131615618Y-128615143D01*
X131371649Y-128686726D01*
X131250749Y-128942236D01*
X131182020Y-129216424D01*
X131168103Y-129498752D01*
X128826158Y-129498752D01*
X128833103Y-129428240D01*
X128805396Y-129146931D01*
X128723342Y-128876432D01*
X128590092Y-128627139D01*
X128410768Y-128408632D01*
X128192261Y-128229308D01*
X127942968Y-128096058D01*
X127672469Y-128014004D01*
X127461652Y-127993240D01*
X127320668Y-127993240D01*
X127217864Y-128003365D01*
X126853760Y-127639262D01*
X126853760Y-124158145D01*
X126943242Y-124149332D01*
X127062940Y-124113022D01*
X127173254Y-124054057D01*
X127238760Y-124000298D01*
X127304266Y-124054057D01*
X127414580Y-124113022D01*
X127534278Y-124149332D01*
X127658760Y-124161592D01*
X129358760Y-124161592D01*
X129483242Y-124149332D01*
X129602940Y-124113022D01*
X129713254Y-124054057D01*
X129778760Y-124000298D01*
X129844266Y-124054057D01*
X129954580Y-124113022D01*
X130074278Y-124149332D01*
X130138361Y-124155643D01*
X130138361Y-125005801D01*
X130134079Y-125049280D01*
X130151165Y-125222770D01*
X130201772Y-125389593D01*
X130283950Y-125543339D01*
X130366828Y-125644326D01*
X130366831Y-125644329D01*
X130394544Y-125678097D01*
X130428311Y-125705810D01*
X132719480Y-127996978D01*
X132537808Y-127988023D01*
X132258190Y-128029453D01*
X131992028Y-128124637D01*
X131866806Y-128191569D01*
X131795223Y-128435538D01*
X132608320Y-129248635D01*
X132622463Y-129234493D01*
X132802068Y-129414098D01*
X132787925Y-129428240D01*
X133601022Y-130241337D01*
X133844991Y-130169754D01*
X133965891Y-129914244D01*
X134034620Y-129640056D01*
X134048537Y-129357728D01*
X134043025Y-129320523D01*
X134745788Y-130023287D01*
X134773503Y-130057057D01*
X134807271Y-130084770D01*
X134807273Y-130084772D01*
X134908261Y-130167651D01*
X135062006Y-130249829D01*
X135228827Y-130300434D01*
X135228830Y-130300435D01*
X135358843Y-130313240D01*
X135358851Y-130313240D01*
X135402320Y-130317521D01*
X135445789Y-130313240D01*
X141638242Y-130313240D01*
X141699788Y-130388234D01*
X140231474Y-131856548D01*
X140000000Y-131833749D01*
X139706224Y-131862684D01*
X139423737Y-131948375D01*
X139163395Y-132087531D01*
X138935204Y-132274803D01*
X138747932Y-132502994D01*
X138608775Y-132763336D01*
X138523084Y-133045823D01*
X138501400Y-133265981D01*
X138501400Y-134734018D01*
X138523084Y-134954176D01*
X138608775Y-135236663D01*
X138747931Y-135497005D01*
X138935203Y-135725197D01*
X139163394Y-135912469D01*
X139423736Y-136051625D01*
X139706223Y-136137316D01*
X140000000Y-136166251D01*
X140293776Y-136137316D01*
X140576263Y-136051625D01*
X140836605Y-135912469D01*
X141064797Y-135725197D01*
X141252069Y-135497006D01*
X141391225Y-135236664D01*
X141476916Y-134954177D01*
X141498600Y-134734019D01*
X141498600Y-133265981D01*
X148501400Y-133265981D01*
X148501400Y-134734018D01*
X148523084Y-134954176D01*
X148608775Y-135236663D01*
X148747931Y-135497005D01*
X148935203Y-135725197D01*
X149163394Y-135912469D01*
X149423736Y-136051625D01*
X149706223Y-136137316D01*
X150000000Y-136166251D01*
X150293776Y-136137316D01*
X150576263Y-136051625D01*
X150836605Y-135912469D01*
X151064797Y-135725197D01*
X151252069Y-135497006D01*
X151391225Y-135236664D01*
X151476916Y-134954177D01*
X151498600Y-134734019D01*
X151498600Y-133265981D01*
X151476916Y-133045823D01*
X151391225Y-132763336D01*
X151252069Y-132502994D01*
X151064797Y-132274803D01*
X150836606Y-132087531D01*
X150576264Y-131948375D01*
X150293777Y-131862684D01*
X150000000Y-131833749D01*
X149706224Y-131862684D01*
X149423737Y-131948375D01*
X149163395Y-132087531D01*
X148935204Y-132274803D01*
X148747932Y-132502994D01*
X148608775Y-132763336D01*
X148523084Y-133045823D01*
X148501400Y-133265981D01*
X141498600Y-133265981D01*
X141483052Y-133108126D01*
X143363370Y-131227809D01*
X143397137Y-131200097D01*
X143425367Y-131165700D01*
X143507731Y-131065339D01*
X143589909Y-130911594D01*
X143640515Y-130744770D01*
X143641788Y-130731843D01*
X143653320Y-130614757D01*
X143653320Y-130614749D01*
X143657601Y-130571280D01*
X143656100Y-130556037D01*
X143787928Y-130447848D01*
X143810009Y-130420942D01*
X146694863Y-130420942D01*
X146766446Y-130664911D01*
X147021956Y-130785811D01*
X147296144Y-130854540D01*
X147578472Y-130868457D01*
X147858090Y-130827027D01*
X148124252Y-130731843D01*
X148249474Y-130664911D01*
X148321057Y-130420942D01*
X147507960Y-129607845D01*
X146694863Y-130420942D01*
X143810009Y-130420942D01*
X143967252Y-130229341D01*
X144100502Y-129980048D01*
X144182556Y-129709549D01*
X144203318Y-129498752D01*
X146067743Y-129498752D01*
X146109173Y-129778370D01*
X146204357Y-130044532D01*
X146271289Y-130169754D01*
X146515258Y-130241337D01*
X147328355Y-129428240D01*
X147687565Y-129428240D01*
X148500662Y-130241337D01*
X148744631Y-130169754D01*
X148865531Y-129914244D01*
X148934260Y-129640056D01*
X148948177Y-129357728D01*
X148906747Y-129078110D01*
X148811563Y-128811948D01*
X148744631Y-128686726D01*
X148500662Y-128615143D01*
X147687565Y-129428240D01*
X147328355Y-129428240D01*
X146515258Y-128615143D01*
X146271289Y-128686726D01*
X146150389Y-128942236D01*
X146081660Y-129216424D01*
X146067743Y-129498752D01*
X144203318Y-129498752D01*
X144210263Y-129428240D01*
X144182556Y-129146931D01*
X144100502Y-128876432D01*
X143967252Y-128627139D01*
X143787928Y-128408632D01*
X143700790Y-128337120D01*
X146723740Y-128337120D01*
X146694863Y-128435538D01*
X147507960Y-129248635D01*
X148321057Y-128435538D01*
X148292180Y-128337120D01*
X149163222Y-128337120D01*
X150849388Y-130023287D01*
X150877103Y-130057057D01*
X150910871Y-130084770D01*
X150910873Y-130084772D01*
X150941823Y-130110172D01*
X151011861Y-130167651D01*
X151165607Y-130249829D01*
X151332430Y-130300435D01*
X151462443Y-130313240D01*
X151462451Y-130313240D01*
X151505920Y-130317521D01*
X151549389Y-130313240D01*
X156537882Y-130313240D01*
X156644665Y-130443356D01*
X155231474Y-131856548D01*
X155000000Y-131833749D01*
X154706224Y-131862684D01*
X154423737Y-131948375D01*
X154163395Y-132087531D01*
X153935204Y-132274803D01*
X153747932Y-132502994D01*
X153608775Y-132763336D01*
X153523084Y-133045823D01*
X153501400Y-133265981D01*
X153501400Y-134734018D01*
X153523084Y-134954176D01*
X153608775Y-135236663D01*
X153747931Y-135497005D01*
X153935203Y-135725197D01*
X154163394Y-135912469D01*
X154423736Y-136051625D01*
X154706223Y-136137316D01*
X155000000Y-136166251D01*
X155293776Y-136137316D01*
X155576263Y-136051625D01*
X155836605Y-135912469D01*
X156064797Y-135725197D01*
X156252069Y-135497006D01*
X156391225Y-135236664D01*
X156476916Y-134954177D01*
X156498600Y-134734019D01*
X156498600Y-133265981D01*
X163501400Y-133265981D01*
X163501400Y-134734018D01*
X163523084Y-134954176D01*
X163608775Y-135236663D01*
X163747931Y-135497005D01*
X163935203Y-135725197D01*
X164163394Y-135912469D01*
X164423736Y-136051625D01*
X164706223Y-136137316D01*
X165000000Y-136166251D01*
X165293776Y-136137316D01*
X165576263Y-136051625D01*
X165836605Y-135912469D01*
X166064797Y-135725197D01*
X166252069Y-135497006D01*
X166391225Y-135236664D01*
X166476916Y-134954177D01*
X166498600Y-134734019D01*
X166498600Y-133265981D01*
X166476916Y-133045823D01*
X166391225Y-132763336D01*
X166252069Y-132502994D01*
X166064797Y-132274803D01*
X165836606Y-132087531D01*
X165576264Y-131948375D01*
X165293777Y-131862684D01*
X165000000Y-131833749D01*
X164706224Y-131862684D01*
X164423737Y-131948375D01*
X164163395Y-132087531D01*
X163935204Y-132274803D01*
X163747932Y-132502994D01*
X163608775Y-132763336D01*
X163523084Y-133045823D01*
X163501400Y-133265981D01*
X156498600Y-133265981D01*
X156483052Y-133108126D01*
X158263010Y-131328169D01*
X158296777Y-131300457D01*
X158363634Y-131218993D01*
X158388718Y-131188427D01*
X158407371Y-131165699D01*
X158489549Y-131011953D01*
X158540155Y-130845130D01*
X158552960Y-130715117D01*
X158552960Y-130715107D01*
X158557241Y-130671641D01*
X158552960Y-130628175D01*
X158552960Y-130558318D01*
X158687568Y-130447848D01*
X158709649Y-130420942D01*
X161487823Y-130420942D01*
X161559406Y-130664911D01*
X161814916Y-130785811D01*
X162089104Y-130854540D01*
X162371432Y-130868457D01*
X162651050Y-130827027D01*
X162917212Y-130731843D01*
X163042434Y-130664911D01*
X163114017Y-130420942D01*
X162300920Y-129607845D01*
X161487823Y-130420942D01*
X158709649Y-130420942D01*
X158866892Y-130229341D01*
X159000142Y-129980048D01*
X159082196Y-129709549D01*
X159102958Y-129498752D01*
X160860703Y-129498752D01*
X160902133Y-129778370D01*
X160997317Y-130044532D01*
X161064249Y-130169754D01*
X161308218Y-130241337D01*
X162121315Y-129428240D01*
X162480525Y-129428240D01*
X163293622Y-130241337D01*
X163537591Y-130169754D01*
X163658491Y-129914244D01*
X163727220Y-129640056D01*
X163741137Y-129357728D01*
X163699707Y-129078110D01*
X163604523Y-128811948D01*
X163537591Y-128686726D01*
X163293622Y-128615143D01*
X162480525Y-129428240D01*
X162121315Y-129428240D01*
X161308218Y-128615143D01*
X161064249Y-128686726D01*
X160943349Y-128942236D01*
X160874620Y-129216424D01*
X160860703Y-129498752D01*
X159102958Y-129498752D01*
X159109903Y-129428240D01*
X159082196Y-129146931D01*
X159000142Y-128876432D01*
X158866892Y-128627139D01*
X158709650Y-128435538D01*
X161487823Y-128435538D01*
X162300920Y-129248635D01*
X163114017Y-128435538D01*
X163042434Y-128191569D01*
X162786924Y-128070669D01*
X162512736Y-128001940D01*
X162230408Y-127988023D01*
X161950790Y-128029453D01*
X161684628Y-128124637D01*
X161559406Y-128191569D01*
X161487823Y-128435538D01*
X158709650Y-128435538D01*
X158687568Y-128408632D01*
X158469061Y-128229308D01*
X158219768Y-128096058D01*
X157949269Y-128014004D01*
X157738452Y-127993240D01*
X157597468Y-127993240D01*
X157386651Y-128014004D01*
X157116152Y-128096058D01*
X156866859Y-128229308D01*
X156648352Y-128408632D01*
X156537882Y-128543240D01*
X151872499Y-128543240D01*
X150462418Y-127133160D01*
X168914262Y-127133160D01*
X171036045Y-129254944D01*
X171018977Y-129428240D01*
X171046684Y-129709549D01*
X171128738Y-129980048D01*
X171261988Y-130229341D01*
X171441312Y-130447848D01*
X171550536Y-130537485D01*
X170231474Y-131856548D01*
X170000000Y-131833749D01*
X169706224Y-131862684D01*
X169423737Y-131948375D01*
X169163395Y-132087531D01*
X168935204Y-132274803D01*
X168747932Y-132502994D01*
X168608775Y-132763336D01*
X168523084Y-133045823D01*
X168501400Y-133265981D01*
X168501400Y-134734018D01*
X168523084Y-134954176D01*
X168608775Y-135236663D01*
X168747931Y-135497005D01*
X168935203Y-135725197D01*
X169163394Y-135912469D01*
X169423736Y-136051625D01*
X169706223Y-136137316D01*
X170000000Y-136166251D01*
X170293776Y-136137316D01*
X170576263Y-136051625D01*
X170836605Y-135912469D01*
X171064797Y-135725197D01*
X171252069Y-135497006D01*
X171391225Y-135236664D01*
X171476916Y-134954177D01*
X171498600Y-134734019D01*
X171498600Y-133265981D01*
X171483052Y-133108126D01*
X173055970Y-131535209D01*
X173089737Y-131507497D01*
X173131852Y-131456181D01*
X173200330Y-131372740D01*
X173200331Y-131372739D01*
X173282509Y-131218993D01*
X173333115Y-131052170D01*
X173345920Y-130922157D01*
X173345920Y-130922147D01*
X173350201Y-130878681D01*
X173345920Y-130835215D01*
X173345920Y-130558318D01*
X173480528Y-130447848D01*
X173659852Y-130229341D01*
X173793102Y-129980048D01*
X173875156Y-129709549D01*
X173902863Y-129428240D01*
X173875156Y-129146931D01*
X173793102Y-128876432D01*
X173659852Y-128627139D01*
X173480528Y-128408632D01*
X173262021Y-128229308D01*
X173012728Y-128096058D01*
X172742229Y-128014004D01*
X172531412Y-127993240D01*
X172390428Y-127993240D01*
X172287624Y-128003365D01*
X169937374Y-125653116D01*
X169909657Y-125619343D01*
X169774899Y-125508749D01*
X169621153Y-125426571D01*
X169454330Y-125375965D01*
X169324317Y-125363160D01*
X169324309Y-125363160D01*
X169280840Y-125358879D01*
X169237371Y-125363160D01*
X140099977Y-125363160D01*
X138898409Y-124161592D01*
X139518760Y-124161592D01*
X139643242Y-124149332D01*
X139762940Y-124113022D01*
X139873254Y-124054057D01*
X139938760Y-124000298D01*
X140004266Y-124054057D01*
X140114580Y-124113022D01*
X140234278Y-124149332D01*
X140358760Y-124161592D01*
X142058760Y-124161592D01*
X142183242Y-124149332D01*
X142302940Y-124113022D01*
X142413254Y-124054057D01*
X142478760Y-124000298D01*
X142544266Y-124054057D01*
X142654580Y-124113022D01*
X142774278Y-124149332D01*
X142898760Y-124161592D01*
X144598760Y-124161592D01*
X144723242Y-124149332D01*
X144842940Y-124113022D01*
X144953254Y-124054057D01*
X145018760Y-124000298D01*
X145084266Y-124054057D01*
X145194580Y-124113022D01*
X145314278Y-124149332D01*
X145438760Y-124161592D01*
X147138760Y-124161592D01*
X147263242Y-124149332D01*
X147382940Y-124113022D01*
X147493254Y-124054057D01*
X147558760Y-124000298D01*
X147624266Y-124054057D01*
X147734580Y-124113022D01*
X147854278Y-124149332D01*
X147978760Y-124161592D01*
X149678760Y-124161592D01*
X149803242Y-124149332D01*
X149922940Y-124113022D01*
X150033254Y-124054057D01*
X150098760Y-124000298D01*
X150164266Y-124054057D01*
X150274580Y-124113022D01*
X150394278Y-124149332D01*
X150518760Y-124161592D01*
X152218760Y-124161592D01*
X152343242Y-124149332D01*
X152462940Y-124113022D01*
X152573254Y-124054057D01*
X152638760Y-124000298D01*
X152704266Y-124054057D01*
X152814580Y-124113022D01*
X152934278Y-124149332D01*
X153058760Y-124161592D01*
X154758760Y-124161592D01*
X154883242Y-124149332D01*
X155002940Y-124113022D01*
X155113254Y-124054057D01*
X155178760Y-124000298D01*
X155244266Y-124054057D01*
X155354580Y-124113022D01*
X155474278Y-124149332D01*
X155598760Y-124161592D01*
X157298760Y-124161592D01*
X157423242Y-124149332D01*
X157542940Y-124113022D01*
X157653254Y-124054057D01*
X157718760Y-124000298D01*
X157784266Y-124054057D01*
X157894580Y-124113022D01*
X158014278Y-124149332D01*
X158138760Y-124161592D01*
X159838760Y-124161592D01*
X159963242Y-124149332D01*
X160082940Y-124113022D01*
X160193254Y-124054057D01*
X160258760Y-124000298D01*
X160324266Y-124054057D01*
X160434580Y-124113022D01*
X160554278Y-124149332D01*
X160678760Y-124161592D01*
X161243010Y-124158520D01*
X161401760Y-123999770D01*
X161401760Y-121626520D01*
X161655760Y-121626520D01*
X161655760Y-123999770D01*
X161814510Y-124158520D01*
X162378760Y-124161592D01*
X162503242Y-124149332D01*
X162622940Y-124113022D01*
X162733254Y-124054057D01*
X162798760Y-124000298D01*
X162864266Y-124054057D01*
X162974580Y-124113022D01*
X163094278Y-124149332D01*
X163218760Y-124161592D01*
X164918760Y-124161592D01*
X165043242Y-124149332D01*
X165162940Y-124113022D01*
X165273254Y-124054057D01*
X165338760Y-124000298D01*
X165404266Y-124054057D01*
X165514580Y-124113022D01*
X165634278Y-124149332D01*
X165758760Y-124161592D01*
X167458760Y-124161592D01*
X167583242Y-124149332D01*
X167702940Y-124113022D01*
X167813254Y-124054057D01*
X167878760Y-124000298D01*
X167944266Y-124054057D01*
X168054580Y-124113022D01*
X168174278Y-124149332D01*
X168298760Y-124161592D01*
X169998760Y-124161592D01*
X170123242Y-124149332D01*
X170242940Y-124113022D01*
X170353254Y-124054057D01*
X170418760Y-124000298D01*
X170484266Y-124054057D01*
X170594580Y-124113022D01*
X170714278Y-124149332D01*
X170838760Y-124161592D01*
X172538760Y-124161592D01*
X172663242Y-124149332D01*
X172782940Y-124113022D01*
X172893254Y-124054057D01*
X172989945Y-123974705D01*
X173069297Y-123878014D01*
X173128262Y-123767700D01*
X173164572Y-123648002D01*
X173176832Y-123523520D01*
X173176832Y-120915280D01*
X173180945Y-120873520D01*
X173176832Y-120831760D01*
X173176832Y-120023520D01*
X173164572Y-119899038D01*
X173128262Y-119779340D01*
X173069297Y-119669026D01*
X172989945Y-119572335D01*
X172893254Y-119492983D01*
X172782940Y-119434018D01*
X172663242Y-119397708D01*
X172538760Y-119385448D01*
X170838760Y-119385448D01*
X170714278Y-119397708D01*
X170594580Y-119434018D01*
X170484266Y-119492983D01*
X170418760Y-119546742D01*
X170353254Y-119492983D01*
X170333629Y-119482493D01*
X170333629Y-115700240D01*
X169041707Y-115700240D01*
X169061341Y-115694284D01*
X169301948Y-115565677D01*
X169512841Y-115392601D01*
X169685917Y-115181708D01*
X169814524Y-114941101D01*
X169885076Y-114708520D01*
X170016333Y-114708520D01*
X170045970Y-115009433D01*
X170133743Y-115298781D01*
X170276279Y-115565447D01*
X170468099Y-115799181D01*
X170701833Y-115991001D01*
X170968499Y-116133537D01*
X171257847Y-116221310D01*
X171483352Y-116243520D01*
X171634168Y-116243520D01*
X171859673Y-116221310D01*
X172149021Y-116133537D01*
X172415687Y-115991001D01*
X172649421Y-115799181D01*
X172841241Y-115565447D01*
X172983777Y-115298781D01*
X173071550Y-115009433D01*
X173101187Y-114708520D01*
X173071550Y-114407607D01*
X172983777Y-114118259D01*
X172841241Y-113851593D01*
X172649421Y-113617859D01*
X172415687Y-113426039D01*
X172149021Y-113283503D01*
X171859673Y-113195730D01*
X171634168Y-113173520D01*
X171483352Y-113173520D01*
X171257847Y-113195730D01*
X170968499Y-113283503D01*
X170701833Y-113426039D01*
X170468099Y-113617859D01*
X170276279Y-113851593D01*
X170133743Y-114118259D01*
X170045970Y-114407607D01*
X170016333Y-114708520D01*
X169885076Y-114708520D01*
X169893720Y-114680027D01*
X169920461Y-114408520D01*
X169893720Y-114137013D01*
X169814524Y-113875939D01*
X169685917Y-113635332D01*
X169512841Y-113424439D01*
X169301948Y-113251363D01*
X169061341Y-113122756D01*
X168800267Y-113043560D01*
X168596797Y-113023520D01*
X168460723Y-113023520D01*
X168257253Y-113043560D01*
X167996179Y-113122756D01*
X167755572Y-113251363D01*
X167544679Y-113424439D01*
X167371603Y-113635332D01*
X167242996Y-113875939D01*
X167163800Y-114137013D01*
X167137059Y-114408520D01*
X167163800Y-114680027D01*
X167242996Y-114941101D01*
X167371603Y-115181708D01*
X167544679Y-115392601D01*
X167755572Y-115565677D01*
X167996179Y-115694284D01*
X168015813Y-115700240D01*
X150620772Y-115700240D01*
X150620772Y-119385448D01*
X150518760Y-119385448D01*
X150394278Y-119397708D01*
X150274580Y-119434018D01*
X150164266Y-119492983D01*
X150098760Y-119546742D01*
X150033254Y-119492983D01*
X149922940Y-119434018D01*
X149803242Y-119397708D01*
X149678760Y-119385448D01*
X147978760Y-119385448D01*
X147854278Y-119397708D01*
X147734580Y-119434018D01*
X147624266Y-119492983D01*
X147558760Y-119546742D01*
X147493254Y-119492983D01*
X147382940Y-119434018D01*
X147263242Y-119397708D01*
X147138760Y-119385448D01*
X145438760Y-119385448D01*
X145314278Y-119397708D01*
X145194580Y-119434018D01*
X145084266Y-119492983D01*
X145018760Y-119546742D01*
X144953254Y-119492983D01*
X144842940Y-119434018D01*
X144723242Y-119397708D01*
X144598760Y-119385448D01*
X142898760Y-119385448D01*
X142774278Y-119397708D01*
X142654580Y-119434018D01*
X142544266Y-119492983D01*
X142478760Y-119546742D01*
X142413254Y-119492983D01*
X142302940Y-119434018D01*
X142183242Y-119397708D01*
X142058760Y-119385448D01*
X140358760Y-119385448D01*
X140234278Y-119397708D01*
X140114580Y-119434018D01*
X140004266Y-119492983D01*
X139938760Y-119546742D01*
X139873254Y-119492983D01*
X139762940Y-119434018D01*
X139643242Y-119397708D01*
X139518760Y-119385448D01*
X137818760Y-119385448D01*
X137694278Y-119397708D01*
X137574580Y-119434018D01*
X137464266Y-119492983D01*
X137398760Y-119546742D01*
X137333254Y-119492983D01*
X137222940Y-119434018D01*
X137103242Y-119397708D01*
X136978760Y-119385448D01*
X135278760Y-119385448D01*
X135154278Y-119397708D01*
X135034580Y-119434018D01*
X134924266Y-119492983D01*
X134858760Y-119546742D01*
X134793254Y-119492983D01*
X134682940Y-119434018D01*
X134563242Y-119397708D01*
X134438760Y-119385448D01*
X132738760Y-119385448D01*
X132614278Y-119397708D01*
X132494580Y-119434018D01*
X132384266Y-119492983D01*
X132318760Y-119546742D01*
X132253254Y-119492983D01*
X132142940Y-119434018D01*
X132023242Y-119397708D01*
X131898760Y-119385448D01*
X130198760Y-119385448D01*
X130074278Y-119397708D01*
X129954580Y-119434018D01*
X129844266Y-119492983D01*
X129778760Y-119546742D01*
X129713254Y-119492983D01*
X129602940Y-119434018D01*
X129483242Y-119397708D01*
X129358760Y-119385448D01*
X127658760Y-119385448D01*
X127534278Y-119397708D01*
X127414580Y-119434018D01*
X127304266Y-119492983D01*
X127238760Y-119546742D01*
X127173254Y-119492983D01*
X127062940Y-119434018D01*
X126943242Y-119397708D01*
X126818760Y-119385448D01*
X125118760Y-119385448D01*
X124994278Y-119397708D01*
X124874580Y-119434018D01*
X124764266Y-119492983D01*
X124698760Y-119546742D01*
X124633254Y-119492983D01*
X124522940Y-119434018D01*
X124403242Y-119397708D01*
X124278760Y-119385448D01*
X122578760Y-119385448D01*
X122454278Y-119397708D01*
X122334580Y-119434018D01*
X122224266Y-119492983D01*
X122127575Y-119572335D01*
X122048223Y-119669026D01*
X121989258Y-119779340D01*
X121952948Y-119899038D01*
X121940688Y-120023520D01*
X121940688Y-120831760D01*
X121936575Y-120873520D01*
X121940688Y-120915280D01*
X121940688Y-123523520D01*
X121952948Y-123648002D01*
X121989258Y-123767700D01*
X122048223Y-123878014D01*
X122127575Y-123974705D01*
X122224266Y-124054057D01*
X122334580Y-124113022D01*
X122367004Y-124122858D01*
X120405342Y-126084520D01*
X115024185Y-126084520D01*
X114980719Y-126080239D01*
X114937253Y-126084520D01*
X114937243Y-126084520D01*
X114807230Y-126097325D01*
X114640407Y-126147931D01*
X114486661Y-126230109D01*
X114486659Y-126230110D01*
X114486660Y-126230110D01*
X114385673Y-126312988D01*
X114385671Y-126312990D01*
X114351903Y-126340703D01*
X114324190Y-126374471D01*
X112669896Y-128028765D01*
X112567092Y-128018640D01*
X112426108Y-128018640D01*
X112215291Y-128039404D01*
X111944792Y-128121458D01*
X111695499Y-128254708D01*
X111476992Y-128434032D01*
X111297668Y-128652539D01*
X111164418Y-128901832D01*
X111082364Y-129172331D01*
X111054657Y-129453640D01*
X111071725Y-129626936D01*
X109404951Y-131293711D01*
X109371184Y-131321423D01*
X109343471Y-131355191D01*
X109343468Y-131355194D01*
X109260590Y-131456181D01*
X109178412Y-131609927D01*
X109127805Y-131776750D01*
X109110719Y-131950240D01*
X109115001Y-131993719D01*
X109115001Y-132127247D01*
X108935204Y-132274803D01*
X108747932Y-132502994D01*
X108608775Y-132763336D01*
X108523084Y-133045823D01*
X108501400Y-133265981D01*
X106498600Y-133265981D01*
X106476916Y-133045823D01*
X106391225Y-132763336D01*
X106252069Y-132502994D01*
X106064797Y-132274803D01*
X105836606Y-132087531D01*
X105576264Y-131948375D01*
X105293777Y-131862684D01*
X105000000Y-131833749D01*
X104706224Y-131862684D01*
X104423737Y-131948375D01*
X104163395Y-132087531D01*
X103935204Y-132274803D01*
X103747932Y-132502994D01*
X103608775Y-132763336D01*
X103523084Y-133045823D01*
X103501400Y-133265981D01*
X100021763Y-133265981D01*
X100022127Y-130446342D01*
X101523503Y-130446342D01*
X101595086Y-130690311D01*
X101850596Y-130811211D01*
X102124784Y-130879940D01*
X102407112Y-130893857D01*
X102686730Y-130852427D01*
X102952892Y-130757243D01*
X103078114Y-130690311D01*
X103149697Y-130446342D01*
X102336600Y-129633245D01*
X101523503Y-130446342D01*
X100022127Y-130446342D01*
X100022246Y-129524152D01*
X100896383Y-129524152D01*
X100937813Y-129803770D01*
X101032997Y-130069932D01*
X101099929Y-130195154D01*
X101343898Y-130266737D01*
X102156995Y-129453640D01*
X102516205Y-129453640D01*
X103329302Y-130266737D01*
X103573271Y-130195154D01*
X103694171Y-129939644D01*
X103762900Y-129665456D01*
X103776817Y-129383128D01*
X103735387Y-129103510D01*
X103640203Y-128837348D01*
X103573271Y-128712126D01*
X103329302Y-128640543D01*
X102516205Y-129453640D01*
X102156995Y-129453640D01*
X101343898Y-128640543D01*
X101099929Y-128712126D01*
X100979029Y-128967636D01*
X100910300Y-129241824D01*
X100896383Y-129524152D01*
X100022246Y-129524152D01*
X100022383Y-128460938D01*
X101523503Y-128460938D01*
X102336600Y-129274035D01*
X103149697Y-128460938D01*
X103078114Y-128216969D01*
X102822604Y-128096069D01*
X102548416Y-128027340D01*
X102266088Y-128013423D01*
X101986470Y-128054853D01*
X101720308Y-128150037D01*
X101595086Y-128216969D01*
X101523503Y-128460938D01*
X100022383Y-128460938D01*
X100023521Y-119644673D01*
X100744809Y-119644673D01*
X100787403Y-119944027D01*
X100887578Y-120229319D01*
X100967539Y-120378912D01*
X101221720Y-120462595D01*
X102106195Y-119578120D01*
X101221720Y-118693645D01*
X100967539Y-118777328D01*
X100836642Y-119049895D01*
X100761435Y-119342762D01*
X100744809Y-119644673D01*
X100023521Y-119644673D01*
X100023666Y-118514040D01*
X101401325Y-118514040D01*
X102285800Y-119398515D01*
X102299943Y-119384373D01*
X102479548Y-119563978D01*
X102465405Y-119578120D01*
X102479548Y-119592263D01*
X102299943Y-119771868D01*
X102285800Y-119757725D01*
X101401325Y-120642200D01*
X101485008Y-120896381D01*
X101757575Y-121027278D01*
X102050442Y-121102485D01*
X102352353Y-121119111D01*
X102651707Y-121076517D01*
X102936999Y-120976342D01*
X103086592Y-120896381D01*
X103170274Y-120642202D01*
X103286222Y-120758150D01*
X103332987Y-120711385D01*
X103336298Y-120722300D01*
X103395263Y-120832614D01*
X103474615Y-120929305D01*
X103571306Y-121008657D01*
X103681620Y-121067622D01*
X103801318Y-121103932D01*
X103925800Y-121116192D01*
X105725800Y-121116192D01*
X105850282Y-121103932D01*
X105969980Y-121067622D01*
X106080294Y-121008657D01*
X106176985Y-120929305D01*
X106256337Y-120832614D01*
X106315302Y-120722300D01*
X106351612Y-120602602D01*
X106363872Y-120478120D01*
X106363872Y-119578120D01*
X106711257Y-119578120D01*
X106738964Y-119859429D01*
X106821018Y-120129928D01*
X106954268Y-120379221D01*
X107133592Y-120597728D01*
X107352099Y-120777052D01*
X107601392Y-120910302D01*
X107871891Y-120992356D01*
X108082708Y-121013120D01*
X108223692Y-121013120D01*
X108434509Y-120992356D01*
X108705008Y-120910302D01*
X108954301Y-120777052D01*
X109172808Y-120597728D01*
X109352132Y-120379221D01*
X109485382Y-120129928D01*
X109567436Y-119859429D01*
X109595143Y-119578120D01*
X109581223Y-119436785D01*
X116878200Y-119436785D01*
X116878200Y-119719455D01*
X116933347Y-119996694D01*
X117041520Y-120257847D01*
X117198563Y-120492879D01*
X117398441Y-120692757D01*
X117633473Y-120849800D01*
X117894626Y-120957973D01*
X118171865Y-121013120D01*
X118454535Y-121013120D01*
X118731774Y-120957973D01*
X118992927Y-120849800D01*
X119227959Y-120692757D01*
X119427837Y-120492879D01*
X119584880Y-120257847D01*
X119693053Y-119996694D01*
X119748200Y-119719455D01*
X119748200Y-119436785D01*
X119693053Y-119159546D01*
X119584880Y-118898393D01*
X119427837Y-118663361D01*
X119227959Y-118463483D01*
X118992927Y-118306440D01*
X118731774Y-118198267D01*
X118454535Y-118143120D01*
X118171865Y-118143120D01*
X117894626Y-118198267D01*
X117633473Y-118306440D01*
X117398441Y-118463483D01*
X117198563Y-118663361D01*
X117041520Y-118898393D01*
X116933347Y-119159546D01*
X116878200Y-119436785D01*
X109581223Y-119436785D01*
X109567436Y-119296811D01*
X109485382Y-119026312D01*
X109352132Y-118777019D01*
X109172808Y-118558512D01*
X108954301Y-118379188D01*
X108705008Y-118245938D01*
X108434509Y-118163884D01*
X108223692Y-118143120D01*
X108082708Y-118143120D01*
X107871891Y-118163884D01*
X107601392Y-118245938D01*
X107352099Y-118379188D01*
X107133592Y-118558512D01*
X106954268Y-118777019D01*
X106821018Y-119026312D01*
X106738964Y-119296811D01*
X106711257Y-119578120D01*
X106363872Y-119578120D01*
X106363872Y-118678120D01*
X106351612Y-118553638D01*
X106315302Y-118433940D01*
X106256337Y-118323626D01*
X106176985Y-118226935D01*
X106080294Y-118147583D01*
X105969980Y-118088618D01*
X105850282Y-118052308D01*
X105725800Y-118040048D01*
X103925800Y-118040048D01*
X103801318Y-118052308D01*
X103681620Y-118088618D01*
X103571306Y-118147583D01*
X103474615Y-118226935D01*
X103395263Y-118323626D01*
X103336298Y-118433940D01*
X103332987Y-118444855D01*
X103286222Y-118398090D01*
X103170274Y-118514038D01*
X103086592Y-118259859D01*
X102814025Y-118128962D01*
X102521158Y-118053755D01*
X102219247Y-118037129D01*
X101919893Y-118079723D01*
X101634601Y-118179898D01*
X101485008Y-118259859D01*
X101401325Y-118514040D01*
X100023666Y-118514040D01*
X100024114Y-115042193D01*
X100744809Y-115042193D01*
X100787403Y-115341547D01*
X100887578Y-115626839D01*
X100967539Y-115776432D01*
X101221720Y-115860115D01*
X102106195Y-114975640D01*
X101221720Y-114091165D01*
X100967539Y-114174848D01*
X100836642Y-114447415D01*
X100761435Y-114740282D01*
X100744809Y-115042193D01*
X100024114Y-115042193D01*
X100024259Y-113911560D01*
X101401325Y-113911560D01*
X102285800Y-114796035D01*
X102299943Y-114781893D01*
X102479548Y-114961498D01*
X102465405Y-114975640D01*
X102479548Y-114989783D01*
X102299943Y-115169388D01*
X102285800Y-115155245D01*
X101401325Y-116039720D01*
X101485008Y-116293901D01*
X101757575Y-116424798D01*
X102050442Y-116500005D01*
X102352353Y-116516631D01*
X102651707Y-116474037D01*
X102936999Y-116373862D01*
X103086592Y-116293901D01*
X103170274Y-116039722D01*
X103286222Y-116155670D01*
X103332987Y-116108905D01*
X103336298Y-116119820D01*
X103395263Y-116230134D01*
X103474615Y-116326825D01*
X103571306Y-116406177D01*
X103681620Y-116465142D01*
X103801318Y-116501452D01*
X103925800Y-116513712D01*
X105725800Y-116513712D01*
X105850282Y-116501452D01*
X105969980Y-116465142D01*
X106080294Y-116406177D01*
X106176985Y-116326825D01*
X106256337Y-116230134D01*
X106315302Y-116119820D01*
X106351612Y-116000122D01*
X106363872Y-115875640D01*
X106363872Y-115031520D01*
X106660457Y-115031520D01*
X106688164Y-115312829D01*
X106770218Y-115583328D01*
X106903468Y-115832621D01*
X107082792Y-116051128D01*
X107301299Y-116230452D01*
X107550592Y-116363702D01*
X107821091Y-116445756D01*
X108031908Y-116466520D01*
X108172892Y-116466520D01*
X108383709Y-116445756D01*
X108654208Y-116363702D01*
X108903501Y-116230452D01*
X109122008Y-116051128D01*
X109301332Y-115832621D01*
X109434582Y-115583328D01*
X109516636Y-115312829D01*
X109544343Y-115031520D01*
X109530423Y-114890185D01*
X116827400Y-114890185D01*
X116827400Y-115172855D01*
X116882547Y-115450094D01*
X116990720Y-115711247D01*
X117147763Y-115946279D01*
X117347641Y-116146157D01*
X117582673Y-116303200D01*
X117843826Y-116411373D01*
X118121065Y-116466520D01*
X118403735Y-116466520D01*
X118680974Y-116411373D01*
X118942127Y-116303200D01*
X119177159Y-116146157D01*
X119377037Y-115946279D01*
X119534080Y-115711247D01*
X119642253Y-115450094D01*
X119697400Y-115172855D01*
X119697400Y-114890185D01*
X119642253Y-114612946D01*
X119534080Y-114351793D01*
X119377037Y-114116761D01*
X119177159Y-113916883D01*
X118942127Y-113759840D01*
X118680974Y-113651667D01*
X118403735Y-113596520D01*
X118121065Y-113596520D01*
X117843826Y-113651667D01*
X117582673Y-113759840D01*
X117347641Y-113916883D01*
X117147763Y-114116761D01*
X116990720Y-114351793D01*
X116882547Y-114612946D01*
X116827400Y-114890185D01*
X109530423Y-114890185D01*
X109516636Y-114750211D01*
X109434582Y-114479712D01*
X109301332Y-114230419D01*
X109122008Y-114011912D01*
X108903501Y-113832588D01*
X108654208Y-113699338D01*
X108383709Y-113617284D01*
X108172892Y-113596520D01*
X108031908Y-113596520D01*
X107821091Y-113617284D01*
X107550592Y-113699338D01*
X107301299Y-113832588D01*
X107082792Y-114011912D01*
X106903468Y-114230419D01*
X106770218Y-114479712D01*
X106688164Y-114750211D01*
X106660457Y-115031520D01*
X106363872Y-115031520D01*
X106363872Y-114075640D01*
X106351612Y-113951158D01*
X106315302Y-113831460D01*
X106256337Y-113721146D01*
X106176985Y-113624455D01*
X106080294Y-113545103D01*
X105969980Y-113486138D01*
X105850282Y-113449828D01*
X105725800Y-113437568D01*
X103925800Y-113437568D01*
X103801318Y-113449828D01*
X103681620Y-113486138D01*
X103571306Y-113545103D01*
X103474615Y-113624455D01*
X103395263Y-113721146D01*
X103336298Y-113831460D01*
X103332987Y-113842375D01*
X103286222Y-113795610D01*
X103170274Y-113911558D01*
X103086592Y-113657379D01*
X102814025Y-113526482D01*
X102521158Y-113451275D01*
X102219247Y-113434649D01*
X101919893Y-113477243D01*
X101634601Y-113577418D01*
X101485008Y-113657379D01*
X101401325Y-113911560D01*
X100024259Y-113911560D01*
X100024744Y-110155233D01*
X100800689Y-110155233D01*
X100843283Y-110454587D01*
X100943458Y-110739879D01*
X101023419Y-110889472D01*
X101277600Y-110973155D01*
X102162075Y-110088680D01*
X101277600Y-109204205D01*
X101023419Y-109287888D01*
X100892522Y-109560455D01*
X100817315Y-109853322D01*
X100800689Y-110155233D01*
X100024744Y-110155233D01*
X100024889Y-109024600D01*
X101457205Y-109024600D01*
X102341680Y-109909075D01*
X102355823Y-109894933D01*
X102535428Y-110074538D01*
X102521285Y-110088680D01*
X102535428Y-110102823D01*
X102355823Y-110282428D01*
X102341680Y-110268285D01*
X101457205Y-111152760D01*
X101540888Y-111406941D01*
X101813455Y-111537838D01*
X102106322Y-111613045D01*
X102408233Y-111629671D01*
X102707587Y-111587077D01*
X102992879Y-111486902D01*
X103142472Y-111406941D01*
X103226154Y-111152762D01*
X103342102Y-111268710D01*
X103388867Y-111221945D01*
X103392178Y-111232860D01*
X103451143Y-111343174D01*
X103530495Y-111439865D01*
X103627186Y-111519217D01*
X103737500Y-111578182D01*
X103857198Y-111614492D01*
X103981680Y-111626752D01*
X105781680Y-111626752D01*
X105906162Y-111614492D01*
X106025860Y-111578182D01*
X106136174Y-111519217D01*
X106232865Y-111439865D01*
X106312217Y-111343174D01*
X106371182Y-111232860D01*
X106407492Y-111113162D01*
X106419752Y-110988680D01*
X106419752Y-110088680D01*
X106660457Y-110088680D01*
X106688164Y-110369989D01*
X106770218Y-110640488D01*
X106903468Y-110889781D01*
X107082792Y-111108288D01*
X107301299Y-111287612D01*
X107550592Y-111420862D01*
X107821091Y-111502916D01*
X108031908Y-111523680D01*
X108172892Y-111523680D01*
X108383709Y-111502916D01*
X108654208Y-111420862D01*
X108903501Y-111287612D01*
X109122008Y-111108288D01*
X109301332Y-110889781D01*
X109434582Y-110640488D01*
X109516636Y-110369989D01*
X109544343Y-110088680D01*
X109530423Y-109947345D01*
X116827400Y-109947345D01*
X116827400Y-110230015D01*
X116882547Y-110507254D01*
X116990720Y-110768407D01*
X117147763Y-111003439D01*
X117347641Y-111203317D01*
X117582673Y-111360360D01*
X117843826Y-111468533D01*
X118121065Y-111523680D01*
X118403735Y-111523680D01*
X118680974Y-111468533D01*
X118942127Y-111360360D01*
X119177159Y-111203317D01*
X119377037Y-111003439D01*
X119534080Y-110768407D01*
X119642253Y-110507254D01*
X119697400Y-110230015D01*
X119697400Y-109947345D01*
X119642253Y-109670106D01*
X119534080Y-109408953D01*
X119377037Y-109173921D01*
X119177159Y-108974043D01*
X118942127Y-108817000D01*
X118680974Y-108708827D01*
X118403735Y-108653680D01*
X118121065Y-108653680D01*
X117843826Y-108708827D01*
X117582673Y-108817000D01*
X117347641Y-108974043D01*
X117147763Y-109173921D01*
X116990720Y-109408953D01*
X116882547Y-109670106D01*
X116827400Y-109947345D01*
X109530423Y-109947345D01*
X109516636Y-109807371D01*
X109434582Y-109536872D01*
X109301332Y-109287579D01*
X109122008Y-109069072D01*
X108903501Y-108889748D01*
X108654208Y-108756498D01*
X108383709Y-108674444D01*
X108172892Y-108653680D01*
X108031908Y-108653680D01*
X107821091Y-108674444D01*
X107550592Y-108756498D01*
X107301299Y-108889748D01*
X107082792Y-109069072D01*
X106903468Y-109287579D01*
X106770218Y-109536872D01*
X106688164Y-109807371D01*
X106660457Y-110088680D01*
X106419752Y-110088680D01*
X106419752Y-109188680D01*
X106407492Y-109064198D01*
X106371182Y-108944500D01*
X106312217Y-108834186D01*
X106232865Y-108737495D01*
X106136174Y-108658143D01*
X106025860Y-108599178D01*
X106007209Y-108593520D01*
X120370688Y-108593520D01*
X120370688Y-110293520D01*
X120382948Y-110418002D01*
X120419258Y-110537700D01*
X120478223Y-110648014D01*
X120531982Y-110713520D01*
X120478223Y-110779026D01*
X120419258Y-110889340D01*
X120382948Y-111009038D01*
X120370688Y-111133520D01*
X120370688Y-112833520D01*
X120382948Y-112958002D01*
X120419258Y-113077700D01*
X120478223Y-113188014D01*
X120531982Y-113253520D01*
X120478223Y-113319026D01*
X120419258Y-113429340D01*
X120382948Y-113549038D01*
X120370688Y-113673520D01*
X120370688Y-115373520D01*
X120382948Y-115498002D01*
X120419258Y-115617700D01*
X120478223Y-115728014D01*
X120557575Y-115824705D01*
X120654266Y-115904057D01*
X120764580Y-115963022D01*
X120884278Y-115999332D01*
X121008760Y-116011592D01*
X124508760Y-116011592D01*
X124633242Y-115999332D01*
X124752940Y-115963022D01*
X124863254Y-115904057D01*
X124959945Y-115824705D01*
X125039297Y-115728014D01*
X125098262Y-115617700D01*
X125134572Y-115498002D01*
X125146832Y-115373520D01*
X125146832Y-114565280D01*
X125150945Y-114523520D01*
X125146832Y-114481760D01*
X125146832Y-113673520D01*
X125134572Y-113549038D01*
X125098262Y-113429340D01*
X125039297Y-113319026D01*
X124985538Y-113253520D01*
X125039297Y-113188014D01*
X125098262Y-113077700D01*
X125134572Y-112958002D01*
X125146832Y-112833520D01*
X125146832Y-111133520D01*
X125134572Y-111009038D01*
X125098262Y-110889340D01*
X125039297Y-110779026D01*
X124985538Y-110713520D01*
X125039297Y-110648014D01*
X125098262Y-110537700D01*
X125134572Y-110418002D01*
X125146832Y-110293520D01*
X125146832Y-109558520D01*
X167137059Y-109558520D01*
X167163800Y-109830027D01*
X167242996Y-110091101D01*
X167371603Y-110331708D01*
X167544679Y-110542601D01*
X167755572Y-110715677D01*
X167996179Y-110844284D01*
X168257253Y-110923480D01*
X168460723Y-110943520D01*
X168596797Y-110943520D01*
X168800267Y-110923480D01*
X169061341Y-110844284D01*
X169301948Y-110715677D01*
X169512841Y-110542601D01*
X169685917Y-110331708D01*
X169814524Y-110091101D01*
X169893720Y-109830027D01*
X169920461Y-109558520D01*
X169893720Y-109287013D01*
X169885077Y-109258520D01*
X170016333Y-109258520D01*
X170045970Y-109559433D01*
X170133743Y-109848781D01*
X170276279Y-110115447D01*
X170468099Y-110349181D01*
X170701833Y-110541001D01*
X170968499Y-110683537D01*
X171257847Y-110771310D01*
X171483352Y-110793520D01*
X171634168Y-110793520D01*
X171859673Y-110771310D01*
X172149021Y-110683537D01*
X172415687Y-110541001D01*
X172649421Y-110349181D01*
X172841241Y-110115447D01*
X172983777Y-109848781D01*
X173071550Y-109559433D01*
X173101187Y-109258520D01*
X173071550Y-108957607D01*
X172983777Y-108668259D01*
X172841241Y-108401593D01*
X172649421Y-108167859D01*
X172415687Y-107976039D01*
X172149021Y-107833503D01*
X171859673Y-107745730D01*
X171634168Y-107723520D01*
X171483352Y-107723520D01*
X171257847Y-107745730D01*
X170968499Y-107833503D01*
X170701833Y-107976039D01*
X170468099Y-108167859D01*
X170276279Y-108401593D01*
X170133743Y-108668259D01*
X170045970Y-108957607D01*
X170016333Y-109258520D01*
X169885077Y-109258520D01*
X169814524Y-109025939D01*
X169685917Y-108785332D01*
X169512841Y-108574439D01*
X169301948Y-108401363D01*
X169061341Y-108272756D01*
X168800267Y-108193560D01*
X168596797Y-108173520D01*
X168460723Y-108173520D01*
X168257253Y-108193560D01*
X167996179Y-108272756D01*
X167755572Y-108401363D01*
X167544679Y-108574439D01*
X167371603Y-108785332D01*
X167242996Y-109025939D01*
X167163800Y-109287013D01*
X167137059Y-109558520D01*
X125146832Y-109558520D01*
X125146832Y-109485280D01*
X125150945Y-109443520D01*
X125146832Y-109401760D01*
X125146832Y-108593520D01*
X125134572Y-108469038D01*
X125098262Y-108349340D01*
X125039297Y-108239026D01*
X124959945Y-108142335D01*
X124863254Y-108062983D01*
X124752940Y-108004018D01*
X124633242Y-107967708D01*
X124508760Y-107955448D01*
X121008760Y-107955448D01*
X120884278Y-107967708D01*
X120764580Y-108004018D01*
X120654266Y-108062983D01*
X120557575Y-108142335D01*
X120478223Y-108239026D01*
X120419258Y-108349340D01*
X120382948Y-108469038D01*
X120370688Y-108593520D01*
X106007209Y-108593520D01*
X105906162Y-108562868D01*
X105781680Y-108550608D01*
X103981680Y-108550608D01*
X103857198Y-108562868D01*
X103737500Y-108599178D01*
X103627186Y-108658143D01*
X103530495Y-108737495D01*
X103451143Y-108834186D01*
X103392178Y-108944500D01*
X103388867Y-108955415D01*
X103342102Y-108908650D01*
X103226154Y-109024598D01*
X103142472Y-108770419D01*
X102869905Y-108639522D01*
X102577038Y-108564315D01*
X102275127Y-108547689D01*
X101975773Y-108590283D01*
X101690481Y-108690458D01*
X101540888Y-108770419D01*
X101457205Y-109024600D01*
X100024889Y-109024600D01*
X100025393Y-105120953D01*
X100800689Y-105120953D01*
X100843283Y-105420307D01*
X100943458Y-105705599D01*
X101023419Y-105855192D01*
X101277600Y-105938875D01*
X102162075Y-105054400D01*
X101277600Y-104169925D01*
X101023419Y-104253608D01*
X100892522Y-104526175D01*
X100817315Y-104819042D01*
X100800689Y-105120953D01*
X100025393Y-105120953D01*
X100025538Y-103990320D01*
X101457205Y-103990320D01*
X102341680Y-104874795D01*
X102355823Y-104860653D01*
X102535428Y-105040258D01*
X102521285Y-105054400D01*
X102535428Y-105068543D01*
X102355823Y-105248148D01*
X102341680Y-105234005D01*
X101457205Y-106118480D01*
X101540888Y-106372661D01*
X101813455Y-106503558D01*
X102106322Y-106578765D01*
X102408233Y-106595391D01*
X102707587Y-106552797D01*
X102992879Y-106452622D01*
X103142472Y-106372661D01*
X103226154Y-106118482D01*
X103342102Y-106234430D01*
X103388867Y-106187665D01*
X103392178Y-106198580D01*
X103451143Y-106308894D01*
X103530495Y-106405585D01*
X103627186Y-106484937D01*
X103737500Y-106543902D01*
X103857198Y-106580212D01*
X103981680Y-106592472D01*
X105781680Y-106592472D01*
X105906162Y-106580212D01*
X106025860Y-106543902D01*
X106136174Y-106484937D01*
X106232865Y-106405585D01*
X106312217Y-106308894D01*
X106371182Y-106198580D01*
X106407492Y-106078882D01*
X106419752Y-105954400D01*
X106419752Y-105054400D01*
X106711257Y-105054400D01*
X106738964Y-105335709D01*
X106821018Y-105606208D01*
X106954268Y-105855501D01*
X107133592Y-106074008D01*
X107352099Y-106253332D01*
X107601392Y-106386582D01*
X107871891Y-106468636D01*
X108082708Y-106489400D01*
X108223692Y-106489400D01*
X108434509Y-106468636D01*
X108705008Y-106386582D01*
X108954301Y-106253332D01*
X109172808Y-106074008D01*
X109352132Y-105855501D01*
X109485382Y-105606208D01*
X109567436Y-105335709D01*
X109595143Y-105054400D01*
X109581223Y-104913065D01*
X116878200Y-104913065D01*
X116878200Y-105195735D01*
X116933347Y-105472974D01*
X117041520Y-105734127D01*
X117198563Y-105969159D01*
X117398441Y-106169037D01*
X117633473Y-106326080D01*
X117894626Y-106434253D01*
X118171865Y-106489400D01*
X118454535Y-106489400D01*
X118731774Y-106434253D01*
X118992927Y-106326080D01*
X119227959Y-106169037D01*
X119427837Y-105969159D01*
X119584880Y-105734127D01*
X119693053Y-105472974D01*
X119748200Y-105195735D01*
X119748200Y-104913065D01*
X119693053Y-104635826D01*
X119584880Y-104374673D01*
X119427837Y-104139641D01*
X119227959Y-103939763D01*
X118992927Y-103782720D01*
X118731774Y-103674547D01*
X118454535Y-103619400D01*
X118171865Y-103619400D01*
X117894626Y-103674547D01*
X117633473Y-103782720D01*
X117398441Y-103939763D01*
X117198563Y-104139641D01*
X117041520Y-104374673D01*
X116933347Y-104635826D01*
X116878200Y-104913065D01*
X109581223Y-104913065D01*
X109567436Y-104773091D01*
X109485382Y-104502592D01*
X109352132Y-104253299D01*
X109172808Y-104034792D01*
X108954301Y-103855468D01*
X108705008Y-103722218D01*
X108434509Y-103640164D01*
X108223692Y-103619400D01*
X108082708Y-103619400D01*
X107871891Y-103640164D01*
X107601392Y-103722218D01*
X107352099Y-103855468D01*
X107133592Y-104034792D01*
X106954268Y-104253299D01*
X106821018Y-104502592D01*
X106738964Y-104773091D01*
X106711257Y-105054400D01*
X106419752Y-105054400D01*
X106419752Y-104154400D01*
X106407492Y-104029918D01*
X106371182Y-103910220D01*
X106312217Y-103799906D01*
X106232865Y-103703215D01*
X106136174Y-103623863D01*
X106025860Y-103564898D01*
X105906162Y-103528588D01*
X105781680Y-103516328D01*
X103981680Y-103516328D01*
X103857198Y-103528588D01*
X103737500Y-103564898D01*
X103627186Y-103623863D01*
X103530495Y-103703215D01*
X103451143Y-103799906D01*
X103392178Y-103910220D01*
X103388867Y-103921135D01*
X103342102Y-103874370D01*
X103226154Y-103990318D01*
X103142472Y-103736139D01*
X102869905Y-103605242D01*
X102577038Y-103530035D01*
X102275127Y-103513409D01*
X101975773Y-103556003D01*
X101690481Y-103656178D01*
X101540888Y-103736139D01*
X101457205Y-103990320D01*
X100025538Y-103990320D01*
X100027540Y-88469840D01*
X103536101Y-88469840D01*
X103561877Y-88731546D01*
X103638213Y-88983194D01*
X103762178Y-89215115D01*
X103929005Y-89418395D01*
X104113542Y-89569840D01*
X103929005Y-89721285D01*
X103762178Y-89924565D01*
X103638213Y-90156486D01*
X103561877Y-90408134D01*
X103536101Y-90669840D01*
X103561877Y-90931546D01*
X103638213Y-91183194D01*
X103762178Y-91415115D01*
X103929005Y-91618395D01*
X104113542Y-91769840D01*
X103929005Y-91921285D01*
X103762178Y-92124565D01*
X103638213Y-92356486D01*
X103561877Y-92608134D01*
X103536101Y-92869840D01*
X103561877Y-93131546D01*
X103638213Y-93383194D01*
X103762178Y-93615115D01*
X103929005Y-93818395D01*
X104113542Y-93969840D01*
X103929005Y-94121285D01*
X103762178Y-94324565D01*
X103638213Y-94556486D01*
X103561877Y-94808134D01*
X103536101Y-95069840D01*
X103561877Y-95331546D01*
X103638213Y-95583194D01*
X103762178Y-95815115D01*
X103929005Y-96018395D01*
X104113542Y-96169840D01*
X103929005Y-96321285D01*
X103762178Y-96524565D01*
X103638213Y-96756486D01*
X103561877Y-97008134D01*
X103536101Y-97269840D01*
X103561877Y-97531546D01*
X103638213Y-97783194D01*
X103762178Y-98015115D01*
X103929005Y-98218395D01*
X104132285Y-98385222D01*
X104364206Y-98509187D01*
X104615854Y-98585523D01*
X104811981Y-98604840D01*
X106343139Y-98604840D01*
X106539266Y-98585523D01*
X106790914Y-98509187D01*
X107022835Y-98385222D01*
X107226115Y-98218395D01*
X107278273Y-98154840D01*
X108025371Y-98154840D01*
X108068840Y-98159121D01*
X108112309Y-98154840D01*
X108112317Y-98154840D01*
X108242330Y-98142035D01*
X108409153Y-98091429D01*
X108562899Y-98009251D01*
X108697657Y-97898657D01*
X108725374Y-97864884D01*
X109423889Y-97166370D01*
X109457657Y-97138657D01*
X109568251Y-97003899D01*
X109650429Y-96850153D01*
X109701035Y-96683330D01*
X109713840Y-96553317D01*
X109713840Y-96553307D01*
X109718121Y-96509841D01*
X109713840Y-96466375D01*
X109713840Y-90669840D01*
X114536101Y-90669840D01*
X114561877Y-90931546D01*
X114638213Y-91183194D01*
X114762178Y-91415115D01*
X114929005Y-91618395D01*
X115113542Y-91769840D01*
X114929005Y-91921285D01*
X114762178Y-92124565D01*
X114638213Y-92356486D01*
X114561877Y-92608134D01*
X114536101Y-92869840D01*
X114561877Y-93131546D01*
X114638213Y-93383194D01*
X114762178Y-93615115D01*
X114929005Y-93818395D01*
X115113542Y-93969840D01*
X114929005Y-94121285D01*
X114762178Y-94324565D01*
X114638213Y-94556486D01*
X114561877Y-94808134D01*
X114536101Y-95069840D01*
X114561877Y-95331546D01*
X114638213Y-95583194D01*
X114762178Y-95815115D01*
X114929005Y-96018395D01*
X115113542Y-96169840D01*
X114929005Y-96321285D01*
X114762178Y-96524565D01*
X114638213Y-96756486D01*
X114561877Y-97008134D01*
X114536101Y-97269840D01*
X114561877Y-97531546D01*
X114638213Y-97783194D01*
X114762178Y-98015115D01*
X114929005Y-98218395D01*
X115132285Y-98385222D01*
X115364206Y-98509187D01*
X115615854Y-98585523D01*
X115811981Y-98604840D01*
X117343139Y-98604840D01*
X117539266Y-98585523D01*
X117790914Y-98509187D01*
X118022835Y-98385222D01*
X118226115Y-98218395D01*
X118392942Y-98015115D01*
X118516907Y-97783194D01*
X118593243Y-97531546D01*
X118619019Y-97269840D01*
X118593243Y-97008134D01*
X118516907Y-96756486D01*
X118392942Y-96524565D01*
X118226115Y-96321285D01*
X118041578Y-96169840D01*
X118226115Y-96018395D01*
X118278273Y-95954840D01*
X118319484Y-95954840D01*
X118446603Y-95967360D01*
X118446611Y-95967360D01*
X118490080Y-95971641D01*
X118533549Y-95967360D01*
X154537862Y-95967360D01*
X155563760Y-96993259D01*
X155563760Y-99808895D01*
X155474278Y-99817708D01*
X155354580Y-99854018D01*
X155244266Y-99912983D01*
X155178760Y-99966742D01*
X155113254Y-99912983D01*
X155002940Y-99854018D01*
X154883242Y-99817708D01*
X154758760Y-99805448D01*
X153058760Y-99805448D01*
X152934278Y-99817708D01*
X152814580Y-99854018D01*
X152704266Y-99912983D01*
X152638760Y-99966742D01*
X152573254Y-99912983D01*
X152462940Y-99854018D01*
X152343242Y-99817708D01*
X152218760Y-99805448D01*
X150518760Y-99805448D01*
X150394278Y-99817708D01*
X150274580Y-99854018D01*
X150164266Y-99912983D01*
X150098760Y-99966742D01*
X150033254Y-99912983D01*
X149922940Y-99854018D01*
X149803242Y-99817708D01*
X149678760Y-99805448D01*
X147978760Y-99805448D01*
X147854278Y-99817708D01*
X147734580Y-99854018D01*
X147624266Y-99912983D01*
X147558760Y-99966742D01*
X147493254Y-99912983D01*
X147382940Y-99854018D01*
X147263242Y-99817708D01*
X147138760Y-99805448D01*
X145438760Y-99805448D01*
X145314278Y-99817708D01*
X145194580Y-99854018D01*
X145084266Y-99912983D01*
X145018760Y-99966742D01*
X144953254Y-99912983D01*
X144842940Y-99854018D01*
X144723242Y-99817708D01*
X144598760Y-99805448D01*
X142898760Y-99805448D01*
X142774278Y-99817708D01*
X142654580Y-99854018D01*
X142544266Y-99912983D01*
X142478760Y-99966742D01*
X142413254Y-99912983D01*
X142302940Y-99854018D01*
X142183242Y-99817708D01*
X142058760Y-99805448D01*
X140358760Y-99805448D01*
X140234278Y-99817708D01*
X140114580Y-99854018D01*
X140004266Y-99912983D01*
X139938760Y-99966742D01*
X139873254Y-99912983D01*
X139762940Y-99854018D01*
X139643242Y-99817708D01*
X139518760Y-99805448D01*
X137818760Y-99805448D01*
X137694278Y-99817708D01*
X137574580Y-99854018D01*
X137464266Y-99912983D01*
X137398760Y-99966742D01*
X137333254Y-99912983D01*
X137222940Y-99854018D01*
X137103242Y-99817708D01*
X136978760Y-99805448D01*
X135278760Y-99805448D01*
X135154278Y-99817708D01*
X135034580Y-99854018D01*
X134924266Y-99912983D01*
X134858760Y-99966742D01*
X134793254Y-99912983D01*
X134682940Y-99854018D01*
X134563242Y-99817708D01*
X134438760Y-99805448D01*
X132738760Y-99805448D01*
X132614278Y-99817708D01*
X132494580Y-99854018D01*
X132384266Y-99912983D01*
X132318760Y-99966742D01*
X132253254Y-99912983D01*
X132142940Y-99854018D01*
X132023242Y-99817708D01*
X131898760Y-99805448D01*
X130198760Y-99805448D01*
X130074278Y-99817708D01*
X129954580Y-99854018D01*
X129844266Y-99912983D01*
X129778760Y-99966742D01*
X129713254Y-99912983D01*
X129602940Y-99854018D01*
X129483242Y-99817708D01*
X129358760Y-99805448D01*
X127658760Y-99805448D01*
X127534278Y-99817708D01*
X127414580Y-99854018D01*
X127304266Y-99912983D01*
X127238760Y-99966742D01*
X127173254Y-99912983D01*
X127062940Y-99854018D01*
X126943242Y-99817708D01*
X126818760Y-99805448D01*
X125118760Y-99805448D01*
X124994278Y-99817708D01*
X124874580Y-99854018D01*
X124764266Y-99912983D01*
X124698760Y-99966742D01*
X124633254Y-99912983D01*
X124522940Y-99854018D01*
X124403242Y-99817708D01*
X124278760Y-99805448D01*
X122578760Y-99805448D01*
X122454278Y-99817708D01*
X122334580Y-99854018D01*
X122224266Y-99912983D01*
X122127575Y-99992335D01*
X122048223Y-100089026D01*
X121989258Y-100199340D01*
X121952948Y-100319038D01*
X121940688Y-100443520D01*
X121940688Y-103051760D01*
X121936575Y-103093520D01*
X121940688Y-103135280D01*
X121940688Y-103943520D01*
X121952948Y-104068002D01*
X121989258Y-104187700D01*
X122048223Y-104298014D01*
X122127575Y-104394705D01*
X122224266Y-104474057D01*
X122334580Y-104533022D01*
X122454278Y-104569332D01*
X122578760Y-104581592D01*
X124278760Y-104581592D01*
X124403242Y-104569332D01*
X124522940Y-104533022D01*
X124633254Y-104474057D01*
X124698760Y-104420298D01*
X124764266Y-104474057D01*
X124874580Y-104533022D01*
X124994278Y-104569332D01*
X125118760Y-104581592D01*
X126818760Y-104581592D01*
X126943242Y-104569332D01*
X127062940Y-104533022D01*
X127173254Y-104474057D01*
X127238760Y-104420298D01*
X127304266Y-104474057D01*
X127414580Y-104533022D01*
X127534278Y-104569332D01*
X127658760Y-104581592D01*
X129358760Y-104581592D01*
X129483242Y-104569332D01*
X129602940Y-104533022D01*
X129713254Y-104474057D01*
X129778760Y-104420298D01*
X129844266Y-104474057D01*
X129954580Y-104533022D01*
X130074278Y-104569332D01*
X130198760Y-104581592D01*
X131898760Y-104581592D01*
X132023242Y-104569332D01*
X132142940Y-104533022D01*
X132253254Y-104474057D01*
X132318760Y-104420298D01*
X132384266Y-104474057D01*
X132494580Y-104533022D01*
X132614278Y-104569332D01*
X132738760Y-104581592D01*
X134438760Y-104581592D01*
X134563242Y-104569332D01*
X134682940Y-104533022D01*
X134793254Y-104474057D01*
X134858760Y-104420298D01*
X134924266Y-104474057D01*
X135034580Y-104533022D01*
X135154278Y-104569332D01*
X135278760Y-104581592D01*
X136978760Y-104581592D01*
X137103242Y-104569332D01*
X137222940Y-104533022D01*
X137333254Y-104474057D01*
X137398760Y-104420298D01*
X137464266Y-104474057D01*
X137574580Y-104533022D01*
X137694278Y-104569332D01*
X137818760Y-104581592D01*
X139518760Y-104581592D01*
X139643242Y-104569332D01*
X139762940Y-104533022D01*
X139873254Y-104474057D01*
X139938760Y-104420298D01*
X140004266Y-104474057D01*
X140114580Y-104533022D01*
X140234278Y-104569332D01*
X140358760Y-104581592D01*
X142058760Y-104581592D01*
X142183242Y-104569332D01*
X142302940Y-104533022D01*
X142413254Y-104474057D01*
X142478760Y-104420298D01*
X142544266Y-104474057D01*
X142654580Y-104533022D01*
X142774278Y-104569332D01*
X142898760Y-104581592D01*
X144598760Y-104581592D01*
X144723242Y-104569332D01*
X144842940Y-104533022D01*
X144953254Y-104474057D01*
X145018760Y-104420298D01*
X145084266Y-104474057D01*
X145194580Y-104533022D01*
X145314278Y-104569332D01*
X145438760Y-104581592D01*
X147138760Y-104581592D01*
X147263242Y-104569332D01*
X147382940Y-104533022D01*
X147493254Y-104474057D01*
X147558760Y-104420298D01*
X147624266Y-104474057D01*
X147734580Y-104533022D01*
X147854278Y-104569332D01*
X147978760Y-104581592D01*
X149678760Y-104581592D01*
X149803242Y-104569332D01*
X149922940Y-104533022D01*
X150033254Y-104474057D01*
X150098760Y-104420298D01*
X150164266Y-104474057D01*
X150274580Y-104533022D01*
X150394278Y-104569332D01*
X150518760Y-104581592D01*
X152218760Y-104581592D01*
X152343242Y-104569332D01*
X152462940Y-104533022D01*
X152573254Y-104474057D01*
X152638760Y-104420298D01*
X152704266Y-104474057D01*
X152814580Y-104533022D01*
X152934278Y-104569332D01*
X153058760Y-104581592D01*
X154758760Y-104581592D01*
X154883242Y-104569332D01*
X155002940Y-104533022D01*
X155113254Y-104474057D01*
X155178760Y-104420298D01*
X155244266Y-104474057D01*
X155354580Y-104533022D01*
X155474278Y-104569332D01*
X155598760Y-104581592D01*
X157298760Y-104581592D01*
X157423242Y-104569332D01*
X157542940Y-104533022D01*
X157653254Y-104474057D01*
X157718760Y-104420298D01*
X157784266Y-104474057D01*
X157894580Y-104533022D01*
X158014278Y-104569332D01*
X158138760Y-104581592D01*
X159838760Y-104581592D01*
X159963242Y-104569332D01*
X160082940Y-104533022D01*
X160193254Y-104474057D01*
X160258760Y-104420298D01*
X160324266Y-104474057D01*
X160434580Y-104533022D01*
X160554278Y-104569332D01*
X160678760Y-104581592D01*
X162378760Y-104581592D01*
X162503242Y-104569332D01*
X162622940Y-104533022D01*
X162733254Y-104474057D01*
X162798760Y-104420298D01*
X162864266Y-104474057D01*
X162974580Y-104533022D01*
X163094278Y-104569332D01*
X163218760Y-104581592D01*
X164918760Y-104581592D01*
X165043242Y-104569332D01*
X165162940Y-104533022D01*
X165273254Y-104474057D01*
X165338760Y-104420298D01*
X165404266Y-104474057D01*
X165514580Y-104533022D01*
X165634278Y-104569332D01*
X165758760Y-104581592D01*
X167458760Y-104581592D01*
X167583242Y-104569332D01*
X167702940Y-104533022D01*
X167813254Y-104474057D01*
X167878760Y-104420298D01*
X167944266Y-104474057D01*
X168054580Y-104533022D01*
X168174278Y-104569332D01*
X168298760Y-104581592D01*
X169998760Y-104581592D01*
X170123242Y-104569332D01*
X170242940Y-104533022D01*
X170353254Y-104474057D01*
X170418760Y-104420298D01*
X170484266Y-104474057D01*
X170594580Y-104533022D01*
X170714278Y-104569332D01*
X170838760Y-104581592D01*
X172538760Y-104581592D01*
X172663242Y-104569332D01*
X172782940Y-104533022D01*
X172893254Y-104474057D01*
X172989945Y-104394705D01*
X173069297Y-104298014D01*
X173128262Y-104187700D01*
X173164572Y-104068002D01*
X173176832Y-103943520D01*
X173176832Y-103135280D01*
X173180945Y-103093520D01*
X173176832Y-103051760D01*
X173176832Y-100443520D01*
X173164572Y-100319038D01*
X173128262Y-100199340D01*
X173069297Y-100089026D01*
X172989945Y-99992335D01*
X172893254Y-99912983D01*
X172782940Y-99854018D01*
X172663242Y-99817708D01*
X172573760Y-99808895D01*
X172573760Y-93279778D01*
X173889090Y-91964449D01*
X173922857Y-91936737D01*
X174008378Y-91832531D01*
X174033451Y-91801979D01*
X174115628Y-91648234D01*
X174115629Y-91648233D01*
X174166235Y-91481410D01*
X174179040Y-91351397D01*
X174179040Y-91351389D01*
X174183321Y-91307920D01*
X174179040Y-91264451D01*
X174179040Y-81856869D01*
X174183321Y-81813400D01*
X174179040Y-81769931D01*
X174179040Y-81769923D01*
X174167692Y-81654706D01*
X174166235Y-81639909D01*
X174150883Y-81589303D01*
X174115629Y-81473087D01*
X174033451Y-81319341D01*
X173922857Y-81184583D01*
X173889084Y-81156866D01*
X173437334Y-80705116D01*
X173409617Y-80671343D01*
X173274859Y-80560749D01*
X173121113Y-80478571D01*
X172954290Y-80427965D01*
X172824277Y-80415160D01*
X172824269Y-80415160D01*
X172780800Y-80410879D01*
X172737331Y-80415160D01*
X172306202Y-80415160D01*
X172137421Y-80209499D01*
X171903687Y-80017679D01*
X171637021Y-79875143D01*
X171347673Y-79787370D01*
X171122168Y-79765160D01*
X169171352Y-79765160D01*
X168945847Y-79787370D01*
X168656499Y-79875143D01*
X168389833Y-80017679D01*
X168156099Y-80209499D01*
X167964279Y-80443233D01*
X167821743Y-80709899D01*
X167733970Y-80999247D01*
X167704333Y-81300160D01*
X167733970Y-81601073D01*
X167821743Y-81890421D01*
X167964279Y-82157087D01*
X168156099Y-82390821D01*
X168374625Y-82570160D01*
X168156099Y-82749499D01*
X167987318Y-82955160D01*
X167251829Y-82955160D01*
X167208360Y-82950879D01*
X167164891Y-82955160D01*
X167164883Y-82955160D01*
X167034870Y-82967965D01*
X166868046Y-83018571D01*
X166714301Y-83100749D01*
X166613313Y-83183628D01*
X166613311Y-83183630D01*
X166579543Y-83211343D01*
X166551830Y-83245111D01*
X165886711Y-83910231D01*
X165852944Y-83937943D01*
X165825231Y-83971711D01*
X165825228Y-83971714D01*
X165742350Y-84072701D01*
X165660172Y-84226447D01*
X165609565Y-84393270D01*
X165592479Y-84566760D01*
X165596761Y-84610239D01*
X165596760Y-89943651D01*
X165592479Y-89987120D01*
X165596760Y-90030589D01*
X165596760Y-90030596D01*
X165609565Y-90160609D01*
X165660171Y-90327432D01*
X165742349Y-90481178D01*
X165852943Y-90615937D01*
X165886716Y-90643654D01*
X168263761Y-93020700D01*
X168263761Y-96302728D01*
X168162400Y-96302728D01*
X168037918Y-96314988D01*
X167918220Y-96351298D01*
X167807906Y-96410263D01*
X167711215Y-96489615D01*
X167631863Y-96586306D01*
X167572898Y-96696620D01*
X167536588Y-96816318D01*
X167524328Y-96940800D01*
X167524328Y-98740800D01*
X167536588Y-98865282D01*
X167572898Y-98984980D01*
X167631863Y-99095294D01*
X167711215Y-99191985D01*
X167807906Y-99271337D01*
X167918220Y-99330302D01*
X168037918Y-99366612D01*
X168162400Y-99378872D01*
X168263760Y-99378872D01*
X168263760Y-99808895D01*
X168174278Y-99817708D01*
X168054580Y-99854018D01*
X167944266Y-99912983D01*
X167878760Y-99966742D01*
X167813254Y-99912983D01*
X167702940Y-99854018D01*
X167583242Y-99817708D01*
X167458760Y-99805448D01*
X165758760Y-99805448D01*
X165634278Y-99817708D01*
X165514580Y-99854018D01*
X165404266Y-99912983D01*
X165338760Y-99966742D01*
X165273254Y-99912983D01*
X165162940Y-99854018D01*
X165043242Y-99817708D01*
X164918760Y-99805448D01*
X163218760Y-99805448D01*
X163094278Y-99817708D01*
X162974580Y-99854018D01*
X162864266Y-99912983D01*
X162798760Y-99966742D01*
X162733254Y-99912983D01*
X162622940Y-99854018D01*
X162503242Y-99817708D01*
X162378760Y-99805448D01*
X160678760Y-99805448D01*
X160554278Y-99817708D01*
X160434580Y-99854018D01*
X160324266Y-99912983D01*
X160258760Y-99966742D01*
X160193254Y-99912983D01*
X160082940Y-99854018D01*
X159963242Y-99817708D01*
X159838760Y-99805448D01*
X158138760Y-99805448D01*
X158014278Y-99817708D01*
X157894580Y-99854018D01*
X157784266Y-99912983D01*
X157718760Y-99966742D01*
X157653254Y-99912983D01*
X157542940Y-99854018D01*
X157423242Y-99817708D01*
X157333760Y-99808895D01*
X157333760Y-97840800D01*
X159899973Y-97840800D01*
X159929610Y-98141713D01*
X160017383Y-98431061D01*
X160159919Y-98697727D01*
X160351739Y-98931461D01*
X160585473Y-99123281D01*
X160852139Y-99265817D01*
X161141487Y-99353590D01*
X161366992Y-99375800D01*
X161517808Y-99375800D01*
X161743313Y-99353590D01*
X162032661Y-99265817D01*
X162299327Y-99123281D01*
X162533061Y-98931461D01*
X162724881Y-98697727D01*
X162867417Y-98431061D01*
X162955190Y-98141713D01*
X162984827Y-97840800D01*
X162955190Y-97539887D01*
X162867417Y-97250539D01*
X162724881Y-96983873D01*
X162533061Y-96750139D01*
X162299327Y-96558319D01*
X162032661Y-96415783D01*
X161743313Y-96328010D01*
X161517808Y-96305800D01*
X161366992Y-96305800D01*
X161141487Y-96328010D01*
X160852139Y-96415783D01*
X160585473Y-96558319D01*
X160351739Y-96750139D01*
X160159919Y-96983873D01*
X160017383Y-97250539D01*
X159929610Y-97539887D01*
X159899973Y-97840800D01*
X157333760Y-97840800D01*
X157333760Y-96670145D01*
X157338041Y-96626679D01*
X157333760Y-96583213D01*
X157333760Y-96583203D01*
X157320955Y-96453190D01*
X157270349Y-96286367D01*
X157188171Y-96132621D01*
X157077577Y-95997863D01*
X157043810Y-95970151D01*
X155560972Y-94487314D01*
X155533257Y-94453543D01*
X155398499Y-94342949D01*
X155244753Y-94260771D01*
X155077930Y-94210165D01*
X154947917Y-94197360D01*
X154947909Y-94197360D01*
X154904440Y-94193079D01*
X154860971Y-94197360D01*
X118648156Y-94197360D01*
X118521037Y-94184840D01*
X118521029Y-94184840D01*
X118477560Y-94180559D01*
X118434091Y-94184840D01*
X118278273Y-94184840D01*
X118226115Y-94121285D01*
X118041578Y-93969840D01*
X118226115Y-93818395D01*
X118392942Y-93615115D01*
X118516907Y-93383194D01*
X118593243Y-93131546D01*
X118619019Y-92869840D01*
X118593243Y-92608134D01*
X118516907Y-92356486D01*
X118392942Y-92124565D01*
X118226115Y-91921285D01*
X118041578Y-91769840D01*
X118226115Y-91618395D01*
X118392942Y-91415115D01*
X118516907Y-91183194D01*
X118593243Y-90931546D01*
X118619019Y-90669840D01*
X118593243Y-90408134D01*
X118516907Y-90156486D01*
X118392942Y-89924565D01*
X118226115Y-89721285D01*
X118038001Y-89566904D01*
X118124843Y-89509295D01*
X118311350Y-89324025D01*
X118458129Y-89105930D01*
X118559540Y-88863390D01*
X118570276Y-88803169D01*
X118446934Y-88596840D01*
X116704560Y-88596840D01*
X116704560Y-88616840D01*
X116450560Y-88616840D01*
X116450560Y-88596840D01*
X114708186Y-88596840D01*
X114584844Y-88803169D01*
X114595580Y-88863390D01*
X114696991Y-89105930D01*
X114843770Y-89324025D01*
X115030277Y-89509295D01*
X115117119Y-89566904D01*
X114929005Y-89721285D01*
X114762178Y-89924565D01*
X114638213Y-90156486D01*
X114561877Y-90408134D01*
X114536101Y-90669840D01*
X109713840Y-90669840D01*
X109713840Y-88136511D01*
X114584844Y-88136511D01*
X114708186Y-88342840D01*
X116450560Y-88342840D01*
X116450560Y-87134840D01*
X116704560Y-87134840D01*
X116704560Y-88342840D01*
X118446934Y-88342840D01*
X118570276Y-88136511D01*
X118559540Y-88076290D01*
X118458129Y-87833750D01*
X118311350Y-87615655D01*
X118124843Y-87430385D01*
X117905775Y-87285061D01*
X117662565Y-87185268D01*
X117404560Y-87134840D01*
X116704560Y-87134840D01*
X116450560Y-87134840D01*
X115750560Y-87134840D01*
X115492555Y-87185268D01*
X115249345Y-87285061D01*
X115030277Y-87430385D01*
X114843770Y-87615655D01*
X114696991Y-87833750D01*
X114595580Y-88076290D01*
X114584844Y-88136511D01*
X109713840Y-88136511D01*
X109713840Y-80205698D01*
X109885767Y-80113801D01*
X110119501Y-79921981D01*
X110311321Y-79688247D01*
X110453857Y-79421581D01*
X110541630Y-79132233D01*
X110571267Y-78831320D01*
X110541630Y-78530407D01*
X110453857Y-78241059D01*
X110311321Y-77974393D01*
X110119501Y-77740659D01*
X109885767Y-77548839D01*
X109796265Y-77500999D01*
X112693840Y-77500999D01*
X112693841Y-80161642D01*
X112717498Y-80401836D01*
X112810989Y-80710035D01*
X112962810Y-80994072D01*
X113167127Y-81243034D01*
X113416089Y-81447351D01*
X113700126Y-81599172D01*
X114008325Y-81692663D01*
X114328840Y-81724231D01*
X114649356Y-81692663D01*
X114957555Y-81599172D01*
X115241592Y-81447351D01*
X115490554Y-81243034D01*
X115694871Y-80994072D01*
X115846692Y-80710035D01*
X115940183Y-80401836D01*
X115963840Y-80161642D01*
X115963840Y-77500998D01*
X115940183Y-77260804D01*
X115846692Y-76952605D01*
X115787468Y-76841804D01*
X116298280Y-76841804D01*
X116298280Y-78077877D01*
X116318320Y-78281347D01*
X116397516Y-78542421D01*
X116526123Y-78783028D01*
X116699200Y-78993921D01*
X116910093Y-79166997D01*
X117150700Y-79295604D01*
X117411774Y-79374800D01*
X117683280Y-79401541D01*
X117954787Y-79374800D01*
X118215861Y-79295604D01*
X118456468Y-79166997D01*
X118667361Y-78993921D01*
X118840437Y-78783028D01*
X118953280Y-78571913D01*
X119066123Y-78783028D01*
X119239200Y-78993921D01*
X119450093Y-79166997D01*
X119690700Y-79295604D01*
X119951774Y-79374800D01*
X120223280Y-79401541D01*
X120494787Y-79374800D01*
X120755861Y-79295604D01*
X120996468Y-79166997D01*
X121207361Y-78993921D01*
X121380437Y-78783028D01*
X121509044Y-78542421D01*
X121588240Y-78281347D01*
X121608280Y-78077877D01*
X121608280Y-76841804D01*
X123918280Y-76841804D01*
X123918280Y-78077877D01*
X123938320Y-78281347D01*
X124017516Y-78542421D01*
X124146123Y-78783028D01*
X124319200Y-78993921D01*
X124530093Y-79166997D01*
X124770700Y-79295604D01*
X125031774Y-79374800D01*
X125303280Y-79401541D01*
X125574787Y-79374800D01*
X125835861Y-79295604D01*
X126076468Y-79166997D01*
X126287361Y-78993921D01*
X126460437Y-78783028D01*
X126573280Y-78571913D01*
X126686123Y-78783028D01*
X126859200Y-78993921D01*
X127070093Y-79166997D01*
X127310700Y-79295604D01*
X127571774Y-79374800D01*
X127843280Y-79401541D01*
X128114787Y-79374800D01*
X128375861Y-79295604D01*
X128616468Y-79166997D01*
X128827361Y-78993921D01*
X129000437Y-78783028D01*
X129129044Y-78542421D01*
X129208240Y-78281347D01*
X129228280Y-78077877D01*
X129228280Y-76841803D01*
X129208240Y-76638333D01*
X129129044Y-76377259D01*
X129000437Y-76136652D01*
X128827360Y-75925759D01*
X128616467Y-75752683D01*
X128375860Y-75624076D01*
X128114786Y-75544880D01*
X127843280Y-75518139D01*
X127571773Y-75544880D01*
X127310699Y-75624076D01*
X127070092Y-75752683D01*
X126859199Y-75925760D01*
X126686123Y-76136653D01*
X126573280Y-76347767D01*
X126460437Y-76136652D01*
X126287360Y-75925759D01*
X126076467Y-75752683D01*
X125835860Y-75624076D01*
X125574786Y-75544880D01*
X125303280Y-75518139D01*
X125031773Y-75544880D01*
X124770699Y-75624076D01*
X124530092Y-75752683D01*
X124319199Y-75925760D01*
X124146123Y-76136653D01*
X124017516Y-76377260D01*
X123938320Y-76638334D01*
X123918280Y-76841804D01*
X121608280Y-76841804D01*
X121608280Y-76841803D01*
X121588240Y-76638333D01*
X121509044Y-76377259D01*
X121380437Y-76136652D01*
X121207360Y-75925759D01*
X120996467Y-75752683D01*
X120755860Y-75624076D01*
X120494786Y-75544880D01*
X120223280Y-75518139D01*
X119951773Y-75544880D01*
X119690699Y-75624076D01*
X119450092Y-75752683D01*
X119239199Y-75925760D01*
X119066123Y-76136653D01*
X118953280Y-76347767D01*
X118840437Y-76136652D01*
X118667360Y-75925759D01*
X118456467Y-75752683D01*
X118215860Y-75624076D01*
X117954786Y-75544880D01*
X117683280Y-75518139D01*
X117411773Y-75544880D01*
X117150699Y-75624076D01*
X116910092Y-75752683D01*
X116699199Y-75925760D01*
X116526123Y-76136653D01*
X116397516Y-76377260D01*
X116318320Y-76638334D01*
X116298280Y-76841804D01*
X115787468Y-76841804D01*
X115694871Y-76668568D01*
X115490554Y-76419606D01*
X115241591Y-76215289D01*
X114957554Y-76063468D01*
X114649355Y-75969977D01*
X114328840Y-75938409D01*
X114008324Y-75969977D01*
X113700125Y-76063468D01*
X113416088Y-76215289D01*
X113167126Y-76419606D01*
X112962809Y-76668569D01*
X112810988Y-76952606D01*
X112717497Y-77260805D01*
X112693840Y-77500999D01*
X109796265Y-77500999D01*
X109619101Y-77406303D01*
X109329753Y-77318530D01*
X109104248Y-77296320D01*
X108553432Y-77296320D01*
X108327927Y-77318530D01*
X108038579Y-77406303D01*
X107771913Y-77548839D01*
X107538179Y-77740659D01*
X107346359Y-77974393D01*
X107203823Y-78241059D01*
X107116050Y-78530407D01*
X107086413Y-78831320D01*
X107116050Y-79132233D01*
X107203823Y-79421581D01*
X107346359Y-79688247D01*
X107538179Y-79921981D01*
X107771913Y-80113801D01*
X107943840Y-80205698D01*
X107943841Y-96143260D01*
X107702262Y-96384840D01*
X107278273Y-96384840D01*
X107226115Y-96321285D01*
X107041578Y-96169840D01*
X107226115Y-96018395D01*
X107392942Y-95815115D01*
X107516907Y-95583194D01*
X107593243Y-95331546D01*
X107619019Y-95069840D01*
X107593243Y-94808134D01*
X107516907Y-94556486D01*
X107392942Y-94324565D01*
X107226115Y-94121285D01*
X107041578Y-93969840D01*
X107226115Y-93818395D01*
X107392942Y-93615115D01*
X107516907Y-93383194D01*
X107593243Y-93131546D01*
X107619019Y-92869840D01*
X107593243Y-92608134D01*
X107516907Y-92356486D01*
X107392942Y-92124565D01*
X107226115Y-91921285D01*
X107041578Y-91769840D01*
X107226115Y-91618395D01*
X107392942Y-91415115D01*
X107516907Y-91183194D01*
X107593243Y-90931546D01*
X107619019Y-90669840D01*
X107593243Y-90408134D01*
X107516907Y-90156486D01*
X107392942Y-89924565D01*
X107226115Y-89721285D01*
X107041578Y-89569840D01*
X107226115Y-89418395D01*
X107392942Y-89215115D01*
X107516907Y-88983194D01*
X107593243Y-88731546D01*
X107619019Y-88469840D01*
X107593243Y-88208134D01*
X107516907Y-87956486D01*
X107392942Y-87724565D01*
X107226115Y-87521285D01*
X107022835Y-87354458D01*
X106790914Y-87230493D01*
X106539266Y-87154157D01*
X106343139Y-87134840D01*
X104811981Y-87134840D01*
X104615854Y-87154157D01*
X104364206Y-87230493D01*
X104132285Y-87354458D01*
X103929005Y-87521285D01*
X103762178Y-87724565D01*
X103638213Y-87956486D01*
X103561877Y-88208134D01*
X103536101Y-88469840D01*
X100027540Y-88469840D01*
X100028956Y-77500999D01*
X101693840Y-77500999D01*
X101693841Y-80161642D01*
X101717498Y-80401836D01*
X101810989Y-80710035D01*
X101962810Y-80994072D01*
X102167127Y-81243034D01*
X102416089Y-81447351D01*
X102700126Y-81599172D01*
X103008325Y-81692663D01*
X103328840Y-81724231D01*
X103649356Y-81692663D01*
X103957555Y-81599172D01*
X104241592Y-81447351D01*
X104490554Y-81243034D01*
X104694871Y-80994072D01*
X104846692Y-80710035D01*
X104940183Y-80401836D01*
X104963840Y-80161642D01*
X104963840Y-77500998D01*
X104940183Y-77260804D01*
X104846692Y-76952605D01*
X104694871Y-76668568D01*
X104490554Y-76419606D01*
X104241591Y-76215289D01*
X103957554Y-76063468D01*
X103649355Y-75969977D01*
X103328840Y-75938409D01*
X103008324Y-75969977D01*
X102700125Y-76063468D01*
X102416088Y-76215289D01*
X102167126Y-76419606D01*
X101962809Y-76668569D01*
X101810988Y-76952606D01*
X101717497Y-77260805D01*
X101693840Y-77500999D01*
X100028956Y-77500999D01*
X100029787Y-71064120D01*
X107160894Y-71064120D01*
X107103992Y-71081381D01*
M02*
