G04 #@! TF.GenerationSoftware,KiCad,Pcbnew,(5.1.2-1)-1*
G04 #@! TF.CreationDate,2023-04-29T13:33:38+02:00*
G04 #@! TF.ProjectId,PicoClockRadio,5069636f-436c-46f6-936b-526164696f2e,rev?*
G04 #@! TF.SameCoordinates,Original*
G04 #@! TF.FileFunction,Soldermask,Top*
G04 #@! TF.FilePolarity,Negative*
%FSLAX46Y46*%
G04 Gerber Fmt 4.6, Leading zero omitted, Abs format (unit mm)*
G04 Created by KiCad (PCBNEW (5.1.2-1)-1) date 2023-04-29 13:33:38*
%MOMM*%
%LPD*%
G04 APERTURE LIST*
%ADD10C,0.100000*%
G04 APERTURE END LIST*
D10*
G36*
X105179294Y-144938233D02*
G01*
X105351695Y-144990531D01*
X105510583Y-145075458D01*
X105649849Y-145189751D01*
X105764142Y-145329017D01*
X105849069Y-145487905D01*
X105901367Y-145660306D01*
X105914600Y-145794669D01*
X105914600Y-147205331D01*
X105901367Y-147339694D01*
X105849069Y-147512095D01*
X105764142Y-147670983D01*
X105649849Y-147810249D01*
X105510583Y-147924542D01*
X105351694Y-148009469D01*
X105179293Y-148061767D01*
X105000000Y-148079425D01*
X104820706Y-148061767D01*
X104648305Y-148009469D01*
X104489417Y-147924542D01*
X104350151Y-147810249D01*
X104235858Y-147670983D01*
X104150931Y-147512094D01*
X104098633Y-147339693D01*
X104085400Y-147205330D01*
X104085401Y-145794669D01*
X104098634Y-145660306D01*
X104150932Y-145487905D01*
X104235859Y-145329017D01*
X104350152Y-145189751D01*
X104489418Y-145075458D01*
X104648306Y-144990531D01*
X104820707Y-144938233D01*
X105000000Y-144920575D01*
X105179294Y-144938233D01*
X105179294Y-144938233D01*
G37*
G36*
X110179294Y-144938233D02*
G01*
X110351695Y-144990531D01*
X110510583Y-145075458D01*
X110649849Y-145189751D01*
X110764142Y-145329017D01*
X110849069Y-145487905D01*
X110901367Y-145660306D01*
X110914600Y-145794669D01*
X110914600Y-147205331D01*
X110901367Y-147339694D01*
X110849069Y-147512095D01*
X110764142Y-147670983D01*
X110649849Y-147810249D01*
X110510583Y-147924542D01*
X110351694Y-148009469D01*
X110179293Y-148061767D01*
X110000000Y-148079425D01*
X109820706Y-148061767D01*
X109648305Y-148009469D01*
X109489417Y-147924542D01*
X109350151Y-147810249D01*
X109235858Y-147670983D01*
X109150931Y-147512094D01*
X109098633Y-147339693D01*
X109085400Y-147205330D01*
X109085401Y-145794669D01*
X109098634Y-145660306D01*
X109150932Y-145487905D01*
X109235859Y-145329017D01*
X109350152Y-145189751D01*
X109489418Y-145075458D01*
X109648306Y-144990531D01*
X109820707Y-144938233D01*
X110000000Y-144920575D01*
X110179294Y-144938233D01*
X110179294Y-144938233D01*
G37*
G36*
X120179294Y-144938233D02*
G01*
X120351695Y-144990531D01*
X120510583Y-145075458D01*
X120649849Y-145189751D01*
X120764142Y-145329017D01*
X120849069Y-145487905D01*
X120901367Y-145660306D01*
X120914600Y-145794669D01*
X120914600Y-147205331D01*
X120901367Y-147339694D01*
X120849069Y-147512095D01*
X120764142Y-147670983D01*
X120649849Y-147810249D01*
X120510583Y-147924542D01*
X120351694Y-148009469D01*
X120179293Y-148061767D01*
X120000000Y-148079425D01*
X119820706Y-148061767D01*
X119648305Y-148009469D01*
X119489417Y-147924542D01*
X119350151Y-147810249D01*
X119235858Y-147670983D01*
X119150931Y-147512094D01*
X119098633Y-147339693D01*
X119085400Y-147205330D01*
X119085401Y-145794669D01*
X119098634Y-145660306D01*
X119150932Y-145487905D01*
X119235859Y-145329017D01*
X119350152Y-145189751D01*
X119489418Y-145075458D01*
X119648306Y-144990531D01*
X119820707Y-144938233D01*
X120000000Y-144920575D01*
X120179294Y-144938233D01*
X120179294Y-144938233D01*
G37*
G36*
X125179294Y-144938233D02*
G01*
X125351695Y-144990531D01*
X125510583Y-145075458D01*
X125649849Y-145189751D01*
X125764142Y-145329017D01*
X125849069Y-145487905D01*
X125901367Y-145660306D01*
X125914600Y-145794669D01*
X125914600Y-147205331D01*
X125901367Y-147339694D01*
X125849069Y-147512095D01*
X125764142Y-147670983D01*
X125649849Y-147810249D01*
X125510583Y-147924542D01*
X125351694Y-148009469D01*
X125179293Y-148061767D01*
X125000000Y-148079425D01*
X124820706Y-148061767D01*
X124648305Y-148009469D01*
X124489417Y-147924542D01*
X124350151Y-147810249D01*
X124235858Y-147670983D01*
X124150931Y-147512094D01*
X124098633Y-147339693D01*
X124085400Y-147205330D01*
X124085401Y-145794669D01*
X124098634Y-145660306D01*
X124150932Y-145487905D01*
X124235859Y-145329017D01*
X124350152Y-145189751D01*
X124489418Y-145075458D01*
X124648306Y-144990531D01*
X124820707Y-144938233D01*
X125000000Y-144920575D01*
X125179294Y-144938233D01*
X125179294Y-144938233D01*
G37*
G36*
X135179294Y-144938233D02*
G01*
X135351695Y-144990531D01*
X135510583Y-145075458D01*
X135649849Y-145189751D01*
X135764142Y-145329017D01*
X135849069Y-145487905D01*
X135901367Y-145660306D01*
X135914600Y-145794669D01*
X135914600Y-147205331D01*
X135901367Y-147339694D01*
X135849069Y-147512095D01*
X135764142Y-147670983D01*
X135649849Y-147810249D01*
X135510583Y-147924542D01*
X135351694Y-148009469D01*
X135179293Y-148061767D01*
X135000000Y-148079425D01*
X134820706Y-148061767D01*
X134648305Y-148009469D01*
X134489417Y-147924542D01*
X134350151Y-147810249D01*
X134235858Y-147670983D01*
X134150931Y-147512094D01*
X134098633Y-147339693D01*
X134085400Y-147205330D01*
X134085401Y-145794669D01*
X134098634Y-145660306D01*
X134150932Y-145487905D01*
X134235859Y-145329017D01*
X134350152Y-145189751D01*
X134489418Y-145075458D01*
X134648306Y-144990531D01*
X134820707Y-144938233D01*
X135000000Y-144920575D01*
X135179294Y-144938233D01*
X135179294Y-144938233D01*
G37*
G36*
X140179294Y-144938233D02*
G01*
X140351695Y-144990531D01*
X140510583Y-145075458D01*
X140649849Y-145189751D01*
X140764142Y-145329017D01*
X140849069Y-145487905D01*
X140901367Y-145660306D01*
X140914600Y-145794669D01*
X140914600Y-147205331D01*
X140901367Y-147339694D01*
X140849069Y-147512095D01*
X140764142Y-147670983D01*
X140649849Y-147810249D01*
X140510583Y-147924542D01*
X140351694Y-148009469D01*
X140179293Y-148061767D01*
X140000000Y-148079425D01*
X139820706Y-148061767D01*
X139648305Y-148009469D01*
X139489417Y-147924542D01*
X139350151Y-147810249D01*
X139235858Y-147670983D01*
X139150931Y-147512094D01*
X139098633Y-147339693D01*
X139085400Y-147205330D01*
X139085401Y-145794669D01*
X139098634Y-145660306D01*
X139150932Y-145487905D01*
X139235859Y-145329017D01*
X139350152Y-145189751D01*
X139489418Y-145075458D01*
X139648306Y-144990531D01*
X139820707Y-144938233D01*
X140000000Y-144920575D01*
X140179294Y-144938233D01*
X140179294Y-144938233D01*
G37*
G36*
X150179294Y-144938233D02*
G01*
X150351695Y-144990531D01*
X150510583Y-145075458D01*
X150649849Y-145189751D01*
X150764142Y-145329017D01*
X150849069Y-145487905D01*
X150901367Y-145660306D01*
X150914600Y-145794669D01*
X150914600Y-147205331D01*
X150901367Y-147339694D01*
X150849069Y-147512095D01*
X150764142Y-147670983D01*
X150649849Y-147810249D01*
X150510583Y-147924542D01*
X150351694Y-148009469D01*
X150179293Y-148061767D01*
X150000000Y-148079425D01*
X149820706Y-148061767D01*
X149648305Y-148009469D01*
X149489417Y-147924542D01*
X149350151Y-147810249D01*
X149235858Y-147670983D01*
X149150931Y-147512094D01*
X149098633Y-147339693D01*
X149085400Y-147205330D01*
X149085401Y-145794669D01*
X149098634Y-145660306D01*
X149150932Y-145487905D01*
X149235859Y-145329017D01*
X149350152Y-145189751D01*
X149489418Y-145075458D01*
X149648306Y-144990531D01*
X149820707Y-144938233D01*
X150000000Y-144920575D01*
X150179294Y-144938233D01*
X150179294Y-144938233D01*
G37*
G36*
X155179294Y-144938233D02*
G01*
X155351695Y-144990531D01*
X155510583Y-145075458D01*
X155649849Y-145189751D01*
X155764142Y-145329017D01*
X155849069Y-145487905D01*
X155901367Y-145660306D01*
X155914600Y-145794669D01*
X155914600Y-147205331D01*
X155901367Y-147339694D01*
X155849069Y-147512095D01*
X155764142Y-147670983D01*
X155649849Y-147810249D01*
X155510583Y-147924542D01*
X155351694Y-148009469D01*
X155179293Y-148061767D01*
X155000000Y-148079425D01*
X154820706Y-148061767D01*
X154648305Y-148009469D01*
X154489417Y-147924542D01*
X154350151Y-147810249D01*
X154235858Y-147670983D01*
X154150931Y-147512094D01*
X154098633Y-147339693D01*
X154085400Y-147205330D01*
X154085401Y-145794669D01*
X154098634Y-145660306D01*
X154150932Y-145487905D01*
X154235859Y-145329017D01*
X154350152Y-145189751D01*
X154489418Y-145075458D01*
X154648306Y-144990531D01*
X154820707Y-144938233D01*
X155000000Y-144920575D01*
X155179294Y-144938233D01*
X155179294Y-144938233D01*
G37*
G36*
X165179294Y-144938233D02*
G01*
X165351695Y-144990531D01*
X165510583Y-145075458D01*
X165649849Y-145189751D01*
X165764142Y-145329017D01*
X165849069Y-145487905D01*
X165901367Y-145660306D01*
X165914600Y-145794669D01*
X165914600Y-147205331D01*
X165901367Y-147339694D01*
X165849069Y-147512095D01*
X165764142Y-147670983D01*
X165649849Y-147810249D01*
X165510583Y-147924542D01*
X165351694Y-148009469D01*
X165179293Y-148061767D01*
X165000000Y-148079425D01*
X164820706Y-148061767D01*
X164648305Y-148009469D01*
X164489417Y-147924542D01*
X164350151Y-147810249D01*
X164235858Y-147670983D01*
X164150931Y-147512094D01*
X164098633Y-147339693D01*
X164085400Y-147205330D01*
X164085401Y-145794669D01*
X164098634Y-145660306D01*
X164150932Y-145487905D01*
X164235859Y-145329017D01*
X164350152Y-145189751D01*
X164489418Y-145075458D01*
X164648306Y-144990531D01*
X164820707Y-144938233D01*
X165000000Y-144920575D01*
X165179294Y-144938233D01*
X165179294Y-144938233D01*
G37*
G36*
X170179294Y-144938233D02*
G01*
X170351695Y-144990531D01*
X170510583Y-145075458D01*
X170649849Y-145189751D01*
X170764142Y-145329017D01*
X170849069Y-145487905D01*
X170901367Y-145660306D01*
X170914600Y-145794669D01*
X170914600Y-147205331D01*
X170901367Y-147339694D01*
X170849069Y-147512095D01*
X170764142Y-147670983D01*
X170649849Y-147810249D01*
X170510583Y-147924542D01*
X170351694Y-148009469D01*
X170179293Y-148061767D01*
X170000000Y-148079425D01*
X169820706Y-148061767D01*
X169648305Y-148009469D01*
X169489417Y-147924542D01*
X169350151Y-147810249D01*
X169235858Y-147670983D01*
X169150931Y-147512094D01*
X169098633Y-147339693D01*
X169085400Y-147205330D01*
X169085401Y-145794669D01*
X169098634Y-145660306D01*
X169150932Y-145487905D01*
X169235859Y-145329017D01*
X169350152Y-145189751D01*
X169489418Y-145075458D01*
X169648306Y-144990531D01*
X169820707Y-144938233D01*
X170000000Y-144920575D01*
X170179294Y-144938233D01*
X170179294Y-144938233D01*
G37*
G36*
X105179294Y-132438233D02*
G01*
X105351695Y-132490531D01*
X105510583Y-132575458D01*
X105649849Y-132689751D01*
X105764142Y-132829017D01*
X105849069Y-132987905D01*
X105901367Y-133160306D01*
X105914600Y-133294669D01*
X105914600Y-134705331D01*
X105901367Y-134839694D01*
X105849069Y-135012095D01*
X105764142Y-135170983D01*
X105649849Y-135310249D01*
X105510583Y-135424542D01*
X105351694Y-135509469D01*
X105179293Y-135561767D01*
X105000000Y-135579425D01*
X104820706Y-135561767D01*
X104648305Y-135509469D01*
X104489417Y-135424542D01*
X104350151Y-135310249D01*
X104235858Y-135170983D01*
X104150931Y-135012094D01*
X104098633Y-134839693D01*
X104085400Y-134705330D01*
X104085401Y-133294669D01*
X104098634Y-133160306D01*
X104150932Y-132987905D01*
X104235859Y-132829017D01*
X104350152Y-132689751D01*
X104489418Y-132575458D01*
X104648306Y-132490531D01*
X104820707Y-132438233D01*
X105000000Y-132420575D01*
X105179294Y-132438233D01*
X105179294Y-132438233D01*
G37*
G36*
X170179294Y-132438233D02*
G01*
X170351695Y-132490531D01*
X170510583Y-132575458D01*
X170649849Y-132689751D01*
X170764142Y-132829017D01*
X170849069Y-132987905D01*
X170901367Y-133160306D01*
X170914600Y-133294669D01*
X170914600Y-134705331D01*
X170901367Y-134839694D01*
X170849069Y-135012095D01*
X170764142Y-135170983D01*
X170649849Y-135310249D01*
X170510583Y-135424542D01*
X170351694Y-135509469D01*
X170179293Y-135561767D01*
X170000000Y-135579425D01*
X169820706Y-135561767D01*
X169648305Y-135509469D01*
X169489417Y-135424542D01*
X169350151Y-135310249D01*
X169235858Y-135170983D01*
X169150931Y-135012094D01*
X169098633Y-134839693D01*
X169085400Y-134705330D01*
X169085401Y-133294669D01*
X169098634Y-133160306D01*
X169150932Y-132987905D01*
X169235859Y-132829017D01*
X169350152Y-132689751D01*
X169489418Y-132575458D01*
X169648306Y-132490531D01*
X169820707Y-132438233D01*
X170000000Y-132420575D01*
X170179294Y-132438233D01*
X170179294Y-132438233D01*
G37*
G36*
X165179294Y-132438233D02*
G01*
X165351695Y-132490531D01*
X165510583Y-132575458D01*
X165649849Y-132689751D01*
X165764142Y-132829017D01*
X165849069Y-132987905D01*
X165901367Y-133160306D01*
X165914600Y-133294669D01*
X165914600Y-134705331D01*
X165901367Y-134839694D01*
X165849069Y-135012095D01*
X165764142Y-135170983D01*
X165649849Y-135310249D01*
X165510583Y-135424542D01*
X165351694Y-135509469D01*
X165179293Y-135561767D01*
X165000000Y-135579425D01*
X164820706Y-135561767D01*
X164648305Y-135509469D01*
X164489417Y-135424542D01*
X164350151Y-135310249D01*
X164235858Y-135170983D01*
X164150931Y-135012094D01*
X164098633Y-134839693D01*
X164085400Y-134705330D01*
X164085401Y-133294669D01*
X164098634Y-133160306D01*
X164150932Y-132987905D01*
X164235859Y-132829017D01*
X164350152Y-132689751D01*
X164489418Y-132575458D01*
X164648306Y-132490531D01*
X164820707Y-132438233D01*
X165000000Y-132420575D01*
X165179294Y-132438233D01*
X165179294Y-132438233D01*
G37*
G36*
X155179294Y-132438233D02*
G01*
X155351695Y-132490531D01*
X155510583Y-132575458D01*
X155649849Y-132689751D01*
X155764142Y-132829017D01*
X155849069Y-132987905D01*
X155901367Y-133160306D01*
X155914600Y-133294669D01*
X155914600Y-134705331D01*
X155901367Y-134839694D01*
X155849069Y-135012095D01*
X155764142Y-135170983D01*
X155649849Y-135310249D01*
X155510583Y-135424542D01*
X155351694Y-135509469D01*
X155179293Y-135561767D01*
X155000000Y-135579425D01*
X154820706Y-135561767D01*
X154648305Y-135509469D01*
X154489417Y-135424542D01*
X154350151Y-135310249D01*
X154235858Y-135170983D01*
X154150931Y-135012094D01*
X154098633Y-134839693D01*
X154085400Y-134705330D01*
X154085401Y-133294669D01*
X154098634Y-133160306D01*
X154150932Y-132987905D01*
X154235859Y-132829017D01*
X154350152Y-132689751D01*
X154489418Y-132575458D01*
X154648306Y-132490531D01*
X154820707Y-132438233D01*
X155000000Y-132420575D01*
X155179294Y-132438233D01*
X155179294Y-132438233D01*
G37*
G36*
X150179294Y-132438233D02*
G01*
X150351695Y-132490531D01*
X150510583Y-132575458D01*
X150649849Y-132689751D01*
X150764142Y-132829017D01*
X150849069Y-132987905D01*
X150901367Y-133160306D01*
X150914600Y-133294669D01*
X150914600Y-134705331D01*
X150901367Y-134839694D01*
X150849069Y-135012095D01*
X150764142Y-135170983D01*
X150649849Y-135310249D01*
X150510583Y-135424542D01*
X150351694Y-135509469D01*
X150179293Y-135561767D01*
X150000000Y-135579425D01*
X149820706Y-135561767D01*
X149648305Y-135509469D01*
X149489417Y-135424542D01*
X149350151Y-135310249D01*
X149235858Y-135170983D01*
X149150931Y-135012094D01*
X149098633Y-134839693D01*
X149085400Y-134705330D01*
X149085401Y-133294669D01*
X149098634Y-133160306D01*
X149150932Y-132987905D01*
X149235859Y-132829017D01*
X149350152Y-132689751D01*
X149489418Y-132575458D01*
X149648306Y-132490531D01*
X149820707Y-132438233D01*
X150000000Y-132420575D01*
X150179294Y-132438233D01*
X150179294Y-132438233D01*
G37*
G36*
X140179294Y-132438233D02*
G01*
X140351695Y-132490531D01*
X140510583Y-132575458D01*
X140649849Y-132689751D01*
X140764142Y-132829017D01*
X140849069Y-132987905D01*
X140901367Y-133160306D01*
X140914600Y-133294669D01*
X140914600Y-134705331D01*
X140901367Y-134839694D01*
X140849069Y-135012095D01*
X140764142Y-135170983D01*
X140649849Y-135310249D01*
X140510583Y-135424542D01*
X140351694Y-135509469D01*
X140179293Y-135561767D01*
X140000000Y-135579425D01*
X139820706Y-135561767D01*
X139648305Y-135509469D01*
X139489417Y-135424542D01*
X139350151Y-135310249D01*
X139235858Y-135170983D01*
X139150931Y-135012094D01*
X139098633Y-134839693D01*
X139085400Y-134705330D01*
X139085401Y-133294669D01*
X139098634Y-133160306D01*
X139150932Y-132987905D01*
X139235859Y-132829017D01*
X139350152Y-132689751D01*
X139489418Y-132575458D01*
X139648306Y-132490531D01*
X139820707Y-132438233D01*
X140000000Y-132420575D01*
X140179294Y-132438233D01*
X140179294Y-132438233D01*
G37*
G36*
X135179294Y-132438233D02*
G01*
X135351695Y-132490531D01*
X135510583Y-132575458D01*
X135649849Y-132689751D01*
X135764142Y-132829017D01*
X135849069Y-132987905D01*
X135901367Y-133160306D01*
X135914600Y-133294669D01*
X135914600Y-134705331D01*
X135901367Y-134839694D01*
X135849069Y-135012095D01*
X135764142Y-135170983D01*
X135649849Y-135310249D01*
X135510583Y-135424542D01*
X135351694Y-135509469D01*
X135179293Y-135561767D01*
X135000000Y-135579425D01*
X134820706Y-135561767D01*
X134648305Y-135509469D01*
X134489417Y-135424542D01*
X134350151Y-135310249D01*
X134235858Y-135170983D01*
X134150931Y-135012094D01*
X134098633Y-134839693D01*
X134085400Y-134705330D01*
X134085401Y-133294669D01*
X134098634Y-133160306D01*
X134150932Y-132987905D01*
X134235859Y-132829017D01*
X134350152Y-132689751D01*
X134489418Y-132575458D01*
X134648306Y-132490531D01*
X134820707Y-132438233D01*
X135000000Y-132420575D01*
X135179294Y-132438233D01*
X135179294Y-132438233D01*
G37*
G36*
X125179294Y-132438233D02*
G01*
X125351695Y-132490531D01*
X125510583Y-132575458D01*
X125649849Y-132689751D01*
X125764142Y-132829017D01*
X125849069Y-132987905D01*
X125901367Y-133160306D01*
X125914600Y-133294669D01*
X125914600Y-134705331D01*
X125901367Y-134839694D01*
X125849069Y-135012095D01*
X125764142Y-135170983D01*
X125649849Y-135310249D01*
X125510583Y-135424542D01*
X125351694Y-135509469D01*
X125179293Y-135561767D01*
X125000000Y-135579425D01*
X124820706Y-135561767D01*
X124648305Y-135509469D01*
X124489417Y-135424542D01*
X124350151Y-135310249D01*
X124235858Y-135170983D01*
X124150931Y-135012094D01*
X124098633Y-134839693D01*
X124085400Y-134705330D01*
X124085401Y-133294669D01*
X124098634Y-133160306D01*
X124150932Y-132987905D01*
X124235859Y-132829017D01*
X124350152Y-132689751D01*
X124489418Y-132575458D01*
X124648306Y-132490531D01*
X124820707Y-132438233D01*
X125000000Y-132420575D01*
X125179294Y-132438233D01*
X125179294Y-132438233D01*
G37*
G36*
X120179294Y-132438233D02*
G01*
X120351695Y-132490531D01*
X120510583Y-132575458D01*
X120649849Y-132689751D01*
X120764142Y-132829017D01*
X120849069Y-132987905D01*
X120901367Y-133160306D01*
X120914600Y-133294669D01*
X120914600Y-134705331D01*
X120901367Y-134839694D01*
X120849069Y-135012095D01*
X120764142Y-135170983D01*
X120649849Y-135310249D01*
X120510583Y-135424542D01*
X120351694Y-135509469D01*
X120179293Y-135561767D01*
X120000000Y-135579425D01*
X119820706Y-135561767D01*
X119648305Y-135509469D01*
X119489417Y-135424542D01*
X119350151Y-135310249D01*
X119235858Y-135170983D01*
X119150931Y-135012094D01*
X119098633Y-134839693D01*
X119085400Y-134705330D01*
X119085401Y-133294669D01*
X119098634Y-133160306D01*
X119150932Y-132987905D01*
X119235859Y-132829017D01*
X119350152Y-132689751D01*
X119489418Y-132575458D01*
X119648306Y-132490531D01*
X119820707Y-132438233D01*
X120000000Y-132420575D01*
X120179294Y-132438233D01*
X120179294Y-132438233D01*
G37*
G36*
X110179294Y-132438233D02*
G01*
X110351695Y-132490531D01*
X110510583Y-132575458D01*
X110649849Y-132689751D01*
X110764142Y-132829017D01*
X110849069Y-132987905D01*
X110901367Y-133160306D01*
X110914600Y-133294669D01*
X110914600Y-134705331D01*
X110901367Y-134839694D01*
X110849069Y-135012095D01*
X110764142Y-135170983D01*
X110649849Y-135310249D01*
X110510583Y-135424542D01*
X110351694Y-135509469D01*
X110179293Y-135561767D01*
X110000000Y-135579425D01*
X109820706Y-135561767D01*
X109648305Y-135509469D01*
X109489417Y-135424542D01*
X109350151Y-135310249D01*
X109235858Y-135170983D01*
X109150931Y-135012094D01*
X109098633Y-134839693D01*
X109085400Y-134705330D01*
X109085401Y-133294669D01*
X109098634Y-133160306D01*
X109150932Y-132987905D01*
X109235859Y-132829017D01*
X109350152Y-132689751D01*
X109489418Y-132575458D01*
X109648306Y-132490531D01*
X109820707Y-132438233D01*
X110000000Y-132420575D01*
X110179294Y-132438233D01*
X110179294Y-132438233D01*
G37*
G36*
X102584828Y-128635343D02*
G01*
X102739700Y-128699493D01*
X102879081Y-128792625D01*
X102997615Y-128911159D01*
X103090747Y-129050540D01*
X103154897Y-129205412D01*
X103187600Y-129369824D01*
X103187600Y-129537456D01*
X103154897Y-129701868D01*
X103090747Y-129856740D01*
X102997615Y-129996121D01*
X102879081Y-130114655D01*
X102739700Y-130207787D01*
X102584828Y-130271937D01*
X102420416Y-130304640D01*
X102252784Y-130304640D01*
X102088372Y-130271937D01*
X101933500Y-130207787D01*
X101794119Y-130114655D01*
X101675585Y-129996121D01*
X101582453Y-129856740D01*
X101518303Y-129701868D01*
X101485600Y-129537456D01*
X101485600Y-129369824D01*
X101518303Y-129205412D01*
X101582453Y-129050540D01*
X101675585Y-128911159D01*
X101794119Y-128792625D01*
X101933500Y-128699493D01*
X102088372Y-128635343D01*
X102252784Y-128602640D01*
X102420416Y-128602640D01*
X102584828Y-128635343D01*
X102584828Y-128635343D01*
G37*
G36*
X112663423Y-128614953D02*
G01*
X112823842Y-128663616D01*
X112890961Y-128699492D01*
X112971678Y-128742636D01*
X113101259Y-128848981D01*
X113207604Y-128978562D01*
X113207605Y-128978564D01*
X113286624Y-129126398D01*
X113335287Y-129286817D01*
X113351717Y-129453640D01*
X113335287Y-129620463D01*
X113286624Y-129780882D01*
X113215714Y-129913546D01*
X113207604Y-129928718D01*
X113101259Y-130058299D01*
X112971678Y-130164644D01*
X112971676Y-130164645D01*
X112823842Y-130243664D01*
X112663423Y-130292327D01*
X112538404Y-130304640D01*
X112454796Y-130304640D01*
X112329777Y-130292327D01*
X112169358Y-130243664D01*
X112021524Y-130164645D01*
X112021522Y-130164644D01*
X111891941Y-130058299D01*
X111785596Y-129928718D01*
X111777486Y-129913546D01*
X111706576Y-129780882D01*
X111657913Y-129620463D01*
X111641483Y-129453640D01*
X111657913Y-129286817D01*
X111706576Y-129126398D01*
X111785595Y-128978564D01*
X111785596Y-128978562D01*
X111891941Y-128848981D01*
X112021522Y-128742636D01*
X112102239Y-128699492D01*
X112169358Y-128663616D01*
X112329777Y-128614953D01*
X112454796Y-128602640D01*
X112538404Y-128602640D01*
X112663423Y-128614953D01*
X112663423Y-128614953D01*
G37*
G36*
X162549148Y-128609943D02*
G01*
X162704020Y-128674093D01*
X162843401Y-128767225D01*
X162961935Y-128885759D01*
X163055067Y-129025140D01*
X163119217Y-129180012D01*
X163151920Y-129344424D01*
X163151920Y-129512056D01*
X163119217Y-129676468D01*
X163055067Y-129831340D01*
X162961935Y-129970721D01*
X162843401Y-130089255D01*
X162704020Y-130182387D01*
X162549148Y-130246537D01*
X162384736Y-130279240D01*
X162217104Y-130279240D01*
X162052692Y-130246537D01*
X161897820Y-130182387D01*
X161758439Y-130089255D01*
X161639905Y-129970721D01*
X161546773Y-129831340D01*
X161482623Y-129676468D01*
X161449920Y-129512056D01*
X161449920Y-129344424D01*
X161482623Y-129180012D01*
X161546773Y-129025140D01*
X161639905Y-128885759D01*
X161758439Y-128767225D01*
X161897820Y-128674093D01*
X162052692Y-128609943D01*
X162217104Y-128577240D01*
X162384736Y-128577240D01*
X162549148Y-128609943D01*
X162549148Y-128609943D01*
G37*
G36*
X172627743Y-128589553D02*
G01*
X172788162Y-128638216D01*
X172855281Y-128674092D01*
X172935998Y-128717236D01*
X173065579Y-128823581D01*
X173171924Y-128953162D01*
X173171925Y-128953164D01*
X173250944Y-129100998D01*
X173299607Y-129261417D01*
X173316037Y-129428240D01*
X173299607Y-129595063D01*
X173250944Y-129755482D01*
X173210397Y-129831340D01*
X173171924Y-129903318D01*
X173065579Y-130032899D01*
X172935998Y-130139244D01*
X172935996Y-130139245D01*
X172788162Y-130218264D01*
X172627743Y-130266927D01*
X172502724Y-130279240D01*
X172419116Y-130279240D01*
X172294097Y-130266927D01*
X172133678Y-130218264D01*
X171985844Y-130139245D01*
X171985842Y-130139244D01*
X171856261Y-130032899D01*
X171749916Y-129903318D01*
X171711443Y-129831340D01*
X171670896Y-129755482D01*
X171622233Y-129595063D01*
X171605803Y-129428240D01*
X171622233Y-129261417D01*
X171670896Y-129100998D01*
X171749915Y-128953164D01*
X171749916Y-128953162D01*
X171856261Y-128823581D01*
X171985842Y-128717236D01*
X172066559Y-128674092D01*
X172133678Y-128638216D01*
X172294097Y-128589553D01*
X172419116Y-128577240D01*
X172502724Y-128577240D01*
X172627743Y-128589553D01*
X172627743Y-128589553D01*
G37*
G36*
X147756188Y-128609943D02*
G01*
X147911060Y-128674093D01*
X148050441Y-128767225D01*
X148168975Y-128885759D01*
X148262107Y-129025140D01*
X148326257Y-129180012D01*
X148358960Y-129344424D01*
X148358960Y-129512056D01*
X148326257Y-129676468D01*
X148262107Y-129831340D01*
X148168975Y-129970721D01*
X148050441Y-130089255D01*
X147911060Y-130182387D01*
X147756188Y-130246537D01*
X147591776Y-130279240D01*
X147424144Y-130279240D01*
X147259732Y-130246537D01*
X147104860Y-130182387D01*
X146965479Y-130089255D01*
X146846945Y-129970721D01*
X146753813Y-129831340D01*
X146689663Y-129676468D01*
X146656960Y-129512056D01*
X146656960Y-129344424D01*
X146689663Y-129180012D01*
X146753813Y-129025140D01*
X146846945Y-128885759D01*
X146965479Y-128767225D01*
X147104860Y-128674093D01*
X147259732Y-128609943D01*
X147424144Y-128577240D01*
X147591776Y-128577240D01*
X147756188Y-128609943D01*
X147756188Y-128609943D01*
G37*
G36*
X157834783Y-128589553D02*
G01*
X157995202Y-128638216D01*
X158062321Y-128674092D01*
X158143038Y-128717236D01*
X158272619Y-128823581D01*
X158378964Y-128953162D01*
X158378965Y-128953164D01*
X158457984Y-129100998D01*
X158506647Y-129261417D01*
X158523077Y-129428240D01*
X158506647Y-129595063D01*
X158457984Y-129755482D01*
X158417437Y-129831340D01*
X158378964Y-129903318D01*
X158272619Y-130032899D01*
X158143038Y-130139244D01*
X158143036Y-130139245D01*
X157995202Y-130218264D01*
X157834783Y-130266927D01*
X157709764Y-130279240D01*
X157626156Y-130279240D01*
X157501137Y-130266927D01*
X157340718Y-130218264D01*
X157192884Y-130139245D01*
X157192882Y-130139244D01*
X157063301Y-130032899D01*
X156956956Y-129903318D01*
X156918483Y-129831340D01*
X156877936Y-129755482D01*
X156829273Y-129595063D01*
X156812843Y-129428240D01*
X156829273Y-129261417D01*
X156877936Y-129100998D01*
X156956955Y-128953164D01*
X156956956Y-128953162D01*
X157063301Y-128823581D01*
X157192882Y-128717236D01*
X157273599Y-128674092D01*
X157340718Y-128638216D01*
X157501137Y-128589553D01*
X157626156Y-128577240D01*
X157709764Y-128577240D01*
X157834783Y-128589553D01*
X157834783Y-128589553D01*
G37*
G36*
X132856548Y-128609943D02*
G01*
X133011420Y-128674093D01*
X133150801Y-128767225D01*
X133269335Y-128885759D01*
X133362467Y-129025140D01*
X133426617Y-129180012D01*
X133459320Y-129344424D01*
X133459320Y-129512056D01*
X133426617Y-129676468D01*
X133362467Y-129831340D01*
X133269335Y-129970721D01*
X133150801Y-130089255D01*
X133011420Y-130182387D01*
X132856548Y-130246537D01*
X132692136Y-130279240D01*
X132524504Y-130279240D01*
X132360092Y-130246537D01*
X132205220Y-130182387D01*
X132065839Y-130089255D01*
X131947305Y-129970721D01*
X131854173Y-129831340D01*
X131790023Y-129676468D01*
X131757320Y-129512056D01*
X131757320Y-129344424D01*
X131790023Y-129180012D01*
X131854173Y-129025140D01*
X131947305Y-128885759D01*
X132065839Y-128767225D01*
X132205220Y-128674093D01*
X132360092Y-128609943D01*
X132524504Y-128577240D01*
X132692136Y-128577240D01*
X132856548Y-128609943D01*
X132856548Y-128609943D01*
G37*
G36*
X142935143Y-128589553D02*
G01*
X143095562Y-128638216D01*
X143162681Y-128674092D01*
X143243398Y-128717236D01*
X143372979Y-128823581D01*
X143479324Y-128953162D01*
X143479325Y-128953164D01*
X143558344Y-129100998D01*
X143607007Y-129261417D01*
X143623437Y-129428240D01*
X143607007Y-129595063D01*
X143558344Y-129755482D01*
X143517797Y-129831340D01*
X143479324Y-129903318D01*
X143372979Y-130032899D01*
X143243398Y-130139244D01*
X143243396Y-130139245D01*
X143095562Y-130218264D01*
X142935143Y-130266927D01*
X142810124Y-130279240D01*
X142726516Y-130279240D01*
X142601497Y-130266927D01*
X142441078Y-130218264D01*
X142293244Y-130139245D01*
X142293242Y-130139244D01*
X142163661Y-130032899D01*
X142057316Y-129903318D01*
X142018843Y-129831340D01*
X141978296Y-129755482D01*
X141929633Y-129595063D01*
X141913203Y-129428240D01*
X141929633Y-129261417D01*
X141978296Y-129100998D01*
X142057315Y-128953164D01*
X142057316Y-128953162D01*
X142163661Y-128823581D01*
X142293242Y-128717236D01*
X142373959Y-128674092D01*
X142441078Y-128638216D01*
X142601497Y-128589553D01*
X142726516Y-128577240D01*
X142810124Y-128577240D01*
X142935143Y-128589553D01*
X142935143Y-128589553D01*
G37*
G36*
X117479388Y-128609943D02*
G01*
X117634260Y-128674093D01*
X117773641Y-128767225D01*
X117892175Y-128885759D01*
X117985307Y-129025140D01*
X118049457Y-129180012D01*
X118082160Y-129344424D01*
X118082160Y-129512056D01*
X118049457Y-129676468D01*
X117985307Y-129831340D01*
X117892175Y-129970721D01*
X117773641Y-130089255D01*
X117634260Y-130182387D01*
X117479388Y-130246537D01*
X117314976Y-130279240D01*
X117147344Y-130279240D01*
X116982932Y-130246537D01*
X116828060Y-130182387D01*
X116688679Y-130089255D01*
X116570145Y-129970721D01*
X116477013Y-129831340D01*
X116412863Y-129676468D01*
X116380160Y-129512056D01*
X116380160Y-129344424D01*
X116412863Y-129180012D01*
X116477013Y-129025140D01*
X116570145Y-128885759D01*
X116688679Y-128767225D01*
X116828060Y-128674093D01*
X116982932Y-128609943D01*
X117147344Y-128577240D01*
X117314976Y-128577240D01*
X117479388Y-128609943D01*
X117479388Y-128609943D01*
G37*
G36*
X127557983Y-128589553D02*
G01*
X127718402Y-128638216D01*
X127785521Y-128674092D01*
X127866238Y-128717236D01*
X127995819Y-128823581D01*
X128102164Y-128953162D01*
X128102165Y-128953164D01*
X128181184Y-129100998D01*
X128229847Y-129261417D01*
X128246277Y-129428240D01*
X128229847Y-129595063D01*
X128181184Y-129755482D01*
X128140637Y-129831340D01*
X128102164Y-129903318D01*
X127995819Y-130032899D01*
X127866238Y-130139244D01*
X127866236Y-130139245D01*
X127718402Y-130218264D01*
X127557983Y-130266927D01*
X127432964Y-130279240D01*
X127349356Y-130279240D01*
X127224337Y-130266927D01*
X127063918Y-130218264D01*
X126916084Y-130139245D01*
X126916082Y-130139244D01*
X126786501Y-130032899D01*
X126680156Y-129903318D01*
X126641683Y-129831340D01*
X126601136Y-129755482D01*
X126552473Y-129595063D01*
X126536043Y-129428240D01*
X126552473Y-129261417D01*
X126601136Y-129100998D01*
X126680155Y-128953164D01*
X126680156Y-128953162D01*
X126786501Y-128823581D01*
X126916082Y-128717236D01*
X126996799Y-128674092D01*
X127063918Y-128638216D01*
X127224337Y-128589553D01*
X127349356Y-128577240D01*
X127432964Y-128577240D01*
X127557983Y-128589553D01*
X127557983Y-128589553D01*
G37*
G36*
X142109760Y-123574520D02*
G01*
X140307760Y-123574520D01*
X140307760Y-119972520D01*
X142109760Y-119972520D01*
X142109760Y-123574520D01*
X142109760Y-123574520D01*
G37*
G36*
X162429760Y-120823120D02*
G01*
X162430362Y-120835372D01*
X162434119Y-120873520D01*
X162430362Y-120911668D01*
X162429760Y-120923920D01*
X162429760Y-123574520D01*
X160627760Y-123574520D01*
X160627760Y-120923920D01*
X160627158Y-120911668D01*
X160623401Y-120873520D01*
X160627158Y-120835372D01*
X160627760Y-120823120D01*
X160627760Y-119972520D01*
X162429760Y-119972520D01*
X162429760Y-120823120D01*
X162429760Y-120823120D01*
G37*
G36*
X134489760Y-120823120D02*
G01*
X134490362Y-120835372D01*
X134494119Y-120873520D01*
X134490362Y-120911668D01*
X134489760Y-120923920D01*
X134489760Y-123574520D01*
X132687760Y-123574520D01*
X132687760Y-120923920D01*
X132687158Y-120911668D01*
X132683401Y-120873520D01*
X132687158Y-120835372D01*
X132687760Y-120823120D01*
X132687760Y-119972520D01*
X134489760Y-119972520D01*
X134489760Y-120823120D01*
X134489760Y-120823120D01*
G37*
G36*
X131949760Y-120823120D02*
G01*
X131950362Y-120835372D01*
X131954119Y-120873520D01*
X131950362Y-120911668D01*
X131949760Y-120923920D01*
X131949760Y-123574520D01*
X130147760Y-123574520D01*
X130147760Y-120923920D01*
X130147158Y-120911668D01*
X130143401Y-120873520D01*
X130147158Y-120835372D01*
X130147760Y-120823120D01*
X130147760Y-119972520D01*
X131949760Y-119972520D01*
X131949760Y-120823120D01*
X131949760Y-120823120D01*
G37*
G36*
X129409760Y-123574520D02*
G01*
X127607760Y-123574520D01*
X127607760Y-119972520D01*
X129409760Y-119972520D01*
X129409760Y-123574520D01*
X129409760Y-123574520D01*
G37*
G36*
X126869760Y-120823120D02*
G01*
X126870362Y-120835372D01*
X126874119Y-120873520D01*
X126870362Y-120911668D01*
X126869760Y-120923920D01*
X126869760Y-123574520D01*
X125067760Y-123574520D01*
X125067760Y-120923920D01*
X125067158Y-120911668D01*
X125063401Y-120873520D01*
X125067158Y-120835372D01*
X125067760Y-120823120D01*
X125067760Y-119972520D01*
X126869760Y-119972520D01*
X126869760Y-120823120D01*
X126869760Y-120823120D01*
G37*
G36*
X124329760Y-120823120D02*
G01*
X124330362Y-120835372D01*
X124334119Y-120873520D01*
X124330362Y-120911668D01*
X124329760Y-120923920D01*
X124329760Y-123574520D01*
X122527760Y-123574520D01*
X122527760Y-120923920D01*
X122527158Y-120911668D01*
X122523401Y-120873520D01*
X122527158Y-120835372D01*
X122527760Y-120823120D01*
X122527760Y-119972520D01*
X124329760Y-119972520D01*
X124329760Y-120823120D01*
X124329760Y-120823120D01*
G37*
G36*
X137029760Y-120823120D02*
G01*
X137030362Y-120835372D01*
X137034119Y-120873520D01*
X137030362Y-120911668D01*
X137029760Y-120923920D01*
X137029760Y-123574520D01*
X135227760Y-123574520D01*
X135227760Y-120923920D01*
X135227158Y-120911668D01*
X135223401Y-120873520D01*
X135227158Y-120835372D01*
X135227760Y-120823120D01*
X135227760Y-119972520D01*
X137029760Y-119972520D01*
X137029760Y-120823120D01*
X137029760Y-120823120D01*
G37*
G36*
X139569760Y-120823120D02*
G01*
X139570362Y-120835372D01*
X139574119Y-120873520D01*
X139570362Y-120911668D01*
X139569760Y-120923920D01*
X139569760Y-123574520D01*
X137767760Y-123574520D01*
X137767760Y-120923920D01*
X137767158Y-120911668D01*
X137763401Y-120873520D01*
X137767158Y-120835372D01*
X137767760Y-120823120D01*
X137767760Y-119972520D01*
X139569760Y-119972520D01*
X139569760Y-120823120D01*
X139569760Y-120823120D01*
G37*
G36*
X144649760Y-120823120D02*
G01*
X144650362Y-120835372D01*
X144654119Y-120873520D01*
X144650362Y-120911668D01*
X144649760Y-120923920D01*
X144649760Y-123574520D01*
X142847760Y-123574520D01*
X142847760Y-120923920D01*
X142847158Y-120911668D01*
X142843401Y-120873520D01*
X142847158Y-120835372D01*
X142847760Y-120823120D01*
X142847760Y-119972520D01*
X144649760Y-119972520D01*
X144649760Y-120823120D01*
X144649760Y-120823120D01*
G37*
G36*
X147189760Y-120823120D02*
G01*
X147190362Y-120835372D01*
X147194119Y-120873520D01*
X147190362Y-120911668D01*
X147189760Y-120923920D01*
X147189760Y-123574520D01*
X145387760Y-123574520D01*
X145387760Y-120923920D01*
X145387158Y-120911668D01*
X145383401Y-120873520D01*
X145387158Y-120835372D01*
X145387760Y-120823120D01*
X145387760Y-119972520D01*
X147189760Y-119972520D01*
X147189760Y-120823120D01*
X147189760Y-120823120D01*
G37*
G36*
X172589760Y-120823120D02*
G01*
X172590362Y-120835372D01*
X172594119Y-120873520D01*
X172590362Y-120911668D01*
X172589760Y-120923920D01*
X172589760Y-123574520D01*
X170787760Y-123574520D01*
X170787760Y-120923920D01*
X170787158Y-120911668D01*
X170783401Y-120873520D01*
X170787158Y-120835372D01*
X170787760Y-120823120D01*
X170787760Y-119972520D01*
X172589760Y-119972520D01*
X172589760Y-120823120D01*
X172589760Y-120823120D01*
G37*
G36*
X170049760Y-120823120D02*
G01*
X170050362Y-120835372D01*
X170054119Y-120873520D01*
X170050362Y-120911668D01*
X170049760Y-120923920D01*
X170049760Y-123574520D01*
X168247760Y-123574520D01*
X168247760Y-120923920D01*
X168247158Y-120911668D01*
X168243401Y-120873520D01*
X168247158Y-120835372D01*
X168247760Y-120823120D01*
X168247760Y-119972520D01*
X170049760Y-119972520D01*
X170049760Y-120823120D01*
X170049760Y-120823120D01*
G37*
G36*
X167509760Y-123574520D02*
G01*
X165707760Y-123574520D01*
X165707760Y-119972520D01*
X167509760Y-119972520D01*
X167509760Y-123574520D01*
X167509760Y-123574520D01*
G37*
G36*
X164969760Y-120823120D02*
G01*
X164970362Y-120835372D01*
X164974119Y-120873520D01*
X164970362Y-120911668D01*
X164969760Y-120923920D01*
X164969760Y-123574520D01*
X163167760Y-123574520D01*
X163167760Y-120923920D01*
X163167158Y-120911668D01*
X163163401Y-120873520D01*
X163167158Y-120835372D01*
X163167760Y-120823120D01*
X163167760Y-119972520D01*
X164969760Y-119972520D01*
X164969760Y-120823120D01*
X164969760Y-120823120D01*
G37*
G36*
X159889760Y-120823120D02*
G01*
X159890362Y-120835372D01*
X159894119Y-120873520D01*
X159890362Y-120911668D01*
X159889760Y-120923920D01*
X159889760Y-123574520D01*
X158087760Y-123574520D01*
X158087760Y-120923920D01*
X158087158Y-120911668D01*
X158083401Y-120873520D01*
X158087158Y-120835372D01*
X158087760Y-120823120D01*
X158087760Y-119972520D01*
X159889760Y-119972520D01*
X159889760Y-120823120D01*
X159889760Y-120823120D01*
G37*
G36*
X157349760Y-120823120D02*
G01*
X157350362Y-120835372D01*
X157354119Y-120873520D01*
X157350362Y-120911668D01*
X157349760Y-120923920D01*
X157349760Y-123574520D01*
X155547760Y-123574520D01*
X155547760Y-120923920D01*
X155547158Y-120911668D01*
X155543401Y-120873520D01*
X155547158Y-120835372D01*
X155547760Y-120823120D01*
X155547760Y-119972520D01*
X157349760Y-119972520D01*
X157349760Y-120823120D01*
X157349760Y-120823120D01*
G37*
G36*
X154809760Y-123574520D02*
G01*
X153007760Y-123574520D01*
X153007760Y-119972520D01*
X154809760Y-119972520D01*
X154809760Y-123574520D01*
X154809760Y-123574520D01*
G37*
G36*
X152269760Y-120823120D02*
G01*
X152270362Y-120835372D01*
X152274119Y-120873520D01*
X152270362Y-120911668D01*
X152269760Y-120923920D01*
X152269760Y-123574520D01*
X150467760Y-123574520D01*
X150467760Y-120923920D01*
X150467158Y-120911668D01*
X150463401Y-120873520D01*
X150467158Y-120835372D01*
X150467760Y-120823120D01*
X150467760Y-119972520D01*
X152269760Y-119972520D01*
X152269760Y-120823120D01*
X152269760Y-120823120D01*
G37*
G36*
X149729760Y-120823120D02*
G01*
X149730362Y-120835372D01*
X149734119Y-120873520D01*
X149730362Y-120911668D01*
X149729760Y-120923920D01*
X149729760Y-123574520D01*
X147927760Y-123574520D01*
X147927760Y-120923920D01*
X147927158Y-120911668D01*
X147923401Y-120873520D01*
X147927158Y-120835372D01*
X147927760Y-120823120D01*
X147927760Y-119972520D01*
X149729760Y-119972520D01*
X149729760Y-120823120D01*
X149729760Y-120823120D01*
G37*
G36*
X105776800Y-120529120D02*
G01*
X103874800Y-120529120D01*
X103874800Y-118627120D01*
X105776800Y-118627120D01*
X105776800Y-120529120D01*
X105776800Y-120529120D01*
G37*
G36*
X102563195Y-118663666D02*
G01*
X102736266Y-118735354D01*
X102742372Y-118739434D01*
X102892027Y-118839430D01*
X103024490Y-118971893D01*
X103067084Y-119035640D01*
X103128566Y-119127654D01*
X103200254Y-119300725D01*
X103236800Y-119484453D01*
X103236800Y-119671787D01*
X103200254Y-119855515D01*
X103128566Y-120028586D01*
X103128565Y-120028587D01*
X103024490Y-120184347D01*
X102892027Y-120316810D01*
X102868892Y-120332268D01*
X102736266Y-120420886D01*
X102563195Y-120492574D01*
X102379467Y-120529120D01*
X102192133Y-120529120D01*
X102008405Y-120492574D01*
X101835334Y-120420886D01*
X101702708Y-120332268D01*
X101679573Y-120316810D01*
X101547110Y-120184347D01*
X101443035Y-120028587D01*
X101443034Y-120028586D01*
X101371346Y-119855515D01*
X101334800Y-119671787D01*
X101334800Y-119484453D01*
X101371346Y-119300725D01*
X101443034Y-119127654D01*
X101504516Y-119035640D01*
X101547110Y-118971893D01*
X101679573Y-118839430D01*
X101829228Y-118739434D01*
X101835334Y-118735354D01*
X102008405Y-118663666D01*
X102192133Y-118627120D01*
X102379467Y-118627120D01*
X102563195Y-118663666D01*
X102563195Y-118663666D01*
G37*
G36*
X118561428Y-118759823D02*
G01*
X118716300Y-118823973D01*
X118855681Y-118917105D01*
X118974215Y-119035639D01*
X119067347Y-119175020D01*
X119131497Y-119329892D01*
X119164200Y-119494304D01*
X119164200Y-119661936D01*
X119131497Y-119826348D01*
X119067347Y-119981220D01*
X118974215Y-120120601D01*
X118855681Y-120239135D01*
X118716300Y-120332267D01*
X118561428Y-120396417D01*
X118397016Y-120429120D01*
X118229384Y-120429120D01*
X118064972Y-120396417D01*
X117910100Y-120332267D01*
X117770719Y-120239135D01*
X117652185Y-120120601D01*
X117559053Y-119981220D01*
X117494903Y-119826348D01*
X117462200Y-119661936D01*
X117462200Y-119494304D01*
X117494903Y-119329892D01*
X117559053Y-119175020D01*
X117652185Y-119035639D01*
X117770719Y-118917105D01*
X117910100Y-118823973D01*
X118064972Y-118759823D01*
X118229384Y-118727120D01*
X118397016Y-118727120D01*
X118561428Y-118759823D01*
X118561428Y-118759823D01*
G37*
G36*
X108320023Y-118739433D02*
G01*
X108480442Y-118788096D01*
X108547561Y-118823972D01*
X108628278Y-118867116D01*
X108757859Y-118973461D01*
X108864204Y-119103042D01*
X108864205Y-119103044D01*
X108943224Y-119250878D01*
X108991887Y-119411297D01*
X109008317Y-119578120D01*
X108991887Y-119744943D01*
X108943224Y-119905362D01*
X108902677Y-119981220D01*
X108864204Y-120053198D01*
X108757859Y-120182779D01*
X108628278Y-120289124D01*
X108628276Y-120289125D01*
X108480442Y-120368144D01*
X108320023Y-120416807D01*
X108195004Y-120429120D01*
X108111396Y-120429120D01*
X107986377Y-120416807D01*
X107825958Y-120368144D01*
X107678124Y-120289125D01*
X107678122Y-120289124D01*
X107548541Y-120182779D01*
X107442196Y-120053198D01*
X107403723Y-119981220D01*
X107363176Y-119905362D01*
X107314513Y-119744943D01*
X107298083Y-119578120D01*
X107314513Y-119411297D01*
X107363176Y-119250878D01*
X107442195Y-119103044D01*
X107442196Y-119103042D01*
X107548541Y-118973461D01*
X107678122Y-118867116D01*
X107758839Y-118823972D01*
X107825958Y-118788096D01*
X107986377Y-118739433D01*
X108111396Y-118727120D01*
X108195004Y-118727120D01*
X108320023Y-118739433D01*
X108320023Y-118739433D01*
G37*
G36*
X105776800Y-115926640D02*
G01*
X103874800Y-115926640D01*
X103874800Y-114024640D01*
X105776800Y-114024640D01*
X105776800Y-115926640D01*
X105776800Y-115926640D01*
G37*
G36*
X102563195Y-114061186D02*
G01*
X102736266Y-114132874D01*
X102807573Y-114180520D01*
X102892027Y-114236950D01*
X103024490Y-114369413D01*
X103050620Y-114408520D01*
X103128566Y-114525174D01*
X103200254Y-114698245D01*
X103236800Y-114881973D01*
X103236800Y-115069307D01*
X103200254Y-115253035D01*
X103128566Y-115426106D01*
X103128565Y-115426107D01*
X103024490Y-115581867D01*
X102892027Y-115714330D01*
X102849831Y-115742524D01*
X102736266Y-115818406D01*
X102563195Y-115890094D01*
X102379467Y-115926640D01*
X102192133Y-115926640D01*
X102008405Y-115890094D01*
X101835334Y-115818406D01*
X101721769Y-115742524D01*
X101679573Y-115714330D01*
X101547110Y-115581867D01*
X101443035Y-115426107D01*
X101443034Y-115426106D01*
X101371346Y-115253035D01*
X101334800Y-115069307D01*
X101334800Y-114881973D01*
X101371346Y-114698245D01*
X101443034Y-114525174D01*
X101520980Y-114408520D01*
X101547110Y-114369413D01*
X101679573Y-114236950D01*
X101764027Y-114180520D01*
X101835334Y-114132874D01*
X102008405Y-114061186D01*
X102192133Y-114024640D01*
X102379467Y-114024640D01*
X102563195Y-114061186D01*
X102563195Y-114061186D01*
G37*
G36*
X118510628Y-114213223D02*
G01*
X118665500Y-114277373D01*
X118804881Y-114370505D01*
X118923415Y-114489039D01*
X119016547Y-114628420D01*
X119080697Y-114783292D01*
X119113400Y-114947704D01*
X119113400Y-115115336D01*
X119080697Y-115279748D01*
X119016547Y-115434620D01*
X118923415Y-115574001D01*
X118804881Y-115692535D01*
X118665500Y-115785667D01*
X118510628Y-115849817D01*
X118346216Y-115882520D01*
X118178584Y-115882520D01*
X118014172Y-115849817D01*
X117859300Y-115785667D01*
X117719919Y-115692535D01*
X117601385Y-115574001D01*
X117508253Y-115434620D01*
X117444103Y-115279748D01*
X117411400Y-115115336D01*
X117411400Y-114947704D01*
X117444103Y-114783292D01*
X117508253Y-114628420D01*
X117601385Y-114489039D01*
X117719919Y-114370505D01*
X117859300Y-114277373D01*
X118014172Y-114213223D01*
X118178584Y-114180520D01*
X118346216Y-114180520D01*
X118510628Y-114213223D01*
X118510628Y-114213223D01*
G37*
G36*
X108269223Y-114192833D02*
G01*
X108429642Y-114241496D01*
X108496761Y-114277372D01*
X108577478Y-114320516D01*
X108707059Y-114426861D01*
X108813404Y-114556442D01*
X108813405Y-114556444D01*
X108892424Y-114704278D01*
X108941087Y-114864697D01*
X108957517Y-115031520D01*
X108941087Y-115198343D01*
X108892424Y-115358762D01*
X108851877Y-115434620D01*
X108813404Y-115506598D01*
X108707059Y-115636179D01*
X108577478Y-115742524D01*
X108577476Y-115742525D01*
X108429642Y-115821544D01*
X108269223Y-115870207D01*
X108144204Y-115882520D01*
X108060596Y-115882520D01*
X107935577Y-115870207D01*
X107775158Y-115821544D01*
X107627324Y-115742525D01*
X107627322Y-115742524D01*
X107497741Y-115636179D01*
X107391396Y-115506598D01*
X107352923Y-115434620D01*
X107312376Y-115358762D01*
X107263713Y-115198343D01*
X107247283Y-115031520D01*
X107263713Y-114864697D01*
X107312376Y-114704278D01*
X107391395Y-114556444D01*
X107391396Y-114556442D01*
X107497741Y-114426861D01*
X107627322Y-114320516D01*
X107708039Y-114277372D01*
X107775158Y-114241496D01*
X107935577Y-114192833D01*
X108060596Y-114180520D01*
X108144204Y-114180520D01*
X108269223Y-114192833D01*
X108269223Y-114192833D01*
G37*
G36*
X171745185Y-113771280D02*
G01*
X171745188Y-113771281D01*
X171745189Y-113771281D01*
X171924453Y-113825660D01*
X171924456Y-113825662D01*
X171924457Y-113825662D01*
X172089663Y-113913966D01*
X172234472Y-114032808D01*
X172353314Y-114177617D01*
X172441618Y-114342823D01*
X172441620Y-114342827D01*
X172485973Y-114489040D01*
X172496000Y-114522095D01*
X172514361Y-114708520D01*
X172496000Y-114894945D01*
X172495999Y-114894948D01*
X172495999Y-114894949D01*
X172441620Y-115074213D01*
X172441618Y-115074216D01*
X172441618Y-115074217D01*
X172353314Y-115239423D01*
X172234472Y-115384232D01*
X172089663Y-115503074D01*
X171924457Y-115591378D01*
X171924453Y-115591380D01*
X171745189Y-115645759D01*
X171745188Y-115645759D01*
X171745185Y-115645760D01*
X171605478Y-115659520D01*
X171512042Y-115659520D01*
X171372335Y-115645760D01*
X171372332Y-115645759D01*
X171372331Y-115645759D01*
X171193067Y-115591380D01*
X171193063Y-115591378D01*
X171027857Y-115503074D01*
X170883048Y-115384232D01*
X170764206Y-115239423D01*
X170675902Y-115074217D01*
X170675902Y-115074216D01*
X170675900Y-115074213D01*
X170621521Y-114894949D01*
X170621521Y-114894948D01*
X170621520Y-114894945D01*
X170603159Y-114708520D01*
X170621520Y-114522095D01*
X170631547Y-114489040D01*
X170675900Y-114342827D01*
X170675902Y-114342823D01*
X170764206Y-114177617D01*
X170883048Y-114032808D01*
X171027857Y-113913966D01*
X171193063Y-113825662D01*
X171193064Y-113825662D01*
X171193067Y-113825660D01*
X171372331Y-113771281D01*
X171372332Y-113771281D01*
X171372335Y-113771280D01*
X171512042Y-113757520D01*
X171605478Y-113757520D01*
X171745185Y-113771280D01*
X171745185Y-113771280D01*
G37*
G36*
X124559760Y-114473120D02*
G01*
X124560362Y-114485372D01*
X124564119Y-114523520D01*
X124560362Y-114561668D01*
X124559760Y-114573920D01*
X124559760Y-115424520D01*
X120957760Y-115424520D01*
X120957760Y-113622520D01*
X124559760Y-113622520D01*
X124559760Y-114473120D01*
X124559760Y-114473120D01*
G37*
G36*
X168607331Y-113611383D02*
G01*
X168685783Y-113619110D01*
X168786442Y-113649645D01*
X168836773Y-113664912D01*
X168975925Y-113739291D01*
X169097893Y-113839387D01*
X169197989Y-113961355D01*
X169272368Y-114100507D01*
X169287635Y-114150838D01*
X169318170Y-114251497D01*
X169333635Y-114408520D01*
X169318170Y-114565543D01*
X169287635Y-114666202D01*
X169272368Y-114716533D01*
X169197989Y-114855685D01*
X169097893Y-114977653D01*
X168975925Y-115077749D01*
X168836773Y-115152128D01*
X168798608Y-115163705D01*
X168685783Y-115197930D01*
X168607331Y-115205657D01*
X168568106Y-115209520D01*
X168489414Y-115209520D01*
X168450189Y-115205657D01*
X168371737Y-115197930D01*
X168258912Y-115163705D01*
X168220747Y-115152128D01*
X168081595Y-115077749D01*
X167959627Y-114977653D01*
X167859531Y-114855685D01*
X167785152Y-114716533D01*
X167769885Y-114666202D01*
X167739350Y-114565543D01*
X167723885Y-114408520D01*
X167739350Y-114251497D01*
X167769885Y-114150838D01*
X167785152Y-114100507D01*
X167859531Y-113961355D01*
X167959627Y-113839387D01*
X168081595Y-113739291D01*
X168220747Y-113664912D01*
X168271078Y-113649645D01*
X168371737Y-113619110D01*
X168450189Y-113611383D01*
X168489414Y-113607520D01*
X168568106Y-113607520D01*
X168607331Y-113611383D01*
X168607331Y-113611383D01*
G37*
G36*
X124559760Y-112884520D02*
G01*
X120957760Y-112884520D01*
X120957760Y-111082520D01*
X124559760Y-111082520D01*
X124559760Y-112884520D01*
X124559760Y-112884520D01*
G37*
G36*
X105832680Y-111039680D02*
G01*
X103930680Y-111039680D01*
X103930680Y-109137680D01*
X105832680Y-109137680D01*
X105832680Y-111039680D01*
X105832680Y-111039680D01*
G37*
G36*
X102619075Y-109174226D02*
G01*
X102792146Y-109245914D01*
X102799021Y-109250508D01*
X102947907Y-109349990D01*
X103080370Y-109482453D01*
X103122964Y-109546200D01*
X103184446Y-109638214D01*
X103256134Y-109811285D01*
X103292680Y-109995013D01*
X103292680Y-110182347D01*
X103256134Y-110366075D01*
X103184446Y-110539146D01*
X103184445Y-110539147D01*
X103080370Y-110694907D01*
X102947907Y-110827370D01*
X102924772Y-110842828D01*
X102792146Y-110931446D01*
X102619075Y-111003134D01*
X102435347Y-111039680D01*
X102248013Y-111039680D01*
X102064285Y-111003134D01*
X101891214Y-110931446D01*
X101758588Y-110842828D01*
X101735453Y-110827370D01*
X101602990Y-110694907D01*
X101498915Y-110539147D01*
X101498914Y-110539146D01*
X101427226Y-110366075D01*
X101390680Y-110182347D01*
X101390680Y-109995013D01*
X101427226Y-109811285D01*
X101498914Y-109638214D01*
X101560396Y-109546200D01*
X101602990Y-109482453D01*
X101735453Y-109349990D01*
X101884339Y-109250508D01*
X101891214Y-109245914D01*
X102064285Y-109174226D01*
X102248013Y-109137680D01*
X102435347Y-109137680D01*
X102619075Y-109174226D01*
X102619075Y-109174226D01*
G37*
G36*
X108269223Y-109249993D02*
G01*
X108429642Y-109298656D01*
X108496761Y-109334532D01*
X108577478Y-109377676D01*
X108707059Y-109484021D01*
X108813404Y-109613602D01*
X108813405Y-109613604D01*
X108892424Y-109761438D01*
X108941087Y-109921857D01*
X108957517Y-110088680D01*
X108941087Y-110255503D01*
X108892424Y-110415922D01*
X108851877Y-110491780D01*
X108813404Y-110563758D01*
X108707059Y-110693339D01*
X108577478Y-110799684D01*
X108577476Y-110799685D01*
X108429642Y-110878704D01*
X108269223Y-110927367D01*
X108144204Y-110939680D01*
X108060596Y-110939680D01*
X107935577Y-110927367D01*
X107775158Y-110878704D01*
X107627324Y-110799685D01*
X107627322Y-110799684D01*
X107497741Y-110693339D01*
X107391396Y-110563758D01*
X107352923Y-110491780D01*
X107312376Y-110415922D01*
X107263713Y-110255503D01*
X107247283Y-110088680D01*
X107263713Y-109921857D01*
X107312376Y-109761438D01*
X107391395Y-109613604D01*
X107391396Y-109613602D01*
X107497741Y-109484021D01*
X107627322Y-109377676D01*
X107708039Y-109334532D01*
X107775158Y-109298656D01*
X107935577Y-109249993D01*
X108060596Y-109237680D01*
X108144204Y-109237680D01*
X108269223Y-109249993D01*
X108269223Y-109249993D01*
G37*
G36*
X118510628Y-109270383D02*
G01*
X118665500Y-109334533D01*
X118804881Y-109427665D01*
X118923415Y-109546199D01*
X119016547Y-109685580D01*
X119080697Y-109840452D01*
X119113400Y-110004864D01*
X119113400Y-110172496D01*
X119080697Y-110336908D01*
X119016547Y-110491780D01*
X118923415Y-110631161D01*
X118804881Y-110749695D01*
X118665500Y-110842827D01*
X118510628Y-110906977D01*
X118346216Y-110939680D01*
X118178584Y-110939680D01*
X118014172Y-110906977D01*
X117859300Y-110842827D01*
X117719919Y-110749695D01*
X117601385Y-110631161D01*
X117508253Y-110491780D01*
X117444103Y-110336908D01*
X117411400Y-110172496D01*
X117411400Y-110004864D01*
X117444103Y-109840452D01*
X117508253Y-109685580D01*
X117601385Y-109546199D01*
X117719919Y-109427665D01*
X117859300Y-109334533D01*
X118014172Y-109270383D01*
X118178584Y-109237680D01*
X118346216Y-109237680D01*
X118510628Y-109270383D01*
X118510628Y-109270383D01*
G37*
G36*
X168607331Y-108761383D02*
G01*
X168685783Y-108769110D01*
X168786442Y-108799645D01*
X168836773Y-108814912D01*
X168975925Y-108889291D01*
X169097893Y-108989387D01*
X169197989Y-109111355D01*
X169272368Y-109250507D01*
X169278397Y-109270383D01*
X169318170Y-109401497D01*
X169333635Y-109558520D01*
X169318170Y-109715543D01*
X169304248Y-109761438D01*
X169272368Y-109866533D01*
X169197989Y-110005685D01*
X169097893Y-110127653D01*
X168975925Y-110227749D01*
X168836773Y-110302128D01*
X168786442Y-110317395D01*
X168685783Y-110347930D01*
X168607331Y-110355657D01*
X168568106Y-110359520D01*
X168489414Y-110359520D01*
X168450189Y-110355657D01*
X168371737Y-110347930D01*
X168271078Y-110317395D01*
X168220747Y-110302128D01*
X168081595Y-110227749D01*
X167959627Y-110127653D01*
X167859531Y-110005685D01*
X167785152Y-109866533D01*
X167753272Y-109761438D01*
X167739350Y-109715543D01*
X167723885Y-109558520D01*
X167739350Y-109401497D01*
X167779123Y-109270383D01*
X167785152Y-109250507D01*
X167859531Y-109111355D01*
X167959627Y-108989387D01*
X168081595Y-108889291D01*
X168220747Y-108814912D01*
X168271078Y-108799645D01*
X168371737Y-108769110D01*
X168450189Y-108761383D01*
X168489414Y-108757520D01*
X168568106Y-108757520D01*
X168607331Y-108761383D01*
X168607331Y-108761383D01*
G37*
G36*
X124559760Y-109393120D02*
G01*
X124560362Y-109405372D01*
X124564119Y-109443520D01*
X124560362Y-109481668D01*
X124559760Y-109493920D01*
X124559760Y-110344520D01*
X120957760Y-110344520D01*
X120957760Y-108542520D01*
X124559760Y-108542520D01*
X124559760Y-109393120D01*
X124559760Y-109393120D01*
G37*
G36*
X171745185Y-108321280D02*
G01*
X171745188Y-108321281D01*
X171745189Y-108321281D01*
X171924453Y-108375660D01*
X171924456Y-108375662D01*
X171924457Y-108375662D01*
X172089663Y-108463966D01*
X172234472Y-108582808D01*
X172353314Y-108727617D01*
X172439730Y-108889291D01*
X172441620Y-108892827D01*
X172456090Y-108940529D01*
X172496000Y-109072095D01*
X172514361Y-109258520D01*
X172496000Y-109444945D01*
X172495999Y-109444948D01*
X172495999Y-109444949D01*
X172441620Y-109624213D01*
X172441618Y-109624216D01*
X172441618Y-109624217D01*
X172353314Y-109789423D01*
X172234472Y-109934232D01*
X172089663Y-110053074D01*
X171924457Y-110141378D01*
X171924453Y-110141380D01*
X171745189Y-110195759D01*
X171745188Y-110195759D01*
X171745185Y-110195760D01*
X171605478Y-110209520D01*
X171512042Y-110209520D01*
X171372335Y-110195760D01*
X171372332Y-110195759D01*
X171372331Y-110195759D01*
X171193067Y-110141380D01*
X171193063Y-110141378D01*
X171027857Y-110053074D01*
X170883048Y-109934232D01*
X170764206Y-109789423D01*
X170675902Y-109624217D01*
X170675902Y-109624216D01*
X170675900Y-109624213D01*
X170621521Y-109444949D01*
X170621521Y-109444948D01*
X170621520Y-109444945D01*
X170603159Y-109258520D01*
X170621520Y-109072095D01*
X170661430Y-108940529D01*
X170675900Y-108892827D01*
X170677790Y-108889291D01*
X170764206Y-108727617D01*
X170883048Y-108582808D01*
X171027857Y-108463966D01*
X171193063Y-108375662D01*
X171193064Y-108375662D01*
X171193067Y-108375660D01*
X171372331Y-108321281D01*
X171372332Y-108321281D01*
X171372335Y-108321280D01*
X171512042Y-108307520D01*
X171605478Y-108307520D01*
X171745185Y-108321280D01*
X171745185Y-108321280D01*
G37*
G36*
X105832680Y-106005400D02*
G01*
X103930680Y-106005400D01*
X103930680Y-104103400D01*
X105832680Y-104103400D01*
X105832680Y-106005400D01*
X105832680Y-106005400D01*
G37*
G36*
X102619075Y-104139946D02*
G01*
X102792146Y-104211634D01*
X102798252Y-104215714D01*
X102947907Y-104315710D01*
X103080370Y-104448173D01*
X103122964Y-104511920D01*
X103184446Y-104603934D01*
X103256134Y-104777005D01*
X103292680Y-104960733D01*
X103292680Y-105148067D01*
X103256134Y-105331795D01*
X103184446Y-105504866D01*
X103184445Y-105504867D01*
X103080370Y-105660627D01*
X102947907Y-105793090D01*
X102924772Y-105808548D01*
X102792146Y-105897166D01*
X102619075Y-105968854D01*
X102435347Y-106005400D01*
X102248013Y-106005400D01*
X102064285Y-105968854D01*
X101891214Y-105897166D01*
X101758588Y-105808548D01*
X101735453Y-105793090D01*
X101602990Y-105660627D01*
X101498915Y-105504867D01*
X101498914Y-105504866D01*
X101427226Y-105331795D01*
X101390680Y-105148067D01*
X101390680Y-104960733D01*
X101427226Y-104777005D01*
X101498914Y-104603934D01*
X101560396Y-104511920D01*
X101602990Y-104448173D01*
X101735453Y-104315710D01*
X101885108Y-104215714D01*
X101891214Y-104211634D01*
X102064285Y-104139946D01*
X102248013Y-104103400D01*
X102435347Y-104103400D01*
X102619075Y-104139946D01*
X102619075Y-104139946D01*
G37*
G36*
X118561428Y-104236103D02*
G01*
X118716300Y-104300253D01*
X118855681Y-104393385D01*
X118974215Y-104511919D01*
X119067347Y-104651300D01*
X119131497Y-104806172D01*
X119164200Y-104970584D01*
X119164200Y-105138216D01*
X119131497Y-105302628D01*
X119067347Y-105457500D01*
X118974215Y-105596881D01*
X118855681Y-105715415D01*
X118716300Y-105808547D01*
X118561428Y-105872697D01*
X118397016Y-105905400D01*
X118229384Y-105905400D01*
X118064972Y-105872697D01*
X117910100Y-105808547D01*
X117770719Y-105715415D01*
X117652185Y-105596881D01*
X117559053Y-105457500D01*
X117494903Y-105302628D01*
X117462200Y-105138216D01*
X117462200Y-104970584D01*
X117494903Y-104806172D01*
X117559053Y-104651300D01*
X117652185Y-104511919D01*
X117770719Y-104393385D01*
X117910100Y-104300253D01*
X118064972Y-104236103D01*
X118229384Y-104203400D01*
X118397016Y-104203400D01*
X118561428Y-104236103D01*
X118561428Y-104236103D01*
G37*
G36*
X108320023Y-104215713D02*
G01*
X108480442Y-104264376D01*
X108547561Y-104300252D01*
X108628278Y-104343396D01*
X108757859Y-104449741D01*
X108864204Y-104579322D01*
X108864205Y-104579324D01*
X108943224Y-104727158D01*
X108991887Y-104887577D01*
X109008317Y-105054400D01*
X108991887Y-105221223D01*
X108943224Y-105381642D01*
X108902677Y-105457500D01*
X108864204Y-105529478D01*
X108757859Y-105659059D01*
X108628278Y-105765404D01*
X108628276Y-105765405D01*
X108480442Y-105844424D01*
X108320023Y-105893087D01*
X108195004Y-105905400D01*
X108111396Y-105905400D01*
X107986377Y-105893087D01*
X107825958Y-105844424D01*
X107678124Y-105765405D01*
X107678122Y-105765404D01*
X107548541Y-105659059D01*
X107442196Y-105529478D01*
X107403723Y-105457500D01*
X107363176Y-105381642D01*
X107314513Y-105221223D01*
X107298083Y-105054400D01*
X107314513Y-104887577D01*
X107363176Y-104727158D01*
X107442195Y-104579324D01*
X107442196Y-104579322D01*
X107548541Y-104449741D01*
X107678122Y-104343396D01*
X107758839Y-104300252D01*
X107825958Y-104264376D01*
X107986377Y-104215713D01*
X108111396Y-104203400D01*
X108195004Y-104203400D01*
X108320023Y-104215713D01*
X108320023Y-104215713D01*
G37*
G36*
X170049760Y-103043120D02*
G01*
X170050362Y-103055372D01*
X170054119Y-103093520D01*
X170050362Y-103131668D01*
X170049760Y-103143920D01*
X170049760Y-103994520D01*
X168247760Y-103994520D01*
X168247760Y-103143920D01*
X168247158Y-103131668D01*
X168243401Y-103093520D01*
X168247158Y-103055372D01*
X168247760Y-103043120D01*
X168247760Y-100392520D01*
X170049760Y-100392520D01*
X170049760Y-103043120D01*
X170049760Y-103043120D01*
G37*
G36*
X167509760Y-103994520D02*
G01*
X165707760Y-103994520D01*
X165707760Y-100392520D01*
X167509760Y-100392520D01*
X167509760Y-103994520D01*
X167509760Y-103994520D01*
G37*
G36*
X164969760Y-103043120D02*
G01*
X164970362Y-103055372D01*
X164974119Y-103093520D01*
X164970362Y-103131668D01*
X164969760Y-103143920D01*
X164969760Y-103994520D01*
X163167760Y-103994520D01*
X163167760Y-103143920D01*
X163167158Y-103131668D01*
X163163401Y-103093520D01*
X163167158Y-103055372D01*
X163167760Y-103043120D01*
X163167760Y-100392520D01*
X164969760Y-100392520D01*
X164969760Y-103043120D01*
X164969760Y-103043120D01*
G37*
G36*
X162429760Y-103043120D02*
G01*
X162430362Y-103055372D01*
X162434119Y-103093520D01*
X162430362Y-103131668D01*
X162429760Y-103143920D01*
X162429760Y-103994520D01*
X160627760Y-103994520D01*
X160627760Y-103143920D01*
X160627158Y-103131668D01*
X160623401Y-103093520D01*
X160627158Y-103055372D01*
X160627760Y-103043120D01*
X160627760Y-100392520D01*
X162429760Y-100392520D01*
X162429760Y-103043120D01*
X162429760Y-103043120D01*
G37*
G36*
X159889760Y-103043120D02*
G01*
X159890362Y-103055372D01*
X159894119Y-103093520D01*
X159890362Y-103131668D01*
X159889760Y-103143920D01*
X159889760Y-103994520D01*
X158087760Y-103994520D01*
X158087760Y-103143920D01*
X158087158Y-103131668D01*
X158083401Y-103093520D01*
X158087158Y-103055372D01*
X158087760Y-103043120D01*
X158087760Y-100392520D01*
X159889760Y-100392520D01*
X159889760Y-103043120D01*
X159889760Y-103043120D01*
G37*
G36*
X157349760Y-103043120D02*
G01*
X157350362Y-103055372D01*
X157354119Y-103093520D01*
X157350362Y-103131668D01*
X157349760Y-103143920D01*
X157349760Y-103994520D01*
X155547760Y-103994520D01*
X155547760Y-103143920D01*
X155547158Y-103131668D01*
X155543401Y-103093520D01*
X155547158Y-103055372D01*
X155547760Y-103043120D01*
X155547760Y-100392520D01*
X157349760Y-100392520D01*
X157349760Y-103043120D01*
X157349760Y-103043120D01*
G37*
G36*
X124329760Y-103043120D02*
G01*
X124330362Y-103055372D01*
X124334119Y-103093520D01*
X124330362Y-103131668D01*
X124329760Y-103143920D01*
X124329760Y-103994520D01*
X122527760Y-103994520D01*
X122527760Y-103143920D01*
X122527158Y-103131668D01*
X122523401Y-103093520D01*
X122527158Y-103055372D01*
X122527760Y-103043120D01*
X122527760Y-100392520D01*
X124329760Y-100392520D01*
X124329760Y-103043120D01*
X124329760Y-103043120D01*
G37*
G36*
X126869760Y-103043120D02*
G01*
X126870362Y-103055372D01*
X126874119Y-103093520D01*
X126870362Y-103131668D01*
X126869760Y-103143920D01*
X126869760Y-103994520D01*
X125067760Y-103994520D01*
X125067760Y-103143920D01*
X125067158Y-103131668D01*
X125063401Y-103093520D01*
X125067158Y-103055372D01*
X125067760Y-103043120D01*
X125067760Y-100392520D01*
X126869760Y-100392520D01*
X126869760Y-103043120D01*
X126869760Y-103043120D01*
G37*
G36*
X129409760Y-103994520D02*
G01*
X127607760Y-103994520D01*
X127607760Y-100392520D01*
X129409760Y-100392520D01*
X129409760Y-103994520D01*
X129409760Y-103994520D01*
G37*
G36*
X131949760Y-103043120D02*
G01*
X131950362Y-103055372D01*
X131954119Y-103093520D01*
X131950362Y-103131668D01*
X131949760Y-103143920D01*
X131949760Y-103994520D01*
X130147760Y-103994520D01*
X130147760Y-103143920D01*
X130147158Y-103131668D01*
X130143401Y-103093520D01*
X130147158Y-103055372D01*
X130147760Y-103043120D01*
X130147760Y-100392520D01*
X131949760Y-100392520D01*
X131949760Y-103043120D01*
X131949760Y-103043120D01*
G37*
G36*
X134489760Y-103043120D02*
G01*
X134490362Y-103055372D01*
X134494119Y-103093520D01*
X134490362Y-103131668D01*
X134489760Y-103143920D01*
X134489760Y-103994520D01*
X132687760Y-103994520D01*
X132687760Y-103143920D01*
X132687158Y-103131668D01*
X132683401Y-103093520D01*
X132687158Y-103055372D01*
X132687760Y-103043120D01*
X132687760Y-100392520D01*
X134489760Y-100392520D01*
X134489760Y-103043120D01*
X134489760Y-103043120D01*
G37*
G36*
X137029760Y-103043120D02*
G01*
X137030362Y-103055372D01*
X137034119Y-103093520D01*
X137030362Y-103131668D01*
X137029760Y-103143920D01*
X137029760Y-103994520D01*
X135227760Y-103994520D01*
X135227760Y-103143920D01*
X135227158Y-103131668D01*
X135223401Y-103093520D01*
X135227158Y-103055372D01*
X135227760Y-103043120D01*
X135227760Y-100392520D01*
X137029760Y-100392520D01*
X137029760Y-103043120D01*
X137029760Y-103043120D01*
G37*
G36*
X139569760Y-103043120D02*
G01*
X139570362Y-103055372D01*
X139574119Y-103093520D01*
X139570362Y-103131668D01*
X139569760Y-103143920D01*
X139569760Y-103994520D01*
X137767760Y-103994520D01*
X137767760Y-103143920D01*
X137767158Y-103131668D01*
X137763401Y-103093520D01*
X137767158Y-103055372D01*
X137767760Y-103043120D01*
X137767760Y-100392520D01*
X139569760Y-100392520D01*
X139569760Y-103043120D01*
X139569760Y-103043120D01*
G37*
G36*
X142109760Y-103994520D02*
G01*
X140307760Y-103994520D01*
X140307760Y-100392520D01*
X142109760Y-100392520D01*
X142109760Y-103994520D01*
X142109760Y-103994520D01*
G37*
G36*
X144649760Y-103043120D02*
G01*
X144650362Y-103055372D01*
X144654119Y-103093520D01*
X144650362Y-103131668D01*
X144649760Y-103143920D01*
X144649760Y-103994520D01*
X142847760Y-103994520D01*
X142847760Y-103143920D01*
X142847158Y-103131668D01*
X142843401Y-103093520D01*
X142847158Y-103055372D01*
X142847760Y-103043120D01*
X142847760Y-100392520D01*
X144649760Y-100392520D01*
X144649760Y-103043120D01*
X144649760Y-103043120D01*
G37*
G36*
X147189760Y-103043120D02*
G01*
X147190362Y-103055372D01*
X147194119Y-103093520D01*
X147190362Y-103131668D01*
X147189760Y-103143920D01*
X147189760Y-103994520D01*
X145387760Y-103994520D01*
X145387760Y-103143920D01*
X145387158Y-103131668D01*
X145383401Y-103093520D01*
X145387158Y-103055372D01*
X145387760Y-103043120D01*
X145387760Y-100392520D01*
X147189760Y-100392520D01*
X147189760Y-103043120D01*
X147189760Y-103043120D01*
G37*
G36*
X149729760Y-103043120D02*
G01*
X149730362Y-103055372D01*
X149734119Y-103093520D01*
X149730362Y-103131668D01*
X149729760Y-103143920D01*
X149729760Y-103994520D01*
X147927760Y-103994520D01*
X147927760Y-103143920D01*
X147927158Y-103131668D01*
X147923401Y-103093520D01*
X147927158Y-103055372D01*
X147927760Y-103043120D01*
X147927760Y-100392520D01*
X149729760Y-100392520D01*
X149729760Y-103043120D01*
X149729760Y-103043120D01*
G37*
G36*
X152269760Y-103043120D02*
G01*
X152270362Y-103055372D01*
X152274119Y-103093520D01*
X152270362Y-103131668D01*
X152269760Y-103143920D01*
X152269760Y-103994520D01*
X150467760Y-103994520D01*
X150467760Y-103143920D01*
X150467158Y-103131668D01*
X150463401Y-103093520D01*
X150467158Y-103055372D01*
X150467760Y-103043120D01*
X150467760Y-100392520D01*
X152269760Y-100392520D01*
X152269760Y-103043120D01*
X152269760Y-103043120D01*
G37*
G36*
X154809760Y-103994520D02*
G01*
X153007760Y-103994520D01*
X153007760Y-100392520D01*
X154809760Y-100392520D01*
X154809760Y-103994520D01*
X154809760Y-103994520D01*
G37*
G36*
X172589760Y-103043120D02*
G01*
X172590362Y-103055372D01*
X172594119Y-103093520D01*
X172590362Y-103131668D01*
X172589760Y-103143920D01*
X172589760Y-103994520D01*
X170787760Y-103994520D01*
X170787760Y-103143920D01*
X170787158Y-103131668D01*
X170783401Y-103093520D01*
X170787158Y-103055372D01*
X170787760Y-103043120D01*
X170787760Y-100392520D01*
X172589760Y-100392520D01*
X172589760Y-103043120D01*
X172589760Y-103043120D01*
G37*
G36*
X170013400Y-98791800D02*
G01*
X168111400Y-98791800D01*
X168111400Y-96889800D01*
X170013400Y-96889800D01*
X170013400Y-98791800D01*
X170013400Y-98791800D01*
G37*
G36*
X161628825Y-96903560D02*
G01*
X161628828Y-96903561D01*
X161628829Y-96903561D01*
X161808093Y-96957940D01*
X161808096Y-96957942D01*
X161808097Y-96957942D01*
X161973303Y-97046246D01*
X162118112Y-97165088D01*
X162236954Y-97309897D01*
X162325258Y-97475103D01*
X162325260Y-97475107D01*
X162379639Y-97654371D01*
X162379640Y-97654375D01*
X162398001Y-97840800D01*
X162379640Y-98027225D01*
X162379639Y-98027228D01*
X162379639Y-98027229D01*
X162325260Y-98206493D01*
X162325258Y-98206496D01*
X162325258Y-98206497D01*
X162236954Y-98371703D01*
X162118112Y-98516512D01*
X161973303Y-98635354D01*
X161808097Y-98723658D01*
X161808093Y-98723660D01*
X161628829Y-98778039D01*
X161628828Y-98778039D01*
X161628825Y-98778040D01*
X161489118Y-98791800D01*
X161395682Y-98791800D01*
X161255975Y-98778040D01*
X161255972Y-98778039D01*
X161255971Y-98778039D01*
X161076707Y-98723660D01*
X161076703Y-98723658D01*
X160911497Y-98635354D01*
X160766688Y-98516512D01*
X160647846Y-98371703D01*
X160559542Y-98206497D01*
X160559542Y-98206496D01*
X160559540Y-98206493D01*
X160505161Y-98027229D01*
X160505161Y-98027228D01*
X160505160Y-98027225D01*
X160486799Y-97840800D01*
X160505160Y-97654375D01*
X160505161Y-97654371D01*
X160559540Y-97475107D01*
X160559542Y-97475103D01*
X160647846Y-97309897D01*
X160766688Y-97165088D01*
X160911497Y-97046246D01*
X161076703Y-96957942D01*
X161076704Y-96957942D01*
X161076707Y-96957940D01*
X161255971Y-96903561D01*
X161255972Y-96903561D01*
X161255975Y-96903560D01*
X161395682Y-96889800D01*
X161489118Y-96889800D01*
X161628825Y-96903560D01*
X161628825Y-96903560D01*
G37*
G36*
X106351225Y-96522462D02*
G01*
X106424782Y-96529707D01*
X106566346Y-96572650D01*
X106696812Y-96642386D01*
X106726600Y-96666832D01*
X106811167Y-96736233D01*
X106880568Y-96820800D01*
X106905014Y-96850588D01*
X106974750Y-96981054D01*
X107017693Y-97122618D01*
X107032193Y-97269840D01*
X107017693Y-97417062D01*
X106974750Y-97558626D01*
X106905014Y-97689092D01*
X106880568Y-97718880D01*
X106811167Y-97803447D01*
X106726600Y-97872848D01*
X106696812Y-97897294D01*
X106566346Y-97967030D01*
X106424782Y-98009973D01*
X106351225Y-98017218D01*
X106314448Y-98020840D01*
X104840672Y-98020840D01*
X104803895Y-98017218D01*
X104730338Y-98009973D01*
X104588774Y-97967030D01*
X104458308Y-97897294D01*
X104428520Y-97872848D01*
X104343953Y-97803447D01*
X104274552Y-97718880D01*
X104250106Y-97689092D01*
X104180370Y-97558626D01*
X104137427Y-97417062D01*
X104122927Y-97269840D01*
X104137427Y-97122618D01*
X104180370Y-96981054D01*
X104250106Y-96850588D01*
X104274552Y-96820800D01*
X104343953Y-96736233D01*
X104428520Y-96666832D01*
X104458308Y-96642386D01*
X104588774Y-96572650D01*
X104730338Y-96529707D01*
X104803895Y-96522462D01*
X104840672Y-96518840D01*
X106314448Y-96518840D01*
X106351225Y-96522462D01*
X106351225Y-96522462D01*
G37*
G36*
X117351225Y-96522462D02*
G01*
X117424782Y-96529707D01*
X117566346Y-96572650D01*
X117696812Y-96642386D01*
X117726600Y-96666832D01*
X117811167Y-96736233D01*
X117880568Y-96820800D01*
X117905014Y-96850588D01*
X117974750Y-96981054D01*
X118017693Y-97122618D01*
X118032193Y-97269840D01*
X118017693Y-97417062D01*
X117974750Y-97558626D01*
X117905014Y-97689092D01*
X117880568Y-97718880D01*
X117811167Y-97803447D01*
X117726600Y-97872848D01*
X117696812Y-97897294D01*
X117566346Y-97967030D01*
X117424782Y-98009973D01*
X117351225Y-98017218D01*
X117314448Y-98020840D01*
X115840672Y-98020840D01*
X115803895Y-98017218D01*
X115730338Y-98009973D01*
X115588774Y-97967030D01*
X115458308Y-97897294D01*
X115428520Y-97872848D01*
X115343953Y-97803447D01*
X115274552Y-97718880D01*
X115250106Y-97689092D01*
X115180370Y-97558626D01*
X115137427Y-97417062D01*
X115122927Y-97269840D01*
X115137427Y-97122618D01*
X115180370Y-96981054D01*
X115250106Y-96850588D01*
X115274552Y-96820800D01*
X115343953Y-96736233D01*
X115428520Y-96666832D01*
X115458308Y-96642386D01*
X115588774Y-96572650D01*
X115730338Y-96529707D01*
X115803895Y-96522462D01*
X115840672Y-96518840D01*
X117314448Y-96518840D01*
X117351225Y-96522462D01*
X117351225Y-96522462D01*
G37*
G36*
X117351225Y-94322462D02*
G01*
X117424782Y-94329707D01*
X117566346Y-94372650D01*
X117696812Y-94442386D01*
X117726600Y-94466832D01*
X117811167Y-94536233D01*
X117880568Y-94620800D01*
X117905014Y-94650588D01*
X117974750Y-94781054D01*
X118017693Y-94922618D01*
X118032193Y-95069840D01*
X118017693Y-95217062D01*
X117974750Y-95358626D01*
X117905014Y-95489092D01*
X117880568Y-95518880D01*
X117811167Y-95603447D01*
X117726600Y-95672848D01*
X117696812Y-95697294D01*
X117566346Y-95767030D01*
X117424782Y-95809973D01*
X117351225Y-95817218D01*
X117314448Y-95820840D01*
X115840672Y-95820840D01*
X115803895Y-95817218D01*
X115730338Y-95809973D01*
X115588774Y-95767030D01*
X115458308Y-95697294D01*
X115428520Y-95672848D01*
X115343953Y-95603447D01*
X115274552Y-95518880D01*
X115250106Y-95489092D01*
X115180370Y-95358626D01*
X115137427Y-95217062D01*
X115122927Y-95069840D01*
X115137427Y-94922618D01*
X115180370Y-94781054D01*
X115250106Y-94650588D01*
X115274552Y-94620800D01*
X115343953Y-94536233D01*
X115428520Y-94466832D01*
X115458308Y-94442386D01*
X115588774Y-94372650D01*
X115730338Y-94329707D01*
X115803895Y-94322462D01*
X115840672Y-94318840D01*
X117314448Y-94318840D01*
X117351225Y-94322462D01*
X117351225Y-94322462D01*
G37*
G36*
X106351225Y-94322462D02*
G01*
X106424782Y-94329707D01*
X106566346Y-94372650D01*
X106696812Y-94442386D01*
X106726600Y-94466832D01*
X106811167Y-94536233D01*
X106880568Y-94620800D01*
X106905014Y-94650588D01*
X106974750Y-94781054D01*
X107017693Y-94922618D01*
X107032193Y-95069840D01*
X107017693Y-95217062D01*
X106974750Y-95358626D01*
X106905014Y-95489092D01*
X106880568Y-95518880D01*
X106811167Y-95603447D01*
X106726600Y-95672848D01*
X106696812Y-95697294D01*
X106566346Y-95767030D01*
X106424782Y-95809973D01*
X106351225Y-95817218D01*
X106314448Y-95820840D01*
X104840672Y-95820840D01*
X104803895Y-95817218D01*
X104730338Y-95809973D01*
X104588774Y-95767030D01*
X104458308Y-95697294D01*
X104428520Y-95672848D01*
X104343953Y-95603447D01*
X104274552Y-95518880D01*
X104250106Y-95489092D01*
X104180370Y-95358626D01*
X104137427Y-95217062D01*
X104122927Y-95069840D01*
X104137427Y-94922618D01*
X104180370Y-94781054D01*
X104250106Y-94650588D01*
X104274552Y-94620800D01*
X104343953Y-94536233D01*
X104428520Y-94466832D01*
X104458308Y-94442386D01*
X104588774Y-94372650D01*
X104730338Y-94329707D01*
X104803895Y-94322462D01*
X104840672Y-94318840D01*
X106314448Y-94318840D01*
X106351225Y-94322462D01*
X106351225Y-94322462D01*
G37*
G36*
X117351225Y-92122462D02*
G01*
X117424782Y-92129707D01*
X117566346Y-92172650D01*
X117696812Y-92242386D01*
X117726600Y-92266832D01*
X117811167Y-92336233D01*
X117880568Y-92420800D01*
X117905014Y-92450588D01*
X117974750Y-92581054D01*
X118017693Y-92722618D01*
X118032193Y-92869840D01*
X118017693Y-93017062D01*
X117974750Y-93158626D01*
X117905014Y-93289092D01*
X117880568Y-93318880D01*
X117811167Y-93403447D01*
X117726600Y-93472848D01*
X117696812Y-93497294D01*
X117566346Y-93567030D01*
X117424782Y-93609973D01*
X117351225Y-93617218D01*
X117314448Y-93620840D01*
X115840672Y-93620840D01*
X115803895Y-93617218D01*
X115730338Y-93609973D01*
X115588774Y-93567030D01*
X115458308Y-93497294D01*
X115428520Y-93472848D01*
X115343953Y-93403447D01*
X115274552Y-93318880D01*
X115250106Y-93289092D01*
X115180370Y-93158626D01*
X115137427Y-93017062D01*
X115122927Y-92869840D01*
X115137427Y-92722618D01*
X115180370Y-92581054D01*
X115250106Y-92450588D01*
X115274552Y-92420800D01*
X115343953Y-92336233D01*
X115428520Y-92266832D01*
X115458308Y-92242386D01*
X115588774Y-92172650D01*
X115730338Y-92129707D01*
X115803895Y-92122462D01*
X115840672Y-92118840D01*
X117314448Y-92118840D01*
X117351225Y-92122462D01*
X117351225Y-92122462D01*
G37*
G36*
X106351225Y-92122462D02*
G01*
X106424782Y-92129707D01*
X106566346Y-92172650D01*
X106696812Y-92242386D01*
X106726600Y-92266832D01*
X106811167Y-92336233D01*
X106880568Y-92420800D01*
X106905014Y-92450588D01*
X106974750Y-92581054D01*
X107017693Y-92722618D01*
X107032193Y-92869840D01*
X107017693Y-93017062D01*
X106974750Y-93158626D01*
X106905014Y-93289092D01*
X106880568Y-93318880D01*
X106811167Y-93403447D01*
X106726600Y-93472848D01*
X106696812Y-93497294D01*
X106566346Y-93567030D01*
X106424782Y-93609973D01*
X106351225Y-93617218D01*
X106314448Y-93620840D01*
X104840672Y-93620840D01*
X104803895Y-93617218D01*
X104730338Y-93609973D01*
X104588774Y-93567030D01*
X104458308Y-93497294D01*
X104428520Y-93472848D01*
X104343953Y-93403447D01*
X104274552Y-93318880D01*
X104250106Y-93289092D01*
X104180370Y-93158626D01*
X104137427Y-93017062D01*
X104122927Y-92869840D01*
X104137427Y-92722618D01*
X104180370Y-92581054D01*
X104250106Y-92450588D01*
X104274552Y-92420800D01*
X104343953Y-92336233D01*
X104428520Y-92266832D01*
X104458308Y-92242386D01*
X104588774Y-92172650D01*
X104730338Y-92129707D01*
X104803895Y-92122462D01*
X104840672Y-92118840D01*
X106314448Y-92118840D01*
X106351225Y-92122462D01*
X106351225Y-92122462D01*
G37*
G36*
X106351225Y-89922462D02*
G01*
X106424782Y-89929707D01*
X106566346Y-89972650D01*
X106696812Y-90042386D01*
X106726600Y-90066832D01*
X106811167Y-90136233D01*
X106880568Y-90220800D01*
X106905014Y-90250588D01*
X106974750Y-90381054D01*
X107017693Y-90522618D01*
X107032193Y-90669840D01*
X107017693Y-90817062D01*
X106974750Y-90958626D01*
X106905014Y-91089092D01*
X106880568Y-91118880D01*
X106811167Y-91203447D01*
X106726600Y-91272848D01*
X106696812Y-91297294D01*
X106566346Y-91367030D01*
X106424782Y-91409973D01*
X106351225Y-91417218D01*
X106314448Y-91420840D01*
X104840672Y-91420840D01*
X104803895Y-91417218D01*
X104730338Y-91409973D01*
X104588774Y-91367030D01*
X104458308Y-91297294D01*
X104428520Y-91272848D01*
X104343953Y-91203447D01*
X104274552Y-91118880D01*
X104250106Y-91089092D01*
X104180370Y-90958626D01*
X104137427Y-90817062D01*
X104122927Y-90669840D01*
X104137427Y-90522618D01*
X104180370Y-90381054D01*
X104250106Y-90250588D01*
X104274552Y-90220800D01*
X104343953Y-90136233D01*
X104428520Y-90066832D01*
X104458308Y-90042386D01*
X104588774Y-89972650D01*
X104730338Y-89929707D01*
X104803895Y-89922462D01*
X104840672Y-89918840D01*
X106314448Y-89918840D01*
X106351225Y-89922462D01*
X106351225Y-89922462D01*
G37*
G36*
X117351225Y-89922462D02*
G01*
X117424782Y-89929707D01*
X117566346Y-89972650D01*
X117696812Y-90042386D01*
X117726600Y-90066832D01*
X117811167Y-90136233D01*
X117880568Y-90220800D01*
X117905014Y-90250588D01*
X117974750Y-90381054D01*
X118017693Y-90522618D01*
X118032193Y-90669840D01*
X118017693Y-90817062D01*
X117974750Y-90958626D01*
X117905014Y-91089092D01*
X117880568Y-91118880D01*
X117811167Y-91203447D01*
X117726600Y-91272848D01*
X117696812Y-91297294D01*
X117566346Y-91367030D01*
X117424782Y-91409973D01*
X117351225Y-91417218D01*
X117314448Y-91420840D01*
X115840672Y-91420840D01*
X115803895Y-91417218D01*
X115730338Y-91409973D01*
X115588774Y-91367030D01*
X115458308Y-91297294D01*
X115428520Y-91272848D01*
X115343953Y-91203447D01*
X115274552Y-91118880D01*
X115250106Y-91089092D01*
X115180370Y-90958626D01*
X115137427Y-90817062D01*
X115122927Y-90669840D01*
X115137427Y-90522618D01*
X115180370Y-90381054D01*
X115250106Y-90250588D01*
X115274552Y-90220800D01*
X115343953Y-90136233D01*
X115428520Y-90066832D01*
X115458308Y-90042386D01*
X115588774Y-89972650D01*
X115730338Y-89929707D01*
X115803895Y-89922462D01*
X115840672Y-89918840D01*
X117314448Y-89918840D01*
X117351225Y-89922462D01*
X117351225Y-89922462D01*
G37*
G36*
X171233185Y-88022920D02*
G01*
X171233188Y-88022921D01*
X171233189Y-88022921D01*
X171412453Y-88077300D01*
X171412456Y-88077302D01*
X171412457Y-88077302D01*
X171577663Y-88165606D01*
X171722472Y-88284448D01*
X171841314Y-88429257D01*
X171929618Y-88594463D01*
X171929620Y-88594467D01*
X171983999Y-88773731D01*
X171984000Y-88773735D01*
X172002361Y-88960160D01*
X171984000Y-89146585D01*
X171983999Y-89146588D01*
X171983999Y-89146589D01*
X171929620Y-89325853D01*
X171929618Y-89325856D01*
X171929618Y-89325857D01*
X171841314Y-89491063D01*
X171722472Y-89635872D01*
X171577663Y-89754714D01*
X171412457Y-89843018D01*
X171412453Y-89843020D01*
X171233189Y-89897399D01*
X171233188Y-89897399D01*
X171233185Y-89897400D01*
X171093478Y-89911160D01*
X169200042Y-89911160D01*
X169060335Y-89897400D01*
X169060332Y-89897399D01*
X169060331Y-89897399D01*
X168881067Y-89843020D01*
X168881063Y-89843018D01*
X168715857Y-89754714D01*
X168571048Y-89635872D01*
X168452206Y-89491063D01*
X168363902Y-89325857D01*
X168363902Y-89325856D01*
X168363900Y-89325853D01*
X168309521Y-89146589D01*
X168309521Y-89146588D01*
X168309520Y-89146585D01*
X168291159Y-88960160D01*
X168309520Y-88773735D01*
X168309521Y-88773731D01*
X168363900Y-88594467D01*
X168363902Y-88594463D01*
X168452206Y-88429257D01*
X168571048Y-88284448D01*
X168715857Y-88165606D01*
X168881063Y-88077302D01*
X168881064Y-88077302D01*
X168881067Y-88077300D01*
X169060331Y-88022921D01*
X169060332Y-88022921D01*
X169060335Y-88022920D01*
X169200042Y-88009160D01*
X171093478Y-88009160D01*
X171233185Y-88022920D01*
X171233185Y-88022920D01*
G37*
G36*
X106351225Y-87722462D02*
G01*
X106424782Y-87729707D01*
X106566346Y-87772650D01*
X106696812Y-87842386D01*
X106726600Y-87866832D01*
X106811167Y-87936233D01*
X106871015Y-88009160D01*
X106905014Y-88050588D01*
X106974750Y-88181054D01*
X107017693Y-88322618D01*
X107032193Y-88469840D01*
X107017693Y-88617062D01*
X106974750Y-88758626D01*
X106905014Y-88889092D01*
X106880568Y-88918880D01*
X106811167Y-89003447D01*
X106726600Y-89072848D01*
X106696812Y-89097294D01*
X106566346Y-89167030D01*
X106424782Y-89209973D01*
X106351225Y-89217218D01*
X106314448Y-89220840D01*
X104840672Y-89220840D01*
X104803895Y-89217218D01*
X104730338Y-89209973D01*
X104588774Y-89167030D01*
X104458308Y-89097294D01*
X104428520Y-89072848D01*
X104343953Y-89003447D01*
X104274552Y-88918880D01*
X104250106Y-88889092D01*
X104180370Y-88758626D01*
X104137427Y-88617062D01*
X104122927Y-88469840D01*
X104137427Y-88322618D01*
X104180370Y-88181054D01*
X104250106Y-88050588D01*
X104284105Y-88009160D01*
X104343953Y-87936233D01*
X104428520Y-87866832D01*
X104458308Y-87842386D01*
X104588774Y-87772650D01*
X104730338Y-87729707D01*
X104803895Y-87722462D01*
X104840672Y-87718840D01*
X106314448Y-87718840D01*
X106351225Y-87722462D01*
X106351225Y-87722462D01*
G37*
G36*
X117351225Y-87722462D02*
G01*
X117424782Y-87729707D01*
X117566346Y-87772650D01*
X117696812Y-87842386D01*
X117726600Y-87866832D01*
X117811167Y-87936233D01*
X117871015Y-88009160D01*
X117905014Y-88050588D01*
X117974750Y-88181054D01*
X118017693Y-88322618D01*
X118032193Y-88469840D01*
X118017693Y-88617062D01*
X117974750Y-88758626D01*
X117905014Y-88889092D01*
X117880568Y-88918880D01*
X117811167Y-89003447D01*
X117726600Y-89072848D01*
X117696812Y-89097294D01*
X117566346Y-89167030D01*
X117424782Y-89209973D01*
X117351225Y-89217218D01*
X117314448Y-89220840D01*
X115840672Y-89220840D01*
X115803895Y-89217218D01*
X115730338Y-89209973D01*
X115588774Y-89167030D01*
X115458308Y-89097294D01*
X115428520Y-89072848D01*
X115343953Y-89003447D01*
X115274552Y-88918880D01*
X115250106Y-88889092D01*
X115180370Y-88758626D01*
X115137427Y-88617062D01*
X115122927Y-88469840D01*
X115137427Y-88322618D01*
X115180370Y-88181054D01*
X115250106Y-88050588D01*
X115284105Y-88009160D01*
X115343953Y-87936233D01*
X115428520Y-87866832D01*
X115458308Y-87842386D01*
X115588774Y-87772650D01*
X115730338Y-87729707D01*
X115803895Y-87722462D01*
X115840672Y-87718840D01*
X117314448Y-87718840D01*
X117351225Y-87722462D01*
X117351225Y-87722462D01*
G37*
G36*
X171233185Y-85482920D02*
G01*
X171233188Y-85482921D01*
X171233189Y-85482921D01*
X171412453Y-85537300D01*
X171412456Y-85537302D01*
X171412457Y-85537302D01*
X171577663Y-85625606D01*
X171722472Y-85744448D01*
X171841314Y-85889257D01*
X171929618Y-86054463D01*
X171929620Y-86054467D01*
X171983999Y-86233731D01*
X171984000Y-86233735D01*
X172002361Y-86420160D01*
X171984000Y-86606585D01*
X171983999Y-86606588D01*
X171983999Y-86606589D01*
X171929620Y-86785853D01*
X171929618Y-86785856D01*
X171929618Y-86785857D01*
X171841314Y-86951063D01*
X171722472Y-87095872D01*
X171577663Y-87214714D01*
X171412457Y-87303018D01*
X171412453Y-87303020D01*
X171233189Y-87357399D01*
X171233188Y-87357399D01*
X171233185Y-87357400D01*
X171093478Y-87371160D01*
X169200042Y-87371160D01*
X169060335Y-87357400D01*
X169060332Y-87357399D01*
X169060331Y-87357399D01*
X168881067Y-87303020D01*
X168881063Y-87303018D01*
X168715857Y-87214714D01*
X168571048Y-87095872D01*
X168452206Y-86951063D01*
X168363902Y-86785857D01*
X168363902Y-86785856D01*
X168363900Y-86785853D01*
X168309521Y-86606589D01*
X168309521Y-86606588D01*
X168309520Y-86606585D01*
X168291159Y-86420160D01*
X168309520Y-86233735D01*
X168309521Y-86233731D01*
X168363900Y-86054467D01*
X168363902Y-86054463D01*
X168452206Y-85889257D01*
X168571048Y-85744448D01*
X168715857Y-85625606D01*
X168881063Y-85537302D01*
X168881064Y-85537302D01*
X168881067Y-85537300D01*
X169060331Y-85482921D01*
X169060332Y-85482921D01*
X169060335Y-85482920D01*
X169200042Y-85469160D01*
X171093478Y-85469160D01*
X171233185Y-85482920D01*
X171233185Y-85482920D01*
G37*
G36*
X171233185Y-82902920D02*
G01*
X171233188Y-82902921D01*
X171233189Y-82902921D01*
X171412453Y-82957300D01*
X171412456Y-82957302D01*
X171412457Y-82957302D01*
X171577663Y-83045606D01*
X171722472Y-83164448D01*
X171841314Y-83309257D01*
X171929618Y-83474463D01*
X171929620Y-83474467D01*
X171983999Y-83653731D01*
X171984000Y-83653735D01*
X172002361Y-83840160D01*
X171984000Y-84026585D01*
X171983999Y-84026588D01*
X171983999Y-84026589D01*
X171929620Y-84205853D01*
X171929618Y-84205856D01*
X171929618Y-84205857D01*
X171841314Y-84371063D01*
X171722472Y-84515872D01*
X171577663Y-84634714D01*
X171412457Y-84723018D01*
X171412453Y-84723020D01*
X171233189Y-84777399D01*
X171233188Y-84777399D01*
X171233185Y-84777400D01*
X171093478Y-84791160D01*
X169200042Y-84791160D01*
X169060335Y-84777400D01*
X169060332Y-84777399D01*
X169060331Y-84777399D01*
X168881067Y-84723020D01*
X168881063Y-84723018D01*
X168715857Y-84634714D01*
X168571048Y-84515872D01*
X168452206Y-84371063D01*
X168363902Y-84205857D01*
X168363902Y-84205856D01*
X168363900Y-84205853D01*
X168309521Y-84026589D01*
X168309521Y-84026588D01*
X168309520Y-84026585D01*
X168291159Y-83840160D01*
X168309520Y-83653735D01*
X168309521Y-83653731D01*
X168363900Y-83474467D01*
X168363902Y-83474463D01*
X168452206Y-83309257D01*
X168571048Y-83164448D01*
X168715857Y-83045606D01*
X168881063Y-82957302D01*
X168881064Y-82957302D01*
X168881067Y-82957300D01*
X169060331Y-82902921D01*
X169060332Y-82902921D01*
X169060335Y-82902920D01*
X169200042Y-82889160D01*
X171093478Y-82889160D01*
X171233185Y-82902920D01*
X171233185Y-82902920D01*
G37*
G36*
X171233185Y-80362920D02*
G01*
X171233188Y-80362921D01*
X171233189Y-80362921D01*
X171412453Y-80417300D01*
X171412456Y-80417302D01*
X171412457Y-80417302D01*
X171577663Y-80505606D01*
X171722472Y-80624448D01*
X171841314Y-80769257D01*
X171929618Y-80934463D01*
X171929620Y-80934467D01*
X171937190Y-80959423D01*
X171984000Y-81113735D01*
X172002361Y-81300160D01*
X171984000Y-81486585D01*
X171983999Y-81486588D01*
X171983999Y-81486589D01*
X171929620Y-81665853D01*
X171929618Y-81665856D01*
X171929618Y-81665857D01*
X171841314Y-81831063D01*
X171722472Y-81975872D01*
X171577663Y-82094714D01*
X171412457Y-82183018D01*
X171412453Y-82183020D01*
X171233189Y-82237399D01*
X171233188Y-82237399D01*
X171233185Y-82237400D01*
X171093478Y-82251160D01*
X169200042Y-82251160D01*
X169060335Y-82237400D01*
X169060332Y-82237399D01*
X169060331Y-82237399D01*
X168881067Y-82183020D01*
X168881063Y-82183018D01*
X168715857Y-82094714D01*
X168571048Y-81975872D01*
X168452206Y-81831063D01*
X168363902Y-81665857D01*
X168363902Y-81665856D01*
X168363900Y-81665853D01*
X168309521Y-81486589D01*
X168309521Y-81486588D01*
X168309520Y-81486585D01*
X168291159Y-81300160D01*
X168309520Y-81113735D01*
X168356330Y-80959423D01*
X168363900Y-80934467D01*
X168363902Y-80934463D01*
X168452206Y-80769257D01*
X168571048Y-80624448D01*
X168715857Y-80505606D01*
X168881063Y-80417302D01*
X168881064Y-80417302D01*
X168881067Y-80417300D01*
X169060331Y-80362921D01*
X169060332Y-80362921D01*
X169060335Y-80362920D01*
X169200042Y-80349160D01*
X171093478Y-80349160D01*
X171233185Y-80362920D01*
X171233185Y-80362920D01*
G37*
G36*
X103534871Y-76545527D02*
G01*
X103720468Y-76601828D01*
X103732988Y-76605626D01*
X103798870Y-76640841D01*
X103915569Y-76703217D01*
X104075605Y-76834555D01*
X104206943Y-76994591D01*
X104206944Y-76994593D01*
X104304534Y-77177171D01*
X104304534Y-77177172D01*
X104304535Y-77177174D01*
X104364633Y-77375288D01*
X104379840Y-77529690D01*
X104379840Y-80132950D01*
X104364633Y-80287352D01*
X104304535Y-80485466D01*
X104304534Y-80485469D01*
X104252779Y-80582295D01*
X104206943Y-80668049D01*
X104075605Y-80828085D01*
X103915569Y-80959423D01*
X103829815Y-81005259D01*
X103732989Y-81057014D01*
X103732986Y-81057015D01*
X103534872Y-81117113D01*
X103328840Y-81137405D01*
X103122809Y-81117113D01*
X102924695Y-81057015D01*
X102924692Y-81057014D01*
X102827866Y-81005259D01*
X102742112Y-80959423D01*
X102582076Y-80828085D01*
X102450738Y-80668049D01*
X102404902Y-80582295D01*
X102353147Y-80485469D01*
X102353146Y-80485466D01*
X102293048Y-80287352D01*
X102277841Y-80132950D01*
X102277840Y-77529691D01*
X102293047Y-77375289D01*
X102353145Y-77177175D01*
X102353146Y-77177172D01*
X102388361Y-77111290D01*
X102450737Y-76994591D01*
X102582075Y-76834555D01*
X102742111Y-76703217D01*
X102827865Y-76657381D01*
X102924691Y-76605626D01*
X102937211Y-76601828D01*
X103122808Y-76545527D01*
X103328840Y-76525235D01*
X103534871Y-76545527D01*
X103534871Y-76545527D01*
G37*
G36*
X114534871Y-76545527D02*
G01*
X114720468Y-76601828D01*
X114732988Y-76605626D01*
X114798870Y-76640841D01*
X114915569Y-76703217D01*
X115075605Y-76834555D01*
X115206943Y-76994591D01*
X115206944Y-76994593D01*
X115304534Y-77177171D01*
X115304534Y-77177172D01*
X115304535Y-77177174D01*
X115364633Y-77375288D01*
X115379840Y-77529690D01*
X115379840Y-80132950D01*
X115364633Y-80287352D01*
X115304535Y-80485466D01*
X115304534Y-80485469D01*
X115252779Y-80582295D01*
X115206943Y-80668049D01*
X115075605Y-80828085D01*
X114915569Y-80959423D01*
X114829815Y-81005259D01*
X114732989Y-81057014D01*
X114732986Y-81057015D01*
X114534872Y-81117113D01*
X114328840Y-81137405D01*
X114122809Y-81117113D01*
X113924695Y-81057015D01*
X113924692Y-81057014D01*
X113827866Y-81005259D01*
X113742112Y-80959423D01*
X113582076Y-80828085D01*
X113450738Y-80668049D01*
X113404902Y-80582295D01*
X113353147Y-80485469D01*
X113353146Y-80485466D01*
X113293048Y-80287352D01*
X113277841Y-80132950D01*
X113277840Y-77529691D01*
X113293047Y-77375289D01*
X113353145Y-77177175D01*
X113353146Y-77177172D01*
X113388361Y-77111290D01*
X113450737Y-76994591D01*
X113582075Y-76834555D01*
X113742111Y-76703217D01*
X113827865Y-76657381D01*
X113924691Y-76605626D01*
X113937211Y-76601828D01*
X114122808Y-76545527D01*
X114328840Y-76525235D01*
X114534871Y-76545527D01*
X114534871Y-76545527D01*
G37*
G36*
X109215265Y-77894080D02*
G01*
X109215268Y-77894081D01*
X109215269Y-77894081D01*
X109394533Y-77948460D01*
X109394536Y-77948462D01*
X109394537Y-77948462D01*
X109559743Y-78036766D01*
X109704552Y-78155608D01*
X109823394Y-78300417D01*
X109911698Y-78465623D01*
X109911700Y-78465627D01*
X109946083Y-78578973D01*
X109966080Y-78644895D01*
X109984441Y-78831320D01*
X109966080Y-79017745D01*
X109966079Y-79017748D01*
X109966079Y-79017749D01*
X109911700Y-79197013D01*
X109911698Y-79197016D01*
X109911698Y-79197017D01*
X109823394Y-79362223D01*
X109704552Y-79507032D01*
X109559743Y-79625874D01*
X109394537Y-79714178D01*
X109394533Y-79714180D01*
X109215269Y-79768559D01*
X109215268Y-79768559D01*
X109215265Y-79768560D01*
X109075558Y-79782320D01*
X108582122Y-79782320D01*
X108442415Y-79768560D01*
X108442412Y-79768559D01*
X108442411Y-79768559D01*
X108263147Y-79714180D01*
X108263143Y-79714178D01*
X108097937Y-79625874D01*
X107953128Y-79507032D01*
X107834286Y-79362223D01*
X107745982Y-79197017D01*
X107745982Y-79197016D01*
X107745980Y-79197013D01*
X107691601Y-79017749D01*
X107691601Y-79017748D01*
X107691600Y-79017745D01*
X107673239Y-78831320D01*
X107691600Y-78644895D01*
X107711597Y-78578973D01*
X107745980Y-78465627D01*
X107745982Y-78465623D01*
X107834286Y-78300417D01*
X107953128Y-78155608D01*
X108097937Y-78036766D01*
X108263143Y-77948462D01*
X108263144Y-77948462D01*
X108263147Y-77948460D01*
X108442411Y-77894081D01*
X108442412Y-77894081D01*
X108442415Y-77894080D01*
X108582122Y-77880320D01*
X109075558Y-77880320D01*
X109215265Y-77894080D01*
X109215265Y-77894080D01*
G37*
G36*
X117840302Y-76120430D02*
G01*
X117940961Y-76150965D01*
X117991292Y-76166232D01*
X118130444Y-76240611D01*
X118252413Y-76340707D01*
X118352509Y-76462675D01*
X118426888Y-76601827D01*
X118428040Y-76605625D01*
X118472690Y-76752817D01*
X118484280Y-76870495D01*
X118484280Y-78049185D01*
X118472690Y-78166863D01*
X118442155Y-78267522D01*
X118426888Y-78317853D01*
X118352509Y-78457005D01*
X118252413Y-78578973D01*
X118130445Y-78679069D01*
X117991293Y-78753448D01*
X117940962Y-78768715D01*
X117840303Y-78799250D01*
X117683280Y-78814715D01*
X117526258Y-78799250D01*
X117425599Y-78768715D01*
X117375268Y-78753448D01*
X117236116Y-78679069D01*
X117114148Y-78578973D01*
X117014052Y-78457005D01*
X116939673Y-78317853D01*
X116924406Y-78267522D01*
X116893871Y-78166863D01*
X116882281Y-78049185D01*
X116882280Y-76870496D01*
X116893870Y-76752818D01*
X116939672Y-76601829D01*
X116939672Y-76601828D01*
X117014051Y-76462676D01*
X117014052Y-76462675D01*
X117114147Y-76340707D01*
X117236115Y-76240611D01*
X117375267Y-76166232D01*
X117425598Y-76150965D01*
X117526257Y-76120430D01*
X117683280Y-76104965D01*
X117840302Y-76120430D01*
X117840302Y-76120430D01*
G37*
G36*
X120380302Y-76120430D02*
G01*
X120480961Y-76150965D01*
X120531292Y-76166232D01*
X120670444Y-76240611D01*
X120792413Y-76340707D01*
X120892509Y-76462675D01*
X120966888Y-76601827D01*
X120968040Y-76605625D01*
X121012690Y-76752817D01*
X121024280Y-76870495D01*
X121024280Y-78049185D01*
X121012690Y-78166863D01*
X120982155Y-78267522D01*
X120966888Y-78317853D01*
X120892509Y-78457005D01*
X120792413Y-78578973D01*
X120670445Y-78679069D01*
X120531293Y-78753448D01*
X120480962Y-78768715D01*
X120380303Y-78799250D01*
X120223280Y-78814715D01*
X120066258Y-78799250D01*
X119965599Y-78768715D01*
X119915268Y-78753448D01*
X119776116Y-78679069D01*
X119654148Y-78578973D01*
X119554052Y-78457005D01*
X119479673Y-78317853D01*
X119464406Y-78267522D01*
X119433871Y-78166863D01*
X119422281Y-78049185D01*
X119422280Y-76870496D01*
X119433870Y-76752818D01*
X119479672Y-76601829D01*
X119479672Y-76601828D01*
X119554051Y-76462676D01*
X119554052Y-76462675D01*
X119654147Y-76340707D01*
X119776115Y-76240611D01*
X119915267Y-76166232D01*
X119965598Y-76150965D01*
X120066257Y-76120430D01*
X120223280Y-76104965D01*
X120380302Y-76120430D01*
X120380302Y-76120430D01*
G37*
G36*
X125460302Y-76120430D02*
G01*
X125560961Y-76150965D01*
X125611292Y-76166232D01*
X125750444Y-76240611D01*
X125872413Y-76340707D01*
X125972509Y-76462675D01*
X126046888Y-76601827D01*
X126048040Y-76605625D01*
X126092690Y-76752817D01*
X126104280Y-76870495D01*
X126104280Y-78049185D01*
X126092690Y-78166863D01*
X126062155Y-78267522D01*
X126046888Y-78317853D01*
X125972509Y-78457005D01*
X125872413Y-78578973D01*
X125750445Y-78679069D01*
X125611293Y-78753448D01*
X125560962Y-78768715D01*
X125460303Y-78799250D01*
X125303280Y-78814715D01*
X125146258Y-78799250D01*
X125045599Y-78768715D01*
X124995268Y-78753448D01*
X124856116Y-78679069D01*
X124734148Y-78578973D01*
X124634052Y-78457005D01*
X124559673Y-78317853D01*
X124544406Y-78267522D01*
X124513871Y-78166863D01*
X124502281Y-78049185D01*
X124502280Y-76870496D01*
X124513870Y-76752818D01*
X124559672Y-76601829D01*
X124559672Y-76601828D01*
X124634051Y-76462676D01*
X124634052Y-76462675D01*
X124734147Y-76340707D01*
X124856115Y-76240611D01*
X124995267Y-76166232D01*
X125045598Y-76150965D01*
X125146257Y-76120430D01*
X125303280Y-76104965D01*
X125460302Y-76120430D01*
X125460302Y-76120430D01*
G37*
G36*
X128000302Y-76120430D02*
G01*
X128100961Y-76150965D01*
X128151292Y-76166232D01*
X128290444Y-76240611D01*
X128412413Y-76340707D01*
X128512509Y-76462675D01*
X128586888Y-76601827D01*
X128588040Y-76605625D01*
X128632690Y-76752817D01*
X128644280Y-76870495D01*
X128644280Y-78049185D01*
X128632690Y-78166863D01*
X128602155Y-78267522D01*
X128586888Y-78317853D01*
X128512509Y-78457005D01*
X128412413Y-78578973D01*
X128290445Y-78679069D01*
X128151293Y-78753448D01*
X128100962Y-78768715D01*
X128000303Y-78799250D01*
X127843280Y-78814715D01*
X127686258Y-78799250D01*
X127585599Y-78768715D01*
X127535268Y-78753448D01*
X127396116Y-78679069D01*
X127274148Y-78578973D01*
X127174052Y-78457005D01*
X127099673Y-78317853D01*
X127084406Y-78267522D01*
X127053871Y-78166863D01*
X127042281Y-78049185D01*
X127042280Y-76870496D01*
X127053870Y-76752818D01*
X127099672Y-76601829D01*
X127099672Y-76601828D01*
X127174051Y-76462676D01*
X127174052Y-76462675D01*
X127274147Y-76340707D01*
X127396115Y-76240611D01*
X127535267Y-76166232D01*
X127585598Y-76150965D01*
X127686257Y-76120430D01*
X127843280Y-76104965D01*
X128000302Y-76120430D01*
X128000302Y-76120430D01*
G37*
G36*
X109988313Y-71539733D02*
G01*
X110083880Y-71549145D01*
X110329120Y-71623538D01*
X110555134Y-71744345D01*
X110606739Y-71786696D01*
X110753237Y-71906923D01*
X110873464Y-72053421D01*
X110915815Y-72105026D01*
X111036622Y-72331040D01*
X111111015Y-72576280D01*
X111136134Y-72831320D01*
X111111015Y-73086360D01*
X111036622Y-73331600D01*
X110915815Y-73557614D01*
X110873464Y-73609219D01*
X110753237Y-73755717D01*
X110606739Y-73875944D01*
X110555134Y-73918295D01*
X110329120Y-74039102D01*
X110083880Y-74113495D01*
X109988312Y-74122908D01*
X109892746Y-74132320D01*
X107764934Y-74132320D01*
X107669368Y-74122908D01*
X107573800Y-74113495D01*
X107328560Y-74039102D01*
X107102546Y-73918295D01*
X107050941Y-73875944D01*
X106904443Y-73755717D01*
X106784216Y-73609219D01*
X106741865Y-73557614D01*
X106621058Y-73331600D01*
X106546665Y-73086360D01*
X106521546Y-72831320D01*
X106546665Y-72576280D01*
X106621058Y-72331040D01*
X106741865Y-72105026D01*
X106784216Y-72053421D01*
X106904443Y-71906923D01*
X107050941Y-71786696D01*
X107102546Y-71744345D01*
X107328560Y-71623538D01*
X107573800Y-71549145D01*
X107669367Y-71539733D01*
X107764934Y-71530320D01*
X109892746Y-71530320D01*
X109988313Y-71539733D01*
X109988313Y-71539733D01*
G37*
G36*
X122920302Y-71040430D02*
G01*
X123020961Y-71070965D01*
X123071292Y-71086232D01*
X123210444Y-71160611D01*
X123332413Y-71260707D01*
X123432509Y-71382675D01*
X123506888Y-71521827D01*
X123509464Y-71530320D01*
X123552690Y-71672817D01*
X123564280Y-71790495D01*
X123564280Y-72969185D01*
X123552690Y-73086863D01*
X123522155Y-73187522D01*
X123506888Y-73237853D01*
X123432509Y-73377005D01*
X123332413Y-73498973D01*
X123210445Y-73599069D01*
X123071293Y-73673448D01*
X123020962Y-73688715D01*
X122920303Y-73719250D01*
X122763280Y-73734715D01*
X122606258Y-73719250D01*
X122505599Y-73688715D01*
X122455268Y-73673448D01*
X122316116Y-73599069D01*
X122194148Y-73498973D01*
X122094052Y-73377005D01*
X122019673Y-73237853D01*
X122004406Y-73187522D01*
X121973871Y-73086863D01*
X121962281Y-72969185D01*
X121962280Y-71790496D01*
X121973870Y-71672818D01*
X122019672Y-71521829D01*
X122019672Y-71521828D01*
X122094051Y-71382676D01*
X122094052Y-71382675D01*
X122194147Y-71260707D01*
X122316115Y-71160611D01*
X122455267Y-71086232D01*
X122505598Y-71070965D01*
X122606257Y-71040430D01*
X122763280Y-71024965D01*
X122920302Y-71040430D01*
X122920302Y-71040430D01*
G37*
M02*
